solid exported
	facet normal -1 0 0
		outer loop
			vertex 0.361 0.066 0.30402691650390623
			vertex 0.361 0.066 0.30652691650390623
			vertex 0.361 0.083 0.30402691650390623
		endloop
	endfacet
	facet normal -1 0 0
		outer loop
			vertex 0.361 0.083 0.30652691650390623
			vertex 0.361 0.083 0.30402691650390623
			vertex 0.361 0.066 0.30652691650390623
		endloop
	endfacet
	facet normal 0 -1 0
		outer loop
			vertex 0.403 0.066 0.30402691650390623
			vertex 0.403 0.066 0.30652691650390623
			vertex 0.361 0.066 0.30402691650390623
		endloop
	endfacet
	facet normal 0 -1 0
		outer loop
			vertex 0.361 0.066 0.30652691650390623
			vertex 0.361 0.066 0.30402691650390623
			vertex 0.403 0.066 0.30652691650390623
		endloop
	endfacet
	facet normal 1 0 0
		outer loop
			vertex 0.403 0.083 0.30402691650390623
			vertex 0.403 0.083 0.30652691650390623
			vertex 0.403 0.066 0.30402691650390623
		endloop
	endfacet
	facet normal 1 0 0
		outer loop
			vertex 0.403 0.066 0.30652691650390623
			vertex 0.403 0.066 0.30402691650390623
			vertex 0.403 0.083 0.30652691650390623
		endloop
	endfacet
	facet normal 0 1 0
		outer loop
			vertex 0.361 0.083 0.30402691650390623
			vertex 0.361 0.083 0.30652691650390623
			vertex 0.403 0.083 0.30652691650390623
		endloop
	endfacet
	facet normal 0 1 0
		outer loop
			vertex 0.403 0.083 0.30652691650390623
			vertex 0.403 0.083 0.30402691650390623
			vertex 0.361 0.083 0.30402691650390623
		endloop
	endfacet
	facet normal 0 0 -1
		outer loop
			vertex 0.403 0.066 0.30402691650390623
			vertex 0.39707058715820315 0.07384944152832032 0.30402691650390623
			vertex 0.39720001220703127 0.0745 0.30402691650390623
		endloop
	endfacet
	facet normal 0 0 -1
		outer loop
			vertex 0.39707058715820315 0.07384944152832032 0.30402691650390623
			vertex 0.403 0.066 0.30402691650390623
			vertex 0.39670208740234375 0.07329792022705078 0.30402691650390623
		endloop
	endfacet
	facet normal 0 0 -1
		outer loop
			vertex 0.39615057373046875 0.07292940521240235 0.30402691650390623
			vertex 0.39670208740234375 0.07329792022705078 0.30402691650390623
			vertex 0.403 0.066 0.30402691650390623
		endloop
	endfacet
	facet normal 0 0 -1
		outer loop
			vertex 0.3955 0.07280000305175781 0.30402691650390623
			vertex 0.39615057373046875 0.07292940521240235 0.30402691650390623
			vertex 0.403 0.066 0.30402691650390623
		endloop
	endfacet
	facet normal 0 0 -1
		outer loop
			vertex 0.403 0.066 0.30402691650390623
			vertex 0.39484942626953123 0.07292940521240235 0.30402691650390623
			vertex 0.3955 0.07280000305175781 0.30402691650390623
		endloop
	endfacet
	facet normal 0 0 -1
		outer loop
			vertex 0.403 0.083 0.30402691650390623
			vertex 0.39720001220703127 0.0745 0.30402691650390623
			vertex 0.39707058715820315 0.07515055847167969 0.30402691650390623
		endloop
	endfacet
	facet normal 0 0 -1
		outer loop
			vertex 0.39720001220703127 0.0745 0.30402691650390623
			vertex 0.403 0.083 0.30402691650390623
			vertex 0.403 0.066 0.30402691650390623
		endloop
	endfacet
	facet normal 0 0 -1
		outer loop
			vertex 0.39670208740234375 0.07570207977294922 0.30402691650390623
			vertex 0.39615057373046875 0.07607059478759766 0.30402691650390623
			vertex 0.403 0.083 0.30402691650390623
		endloop
	endfacet
	facet normal 0 0 -1
		outer loop
			vertex 0.39707058715820315 0.07515055847167969 0.30402691650390623
			vertex 0.39670208740234375 0.07570207977294922 0.30402691650390623
			vertex 0.403 0.083 0.30402691650390623
		endloop
	endfacet
	facet normal 0 0 -1
		outer loop
			vertex 0.403 0.083 0.30402691650390623
			vertex 0.39615057373046875 0.07607059478759766 0.30402691650390623
			vertex 0.3955 0.07619999694824219 0.30402691650390623
		endloop
	endfacet
	facet normal 0 0 -1
		outer loop
			vertex 0.39429791259765623 0.07329792022705078 0.30402691650390623
			vertex 0.39484942626953123 0.07292940521240235 0.30402691650390623
			vertex 0.361 0.066 0.30402691650390623
		endloop
	endfacet
	facet normal 0 0 -1
		outer loop
			vertex 0.3939294128417969 0.07384944152832032 0.30402691650390623
			vertex 0.361 0.066 0.30402691650390623
			vertex 0.39379998779296876 0.0745 0.30402691650390623
		endloop
	endfacet
	facet normal 0 0 -1
		outer loop
			vertex 0.361 0.066 0.30402691650390623
			vertex 0.3939294128417969 0.07384944152832032 0.30402691650390623
			vertex 0.39429791259765623 0.07329792022705078 0.30402691650390623
		endloop
	endfacet
	facet normal 0 0 -1
		outer loop
			vertex 0.39379998779296876 0.0745 0.30402691650390623
			vertex 0.361 0.066 0.30402691650390623
			vertex 0.361 0.083 0.30402691650390623
		endloop
	endfacet
	facet normal 0 0 -1
		outer loop
			vertex 0.39484942626953123 0.07292940521240235 0.30402691650390623
			vertex 0.403 0.066 0.30402691650390623
			vertex 0.361 0.066 0.30402691650390623
		endloop
	endfacet
	facet normal 0 0 -1
		outer loop
			vertex 0.39484942626953123 0.07607059478759766 0.30402691650390623
			vertex 0.361 0.083 0.30402691650390623
			vertex 0.403 0.083 0.30402691650390623
		endloop
	endfacet
	facet normal 0 0 -1
		outer loop
			vertex 0.39429791259765623 0.07570207977294922 0.30402691650390623
			vertex 0.3939294128417969 0.07515055847167969 0.30402691650390623
			vertex 0.361 0.083 0.30402691650390623
		endloop
	endfacet
	facet normal 0 0 -1
		outer loop
			vertex 0.361 0.083 0.30402691650390623
			vertex 0.3939294128417969 0.07515055847167969 0.30402691650390623
			vertex 0.39379998779296876 0.0745 0.30402691650390623
		endloop
	endfacet
	facet normal 0 0 -1
		outer loop
			vertex 0.39429791259765623 0.07570207977294922 0.30402691650390623
			vertex 0.361 0.083 0.30402691650390623
			vertex 0.39484942626953123 0.07607059478759766 0.30402691650390623
		endloop
	endfacet
	facet normal 0 0 -1
		outer loop
			vertex 0.39484942626953123 0.07607059478759766 0.30402691650390623
			vertex 0.403 0.083 0.30402691650390623
			vertex 0.3955 0.07619999694824219 0.30402691650390623
		endloop
	endfacet
	facet normal 0 0 1
		outer loop
			vertex 0.39720001220703127 0.0745 0.30652691650390623
			vertex 0.39707058715820315 0.07384944152832032 0.30652691650390623
			vertex 0.403 0.066 0.30652691650390623
		endloop
	endfacet
	facet normal 0 0 1
		outer loop
			vertex 0.39670208740234375 0.07329792022705078 0.30652691650390623
			vertex 0.403 0.066 0.30652691650390623
			vertex 0.39707058715820315 0.07384944152832032 0.30652691650390623
		endloop
	endfacet
	facet normal 0 0 1
		outer loop
			vertex 0.403 0.066 0.30652691650390623
			vertex 0.39670208740234375 0.07329792022705078 0.30652691650390623
			vertex 0.39615057373046875 0.07292940521240235 0.30652691650390623
		endloop
	endfacet
	facet normal 0 0 1
		outer loop
			vertex 0.403 0.066 0.30652691650390623
			vertex 0.39615057373046875 0.07292940521240235 0.30652691650390623
			vertex 0.3955 0.07280000305175781 0.30652691650390623
		endloop
	endfacet
	facet normal 0 0 1
		outer loop
			vertex 0.3955 0.07280000305175781 0.30652691650390623
			vertex 0.39484942626953123 0.07292940521240235 0.30652691650390623
			vertex 0.403 0.066 0.30652691650390623
		endloop
	endfacet
	facet normal 0 0 1
		outer loop
			vertex 0.39707058715820315 0.07515055847167969 0.30652691650390623
			vertex 0.39720001220703127 0.0745 0.30652691650390623
			vertex 0.403 0.083 0.30652691650390623
		endloop
	endfacet
	facet normal 0 0 1
		outer loop
			vertex 0.403 0.066 0.30652691650390623
			vertex 0.403 0.083 0.30652691650390623
			vertex 0.39720001220703127 0.0745 0.30652691650390623
		endloop
	endfacet
	facet normal 0 0 1
		outer loop
			vertex 0.403 0.083 0.30652691650390623
			vertex 0.39615057373046875 0.07607059478759766 0.30652691650390623
			vertex 0.39670208740234375 0.07570207977294922 0.30652691650390623
		endloop
	endfacet
	facet normal 0 0 1
		outer loop
			vertex 0.403 0.083 0.30652691650390623
			vertex 0.39670208740234375 0.07570207977294922 0.30652691650390623
			vertex 0.39707058715820315 0.07515055847167969 0.30652691650390623
		endloop
	endfacet
	facet normal 0 0 1
		outer loop
			vertex 0.3955 0.07619999694824219 0.30652691650390623
			vertex 0.39615057373046875 0.07607059478759766 0.30652691650390623
			vertex 0.403 0.083 0.30652691650390623
		endloop
	endfacet
	facet normal 0 0 1
		outer loop
			vertex 0.361 0.066 0.30652691650390623
			vertex 0.39484942626953123 0.07292940521240235 0.30652691650390623
			vertex 0.39429791259765623 0.07329792022705078 0.30652691650390623
		endloop
	endfacet
	facet normal 0 0 1
		outer loop
			vertex 0.39379998779296876 0.0745 0.30652691650390623
			vertex 0.361 0.066 0.30652691650390623
			vertex 0.3939294128417969 0.07384944152832032 0.30652691650390623
		endloop
	endfacet
	facet normal 0 0 1
		outer loop
			vertex 0.39429791259765623 0.07329792022705078 0.30652691650390623
			vertex 0.3939294128417969 0.07384944152832032 0.30652691650390623
			vertex 0.361 0.066 0.30652691650390623
		endloop
	endfacet
	facet normal 0 0 1
		outer loop
			vertex 0.361 0.083 0.30652691650390623
			vertex 0.361 0.066 0.30652691650390623
			vertex 0.39379998779296876 0.0745 0.30652691650390623
		endloop
	endfacet
	facet normal 0 0 1
		outer loop
			vertex 0.361 0.066 0.30652691650390623
			vertex 0.403 0.066 0.30652691650390623
			vertex 0.39484942626953123 0.07292940521240235 0.30652691650390623
		endloop
	endfacet
	facet normal 0 0 1
		outer loop
			vertex 0.403 0.083 0.30652691650390623
			vertex 0.361 0.083 0.30652691650390623
			vertex 0.39484942626953123 0.07607059478759766 0.30652691650390623
		endloop
	endfacet
	facet normal 0 0 1
		outer loop
			vertex 0.361 0.083 0.30652691650390623
			vertex 0.3939294128417969 0.07515055847167969 0.30652691650390623
			vertex 0.39429791259765623 0.07570207977294922 0.30652691650390623
		endloop
	endfacet
	facet normal 0 0 1
		outer loop
			vertex 0.39379998779296876 0.0745 0.30652691650390623
			vertex 0.3939294128417969 0.07515055847167969 0.30652691650390623
			vertex 0.361 0.083 0.30652691650390623
		endloop
	endfacet
	facet normal 0 0 1
		outer loop
			vertex 0.39484942626953123 0.07607059478759766 0.30652691650390623
			vertex 0.361 0.083 0.30652691650390623
			vertex 0.39429791259765623 0.07570207977294922 0.30652691650390623
		endloop
	endfacet
	facet normal 0 0 1
		outer loop
			vertex 0.3955 0.07619999694824219 0.30652691650390623
			vertex 0.403 0.083 0.30652691650390623
			vertex 0.39484942626953123 0.07607059478759766 0.30652691650390623
		endloop
	endfacet
	facet normal 1 0 0
		outer loop
			vertex 0.025 0.083 0.30402691650390623
			vertex 0.025 0.083 0.30652691650390623
			vertex 0.025 0.066 0.30402691650390623
		endloop
	endfacet
	facet normal 1 0 0
		outer loop
			vertex 0.025 0.066 0.30652691650390623
			vertex 0.025 0.066 0.30402691650390623
			vertex 0.025 0.083 0.30652691650390623
		endloop
	endfacet
	facet normal 0 1 0
		outer loop
			vertex -0.017 0.083 0.30402691650390623
			vertex -0.017 0.083 0.30652691650390623
			vertex 0.025 0.083 0.30402691650390623
		endloop
	endfacet
	facet normal 0 1 0
		outer loop
			vertex 0.025 0.083 0.30652691650390623
			vertex 0.025 0.083 0.30402691650390623
			vertex -0.017 0.083 0.30652691650390623
		endloop
	endfacet
	facet normal -1 0 0
		outer loop
			vertex -0.017 0.066 0.30402691650390623
			vertex -0.017 0.066 0.30652691650390623
			vertex -0.017 0.083 0.30402691650390623
		endloop
	endfacet
	facet normal -1 0 0
		outer loop
			vertex -0.017 0.083 0.30652691650390623
			vertex -0.017 0.083 0.30402691650390623
			vertex -0.017 0.066 0.30652691650390623
		endloop
	endfacet
	facet normal 0 -1 0
		outer loop
			vertex 0.025 0.066 0.30402691650390623
			vertex 0.025 0.066 0.30652691650390623
			vertex -0.017 0.066 0.30652691650390623
		endloop
	endfacet
	facet normal 0 -1 0
		outer loop
			vertex -0.017 0.066 0.30652691650390623
			vertex -0.017 0.066 0.30402691650390623
			vertex 0.025 0.066 0.30402691650390623
		endloop
	endfacet
	facet normal 0 0 -1
		outer loop
			vertex -0.017 0.083 0.30402691650390623
			vertex -0.011199999809265136 0.0745 0.30402691650390623
			vertex -0.017 0.066 0.30402691650390623
		endloop
	endfacet
	facet normal 0 0 -1
		outer loop
			vertex -0.011199999809265136 0.0745 0.30402691650390623
			vertex -0.017 0.083 0.30402691650390623
			vertex -0.011070595741271973 0.07515055847167969 0.30402691650390623
		endloop
	endfacet
	facet normal 0 0 -1
		outer loop
			vertex -0.010702081680297851 0.07570207977294922 0.30402691650390623
			vertex -0.011070595741271973 0.07515055847167969 0.30402691650390623
			vertex -0.017 0.083 0.30402691650390623
		endloop
	endfacet
	facet normal 0 0 -1
		outer loop
			vertex -0.010150562286376954 0.07607059478759766 0.30402691650390623
			vertex -0.010702081680297851 0.07570207977294922 0.30402691650390623
			vertex -0.017 0.083 0.30402691650390623
		endloop
	endfacet
	facet normal 0 0 -1
		outer loop
			vertex -0.017 0.083 0.30402691650390623
			vertex -0.0095 0.07619999694824219 0.30402691650390623
			vertex -0.010150562286376954 0.07607059478759766 0.30402691650390623
		endloop
	endfacet
	facet normal 0 0 -1
		outer loop
			vertex -0.017 0.066 0.30402691650390623
			vertex -0.011070595741271973 0.07384944152832032 0.30402691650390623
			vertex -0.010702081680297851 0.07329792022705078 0.30402691650390623
		endloop
	endfacet
	facet normal 0 0 -1
		outer loop
			vertex -0.011070595741271973 0.07384944152832032 0.30402691650390623
			vertex -0.017 0.066 0.30402691650390623
			vertex -0.011199999809265136 0.0745 0.30402691650390623
		endloop
	endfacet
	facet normal 0 0 -1
		outer loop
			vertex -0.010150562286376954 0.07292940521240235 0.30402691650390623
			vertex -0.0095 0.07280000305175781 0.30402691650390623
			vertex -0.017 0.066 0.30402691650390623
		endloop
	endfacet
	facet normal 0 0 -1
		outer loop
			vertex -0.010702081680297851 0.07329792022705078 0.30402691650390623
			vertex -0.010150562286376954 0.07292940521240235 0.30402691650390623
			vertex -0.017 0.066 0.30402691650390623
		endloop
	endfacet
	facet normal 0 0 -1
		outer loop
			vertex -0.017 0.066 0.30402691650390623
			vertex -0.0095 0.07280000305175781 0.30402691650390623
			vertex -0.008849438667297363 0.07292940521240235 0.30402691650390623
		endloop
	endfacet
	facet normal 0 0 -1
		outer loop
			vertex -0.0095 0.07619999694824219 0.30402691650390623
			vertex -0.017 0.083 0.30402691650390623
			vertex -0.008849438667297363 0.07607059478759766 0.30402691650390623
		endloop
	endfacet
	facet normal 0 0 -1
		outer loop
			vertex -0.008297918319702148 0.07570207977294922 0.30402691650390623
			vertex 0.025 0.083 0.30402691650390623
			vertex -0.007929405212402344 0.07515055847167969 0.30402691650390623
		endloop
	endfacet
	facet normal 0 0 -1
		outer loop
			vertex 0.025 0.083 0.30402691650390623
			vertex -0.008297918319702148 0.07570207977294922 0.30402691650390623
			vertex -0.008849438667297363 0.07607059478759766 0.30402691650390623
		endloop
	endfacet
	facet normal 0 0 -1
		outer loop
			vertex -0.007929405212402344 0.07515055847167969 0.30402691650390623
			vertex 0.025 0.083 0.30402691650390623
			vertex -0.007800000190734863 0.0745 0.30402691650390623
		endloop
	endfacet
	facet normal 0 0 -1
		outer loop
			vertex -0.017 0.083 0.30402691650390623
			vertex 0.025 0.083 0.30402691650390623
			vertex -0.008849438667297363 0.07607059478759766 0.30402691650390623
		endloop
	endfacet
	facet normal 0 0 -1
		outer loop
			vertex -0.008849438667297363 0.07292940521240235 0.30402691650390623
			vertex -0.008297918319702148 0.07329792022705078 0.30402691650390623
			vertex 0.025 0.066 0.30402691650390623
		endloop
	endfacet
	facet normal 0 0 -1
		outer loop
			vertex -0.007929405212402344 0.07384944152832032 0.30402691650390623
			vertex -0.007800000190734863 0.0745 0.30402691650390623
			vertex 0.025 0.066 0.30402691650390623
		endloop
	endfacet
	facet normal 0 0 -1
		outer loop
			vertex 0.025 0.066 0.30402691650390623
			vertex -0.007800000190734863 0.0745 0.30402691650390623
			vertex 0.025 0.083 0.30402691650390623
		endloop
	endfacet
	facet normal 0 0 -1
		outer loop
			vertex -0.007929405212402344 0.07384944152832032 0.30402691650390623
			vertex 0.025 0.066 0.30402691650390623
			vertex -0.008297918319702148 0.07329792022705078 0.30402691650390623
		endloop
	endfacet
	facet normal 0 0 -1
		outer loop
			vertex -0.008849438667297363 0.07292940521240235 0.30402691650390623
			vertex 0.025 0.066 0.30402691650390623
			vertex -0.017 0.066 0.30402691650390623
		endloop
	endfacet
	facet normal 0 0 1
		outer loop
			vertex -0.017 0.066 0.30652691650390623
			vertex -0.011199999809265136 0.0745 0.30652691650390623
			vertex -0.017 0.083 0.30652691650390623
		endloop
	endfacet
	facet normal 0 0 1
		outer loop
			vertex -0.011070595741271973 0.07515055847167969 0.30652691650390623
			vertex -0.017 0.083 0.30652691650390623
			vertex -0.011199999809265136 0.0745 0.30652691650390623
		endloop
	endfacet
	facet normal 0 0 1
		outer loop
			vertex -0.017 0.083 0.30652691650390623
			vertex -0.011070595741271973 0.07515055847167969 0.30652691650390623
			vertex -0.010702081680297851 0.07570207977294922 0.30652691650390623
		endloop
	endfacet
	facet normal 0 0 1
		outer loop
			vertex -0.017 0.083 0.30652691650390623
			vertex -0.010702081680297851 0.07570207977294922 0.30652691650390623
			vertex -0.010150562286376954 0.07607059478759766 0.30652691650390623
		endloop
	endfacet
	facet normal 0 0 1
		outer loop
			vertex -0.010150562286376954 0.07607059478759766 0.30652691650390623
			vertex -0.0095 0.07619999694824219 0.30652691650390623
			vertex -0.017 0.083 0.30652691650390623
		endloop
	endfacet
	facet normal 0 0 1
		outer loop
			vertex -0.010702081680297851 0.07329792022705078 0.30652691650390623
			vertex -0.011070595741271973 0.07384944152832032 0.30652691650390623
			vertex -0.017 0.066 0.30652691650390623
		endloop
	endfacet
	facet normal 0 0 1
		outer loop
			vertex -0.011199999809265136 0.0745 0.30652691650390623
			vertex -0.017 0.066 0.30652691650390623
			vertex -0.011070595741271973 0.07384944152832032 0.30652691650390623
		endloop
	endfacet
	facet normal 0 0 1
		outer loop
			vertex -0.017 0.066 0.30652691650390623
			vertex -0.0095 0.07280000305175781 0.30652691650390623
			vertex -0.010150562286376954 0.07292940521240235 0.30652691650390623
		endloop
	endfacet
	facet normal 0 0 1
		outer loop
			vertex -0.017 0.066 0.30652691650390623
			vertex -0.010150562286376954 0.07292940521240235 0.30652691650390623
			vertex -0.010702081680297851 0.07329792022705078 0.30652691650390623
		endloop
	endfacet
	facet normal 0 0 1
		outer loop
			vertex -0.008849438667297363 0.07292940521240235 0.30652691650390623
			vertex -0.0095 0.07280000305175781 0.30652691650390623
			vertex -0.017 0.066 0.30652691650390623
		endloop
	endfacet
	facet normal 0 0 1
		outer loop
			vertex -0.008849438667297363 0.07607059478759766 0.30652691650390623
			vertex -0.017 0.083 0.30652691650390623
			vertex -0.0095 0.07619999694824219 0.30652691650390623
		endloop
	endfacet
	facet normal 0 0 1
		outer loop
			vertex -0.007929405212402344 0.07515055847167969 0.30652691650390623
			vertex 0.025 0.083 0.30652691650390623
			vertex -0.008297918319702148 0.07570207977294922 0.30652691650390623
		endloop
	endfacet
	facet normal 0 0 1
		outer loop
			vertex -0.008849438667297363 0.07607059478759766 0.30652691650390623
			vertex -0.008297918319702148 0.07570207977294922 0.30652691650390623
			vertex 0.025 0.083 0.30652691650390623
		endloop
	endfacet
	facet normal 0 0 1
		outer loop
			vertex -0.007800000190734863 0.0745 0.30652691650390623
			vertex 0.025 0.083 0.30652691650390623
			vertex -0.007929405212402344 0.07515055847167969 0.30652691650390623
		endloop
	endfacet
	facet normal 0 0 1
		outer loop
			vertex -0.008849438667297363 0.07607059478759766 0.30652691650390623
			vertex 0.025 0.083 0.30652691650390623
			vertex -0.017 0.083 0.30652691650390623
		endloop
	endfacet
	facet normal 0 0 1
		outer loop
			vertex 0.025 0.066 0.30652691650390623
			vertex -0.008297918319702148 0.07329792022705078 0.30652691650390623
			vertex -0.008849438667297363 0.07292940521240235 0.30652691650390623
		endloop
	endfacet
	facet normal 0 0 1
		outer loop
			vertex 0.025 0.066 0.30652691650390623
			vertex -0.007800000190734863 0.0745 0.30652691650390623
			vertex -0.007929405212402344 0.07384944152832032 0.30652691650390623
		endloop
	endfacet
	facet normal 0 0 1
		outer loop
			vertex 0.025 0.083 0.30652691650390623
			vertex -0.007800000190734863 0.0745 0.30652691650390623
			vertex 0.025 0.066 0.30652691650390623
		endloop
	endfacet
	facet normal 0 0 1
		outer loop
			vertex -0.008297918319702148 0.07329792022705078 0.30652691650390623
			vertex 0.025 0.066 0.30652691650390623
			vertex -0.007929405212402344 0.07384944152832032 0.30652691650390623
		endloop
	endfacet
	facet normal 0 0 1
		outer loop
			vertex -0.017 0.066 0.30652691650390623
			vertex 0.025 0.066 0.30652691650390623
			vertex -0.008849438667297363 0.07292940521240235 0.30652691650390623
		endloop
	endfacet
endsolid exported
