solid exported
	facet normal 0 0 -1
		outer loop
			vertex 0.405 0.091 0.25002691650390624
			vertex 0.41000000000000003 0.093 0.25002691650390624
			vertex 0.427 0.093 0.25002691650390624
		endloop
	endfacet
	facet normal 0 0 -1
		outer loop
			vertex 0.41000000000000003 0.093 0.25002691650390624
			vertex 0.405 0.091 0.25002691650390624
			vertex 0.405 0.093 0.25002691650390624
		endloop
	endfacet
	facet normal 0 0 -1
		outer loop
			vertex 0.41000000000000003 0.106 0.25002691650390624
			vertex 0.427 0.106 0.25002691650390624
			vertex 0.41000000000000003 0.093 0.25002691650390624
		endloop
	endfacet
	facet normal 0 0 -1
		outer loop
			vertex 0.427 0.106 0.25002691650390624
			vertex 0.427 0.093 0.25002691650390624
			vertex 0.41000000000000003 0.093 0.25002691650390624
		endloop
	endfacet
	facet normal 0 0 -1
		outer loop
			vertex 0.432 0.093 0.25002691650390624
			vertex 0.432 0.091 0.25002691650390624
			vertex 0.427 0.093 0.25002691650390624
		endloop
	endfacet
	facet normal 0 0 -1
		outer loop
			vertex 0.427 0.093 0.25002691650390624
			vertex 0.432 0.091 0.25002691650390624
			vertex 0.405 0.091 0.25002691650390624
		endloop
	endfacet
	facet normal 0 1 0
		outer loop
			vertex 0.405 0.093 0.25002691650390624
			vertex 0.405 0.093 0.26202691650390625
			vertex 0.41000000000000003 0.093 0.25002691650390624
		endloop
	endfacet
	facet normal 0 1 0
		outer loop
			vertex 0.41000000000000003 0.093 0.26202691650390625
			vertex 0.41000000000000003 0.093 0.25002691650390624
			vertex 0.405 0.093 0.26202691650390625
		endloop
	endfacet
	facet normal 0 1 0
		outer loop
			vertex 0.427 0.093 0.25002691650390624
			vertex 0.427 0.093 0.26202691650390625
			vertex 0.432 0.093 0.25002691650390624
		endloop
	endfacet
	facet normal 0 1 0
		outer loop
			vertex 0.432 0.093 0.26202691650390625
			vertex 0.432 0.093 0.25002691650390624
			vertex 0.427 0.093 0.26202691650390625
		endloop
	endfacet
	facet normal -1 0 0
		outer loop
			vertex 0.405 0.091 0.25002691650390624
			vertex 0.405 0.091 0.26202691650390625
			vertex 0.405 0.093 0.26202691650390625
		endloop
	endfacet
	facet normal -1 0 0
		outer loop
			vertex 0.405 0.093 0.26202691650390625
			vertex 0.405 0.093 0.25002691650390624
			vertex 0.405 0.091 0.25002691650390624
		endloop
	endfacet
	facet normal 1 0 0
		outer loop
			vertex 0.432 0.093 0.25002691650390624
			vertex 0.432 0.093 0.26202691650390625
			vertex 0.432 0.091 0.25002691650390624
		endloop
	endfacet
	facet normal 1 0 0
		outer loop
			vertex 0.432 0.091 0.26202691650390625
			vertex 0.432 0.091 0.25002691650390624
			vertex 0.432 0.093 0.26202691650390625
		endloop
	endfacet
	facet normal 0 1 0
		outer loop
			vertex 0.41000000000000003 0.106 0.25002691650390624
			vertex 0.41000000000000003 0.106 0.25802691650390625
			vertex 0.427 0.106 0.25802691650390625
		endloop
	endfacet
	facet normal 0 1 0
		outer loop
			vertex 0.427 0.106 0.25802691650390625
			vertex 0.427 0.106 0.25002691650390624
			vertex 0.41000000000000003 0.106 0.25002691650390624
		endloop
	endfacet
	facet normal 1 0 0
		outer loop
			vertex 0.427 0.106 0.25002691650390624
			vertex 0.427 0.106 0.25802691650390625
			vertex 0.427 0.093 0.25002691650390624
		endloop
	endfacet
	facet normal 1 0 0
		outer loop
			vertex 0.427 0.093 0.26202691650390625
			vertex 0.427 0.093 0.25002691650390624
			vertex 0.427 0.106 0.25802691650390625
		endloop
	endfacet
	facet normal 1 0 0
		outer loop
			vertex 0.427 0.093 0.26202691650390625
			vertex 0.427 0.106 0.25802691650390625
			vertex 0.427 0.106 0.26202691650390625
		endloop
	endfacet
	facet normal -1 0 0
		outer loop
			vertex 0.41000000000000003 0.093 0.25002691650390624
			vertex 0.41000000000000003 0.093 0.26202691650390625
			vertex 0.41000000000000003 0.106 0.25802691650390625
		endloop
	endfacet
	facet normal -1 0 0
		outer loop
			vertex 0.41000000000000003 0.106 0.25802691650390625
			vertex 0.41000000000000003 0.106 0.25002691650390624
			vertex 0.41000000000000003 0.093 0.25002691650390624
		endloop
	endfacet
	facet normal -1 0 0
		outer loop
			vertex 0.41000000000000003 0.106 0.25802691650390625
			vertex 0.41000000000000003 0.093 0.26202691650390625
			vertex 0.41000000000000003 0.106 0.26202691650390625
		endloop
	endfacet
endsolid exported
