solid exported
	facet normal 0 0 1
		outer loop
			vertex 0.41000000000000003 0.08600000000000001 0.26302691650390625
			vertex 0.427 0.081 0.26302691650390625
			vertex 0.427 0.08600000000000001 0.26302691650390625
		endloop
	endfacet
	facet normal 0 0 1
		outer loop
			vertex 0.427 0.08600000000000001 0.26302691650390625
			vertex 0.427 0.081 0.26302691650390625
			vertex 0.432 0.081 0.26302691650390625
		endloop
	endfacet
	facet normal 0 0 1
		outer loop
			vertex 0.432 0.081 0.26302691650390625
			vertex 0.432 0.08600000000000001 0.26302691650390625
			vertex 0.427 0.08600000000000001 0.26302691650390625
		endloop
	endfacet
	facet normal 0 0 1
		outer loop
			vertex 0.41000000000000003 0.08700000000000001 0.26302691650390625
			vertex 0.427 0.08600000000000001 0.26302691650390625
			vertex 0.427 0.08700000000000001 0.26302691650390625
		endloop
	endfacet
	facet normal 0 0 1
		outer loop
			vertex 0.41000000000000003 0.056 0.26302691650390625
			vertex 0.427 0.056 0.26302691650390625
			vertex 0.427 0.081 0.26302691650390625
		endloop
	endfacet
	facet normal 0 0 1
		outer loop
			vertex 0.405 0.08600000000000001 0.26302691650390625
			vertex 0.405 0.081 0.26302691650390625
			vertex 0.41000000000000003 0.081 0.26302691650390625
		endloop
	endfacet
	facet normal 0 0 1
		outer loop
			vertex 0.41000000000000003 0.081 0.26302691650390625
			vertex 0.427 0.081 0.26302691650390625
			vertex 0.41000000000000003 0.08600000000000001 0.26302691650390625
		endloop
	endfacet
	facet normal 0 0 1
		outer loop
			vertex 0.41000000000000003 0.08600000000000001 0.26302691650390625
			vertex 0.427 0.08600000000000001 0.26302691650390625
			vertex 0.41000000000000003 0.08700000000000001 0.26302691650390625
		endloop
	endfacet
	facet normal 0 0 1
		outer loop
			vertex 0.41000000000000003 0.081 0.26302691650390625
			vertex 0.41000000000000003 0.08600000000000001 0.26302691650390625
			vertex 0.405 0.08600000000000001 0.26302691650390625
		endloop
	endfacet
	facet normal 0 0 1
		outer loop
			vertex 0.41000000000000003 0.056 0.26302691650390625
			vertex 0.427 0.081 0.26302691650390625
			vertex 0.41000000000000003 0.081 0.26302691650390625
		endloop
	endfacet
	facet normal 0 1 0
		outer loop
			vertex 0.427 0.08700000000000001 0.25002691650390624
			vertex 0.41000000000000003 0.08700000000000001 0.25002691650390624
			vertex 0.41000000000000003 0.08700000000000001 0.25102691650390624
		endloop
	endfacet
	facet normal 0 1 0
		outer loop
			vertex 0.41000000000000003 0.08700000000000001 0.25102691650390624
			vertex 0.427 0.08700000000000001 0.25102691650390624
			vertex 0.427 0.08700000000000001 0.25002691650390624
		endloop
	endfacet
	facet normal -1 0 0
		outer loop
			vertex 0.41000000000000003 0.056 0.26302691650390625
			vertex 0.41000000000000003 0.081 0.26302691650390625
			vertex 0.41000000000000003 0.081 0.25002691650390624
		endloop
	endfacet
	facet normal -1 0 0
		outer loop
			vertex 0.41000000000000003 0.081 0.25002691650390624
			vertex 0.41000000000000003 0.056 0.25002691650390624
			vertex 0.41000000000000003 0.056 0.26302691650390625
		endloop
	endfacet
	facet normal 1 0 0
		outer loop
			vertex 0.427 0.056 0.25002691650390624
			vertex 0.427 0.081 0.25002691650390624
			vertex 0.427 0.081 0.26302691650390625
		endloop
	endfacet
	facet normal 1 0 0
		outer loop
			vertex 0.427 0.081 0.26302691650390625
			vertex 0.427 0.056 0.26302691650390625
			vertex 0.427 0.056 0.25002691650390624
		endloop
	endfacet
	facet normal 0 -1 0
		outer loop
			vertex 0.41000000000000003 0.056 0.25002691650390624
			vertex 0.427 0.056 0.25002691650390624
			vertex 0.427 0.056 0.26302691650390625
		endloop
	endfacet
	facet normal 0 -1 0
		outer loop
			vertex 0.427 0.056 0.26302691650390625
			vertex 0.41000000000000003 0.056 0.26302691650390625
			vertex 0.41000000000000003 0.056 0.25002691650390624
		endloop
	endfacet
	facet normal 0 -1 0
		outer loop
			vertex 0.427 0.081 0.25002691650390624
			vertex 0.432 0.081 0.25002691650390624
			vertex 0.432 0.081 0.26302691650390625
		endloop
	endfacet
	facet normal 0 -1 0
		outer loop
			vertex 0.432 0.081 0.26302691650390625
			vertex 0.427 0.081 0.26302691650390625
			vertex 0.427 0.081 0.25002691650390624
		endloop
	endfacet
	facet normal 0 1 0
		outer loop
			vertex 0.41000000000000003 0.08600000000000001 0.26302691650390625
			vertex 0.41000000000000003 0.08600000000000001 0.25002691650390624
			vertex 0.405 0.08600000000000001 0.25002691650390624
		endloop
	endfacet
	facet normal 0 1 0
		outer loop
			vertex 0.405 0.08600000000000001 0.25002691650390624
			vertex 0.405 0.08600000000000001 0.26302691650390625
			vertex 0.41000000000000003 0.08600000000000001 0.26302691650390625
		endloop
	endfacet
	facet normal 0 1 0
		outer loop
			vertex 0.432 0.08600000000000001 0.26302691650390625
			vertex 0.432 0.08600000000000001 0.25002691650390624
			vertex 0.427 0.08600000000000001 0.25002691650390624
		endloop
	endfacet
	facet normal 0 1 0
		outer loop
			vertex 0.427 0.08600000000000001 0.25002691650390624
			vertex 0.427 0.08600000000000001 0.26302691650390625
			vertex 0.432 0.08600000000000001 0.26302691650390625
		endloop
	endfacet
	facet normal -1 0 0
		outer loop
			vertex 0.405 0.081 0.26302691650390625
			vertex 0.405 0.08600000000000001 0.26302691650390625
			vertex 0.405 0.081 0.25002691650390624
		endloop
	endfacet
	facet normal -1 0 0
		outer loop
			vertex 0.405 0.08600000000000001 0.25002691650390624
			vertex 0.405 0.081 0.25002691650390624
			vertex 0.405 0.08600000000000001 0.26302691650390625
		endloop
	endfacet
	facet normal 1 0 0
		outer loop
			vertex 0.432 0.081 0.25002691650390624
			vertex 0.432 0.08600000000000001 0.25002691650390624
			vertex 0.432 0.081 0.26302691650390625
		endloop
	endfacet
	facet normal 1 0 0
		outer loop
			vertex 0.432 0.08600000000000001 0.26302691650390625
			vertex 0.432 0.081 0.26302691650390625
			vertex 0.432 0.08600000000000001 0.25002691650390624
		endloop
	endfacet
	facet normal 0 -1 0
		outer loop
			vertex 0.405 0.081 0.25002691650390624
			vertex 0.41000000000000003 0.081 0.25002691650390624
			vertex 0.41000000000000003 0.081 0.26302691650390625
		endloop
	endfacet
	facet normal 0 -1 0
		outer loop
			vertex 0.41000000000000003 0.081 0.26302691650390625
			vertex 0.405 0.081 0.26302691650390625
			vertex 0.405 0.081 0.25002691650390624
		endloop
	endfacet
	facet normal 0 0 -1
		outer loop
			vertex 0.41000000000000003 0.08600000000000001 0.25002691650390624
			vertex 0.41000000000000003 0.08700000000000001 0.25002691650390624
			vertex 0.427 0.08700000000000001 0.25002691650390624
		endloop
	endfacet
	facet normal 0 0 -1
		outer loop
			vertex 0.405 0.08600000000000001 0.25002691650390624
			vertex 0.41000000000000003 0.08600000000000001 0.25002691650390624
			vertex 0.41000000000000003 0.081 0.25002691650390624
		endloop
	endfacet
	facet normal 0 0 -1
		outer loop
			vertex 0.41000000000000003 0.081 0.25002691650390624
			vertex 0.405 0.081 0.25002691650390624
			vertex 0.405 0.08600000000000001 0.25002691650390624
		endloop
	endfacet
	facet normal 0 0 -1
		outer loop
			vertex 0.427 0.056 0.25002691650390624
			vertex 0.41000000000000003 0.056 0.25002691650390624
			vertex 0.41000000000000003 0.081 0.25002691650390624
		endloop
	endfacet
	facet normal 0 0 -1
		outer loop
			vertex 0.41000000000000003 0.081 0.25002691650390624
			vertex 0.41000000000000003 0.08600000000000001 0.25002691650390624
			vertex 0.427 0.081 0.25002691650390624
		endloop
	endfacet
	facet normal 0 0 -1
		outer loop
			vertex 0.427 0.08600000000000001 0.25002691650390624
			vertex 0.432 0.08600000000000001 0.25002691650390624
			vertex 0.432 0.081 0.25002691650390624
		endloop
	endfacet
	facet normal 0 0 -1
		outer loop
			vertex 0.427 0.08600000000000001 0.25002691650390624
			vertex 0.427 0.081 0.25002691650390624
			vertex 0.41000000000000003 0.08600000000000001 0.25002691650390624
		endloop
	endfacet
	facet normal 0 0 -1
		outer loop
			vertex 0.427 0.056 0.25002691650390624
			vertex 0.41000000000000003 0.081 0.25002691650390624
			vertex 0.427 0.081 0.25002691650390624
		endloop
	endfacet
	facet normal 0 0 -1
		outer loop
			vertex 0.432 0.081 0.25002691650390624
			vertex 0.427 0.081 0.25002691650390624
			vertex 0.427 0.08600000000000001 0.25002691650390624
		endloop
	endfacet
	facet normal 0 0 -1
		outer loop
			vertex 0.41000000000000003 0.08600000000000001 0.25002691650390624
			vertex 0.427 0.08700000000000001 0.25002691650390624
			vertex 0.427 0.08600000000000001 0.25002691650390624
		endloop
	endfacet
endsolid exported
