solid exported
	facet normal 0 0 1
		outer loop
			vertex 0.427 0.08700000000000001 0.26202691650390625
			vertex 0.41000000000000003 0.091 0.26202691650390625
			vertex 0.41000000000000003 0.08700000000000001 0.26202691650390625
		endloop
	endfacet
	facet normal 0 0 1
		outer loop
			vertex 0.41000000000000003 0.091 0.26202691650390625
			vertex 0.427 0.08700000000000001 0.26202691650390625
			vertex 0.427 0.091 0.26202691650390625
		endloop
	endfacet
	facet normal 1 0 0
		outer loop
			vertex 0.427 0.08600000000000001 0.25002691650390624
			vertex 0.427 0.08700000000000001 0.25102691650390624
			vertex 0.427 0.08700000000000001 0.26202691650390625
		endloop
	endfacet
	facet normal 1 0 0
		outer loop
			vertex 0.427 0.08700000000000001 0.25102691650390624
			vertex 0.427 0.08600000000000001 0.25002691650390624
			vertex 0.427 0.08700000000000001 0.25002691650390624
		endloop
	endfacet
	facet normal 1 0 0
		outer loop
			vertex 0.427 0.091 0.25102691650390624
			vertex 0.427 0.08700000000000001 0.26202691650390625
			vertex 0.427 0.08700000000000001 0.25102691650390624
		endloop
	endfacet
	facet normal 1 0 0
		outer loop
			vertex 0.427 0.091 0.26202691650390625
			vertex 0.427 0.08700000000000001 0.26202691650390625
			vertex 0.427 0.091 0.25102691650390624
		endloop
	endfacet
	facet normal 1 0 0
		outer loop
			vertex 0.427 0.08700000000000001 0.26302691650390625
			vertex 0.427 0.08600000000000001 0.26302691650390625
			vertex 0.427 0.08700000000000001 0.26202691650390625
		endloop
	endfacet
	facet normal 1 0 0
		outer loop
			vertex 0.427 0.08700000000000001 0.26202691650390625
			vertex 0.427 0.08600000000000001 0.26302691650390625
			vertex 0.427 0.08600000000000001 0.25002691650390624
		endloop
	endfacet
	facet normal 0 0 -1
		outer loop
			vertex 0.41000000000000003 0.08700000000000001 0.25102691650390624
			vertex 0.427 0.091 0.25102691650390624
			vertex 0.427 0.08700000000000001 0.25102691650390624
		endloop
	endfacet
	facet normal 0 0 -1
		outer loop
			vertex 0.427 0.091 0.25102691650390624
			vertex 0.41000000000000003 0.08700000000000001 0.25102691650390624
			vertex 0.41000000000000003 0.091 0.25102691650390624
		endloop
	endfacet
	facet normal -1 0 0
		outer loop
			vertex 0.41000000000000003 0.08600000000000001 0.26302691650390625
			vertex 0.41000000000000003 0.08700000000000001 0.26202691650390625
			vertex 0.41000000000000003 0.08600000000000001 0.25002691650390624
		endloop
	endfacet
	facet normal -1 0 0
		outer loop
			vertex 0.41000000000000003 0.08700000000000001 0.26202691650390625
			vertex 0.41000000000000003 0.08600000000000001 0.26302691650390625
			vertex 0.41000000000000003 0.08700000000000001 0.26302691650390625
		endloop
	endfacet
	facet normal -1 0 0
		outer loop
			vertex 0.41000000000000003 0.091 0.26202691650390625
			vertex 0.41000000000000003 0.08700000000000001 0.25102691650390624
			vertex 0.41000000000000003 0.08700000000000001 0.26202691650390625
		endloop
	endfacet
	facet normal -1 0 0
		outer loop
			vertex 0.41000000000000003 0.091 0.25102691650390624
			vertex 0.41000000000000003 0.08700000000000001 0.25102691650390624
			vertex 0.41000000000000003 0.091 0.26202691650390625
		endloop
	endfacet
	facet normal -1 0 0
		outer loop
			vertex 0.41000000000000003 0.08700000000000001 0.25002691650390624
			vertex 0.41000000000000003 0.08600000000000001 0.25002691650390624
			vertex 0.41000000000000003 0.08700000000000001 0.25102691650390624
		endloop
	endfacet
	facet normal -1 0 0
		outer loop
			vertex 0.41000000000000003 0.08700000000000001 0.25102691650390624
			vertex 0.41000000000000003 0.08600000000000001 0.25002691650390624
			vertex 0.41000000000000003 0.08700000000000001 0.26202691650390625
		endloop
	endfacet
	facet normal 1 0 0
		outer loop
			vertex 0.434 0.11847487640380859 0.27855203247070315
			vertex 0.434 0.11982683563232423 0.2717881164550781
			vertex 0.434 0.1230710678100586 0.27395584106445314
		endloop
	endfacet
	facet normal 1 0 0
		outer loop
			vertex 0.434 0.11982683563232423 0.2717881164550781
			vertex 0.434 0.11733939361572265 0.2777933349609375
			vertex 0.434 0.116 0.27752691650390626
		endloop
	endfacet
	facet normal 1 0 0
		outer loop
			vertex 0.434 0.11847487640380859 0.27855203247070315
			vertex 0.434 0.11733939361572265 0.2777933349609375
			vertex 0.434 0.11982683563232423 0.2717881164550781
		endloop
	endfacet
	facet normal 1 0 0
		outer loop
			vertex 0.434 0.1230710678100586 0.27395584106445314
			vertex 0.434 0.1252387924194336 0.2772000732421875
			vertex 0.434 0.11847487640380859 0.27855203247070315
		endloop
	endfacet
	facet normal 1 0 0
		outer loop
			vertex 0.434 0.11950000000000001 0.28102691650390627
			vertex 0.434 0.11923358154296876 0.2796875305175781
			vertex 0.434 0.1252387924194336 0.2772000732421875
		endloop
	endfacet
	facet normal 1 0 0
		outer loop
			vertex 0.434 0.11950000000000001 0.28102691650390627
			vertex 0.434 0.126 0.28102691650390627
			vertex 0.434 0.11923358154296876 0.28236630249023437
		endloop
	endfacet
	facet normal 1 0 0
		outer loop
			vertex 0.434 0.11847487640380859 0.27855203247070315
			vertex 0.434 0.1252387924194336 0.2772000732421875
			vertex 0.434 0.11923358154296876 0.2796875305175781
		endloop
	endfacet
	facet normal 1 0 0
		outer loop
			vertex 0.434 0.1252387924194336 0.2772000732421875
			vertex 0.434 0.126 0.28102691650390627
			vertex 0.434 0.11950000000000001 0.28102691650390627
		endloop
	endfacet
	facet normal 1 0 0
		outer loop
			vertex 0.434 0.1089289321899414 0.27395584106445314
			vertex 0.434 0.11217316436767578 0.2717881164550781
			vertex 0.434 0.11466060638427734 0.2777933349609375
		endloop
	endfacet
	facet normal 1 0 0
		outer loop
			vertex 0.434 0.11352512359619141 0.27855203247070315
			vertex 0.434 0.10676120758056641 0.2772000732421875
			vertex 0.434 0.1089289321899414 0.27395584106445314
		endloop
	endfacet
	facet normal 1 0 0
		outer loop
			vertex 0.434 0.116 0.27752691650390626
			vertex 0.434 0.11217316436767578 0.2717881164550781
			vertex 0.434 0.116 0.27102691650390626
		endloop
	endfacet
	facet normal 1 0 0
		outer loop
			vertex 0.434 0.116 0.27752691650390626
			vertex 0.434 0.11466060638427734 0.2777933349609375
			vertex 0.434 0.11217316436767578 0.2717881164550781
		endloop
	endfacet
	facet normal 1 0 0
		outer loop
			vertex 0.434 0.11352512359619141 0.27855203247070315
			vertex 0.434 0.11276641845703125 0.2796875305175781
			vertex 0.434 0.10676120758056641 0.2772000732421875
		endloop
	endfacet
	facet normal 1 0 0
		outer loop
			vertex 0.434 0.11466060638427734 0.2777933349609375
			vertex 0.434 0.11352512359619141 0.27855203247070315
			vertex 0.434 0.1089289321899414 0.27395584106445314
		endloop
	endfacet
	facet normal 1 0 0
		outer loop
			vertex 0.434 0.116 0.27102691650390626
			vertex 0.434 0.11982683563232423 0.2717881164550781
			vertex 0.434 0.116 0.27752691650390626
		endloop
	endfacet
	facet normal 1 0 0
		outer loop
			vertex 0.434 0.10676120758056641 0.2772000732421875
			vertex 0.434 0.11276641845703125 0.2796875305175781
			vertex 0.434 0.106 0.28102691650390627
		endloop
	endfacet
	facet normal 1 0 0
		outer loop
			vertex 0.434 0.11847487640380859 0.2835018005371094
			vertex 0.434 0.11923358154296876 0.28236630249023437
			vertex 0.434 0.1252387924194336 0.284853759765625
		endloop
	endfacet
	facet normal 1 0 0
		outer loop
			vertex 0.434 0.116 0.28452691650390627
			vertex 0.434 0.11733939361572265 0.28426049804687503
			vertex 0.434 0.116 0.2910269165039063
		endloop
	endfacet
	facet normal 1 0 0
		outer loop
			vertex 0.434 0.11847487640380859 0.2835018005371094
			vertex 0.434 0.11982683563232423 0.29026571655273437
			vertex 0.434 0.11733939361572265 0.28426049804687503
		endloop
	endfacet
	facet normal 1 0 0
		outer loop
			vertex 0.434 0.1230710678100586 0.2880979919433594
			vertex 0.434 0.11982683563232423 0.29026571655273437
			vertex 0.434 0.11847487640380859 0.2835018005371094
		endloop
	endfacet
	facet normal 1 0 0
		outer loop
			vertex 0.434 0.116 0.2910269165039063
			vertex 0.434 0.11733939361572265 0.28426049804687503
			vertex 0.434 0.11982683563232423 0.29026571655273437
		endloop
	endfacet
	facet normal 1 0 0
		outer loop
			vertex 0.434 0.11847487640380859 0.2835018005371094
			vertex 0.434 0.1252387924194336 0.284853759765625
			vertex 0.434 0.1230710678100586 0.2880979919433594
		endloop
	endfacet
	facet normal 1 0 0
		outer loop
			vertex 0.434 0.11923358154296876 0.28236630249023437
			vertex 0.434 0.126 0.28102691650390627
			vertex 0.434 0.1252387924194336 0.284853759765625
		endloop
	endfacet
	facet normal 1 0 0
		outer loop
			vertex 0.434 0.116 0.28452691650390627
			vertex 0.434 0.116 0.2910269165039063
			vertex 0.434 0.11217316436767578 0.29026571655273437
		endloop
	endfacet
	facet normal 1 0 0
		outer loop
			vertex 0.434 0.10676120758056641 0.284853759765625
			vertex 0.434 0.1125 0.28102691650390627
			vertex 0.434 0.11276641845703125 0.28236630249023437
		endloop
	endfacet
	facet normal 1 0 0
		outer loop
			vertex 0.434 0.1125 0.28102691650390627
			vertex 0.434 0.106 0.28102691650390627
			vertex 0.434 0.11276641845703125 0.2796875305175781
		endloop
	endfacet
	facet normal 1 0 0
		outer loop
			vertex 0.434 0.10676120758056641 0.284853759765625
			vertex 0.434 0.106 0.28102691650390627
			vertex 0.434 0.1125 0.28102691650390627
		endloop
	endfacet
	facet normal 1 0 0
		outer loop
			vertex 0.434 0.11276641845703125 0.28236630249023437
			vertex 0.434 0.11352512359619141 0.2835018005371094
			vertex 0.434 0.10676120758056641 0.284853759765625
		endloop
	endfacet
	facet normal 1 0 0
		outer loop
			vertex 0.434 0.11217316436767578 0.29026571655273437
			vertex 0.434 0.1089289321899414 0.2880979919433594
			vertex 0.434 0.11352512359619141 0.2835018005371094
		endloop
	endfacet
	facet normal 1 0 0
		outer loop
			vertex 0.434 0.11217316436767578 0.29026571655273437
			vertex 0.434 0.11466060638427734 0.28426049804687503
			vertex 0.434 0.116 0.28452691650390627
		endloop
	endfacet
	facet normal 1 0 0
		outer loop
			vertex 0.434 0.10676120758056641 0.284853759765625
			vertex 0.434 0.11352512359619141 0.2835018005371094
			vertex 0.434 0.1089289321899414 0.2880979919433594
		endloop
	endfacet
	facet normal 1 0 0
		outer loop
			vertex 0.434 0.11352512359619141 0.2835018005371094
			vertex 0.434 0.11466060638427734 0.28426049804687503
			vertex 0.434 0.11217316436767578 0.29026571655273437
		endloop
	endfacet
	facet normal -1 0 0
		outer loop
			vertex 0.433 0.1230710678100586 0.27395584106445314
			vertex 0.433 0.11982683563232423 0.2717881164550781
			vertex 0.433 0.11847487640380859 0.27855203247070315
		endloop
	endfacet
	facet normal -1 0 0
		outer loop
			vertex 0.433 0.116 0.27752691650390626
			vertex 0.433 0.11733939361572265 0.2777933349609375
			vertex 0.433 0.11982683563232423 0.2717881164550781
		endloop
	endfacet
	facet normal -1 0 0
		outer loop
			vertex 0.433 0.11982683563232423 0.2717881164550781
			vertex 0.433 0.11733939361572265 0.2777933349609375
			vertex 0.433 0.11847487640380859 0.27855203247070315
		endloop
	endfacet
	facet normal -1 0 0
		outer loop
			vertex 0.433 0.11847487640380859 0.27855203247070315
			vertex 0.433 0.1252387924194336 0.2772000732421875
			vertex 0.433 0.1230710678100586 0.27395584106445314
		endloop
	endfacet
	facet normal -1 0 0
		outer loop
			vertex 0.433 0.11923358154296876 0.2796875305175781
			vertex 0.433 0.11950000000000001 0.28102691650390627
			vertex 0.433 0.126 0.28102691650390627
		endloop
	endfacet
	facet normal -1 0 0
		outer loop
			vertex 0.433 0.1252387924194336 0.284853759765625
			vertex 0.433 0.126 0.28102691650390627
			vertex 0.433 0.11950000000000001 0.28102691650390627
		endloop
	endfacet
	facet normal -1 0 0
		outer loop
			vertex 0.433 0.11923358154296876 0.2796875305175781
			vertex 0.433 0.1252387924194336 0.2772000732421875
			vertex 0.433 0.11847487640380859 0.27855203247070315
		endloop
	endfacet
	facet normal -1 0 0
		outer loop
			vertex 0.433 0.126 0.28102691650390627
			vertex 0.433 0.1252387924194336 0.2772000732421875
			vertex 0.433 0.11923358154296876 0.2796875305175781
		endloop
	endfacet
	facet normal -1 0 0
		outer loop
			vertex 0.433 0.11466060638427734 0.2777933349609375
			vertex 0.433 0.11217316436767578 0.2717881164550781
			vertex 0.433 0.1089289321899414 0.27395584106445314
		endloop
	endfacet
	facet normal -1 0 0
		outer loop
			vertex 0.433 0.1089289321899414 0.27395584106445314
			vertex 0.433 0.10676120758056641 0.2772000732421875
			vertex 0.433 0.11352512359619141 0.27855203247070315
		endloop
	endfacet
	facet normal -1 0 0
		outer loop
			vertex 0.433 0.116 0.27102691650390626
			vertex 0.433 0.11217316436767578 0.2717881164550781
			vertex 0.433 0.116 0.27752691650390626
		endloop
	endfacet
	facet normal -1 0 0
		outer loop
			vertex 0.433 0.11217316436767578 0.2717881164550781
			vertex 0.433 0.11466060638427734 0.2777933349609375
			vertex 0.433 0.116 0.27752691650390626
		endloop
	endfacet
	facet normal -1 0 0
		outer loop
			vertex 0.433 0.10676120758056641 0.2772000732421875
			vertex 0.433 0.11276641845703125 0.2796875305175781
			vertex 0.433 0.11352512359619141 0.27855203247070315
		endloop
	endfacet
	facet normal -1 0 0
		outer loop
			vertex 0.433 0.1089289321899414 0.27395584106445314
			vertex 0.433 0.11352512359619141 0.27855203247070315
			vertex 0.433 0.11466060638427734 0.2777933349609375
		endloop
	endfacet
	facet normal -1 0 0
		outer loop
			vertex 0.433 0.116 0.27752691650390626
			vertex 0.433 0.11982683563232423 0.2717881164550781
			vertex 0.433 0.116 0.27102691650390626
		endloop
	endfacet
	facet normal -1 0 0
		outer loop
			vertex 0.433 0.106 0.28102691650390627
			vertex 0.433 0.11276641845703125 0.2796875305175781
			vertex 0.433 0.10676120758056641 0.2772000732421875
		endloop
	endfacet
	facet normal -1 0 0
		outer loop
			vertex 0.433 0.1252387924194336 0.284853759765625
			vertex 0.433 0.11923358154296876 0.28236630249023437
			vertex 0.433 0.11847487640380859 0.2835018005371094
		endloop
	endfacet
	facet normal -1 0 0
		outer loop
			vertex 0.433 0.116 0.2910269165039063
			vertex 0.433 0.11733939361572265 0.28426049804687503
			vertex 0.433 0.116 0.28452691650390627
		endloop
	endfacet
	facet normal -1 0 0
		outer loop
			vertex 0.433 0.11733939361572265 0.28426049804687503
			vertex 0.433 0.11982683563232423 0.29026571655273437
			vertex 0.433 0.11847487640380859 0.2835018005371094
		endloop
	endfacet
	facet normal -1 0 0
		outer loop
			vertex 0.433 0.11847487640380859 0.2835018005371094
			vertex 0.433 0.11982683563232423 0.29026571655273437
			vertex 0.433 0.1230710678100586 0.2880979919433594
		endloop
	endfacet
	facet normal -1 0 0
		outer loop
			vertex 0.433 0.11982683563232423 0.29026571655273437
			vertex 0.433 0.11733939361572265 0.28426049804687503
			vertex 0.433 0.116 0.2910269165039063
		endloop
	endfacet
	facet normal -1 0 0
		outer loop
			vertex 0.433 0.1230710678100586 0.2880979919433594
			vertex 0.433 0.1252387924194336 0.284853759765625
			vertex 0.433 0.11847487640380859 0.2835018005371094
		endloop
	endfacet
	facet normal -1 0 0
		outer loop
			vertex 0.433 0.1252387924194336 0.284853759765625
			vertex 0.433 0.11950000000000001 0.28102691650390627
			vertex 0.433 0.11923358154296876 0.28236630249023437
		endloop
	endfacet
	facet normal -1 0 0
		outer loop
			vertex 0.433 0.11217316436767578 0.29026571655273437
			vertex 0.433 0.116 0.2910269165039063
			vertex 0.433 0.116 0.28452691650390627
		endloop
	endfacet
	facet normal -1 0 0
		outer loop
			vertex 0.433 0.11276641845703125 0.28236630249023437
			vertex 0.433 0.1125 0.28102691650390627
			vertex 0.433 0.10676120758056641 0.284853759765625
		endloop
	endfacet
	facet normal -1 0 0
		outer loop
			vertex 0.433 0.1125 0.28102691650390627
			vertex 0.433 0.106 0.28102691650390627
			vertex 0.433 0.10676120758056641 0.284853759765625
		endloop
	endfacet
	facet normal -1 0 0
		outer loop
			vertex 0.433 0.11276641845703125 0.2796875305175781
			vertex 0.433 0.106 0.28102691650390627
			vertex 0.433 0.1125 0.28102691650390627
		endloop
	endfacet
	facet normal -1 0 0
		outer loop
			vertex 0.433 0.1089289321899414 0.2880979919433594
			vertex 0.433 0.11352512359619141 0.2835018005371094
			vertex 0.433 0.11276641845703125 0.28236630249023437
		endloop
	endfacet
	facet normal -1 0 0
		outer loop
			vertex 0.433 0.11352512359619141 0.2835018005371094
			vertex 0.433 0.1089289321899414 0.2880979919433594
			vertex 0.433 0.11217316436767578 0.29026571655273437
		endloop
	endfacet
	facet normal -1 0 0
		outer loop
			vertex 0.433 0.116 0.28452691650390627
			vertex 0.433 0.11466060638427734 0.28426049804687503
			vertex 0.433 0.11217316436767578 0.29026571655273437
		endloop
	endfacet
	facet normal -1 0 0
		outer loop
			vertex 0.433 0.1089289321899414 0.2880979919433594
			vertex 0.433 0.11276641845703125 0.28236630249023437
			vertex 0.433 0.10676120758056641 0.284853759765625
		endloop
	endfacet
	facet normal -1 0 0
		outer loop
			vertex 0.433 0.11217316436767578 0.29026571655273437
			vertex 0.433 0.11466060638427734 0.28426049804687503
			vertex 0.433 0.11352512359619141 0.2835018005371094
		endloop
	endfacet
	facet normal 0 0.8314698524282214 -0.5555698736459633
		outer loop
			vertex 0.434 0.1230710678100586 0.27395584106445314
			vertex 0.433 0.1230710678100586 0.27395584106445314
			vertex 0.433 0.1252387924194336 0.2772000732421875
		endloop
	endfacet
	facet normal 0 0.19508909326898882 -0.9807855248154329
		outer loop
			vertex 0.433 0.116 0.27102691650390626
			vertex 0.433 0.11982683563232423 0.2717881164550781
			vertex 0.434 0.11982683563232423 0.2717881164550781
		endloop
	endfacet
	facet normal 0 0.8314698524282214 0.5555698736459633
		outer loop
			vertex 0.433 0.1230710678100586 0.2880979919433594
			vertex 0.434 0.1252387924194336 0.284853759765625
			vertex 0.433 0.1252387924194336 0.284853759765625
		endloop
	endfacet
	facet normal 0 0.9807852250974771 0.19509060005672058
		outer loop
			vertex 0.433 0.1252387924194336 0.284853759765625
			vertex 0.434 0.1252387924194336 0.284853759765625
			vertex 0.433 0.126 0.28102691650390627
		endloop
	endfacet
	facet normal 0 0.5555698736459633 0.8314698524282214
		outer loop
			vertex 0.433 0.11982683563232423 0.29026571655273437
			vertex 0.434 0.11982683563232423 0.29026571655273437
			vertex 0.433 0.1230710678100586 0.2880979919433594
		endloop
	endfacet
	facet normal 0 0.5555698736459633 -0.8314698524282214
		outer loop
			vertex 0.433 0.1230710678100586 0.27395584106445314
			vertex 0.434 0.1230710678100586 0.27395584106445314
			vertex 0.433 0.11982683563232423 0.2717881164550781
		endloop
	endfacet
	facet normal 0 0.19508909326898882 0.9807855248154329
		outer loop
			vertex 0.434 0.11982683563232423 0.29026571655273437
			vertex 0.433 0.11982683563232423 0.29026571655273437
			vertex 0.433 0.116 0.2910269165039063
		endloop
	endfacet
	facet normal 0 -0.9807852250974771 0.19509060005672058
		outer loop
			vertex 0.433 0.10676120758056641 0.284853759765625
			vertex 0.433 0.106 0.28102691650390627
			vertex 0.434 0.10676120758056641 0.284853759765625
		endloop
	endfacet
	facet normal 0 -0.9807852250974771 -0.19509060005672058
		outer loop
			vertex 0.433 0.10676120758056641 0.2772000732421875
			vertex 0.434 0.106 0.28102691650390627
			vertex 0.433 0.106 0.28102691650390627
		endloop
	endfacet
	facet normal 0 -0.5555698736459633 0.8314698524282214
		outer loop
			vertex 0.433 0.11217316436767578 0.29026571655273437
			vertex 0.433 0.1089289321899414 0.2880979919433594
			vertex 0.434 0.11217316436767578 0.29026571655273437
		endloop
	endfacet
	facet normal 0 -0.5555698736459633 -0.8314698524282214
		outer loop
			vertex 0.433 0.11217316436767578 0.2717881164550781
			vertex 0.434 0.1089289321899414 0.27395584106445314
			vertex 0.433 0.1089289321899414 0.27395584106445314
		endloop
	endfacet
	facet normal 0 -0.8314698524282214 -0.5555698736459633
		outer loop
			vertex 0.433 0.1089289321899414 0.27395584106445314
			vertex 0.434 0.1089289321899414 0.27395584106445314
			vertex 0.433 0.10676120758056641 0.2772000732421875
		endloop
	endfacet
	facet normal 0 -0.8314698524282214 0.5555698736459633
		outer loop
			vertex 0.434 0.10676120758056641 0.284853759765625
			vertex 0.433 0.1089289321899414 0.2880979919433594
			vertex 0.433 0.10676120758056641 0.284853759765625
		endloop
	endfacet
	facet normal 0 -0.19508909326898882 0.9807855248154329
		outer loop
			vertex 0.434 0.116 0.2910269165039063
			vertex 0.433 0.116 0.2910269165039063
			vertex 0.433 0.11217316436767578 0.29026571655273437
		endloop
	endfacet
	facet normal 0 0.9807852250974771 -0.19509060005672058
		outer loop
			vertex 0.433 0.126 0.28102691650390627
			vertex 0.434 0.126 0.28102691650390627
			vertex 0.433 0.1252387924194336 0.2772000732421875
		endloop
	endfacet
	facet normal 0 0.9807852250974771 0.19509060005672058
		outer loop
			vertex 0.434 0.1252387924194336 0.284853759765625
			vertex 0.434 0.126 0.28102691650390627
			vertex 0.433 0.126 0.28102691650390627
		endloop
	endfacet
	facet normal 0 0.5555698736459633 -0.8314698524282214
		outer loop
			vertex 0.433 0.11982683563232423 0.2717881164550781
			vertex 0.434 0.1230710678100586 0.27395584106445314
			vertex 0.434 0.11982683563232423 0.2717881164550781
		endloop
	endfacet
	facet normal 0 0.5555698736459633 0.8314698524282214
		outer loop
			vertex 0.434 0.11982683563232423 0.29026571655273437
			vertex 0.434 0.1230710678100586 0.2880979919433594
			vertex 0.433 0.1230710678100586 0.2880979919433594
		endloop
	endfacet
	facet normal 0 0.8314698524282214 0.5555698736459633
		outer loop
			vertex 0.434 0.1230710678100586 0.2880979919433594
			vertex 0.434 0.1252387924194336 0.284853759765625
			vertex 0.433 0.1230710678100586 0.2880979919433594
		endloop
	endfacet
	facet normal 0 0.19508909326898882 0.9807855248154329
		outer loop
			vertex 0.434 0.11982683563232423 0.29026571655273437
			vertex 0.433 0.116 0.2910269165039063
			vertex 0.434 0.116 0.2910269165039063
		endloop
	endfacet
	facet normal 0 0.9807852250974771 -0.19509060005672058
		outer loop
			vertex 0.434 0.1252387924194336 0.2772000732421875
			vertex 0.433 0.1252387924194336 0.2772000732421875
			vertex 0.434 0.126 0.28102691650390627
		endloop
	endfacet
	facet normal 0 0.19508909326898882 -0.9807855248154329
		outer loop
			vertex 0.434 0.116 0.27102691650390626
			vertex 0.433 0.116 0.27102691650390626
			vertex 0.434 0.11982683563232423 0.2717881164550781
		endloop
	endfacet
	facet normal 0 -0.19508909326898882 0.9807855248154329
		outer loop
			vertex 0.434 0.11217316436767578 0.29026571655273437
			vertex 0.434 0.116 0.2910269165039063
			vertex 0.433 0.11217316436767578 0.29026571655273437
		endloop
	endfacet
	facet normal 0 -0.8314698524282214 -0.5555698736459633
		outer loop
			vertex 0.434 0.1089289321899414 0.27395584106445314
			vertex 0.434 0.10676120758056641 0.2772000732421875
			vertex 0.433 0.10676120758056641 0.2772000732421875
		endloop
	endfacet
	facet normal 0 -0.9807852250974771 -0.19509060005672058
		outer loop
			vertex 0.434 0.10676120758056641 0.2772000732421875
			vertex 0.434 0.106 0.28102691650390627
			vertex 0.433 0.10676120758056641 0.2772000732421875
		endloop
	endfacet
	facet normal 0 -0.5555698736459633 0.8314698524282214
		outer loop
			vertex 0.433 0.1089289321899414 0.2880979919433594
			vertex 0.434 0.1089289321899414 0.2880979919433594
			vertex 0.434 0.11217316436767578 0.29026571655273437
		endloop
	endfacet
	facet normal 0 -0.9807852250974771 0.19509060005672058
		outer loop
			vertex 0.434 0.10676120758056641 0.284853759765625
			vertex 0.433 0.106 0.28102691650390627
			vertex 0.434 0.106 0.28102691650390627
		endloop
	endfacet
	facet normal 0 -0.8314698524282214 0.5555698736459633
		outer loop
			vertex 0.434 0.1089289321899414 0.2880979919433594
			vertex 0.433 0.1089289321899414 0.2880979919433594
			vertex 0.434 0.10676120758056641 0.284853759765625
		endloop
	endfacet
	facet normal 0 -0.5555698736459633 -0.8314698524282214
		outer loop
			vertex 0.433 0.11217316436767578 0.2717881164550781
			vertex 0.434 0.11217316436767578 0.2717881164550781
			vertex 0.434 0.1089289321899414 0.27395584106445314
		endloop
	endfacet
	facet normal 0 0.8314698524282214 -0.5555698736459633
		outer loop
			vertex 0.434 0.1230710678100586 0.27395584106445314
			vertex 0.433 0.1252387924194336 0.2772000732421875
			vertex 0.434 0.1252387924194336 0.2772000732421875
		endloop
	endfacet
	facet normal 0 -0.19508909326898882 -0.9807855248154329
		outer loop
			vertex 0.434 0.116 0.27102691650390626
			vertex 0.433 0.11217316436767578 0.2717881164550781
			vertex 0.433 0.116 0.27102691650390626
		endloop
	endfacet
	facet normal 0 -0.19508909326898882 -0.9807855248154329
		outer loop
			vertex 0.434 0.116 0.27102691650390626
			vertex 0.434 0.11217316436767578 0.2717881164550781
			vertex 0.433 0.11217316436767578 0.2717881164550781
		endloop
	endfacet
	facet normal 0 0.5555662676242972 0.8314722618813016
		outer loop
			vertex 0.433 0.11733939361572265 0.28426049804687503
			vertex 0.433 0.11847487640380859 0.2835018005371094
			vertex 0.40800000000000003 0.11733939361572265 0.28426049804687503
		endloop
	endfacet
	facet normal 0 0.8314731298779336 0.5555649685599273
		outer loop
			vertex 0.433 0.11847487640380859 0.2835018005371094
			vertex 0.433 0.11923358154296876 0.28236630249023437
			vertex 0.40800000000000003 0.11847487640380859 0.2835018005371094
		endloop
	endfacet
	facet normal 0 0.9807855578739445 -0.1950889270714652
		outer loop
			vertex 0.433 0.11923358154296876 0.2796875305175781
			vertex 0.40800000000000003 0.11950000000000001 0.28102691650390627
			vertex 0.433 0.11950000000000001 0.28102691650390627
		endloop
	endfacet
	facet normal 0 0.8314731298779336 -0.5555649685599273
		outer loop
			vertex 0.433 0.11923358154296876 0.2796875305175781
			vertex 0.433 0.11847487640380859 0.27855203247070315
			vertex 0.40800000000000003 0.11923358154296876 0.2796875305175781
		endloop
	endfacet
	facet normal 0 0.5555662676242972 -0.8314722618813016
		outer loop
			vertex 0.40800000000000003 0.11847487640380859 0.27855203247070315
			vertex 0.433 0.11847487640380859 0.27855203247070315
			vertex 0.433 0.11733939361572265 0.2777933349609375
		endloop
	endfacet
	facet normal 0 0.19508785810831297 0.9807857705017498
		outer loop
			vertex 0.40800000000000003 0.116 0.28452691650390627
			vertex 0.433 0.116 0.28452691650390627
			vertex 0.433 0.11733939361572265 0.28426049804687503
		endloop
	endfacet
	facet normal 0 0.19508785810831297 -0.9807857705017498
		outer loop
			vertex 0.40800000000000003 0.11733939361572265 0.2777933349609375
			vertex 0.433 0.11733939361572265 0.2777933349609375
			vertex 0.433 0.116 0.27752691650390626
		endloop
	endfacet
	facet normal 0 -0.9807855578739445 0.1950889270714652
		outer loop
			vertex 0.40800000000000003 0.11276641845703125 0.28236630249023437
			vertex 0.433 0.1125 0.28102691650390627
			vertex 0.433 0.11276641845703125 0.28236630249023437
		endloop
	endfacet
	facet normal 0 -0.9807855578739445 -0.1950889270714652
		outer loop
			vertex 0.433 0.11276641845703125 0.2796875305175781
			vertex 0.433 0.1125 0.28102691650390627
			vertex 0.40800000000000003 0.1125 0.28102691650390627
		endloop
	endfacet
	facet normal 0 -0.8314731298779336 -0.5555649685599273
		outer loop
			vertex 0.433 0.11276641845703125 0.2796875305175781
			vertex 0.40800000000000003 0.11276641845703125 0.2796875305175781
			vertex 0.433 0.11352512359619141 0.27855203247070315
		endloop
	endfacet
	facet normal 0 -0.8314731298779336 0.5555649685599273
		outer loop
			vertex 0.433 0.11276641845703125 0.28236630249023437
			vertex 0.433 0.11352512359619141 0.2835018005371094
			vertex 0.40800000000000003 0.11352512359619141 0.2835018005371094
		endloop
	endfacet
	facet normal 0 -0.5555662676242972 0.8314722618813016
		outer loop
			vertex 0.433 0.11352512359619141 0.2835018005371094
			vertex 0.433 0.11466060638427734 0.28426049804687503
			vertex 0.40800000000000003 0.11466060638427734 0.28426049804687503
		endloop
	endfacet
	facet normal 0 -0.19508785810831297 -0.9807857705017498
		outer loop
			vertex 0.433 0.11466060638427734 0.2777933349609375
			vertex 0.40800000000000003 0.11466060638427734 0.2777933349609375
			vertex 0.433 0.116 0.27752691650390626
		endloop
	endfacet
	facet normal 0 -0.5555662676242972 -0.8314722618813016
		outer loop
			vertex 0.433 0.11352512359619141 0.27855203247070315
			vertex 0.40800000000000003 0.11352512359619141 0.27855203247070315
			vertex 0.433 0.11466060638427734 0.2777933349609375
		endloop
	endfacet
	facet normal 0 0.9807855578739445 0.1950889270714652
		outer loop
			vertex 0.433 0.11950000000000001 0.28102691650390627
			vertex 0.40800000000000003 0.11923358154296876 0.28236630249023437
			vertex 0.433 0.11923358154296876 0.28236630249023437
		endloop
	endfacet
	facet normal 0 0.5555662676242972 0.8314722618813016
		outer loop
			vertex 0.40800000000000003 0.11733939361572265 0.28426049804687503
			vertex 0.433 0.11847487640380859 0.2835018005371094
			vertex 0.40800000000000003 0.11847487640380859 0.2835018005371094
		endloop
	endfacet
	facet normal 0 0.5555662676242972 -0.8314722618813016
		outer loop
			vertex 0.40800000000000003 0.11733939361572265 0.2777933349609375
			vertex 0.40800000000000003 0.11847487640380859 0.27855203247070315
			vertex 0.433 0.11733939361572265 0.2777933349609375
		endloop
	endfacet
	facet normal 0 0.8314731298779336 -0.5555649685599273
		outer loop
			vertex 0.40800000000000003 0.11847487640380859 0.27855203247070315
			vertex 0.40800000000000003 0.11923358154296876 0.2796875305175781
			vertex 0.433 0.11847487640380859 0.27855203247070315
		endloop
	endfacet
	facet normal 0 0.8314731298779336 0.5555649685599273
		outer loop
			vertex 0.40800000000000003 0.11923358154296876 0.28236630249023437
			vertex 0.40800000000000003 0.11847487640380859 0.2835018005371094
			vertex 0.433 0.11923358154296876 0.28236630249023437
		endloop
	endfacet
	facet normal 0 0.19508785810831297 -0.9807857705017498
		outer loop
			vertex 0.40800000000000003 0.116 0.27752691650390626
			vertex 0.40800000000000003 0.11733939361572265 0.2777933349609375
			vertex 0.433 0.116 0.27752691650390626
		endloop
	endfacet
	facet normal 0 0.9807855578739445 0.1950889270714652
		outer loop
			vertex 0.433 0.11950000000000001 0.28102691650390627
			vertex 0.40800000000000003 0.11950000000000001 0.28102691650390627
			vertex 0.40800000000000003 0.11923358154296876 0.28236630249023437
		endloop
	endfacet
	facet normal 0 0.9807855578739445 -0.1950889270714652
		outer loop
			vertex 0.40800000000000003 0.11950000000000001 0.28102691650390627
			vertex 0.433 0.11923358154296876 0.2796875305175781
			vertex 0.40800000000000003 0.11923358154296876 0.2796875305175781
		endloop
	endfacet
	facet normal 0 -0.8314731298779336 -0.5555649685599273
		outer loop
			vertex 0.40800000000000003 0.11352512359619141 0.27855203247070315
			vertex 0.433 0.11352512359619141 0.27855203247070315
			vertex 0.40800000000000003 0.11276641845703125 0.2796875305175781
		endloop
	endfacet
	facet normal 0 -0.9807855578739445 0.1950889270714652
		outer loop
			vertex 0.433 0.1125 0.28102691650390627
			vertex 0.40800000000000003 0.11276641845703125 0.28236630249023437
			vertex 0.40800000000000003 0.1125 0.28102691650390627
		endloop
	endfacet
	facet normal 0 -0.5555662676242972 -0.8314722618813016
		outer loop
			vertex 0.433 0.11466060638427734 0.2777933349609375
			vertex 0.40800000000000003 0.11352512359619141 0.27855203247070315
			vertex 0.40800000000000003 0.11466060638427734 0.2777933349609375
		endloop
	endfacet
	facet normal 0 -0.5555662676242972 0.8314722618813016
		outer loop
			vertex 0.433 0.11352512359619141 0.2835018005371094
			vertex 0.40800000000000003 0.11466060638427734 0.28426049804687503
			vertex 0.40800000000000003 0.11352512359619141 0.2835018005371094
		endloop
	endfacet
	facet normal 0 -0.8314731298779336 0.5555649685599273
		outer loop
			vertex 0.40800000000000003 0.11276641845703125 0.28236630249023437
			vertex 0.433 0.11276641845703125 0.28236630249023437
			vertex 0.40800000000000003 0.11352512359619141 0.2835018005371094
		endloop
	endfacet
	facet normal 0 -0.19508785810831297 -0.9807857705017498
		outer loop
			vertex 0.433 0.116 0.27752691650390626
			vertex 0.40800000000000003 0.11466060638427734 0.2777933349609375
			vertex 0.40800000000000003 0.116 0.27752691650390626
		endloop
	endfacet
	facet normal 0 -0.9807855578739445 -0.1950889270714652
		outer loop
			vertex 0.40800000000000003 0.1125 0.28102691650390627
			vertex 0.40800000000000003 0.11276641845703125 0.2796875305175781
			vertex 0.433 0.11276641845703125 0.2796875305175781
		endloop
	endfacet
	facet normal 0 0.19508785810831297 0.9807857705017498
		outer loop
			vertex 0.40800000000000003 0.11733939361572265 0.28426049804687503
			vertex 0.40800000000000003 0.116 0.28452691650390627
			vertex 0.433 0.11733939361572265 0.28426049804687503
		endloop
	endfacet
	facet normal 0 -0.19508785810831297 0.9807857705017498
		outer loop
			vertex 0.40800000000000003 0.116 0.28452691650390627
			vertex 0.433 0.11466060638427734 0.28426049804687503
			vertex 0.433 0.116 0.28452691650390627
		endloop
	endfacet
	facet normal 0 -0.19508785810831297 0.9807857705017498
		outer loop
			vertex 0.40800000000000003 0.116 0.28452691650390627
			vertex 0.40800000000000003 0.11466060638427734 0.28426049804687503
			vertex 0.433 0.11466060638427734 0.28426049804687503
		endloop
	endfacet
	facet normal 0 0.8314722665422706 0.5555662606485924
		outer loop
			vertex 0.40800000000000003 0.11776776885986329 0.282794677734375
			vertex 0.40800000000000003 0.11830970001220703 0.2819836120605469
			vertex 0.403 0.11776776885986329 0.282794677734375
		endloop
	endfacet
	facet normal 0 0.19509624281767496 -0.9807841026639996
		outer loop
			vertex 0.403 0.11695671081542969 0.27871722412109373
			vertex 0.40800000000000003 0.11695671081542969 0.27871722412109373
			vertex 0.40800000000000003 0.116 0.27852691650390626
		endloop
	endfacet
	facet normal 0 0.5555698736459633 0.8314698524282215
		outer loop
			vertex 0.40800000000000003 0.11776776885986329 0.282794677734375
			vertex 0.403 0.11695671081542969 0.28333660888671874
			vertex 0.40800000000000003 0.11695671081542969 0.28333660888671874
		endloop
	endfacet
	facet normal 0 0.9807850038641907 -0.19509171226661542
		outer loop
			vertex 0.40800000000000003 0.11850000000000001 0.28102691650390627
			vertex 0.40800000000000003 0.11830970001220703 0.28007022094726564
			vertex 0.403 0.11830970001220703 0.28007022094726564
		endloop
	endfacet
	facet normal 0 0.8314722665422706 -0.5555662606485924
		outer loop
			vertex 0.40800000000000003 0.11776776885986329 0.27925915527343753
			vertex 0.403 0.11776776885986329 0.27925915527343753
			vertex 0.40800000000000003 0.11830970001220703 0.28007022094726564
		endloop
	endfacet
	facet normal 0 0.9807850038641907 0.19509171226661542
		outer loop
			vertex 0.40800000000000003 0.11850000000000001 0.28102691650390627
			vertex 0.403 0.11830970001220703 0.2819836120605469
			vertex 0.40800000000000003 0.11830970001220703 0.2819836120605469
		endloop
	endfacet
	facet normal 0 0.5555698736459633 -0.8314698524282215
		outer loop
			vertex 0.40800000000000003 0.11776776885986329 0.27925915527343753
			vertex 0.40800000000000003 0.11695671081542969 0.27871722412109373
			vertex 0.403 0.11695671081542969 0.27871722412109373
		endloop
	endfacet
	facet normal 0 -0.19509624281767496 -0.9807841026639996
		outer loop
			vertex 0.403 0.11504328918457031 0.27871722412109373
			vertex 0.40800000000000003 0.116 0.27852691650390626
			vertex 0.40800000000000003 0.11504328918457031 0.27871722412109373
		endloop
	endfacet
	facet normal 0 -0.8314722665422706 0.5555662606485924
		outer loop
			vertex 0.40800000000000003 0.11369029998779297 0.2819836120605469
			vertex 0.40800000000000003 0.11423223114013673 0.282794677734375
			vertex 0.403 0.11369029998779297 0.2819836120605469
		endloop
	endfacet
	facet normal 0 -0.9807850038641907 -0.19509171226661542
		outer loop
			vertex 0.40800000000000003 0.11369029998779297 0.28007022094726564
			vertex 0.40800000000000003 0.1135 0.28102691650390627
			vertex 0.403 0.1135 0.28102691650390627
		endloop
	endfacet
	facet normal 0 -0.5555698736459633 0.8314698524282215
		outer loop
			vertex 0.403 0.11423223114013673 0.282794677734375
			vertex 0.40800000000000003 0.11423223114013673 0.282794677734375
			vertex 0.40800000000000003 0.11504328918457031 0.28333660888671874
		endloop
	endfacet
	facet normal 0 -0.8314722665422706 -0.5555662606485924
		outer loop
			vertex 0.40800000000000003 0.11423223114013673 0.27925915527343753
			vertex 0.40800000000000003 0.11369029998779297 0.28007022094726564
			vertex 0.403 0.11369029998779297 0.28007022094726564
		endloop
	endfacet
	facet normal 0 -0.9807850038641907 0.19509171226661542
		outer loop
			vertex 0.40800000000000003 0.11369029998779297 0.2819836120605469
			vertex 0.403 0.1135 0.28102691650390627
			vertex 0.40800000000000003 0.1135 0.28102691650390627
		endloop
	endfacet
	facet normal 0 -0.5555698736459633 -0.8314698524282215
		outer loop
			vertex 0.40800000000000003 0.11423223114013673 0.27925915527343753
			vertex 0.403 0.11423223114013673 0.27925915527343753
			vertex 0.40800000000000003 0.11504328918457031 0.27871722412109373
		endloop
	endfacet
	facet normal 0 0.19509624281767496 0.9807841026639996
		outer loop
			vertex 0.403 0.11695671081542969 0.28333660888671874
			vertex 0.40800000000000003 0.116 0.28352691650390627
			vertex 0.40800000000000003 0.11695671081542969 0.28333660888671874
		endloop
	endfacet
	facet normal 0 0.9807850038641907 0.19509171226661542
		outer loop
			vertex 0.403 0.11830970001220703 0.2819836120605469
			vertex 0.40800000000000003 0.11850000000000001 0.28102691650390627
			vertex 0.403 0.11850000000000001 0.28102691650390627
		endloop
	endfacet
	facet normal 0 0.5555698736459633 -0.8314698524282215
		outer loop
			vertex 0.40800000000000003 0.11776776885986329 0.27925915527343753
			vertex 0.403 0.11695671081542969 0.27871722412109373
			vertex 0.403 0.11776776885986329 0.27925915527343753
		endloop
	endfacet
	facet normal 0 0.9807850038641907 -0.19509171226661542
		outer loop
			vertex 0.40800000000000003 0.11850000000000001 0.28102691650390627
			vertex 0.403 0.11830970001220703 0.28007022094726564
			vertex 0.403 0.11850000000000001 0.28102691650390627
		endloop
	endfacet
	facet normal 0 0.8314722665422706 0.5555662606485924
		outer loop
			vertex 0.403 0.11776776885986329 0.282794677734375
			vertex 0.40800000000000003 0.11830970001220703 0.2819836120605469
			vertex 0.403 0.11830970001220703 0.2819836120605469
		endloop
	endfacet
	facet normal 0 0.19509624281767496 0.9807841026639996
		outer loop
			vertex 0.40800000000000003 0.116 0.28352691650390627
			vertex 0.403 0.11695671081542969 0.28333660888671874
			vertex 0.403 0.116 0.28352691650390627
		endloop
	endfacet
	facet normal 0 0.8314722665422706 -0.5555662606485924
		outer loop
			vertex 0.403 0.11830970001220703 0.28007022094726564
			vertex 0.40800000000000003 0.11830970001220703 0.28007022094726564
			vertex 0.403 0.11776776885986329 0.27925915527343753
		endloop
	endfacet
	facet normal 0 0.5555698736459633 0.8314698524282215
		outer loop
			vertex 0.403 0.11695671081542969 0.28333660888671874
			vertex 0.40800000000000003 0.11776776885986329 0.282794677734375
			vertex 0.403 0.11776776885986329 0.282794677734375
		endloop
	endfacet
	facet normal 0 -0.5555698736459633 -0.8314698524282215
		outer loop
			vertex 0.40800000000000003 0.11504328918457031 0.27871722412109373
			vertex 0.403 0.11423223114013673 0.27925915527343753
			vertex 0.403 0.11504328918457031 0.27871722412109373
		endloop
	endfacet
	facet normal 0 -0.9807850038641907 0.19509171226661542
		outer loop
			vertex 0.403 0.11369029998779297 0.2819836120605469
			vertex 0.403 0.1135 0.28102691650390627
			vertex 0.40800000000000003 0.11369029998779297 0.2819836120605469
		endloop
	endfacet
	facet normal 0 -0.9807850038641907 -0.19509171226661542
		outer loop
			vertex 0.40800000000000003 0.11369029998779297 0.28007022094726564
			vertex 0.403 0.1135 0.28102691650390627
			vertex 0.403 0.11369029998779297 0.28007022094726564
		endloop
	endfacet
	facet normal 0 -0.19509624281767496 -0.9807841026639996
		outer loop
			vertex 0.40800000000000003 0.116 0.27852691650390626
			vertex 0.403 0.11504328918457031 0.27871722412109373
			vertex 0.403 0.116 0.27852691650390626
		endloop
	endfacet
	facet normal 0 -0.8314722665422706 -0.5555662606485924
		outer loop
			vertex 0.403 0.11423223114013673 0.27925915527343753
			vertex 0.40800000000000003 0.11423223114013673 0.27925915527343753
			vertex 0.403 0.11369029998779297 0.28007022094726564
		endloop
	endfacet
	facet normal 0 -0.5555698736459633 0.8314698524282215
		outer loop
			vertex 0.40800000000000003 0.11504328918457031 0.28333660888671874
			vertex 0.403 0.11504328918457031 0.28333660888671874
			vertex 0.403 0.11423223114013673 0.282794677734375
		endloop
	endfacet
	facet normal 0 -0.8314722665422706 0.5555662606485924
		outer loop
			vertex 0.40800000000000003 0.11423223114013673 0.282794677734375
			vertex 0.403 0.11423223114013673 0.282794677734375
			vertex 0.403 0.11369029998779297 0.2819836120605469
		endloop
	endfacet
	facet normal 0 0.19509624281767496 -0.9807841026639996
		outer loop
			vertex 0.403 0.11695671081542969 0.27871722412109373
			vertex 0.40800000000000003 0.116 0.27852691650390626
			vertex 0.403 0.116 0.27852691650390626
		endloop
	endfacet
	facet normal 0 -0.19509624281767496 0.9807841026639996
		outer loop
			vertex 0.403 0.116 0.28352691650390627
			vertex 0.40800000000000003 0.11504328918457031 0.28333660888671874
			vertex 0.40800000000000003 0.116 0.28352691650390627
		endloop
	endfacet
	facet normal 0 -0.19509624281767496 0.9807841026639996
		outer loop
			vertex 0.403 0.116 0.28352691650390627
			vertex 0.403 0.11504328918457031 0.28333660888671874
			vertex 0.40800000000000003 0.11504328918457031 0.28333660888671874
		endloop
	endfacet
	facet normal 0 0.8314731298779336 -0.5555649685599273
		outer loop
			vertex 0.453 0.11923358154296876 0.2796875305175781
			vertex 0.453 0.11847487640380859 0.27855203247070315
			vertex 0.434 0.11847487640380859 0.27855203247070315
		endloop
	endfacet
	facet normal 0 0.19508785810831297 -0.9807857705017498
		outer loop
			vertex 0.434 0.11733939361572265 0.2777933349609375
			vertex 0.453 0.11733939361572265 0.2777933349609375
			vertex 0.453 0.116 0.27752691650390626
		endloop
	endfacet
	facet normal 0 0.8314731298779336 0.5555649685599273
		outer loop
			vertex 0.434 0.11923358154296876 0.28236630249023437
			vertex 0.453 0.11847487640380859 0.2835018005371094
			vertex 0.453 0.11923358154296876 0.28236630249023437
		endloop
	endfacet
	facet normal 0 0.9807855578739445 -0.1950889270714652
		outer loop
			vertex 0.453 0.11950000000000001 0.28102691650390627
			vertex 0.453 0.11923358154296876 0.2796875305175781
			vertex 0.434 0.11923358154296876 0.2796875305175781
		endloop
	endfacet
	facet normal 0 0.5555662676242973 0.8314722618813017
		outer loop
			vertex 0.453 0.11733939361572265 0.28426049804687503
			vertex 0.453 0.11847487640380859 0.2835018005371094
			vertex 0.434 0.11847487640380859 0.2835018005371094
		endloop
	endfacet
	facet normal 0 0.19508785810831297 0.9807857705017498
		outer loop
			vertex 0.434 0.11733939361572265 0.28426049804687503
			vertex 0.453 0.116 0.28452691650390627
			vertex 0.453 0.11733939361572265 0.28426049804687503
		endloop
	endfacet
	facet normal 0 0.5555662676242973 -0.8314722618813017
		outer loop
			vertex 0.453 0.11847487640380859 0.27855203247070315
			vertex 0.453 0.11733939361572265 0.2777933349609375
			vertex 0.434 0.11733939361572265 0.2777933349609375
		endloop
	endfacet
	facet normal 0 -0.9807855578739445 0.1950889270714652
		outer loop
			vertex 0.434 0.1125 0.28102691650390627
			vertex 0.453 0.1125 0.28102691650390627
			vertex 0.453 0.11276641845703125 0.28236630249023437
		endloop
	endfacet
	facet normal 0 -0.9807855578739445 -0.1950889270714652
		outer loop
			vertex 0.453 0.11276641845703125 0.2796875305175781
			vertex 0.453 0.1125 0.28102691650390627
			vertex 0.434 0.11276641845703125 0.2796875305175781
		endloop
	endfacet
	facet normal 0 -0.8314731298779336 -0.5555649685599273
		outer loop
			vertex 0.453 0.11276641845703125 0.2796875305175781
			vertex 0.434 0.11352512359619141 0.27855203247070315
			vertex 0.453 0.11352512359619141 0.27855203247070315
		endloop
	endfacet
	facet normal 0 -0.8314731298779336 0.5555649685599273
		outer loop
			vertex 0.453 0.11276641845703125 0.28236630249023437
			vertex 0.453 0.11352512359619141 0.2835018005371094
			vertex 0.434 0.11276641845703125 0.28236630249023437
		endloop
	endfacet
	facet normal 0 -0.5555662676242973 0.8314722618813017
		outer loop
			vertex 0.453 0.11352512359619141 0.2835018005371094
			vertex 0.453 0.11466060638427734 0.28426049804687503
			vertex 0.434 0.11352512359619141 0.2835018005371094
		endloop
	endfacet
	facet normal 0 -0.19508785810831297 -0.9807857705017498
		outer loop
			vertex 0.453 0.11466060638427734 0.2777933349609375
			vertex 0.434 0.116 0.27752691650390626
			vertex 0.453 0.116 0.27752691650390626
		endloop
	endfacet
	facet normal 0 -0.5555662676242973 -0.8314722618813017
		outer loop
			vertex 0.453 0.11352512359619141 0.27855203247070315
			vertex 0.434 0.11466060638427734 0.2777933349609375
			vertex 0.453 0.11466060638427734 0.2777933349609375
		endloop
	endfacet
	facet normal 0 0.9807855578739445 0.1950889270714652
		outer loop
			vertex 0.453 0.11950000000000001 0.28102691650390627
			vertex 0.434 0.11950000000000001 0.28102691650390627
			vertex 0.453 0.11923358154296876 0.28236630249023437
		endloop
	endfacet
	facet normal 0 0.5555662676242973 0.8314722618813017
		outer loop
			vertex 0.434 0.11733939361572265 0.28426049804687503
			vertex 0.453 0.11733939361572265 0.28426049804687503
			vertex 0.434 0.11847487640380859 0.2835018005371094
		endloop
	endfacet
	facet normal 0 0.5555662676242973 -0.8314722618813017
		outer loop
			vertex 0.434 0.11733939361572265 0.2777933349609375
			vertex 0.434 0.11847487640380859 0.27855203247070315
			vertex 0.453 0.11847487640380859 0.27855203247070315
		endloop
	endfacet
	facet normal 0 0.8314731298779336 -0.5555649685599273
		outer loop
			vertex 0.434 0.11847487640380859 0.27855203247070315
			vertex 0.434 0.11923358154296876 0.2796875305175781
			vertex 0.453 0.11923358154296876 0.2796875305175781
		endloop
	endfacet
	facet normal 0 0.8314731298779336 0.5555649685599273
		outer loop
			vertex 0.434 0.11923358154296876 0.28236630249023437
			vertex 0.434 0.11847487640380859 0.2835018005371094
			vertex 0.453 0.11847487640380859 0.2835018005371094
		endloop
	endfacet
	facet normal 0 0.19508785810831297 -0.9807857705017498
		outer loop
			vertex 0.434 0.116 0.27752691650390626
			vertex 0.434 0.11733939361572265 0.2777933349609375
			vertex 0.453 0.116 0.27752691650390626
		endloop
	endfacet
	facet normal 0 0.9807855578739445 0.1950889270714652
		outer loop
			vertex 0.453 0.11923358154296876 0.28236630249023437
			vertex 0.434 0.11950000000000001 0.28102691650390627
			vertex 0.434 0.11923358154296876 0.28236630249023437
		endloop
	endfacet
	facet normal 0 0.9807855578739445 -0.1950889270714652
		outer loop
			vertex 0.434 0.11950000000000001 0.28102691650390627
			vertex 0.453 0.11950000000000001 0.28102691650390627
			vertex 0.434 0.11923358154296876 0.2796875305175781
		endloop
	endfacet
	facet normal 0 -0.8314731298779336 -0.5555649685599273
		outer loop
			vertex 0.453 0.11276641845703125 0.2796875305175781
			vertex 0.434 0.11276641845703125 0.2796875305175781
			vertex 0.434 0.11352512359619141 0.27855203247070315
		endloop
	endfacet
	facet normal 0 -0.9807855578739445 0.1950889270714652
		outer loop
			vertex 0.434 0.1125 0.28102691650390627
			vertex 0.453 0.11276641845703125 0.28236630249023437
			vertex 0.434 0.11276641845703125 0.28236630249023437
		endloop
	endfacet
	facet normal 0 -0.5555662676242973 -0.8314722618813017
		outer loop
			vertex 0.453 0.11352512359619141 0.27855203247070315
			vertex 0.434 0.11352512359619141 0.27855203247070315
			vertex 0.434 0.11466060638427734 0.2777933349609375
		endloop
	endfacet
	facet normal 0 -0.8314731298779336 0.5555649685599273
		outer loop
			vertex 0.434 0.11276641845703125 0.28236630249023437
			vertex 0.453 0.11352512359619141 0.2835018005371094
			vertex 0.434 0.11352512359619141 0.2835018005371094
		endloop
	endfacet
	facet normal 0 -0.5555662676242973 0.8314722618813017
		outer loop
			vertex 0.453 0.11466060638427734 0.28426049804687503
			vertex 0.434 0.11466060638427734 0.28426049804687503
			vertex 0.434 0.11352512359619141 0.2835018005371094
		endloop
	endfacet
	facet normal 0 -0.19508785810831297 -0.9807857705017498
		outer loop
			vertex 0.453 0.11466060638427734 0.2777933349609375
			vertex 0.434 0.11466060638427734 0.2777933349609375
			vertex 0.434 0.116 0.27752691650390626
		endloop
	endfacet
	facet normal 0 -0.9807855578739445 -0.1950889270714652
		outer loop
			vertex 0.434 0.11276641845703125 0.2796875305175781
			vertex 0.453 0.1125 0.28102691650390627
			vertex 0.434 0.1125 0.28102691650390627
		endloop
	endfacet
	facet normal 0 0.19508785810831297 0.9807857705017498
		outer loop
			vertex 0.453 0.116 0.28452691650390627
			vertex 0.434 0.11733939361572265 0.28426049804687503
			vertex 0.434 0.116 0.28452691650390627
		endloop
	endfacet
	facet normal 0 -0.19508785810831297 0.9807857705017498
		outer loop
			vertex 0.434 0.116 0.28452691650390627
			vertex 0.453 0.11466060638427734 0.28426049804687503
			vertex 0.453 0.116 0.28452691650390627
		endloop
	endfacet
	facet normal 0 -0.19508785810831297 0.9807857705017498
		outer loop
			vertex 0.434 0.116 0.28452691650390627
			vertex 0.434 0.11466060638427734 0.28426049804687503
			vertex 0.453 0.11466060638427734 0.28426049804687503
		endloop
	endfacet
	facet normal 0 0.9951848622239238 0.0980157640400251
		outer loop
			vertex 0.468 0.133 0.28102691650390627
			vertex 0.468 0.13267335510253905 0.28434344482421875
			vertex 0.528 0.133 0.28102691650390627
		endloop
	endfacet
	facet normal 0 0.8819220199672723 0.471395323159709
		outer loop
			vertex 0.468 0.13013497924804687 0.2904716186523438
			vertex 0.528 0.13170594787597656 0.28753253173828125
			vertex 0.468 0.13170594787597656 0.28753253173828125
		endloop
	endfacet
	facet normal 0 0.7730094629329398 -0.6343944910039243
		outer loop
			vertex 0.468 0.12802081298828125 0.269006103515625
			vertex 0.468 0.13013497924804687 0.27158221435546875
			vertex 0.528 0.13013497924804687 0.27158221435546875
		endloop
	endfacet
	facet normal 0 0.6343933683289477 -0.7730103842900511
		outer loop
			vertex 0.468 0.12544469451904297 0.26689193725585936
			vertex 0.468 0.12802081298828125 0.269006103515625
			vertex 0.528 0.12802081298828125 0.269006103515625
		endloop
	endfacet
	facet normal 0 0.9569396449365762 -0.2902869544927222
		outer loop
			vertex 0.468 0.13170594787597656 0.2745213012695313
			vertex 0.468 0.13267335510253905 0.2777103881835938
			vertex 0.528 0.13267335510253905 0.2777103881835938
		endloop
	endfacet
	facet normal 0 0.29027920472979646 -0.9569419957873293
		outer loop
			vertex 0.468 0.11931653594970704 0.26435357666015624
			vertex 0.468 0.122505615234375 0.26532095336914063
			vertex 0.528 0.122505615234375 0.26532095336914063
		endloop
	endfacet
	facet normal 0 0.9569396449365762 0.2902869544927222
		outer loop
			vertex 0.468 0.13170594787597656 0.28753253173828125
			vertex 0.528 0.13267335510253905 0.28434344482421875
			vertex 0.468 0.13267335510253905 0.28434344482421875
		endloop
	endfacet
	facet normal 0 0.6343933683289477 0.7730103842900511
		outer loop
			vertex 0.528 0.12802081298828125 0.2930477294921875
			vertex 0.468 0.12802081298828125 0.2930477294921875
			vertex 0.468 0.12544469451904297 0.2951618957519531
		endloop
	endfacet
	facet normal 0 0.7730094629329398 0.6343944910039243
		outer loop
			vertex 0.468 0.13013497924804687 0.2904716186523438
			vertex 0.468 0.12802081298828125 0.2930477294921875
			vertex 0.528 0.13013497924804687 0.2904716186523438
		endloop
	endfacet
	facet normal 0 0.9951848622239238 -0.0980157640400251
		outer loop
			vertex 0.468 0.133 0.28102691650390627
			vertex 0.528 0.133 0.28102691650390627
			vertex 0.468 0.13267335510253905 0.2777103881835938
		endloop
	endfacet
	facet normal 0 0.4713998361188289 0.8819196077348216
		outer loop
			vertex 0.468 0.122505615234375 0.2967328796386719
			vertex 0.528 0.12544469451904297 0.2951618957519531
			vertex 0.468 0.12544469451904297 0.2951618957519531
		endloop
	endfacet
	facet normal 0 0.8819220199672723 -0.471395323159709
		outer loop
			vertex 0.528 0.13170594787597656 0.2745213012695313
			vertex 0.468 0.13013497924804687 0.27158221435546875
			vertex 0.468 0.13170594787597656 0.2745213012695313
		endloop
	endfacet
	facet normal 0 0.4713998361188289 -0.8819196077348216
		outer loop
			vertex 0.468 0.122505615234375 0.26532095336914063
			vertex 0.468 0.12544469451904297 0.26689193725585936
			vertex 0.528 0.12544469451904297 0.26689193725585936
		endloop
	endfacet
	facet normal 0 0.09802007540692005 -0.9951844375879386
		outer loop
			vertex 0.468 0.11931653594970704 0.26435357666015624
			vertex 0.528 0.11931653594970704 0.26435357666015624
			vertex 0.468 0.116 0.26402691650390625
		endloop
	endfacet
	facet normal 0 0.09802007540692005 0.9951844375879386
		outer loop
			vertex 0.528 0.11931653594970704 0.29770025634765623
			vertex 0.468 0.11931653594970704 0.29770025634765623
			vertex 0.468 0.116 0.2980269165039063
		endloop
	endfacet
	facet normal 0 -0.9569409168213501 0.2902827616533817
		outer loop
			vertex 0.468 0.09932665252685548 0.28434344482421875
			vertex 0.528 0.1002940444946289 0.28753253173828125
			vertex 0.468 0.1002940444946289 0.28753253173828125
		endloop
	endfacet
	facet normal 0 -0.8819220199672723 0.471395323159709
		outer loop
			vertex 0.528 0.10186501312255859 0.2904716186523438
			vertex 0.468 0.10186501312255859 0.2904716186523438
			vertex 0.468 0.1002940444946289 0.28753253173828125
		endloop
	endfacet
	facet normal 0 -0.7730083402570653 -0.6343958589816119
		outer loop
			vertex 0.528 0.10397918701171875 0.269006103515625
			vertex 0.468 0.10186501312255859 0.27158221435546875
			vertex 0.468 0.10397918701171875 0.269006103515625
		endloop
	endfacet
	facet normal 0 -0.9951846389105456 0.09801803138447084
		outer loop
			vertex 0.468 0.099 0.28102691650390627
			vertex 0.528 0.09932665252685548 0.28434344482421875
			vertex 0.468 0.09932665252685548 0.28434344482421875
		endloop
	endfacet
	facet normal 0 -0.6343933683289477 0.7730103842900511
		outer loop
			vertex 0.528 0.10655530548095703 0.2951618957519531
			vertex 0.468 0.10655530548095703 0.2951618957519531
			vertex 0.468 0.10397918701171875 0.2930477294921875
		endloop
	endfacet
	facet normal 0 -0.9951846389105456 -0.09801803138447084
		outer loop
			vertex 0.468 0.099 0.28102691650390627
			vertex 0.468 0.09932665252685548 0.2777103881835938
			vertex 0.528 0.09932665252685548 0.2777103881835938
		endloop
	endfacet
	facet normal 0 -0.7730083402570653 0.6343958589816119
		outer loop
			vertex 0.468 0.10186501312255859 0.2904716186523438
			vertex 0.528 0.10397918701171875 0.2930477294921875
			vertex 0.468 0.10397918701171875 0.2930477294921875
		endloop
	endfacet
	facet normal 0 -0.09802007540692005 0.9951844375879386
		outer loop
			vertex 0.468 0.116 0.2980269165039063
			vertex 0.468 0.11268346405029298 0.29770025634765623
			vertex 0.528 0.11268346405029298 0.29770025634765623
		endloop
	endfacet
	facet normal 0 -0.6343933683289477 -0.7730103842900511
		outer loop
			vertex 0.468 0.10655530548095703 0.26689193725585936
			vertex 0.528 0.10655530548095703 0.26689193725585936
			vertex 0.468 0.10397918701171875 0.269006103515625
		endloop
	endfacet
	facet normal 0 -0.9569409168213501 -0.2902827616533817
		outer loop
			vertex 0.468 0.09932665252685548 0.2777103881835938
			vertex 0.468 0.1002940444946289 0.2745213012695313
			vertex 0.528 0.09932665252685548 0.2777103881835938
		endloop
	endfacet
	facet normal 0 -0.29027920472979646 -0.9569419957873293
		outer loop
			vertex 0.468 0.10949438476562501 0.26532095336914063
			vertex 0.468 0.11268346405029298 0.26435357666015624
			vertex 0.528 0.11268346405029298 0.26435357666015624
		endloop
	endfacet
	facet normal 0 -0.4713998361188289 0.8819196077348216
		outer loop
			vertex 0.468 0.10655530548095703 0.2951618957519531
			vertex 0.528 0.10949438476562501 0.2967328796386719
			vertex 0.468 0.10949438476562501 0.2967328796386719
		endloop
	endfacet
	facet normal 0 -0.8819220199672723 -0.471395323159709
		outer loop
			vertex 0.468 0.10186501312255859 0.27158221435546875
			vertex 0.528 0.10186501312255859 0.27158221435546875
			vertex 0.468 0.1002940444946289 0.2745213012695313
		endloop
	endfacet
	facet normal 0 -0.4713998361188289 -0.8819196077348216
		outer loop
			vertex 0.528 0.10949438476562501 0.26532095336914063
			vertex 0.468 0.10655530548095703 0.26689193725585936
			vertex 0.468 0.10949438476562501 0.26532095336914063
		endloop
	endfacet
	facet normal 0 -0.29027920472979646 0.9569419957873293
		outer loop
			vertex 0.528 0.11268346405029298 0.29770025634765623
			vertex 0.468 0.11268346405029298 0.29770025634765623
			vertex 0.468 0.10949438476562501 0.2967328796386719
		endloop
	endfacet
	facet normal 0 0.29027920472979646 0.9569419957873293
		outer loop
			vertex 0.528 0.11931653594970704 0.29770025634765623
			vertex 0.468 0.122505615234375 0.2967328796386719
			vertex 0.468 0.11931653594970704 0.29770025634765623
		endloop
	endfacet
	facet normal 0 0.09802007540692005 -0.9951844375879386
		outer loop
			vertex 0.528 0.116 0.26402691650390625
			vertex 0.468 0.116 0.26402691650390625
			vertex 0.528 0.11931653594970704 0.26435357666015624
		endloop
	endfacet
	facet normal 0 0.6343933683289477 -0.7730103842900511
		outer loop
			vertex 0.468 0.12544469451904297 0.26689193725585936
			vertex 0.528 0.12802081298828125 0.269006103515625
			vertex 0.528 0.12544469451904297 0.26689193725585936
		endloop
	endfacet
	facet normal 0 0.9569396449365762 -0.2902869544927222
		outer loop
			vertex 0.468 0.13170594787597656 0.2745213012695313
			vertex 0.528 0.13267335510253905 0.2777103881835938
			vertex 0.528 0.13170594787597656 0.2745213012695313
		endloop
	endfacet
	facet normal 0 0.29027920472979646 -0.9569419957873293
		outer loop
			vertex 0.528 0.122505615234375 0.26532095336914063
			vertex 0.528 0.11931653594970704 0.26435357666015624
			vertex 0.468 0.11931653594970704 0.26435357666015624
		endloop
	endfacet
	facet normal 0 0.9951848622239238 -0.0980157640400251
		outer loop
			vertex 0.528 0.133 0.28102691650390627
			vertex 0.528 0.13267335510253905 0.2777103881835938
			vertex 0.468 0.13267335510253905 0.2777103881835938
		endloop
	endfacet
	facet normal 0 0.7730094629329398 0.6343944910039243
		outer loop
			vertex 0.528 0.13013497924804687 0.2904716186523438
			vertex 0.468 0.12802081298828125 0.2930477294921875
			vertex 0.528 0.12802081298828125 0.2930477294921875
		endloop
	endfacet
	facet normal 0 0.9569396449365762 0.2902869544927222
		outer loop
			vertex 0.468 0.13170594787597656 0.28753253173828125
			vertex 0.528 0.13170594787597656 0.28753253173828125
			vertex 0.528 0.13267335510253905 0.28434344482421875
		endloop
	endfacet
	facet normal 0 0.9951848622239238 0.0980157640400251
		outer loop
			vertex 0.468 0.13267335510253905 0.28434344482421875
			vertex 0.528 0.13267335510253905 0.28434344482421875
			vertex 0.528 0.133 0.28102691650390627
		endloop
	endfacet
	facet normal 0 0.8819220199672723 0.471395323159709
		outer loop
			vertex 0.528 0.13170594787597656 0.28753253173828125
			vertex 0.468 0.13013497924804687 0.2904716186523438
			vertex 0.528 0.13013497924804687 0.2904716186523438
		endloop
	endfacet
	facet normal 0 0.7730094629329398 -0.6343944910039243
		outer loop
			vertex 0.528 0.12802081298828125 0.269006103515625
			vertex 0.468 0.12802081298828125 0.269006103515625
			vertex 0.528 0.13013497924804687 0.27158221435546875
		endloop
	endfacet
	facet normal 0 0.8819220199672723 -0.471395323159709
		outer loop
			vertex 0.468 0.13013497924804687 0.27158221435546875
			vertex 0.528 0.13170594787597656 0.2745213012695313
			vertex 0.528 0.13013497924804687 0.27158221435546875
		endloop
	endfacet
	facet normal 0 0.29027920472979646 0.9569419957873293
		outer loop
			vertex 0.468 0.122505615234375 0.2967328796386719
			vertex 0.528 0.11931653594970704 0.29770025634765623
			vertex 0.528 0.122505615234375 0.2967328796386719
		endloop
	endfacet
	facet normal 0 0.4713998361188289 0.8819196077348216
		outer loop
			vertex 0.528 0.12544469451904297 0.2951618957519531
			vertex 0.468 0.122505615234375 0.2967328796386719
			vertex 0.528 0.122505615234375 0.2967328796386719
		endloop
	endfacet
	facet normal 0 0.6343933683289477 0.7730103842900511
		outer loop
			vertex 0.528 0.12544469451904297 0.2951618957519531
			vertex 0.528 0.12802081298828125 0.2930477294921875
			vertex 0.468 0.12544469451904297 0.2951618957519531
		endloop
	endfacet
	facet normal 0 0.09802007540692005 0.9951844375879386
		outer loop
			vertex 0.528 0.11931653594970704 0.29770025634765623
			vertex 0.468 0.116 0.2980269165039063
			vertex 0.528 0.116 0.2980269165039063
		endloop
	endfacet
	facet normal 0 -0.7730083402570653 0.6343958589816119
		outer loop
			vertex 0.528 0.10186501312255859 0.2904716186523438
			vertex 0.528 0.10397918701171875 0.2930477294921875
			vertex 0.468 0.10186501312255859 0.2904716186523438
		endloop
	endfacet
	facet normal 0 -0.29027920472979646 0.9569419957873293
		outer loop
			vertex 0.468 0.10949438476562501 0.2967328796386719
			vertex 0.528 0.10949438476562501 0.2967328796386719
			vertex 0.528 0.11268346405029298 0.29770025634765623
		endloop
	endfacet
	facet normal 0 -0.6343933683289477 0.7730103842900511
		outer loop
			vertex 0.528 0.10397918701171875 0.2930477294921875
			vertex 0.528 0.10655530548095703 0.2951618957519531
			vertex 0.468 0.10397918701171875 0.2930477294921875
		endloop
	endfacet
	facet normal 0 -0.9569409168213501 -0.2902827616533817
		outer loop
			vertex 0.468 0.1002940444946289 0.2745213012695313
			vertex 0.528 0.1002940444946289 0.2745213012695313
			vertex 0.528 0.09932665252685548 0.2777103881835938
		endloop
	endfacet
	facet normal 0 -0.6343933683289477 -0.7730103842900511
		outer loop
			vertex 0.528 0.10397918701171875 0.269006103515625
			vertex 0.468 0.10397918701171875 0.269006103515625
			vertex 0.528 0.10655530548095703 0.26689193725585936
		endloop
	endfacet
	facet normal 0 -0.29027920472979646 -0.9569419957873293
		outer loop
			vertex 0.528 0.10949438476562501 0.26532095336914063
			vertex 0.468 0.10949438476562501 0.26532095336914063
			vertex 0.528 0.11268346405029298 0.26435357666015624
		endloop
	endfacet
	facet normal 0 -0.4713998361188289 -0.8819196077348216
		outer loop
			vertex 0.528 0.10655530548095703 0.26689193725585936
			vertex 0.468 0.10655530548095703 0.26689193725585936
			vertex 0.528 0.10949438476562501 0.26532095336914063
		endloop
	endfacet
	facet normal 0 -0.9569409168213501 0.2902827616533817
		outer loop
			vertex 0.528 0.1002940444946289 0.28753253173828125
			vertex 0.468 0.09932665252685548 0.28434344482421875
			vertex 0.528 0.09932665252685548 0.28434344482421875
		endloop
	endfacet
	facet normal 0 -0.8819220199672723 0.471395323159709
		outer loop
			vertex 0.528 0.1002940444946289 0.28753253173828125
			vertex 0.528 0.10186501312255859 0.2904716186523438
			vertex 0.468 0.1002940444946289 0.28753253173828125
		endloop
	endfacet
	facet normal 0 -0.4713998361188289 0.8819196077348216
		outer loop
			vertex 0.468 0.10655530548095703 0.2951618957519531
			vertex 0.528 0.10655530548095703 0.2951618957519531
			vertex 0.528 0.10949438476562501 0.2967328796386719
		endloop
	endfacet
	facet normal 0 -0.9951846389105456 -0.09801803138447084
		outer loop
			vertex 0.528 0.09932665252685548 0.2777103881835938
			vertex 0.528 0.099 0.28102691650390627
			vertex 0.468 0.099 0.28102691650390627
		endloop
	endfacet
	facet normal 0 -0.7730083402570653 -0.6343958589816119
		outer loop
			vertex 0.468 0.10186501312255859 0.27158221435546875
			vertex 0.528 0.10397918701171875 0.269006103515625
			vertex 0.528 0.10186501312255859 0.27158221435546875
		endloop
	endfacet
	facet normal 0 -0.8819220199672723 -0.471395323159709
		outer loop
			vertex 0.528 0.1002940444946289 0.2745213012695313
			vertex 0.468 0.1002940444946289 0.2745213012695313
			vertex 0.528 0.10186501312255859 0.27158221435546875
		endloop
	endfacet
	facet normal 0 -0.9951846389105456 0.09801803138447084
		outer loop
			vertex 0.528 0.099 0.28102691650390627
			vertex 0.528 0.09932665252685548 0.28434344482421875
			vertex 0.468 0.099 0.28102691650390627
		endloop
	endfacet
	facet normal 0 -0.09802007540692005 0.9951844375879386
		outer loop
			vertex 0.528 0.11268346405029298 0.29770025634765623
			vertex 0.528 0.116 0.2980269165039063
			vertex 0.468 0.116 0.2980269165039063
		endloop
	endfacet
	facet normal 0 0.4713998361188289 -0.8819196077348216
		outer loop
			vertex 0.528 0.122505615234375 0.26532095336914063
			vertex 0.468 0.122505615234375 0.26532095336914063
			vertex 0.528 0.12544469451904297 0.26689193725585936
		endloop
	endfacet
	facet normal 0 -0.09802007540692005 -0.9951844375879386
		outer loop
			vertex 0.528 0.116 0.26402691650390625
			vertex 0.468 0.11268346405029298 0.26435357666015624
			vertex 0.468 0.116 0.26402691650390625
		endloop
	endfacet
	facet normal 0 -0.09802007540692005 -0.9951844375879386
		outer loop
			vertex 0.528 0.116 0.26402691650390625
			vertex 0.528 0.11268346405029298 0.26435357666015624
			vertex 0.468 0.11268346405029298 0.26435357666015624
		endloop
	endfacet
	facet normal 1 0 0
		outer loop
			vertex 0.528 0.122505615234375 0.26532095336914063
			vertex 0.528 0.12544469451904297 0.26689193725585936
			vertex 0.528 0.116 0.26402691650390625
		endloop
	endfacet
	facet normal 1 0 0
		outer loop
			vertex 0.528 0.116 0.26402691650390625
			vertex 0.528 0.11931653594970704 0.26435357666015624
			vertex 0.528 0.122505615234375 0.26532095336914063
		endloop
	endfacet
	facet normal 1 0 0
		outer loop
			vertex 0.528 0.12544469451904297 0.26689193725585936
			vertex 0.528 0.12802081298828125 0.269006103515625
			vertex 0.528 0.116 0.26402691650390625
		endloop
	endfacet
	facet normal 1 0 0
		outer loop
			vertex 0.528 0.13170594787597656 0.2745213012695313
			vertex 0.528 0.13267335510253905 0.2777103881835938
			vertex 0.528 0.12802081298828125 0.269006103515625
		endloop
	endfacet
	facet normal 1 0 0
		outer loop
			vertex 0.528 0.12802081298828125 0.269006103515625
			vertex 0.528 0.13013497924804687 0.27158221435546875
			vertex 0.528 0.13170594787597656 0.2745213012695313
		endloop
	endfacet
	facet normal 1 0 0
		outer loop
			vertex 0.528 0.116 0.26402691650390625
			vertex 0.528 0.1002940444946289 0.28753253173828125
			vertex 0.528 0.09932665252685548 0.2777103881835938
		endloop
	endfacet
	facet normal 1 0 0
		outer loop
			vertex 0.528 0.116 0.26402691650390625
			vertex 0.528 0.12802081298828125 0.269006103515625
			vertex 0.528 0.1002940444946289 0.28753253173828125
		endloop
	endfacet
	facet normal 1 0 0
		outer loop
			vertex 0.528 0.10397918701171875 0.269006103515625
			vertex 0.528 0.10949438476562501 0.26532095336914063
			vertex 0.528 0.10186501312255859 0.27158221435546875
		endloop
	endfacet
	facet normal 1 0 0
		outer loop
			vertex 0.528 0.10397918701171875 0.269006103515625
			vertex 0.528 0.10655530548095703 0.26689193725585936
			vertex 0.528 0.10949438476562501 0.26532095336914063
		endloop
	endfacet
	facet normal 1 0 0
		outer loop
			vertex 0.528 0.11268346405029298 0.26435357666015624
			vertex 0.528 0.116 0.26402691650390625
			vertex 0.528 0.10949438476562501 0.26532095336914063
		endloop
	endfacet
	facet normal 1 0 0
		outer loop
			vertex 0.528 0.1002940444946289 0.2745213012695313
			vertex 0.528 0.10186501312255859 0.27158221435546875
			vertex 0.528 0.09932665252685548 0.2777103881835938
		endloop
	endfacet
	facet normal 1 0 0
		outer loop
			vertex 0.528 0.09932665252685548 0.2777103881835938
			vertex 0.528 0.10186501312255859 0.27158221435546875
			vertex 0.528 0.10949438476562501 0.26532095336914063
		endloop
	endfacet
	facet normal 1 0 0
		outer loop
			vertex 0.528 0.09932665252685548 0.2777103881835938
			vertex 0.528 0.10949438476562501 0.26532095336914063
			vertex 0.528 0.116 0.26402691650390625
		endloop
	endfacet
	facet normal 1 0 0
		outer loop
			vertex 0.528 0.09932665252685548 0.2777103881835938
			vertex 0.528 0.1002940444946289 0.28753253173828125
			vertex 0.528 0.099 0.28102691650390627
		endloop
	endfacet
	facet normal 1 0 0
		outer loop
			vertex 0.528 0.12802081298828125 0.269006103515625
			vertex 0.528 0.13267335510253905 0.2777103881835938
			vertex 0.528 0.10397918701171875 0.2930477294921875
		endloop
	endfacet
	facet normal 1 0 0
		outer loop
			vertex 0.528 0.13267335510253905 0.2777103881835938
			vertex 0.528 0.13267335510253905 0.28434344482421875
			vertex 0.528 0.10397918701171875 0.2930477294921875
		endloop
	endfacet
	facet normal 1 0 0
		outer loop
			vertex 0.528 0.13170594787597656 0.28753253173828125
			vertex 0.528 0.10397918701171875 0.2930477294921875
			vertex 0.528 0.13267335510253905 0.28434344482421875
		endloop
	endfacet
	facet normal 1 0 0
		outer loop
			vertex 0.528 0.122505615234375 0.2967328796386719
			vertex 0.528 0.13170594787597656 0.28753253173828125
			vertex 0.528 0.13013497924804687 0.2904716186523438
		endloop
	endfacet
	facet normal 1 0 0
		outer loop
			vertex 0.528 0.12802081298828125 0.2930477294921875
			vertex 0.528 0.12544469451904297 0.2951618957519531
			vertex 0.528 0.122505615234375 0.2967328796386719
		endloop
	endfacet
	facet normal 1 0 0
		outer loop
			vertex 0.528 0.122505615234375 0.2967328796386719
			vertex 0.528 0.116 0.2980269165039063
			vertex 0.528 0.13170594787597656 0.28753253173828125
		endloop
	endfacet
	facet normal 1 0 0
		outer loop
			vertex 0.528 0.122505615234375 0.2967328796386719
			vertex 0.528 0.13013497924804687 0.2904716186523438
			vertex 0.528 0.12802081298828125 0.2930477294921875
		endloop
	endfacet
	facet normal 1 0 0
		outer loop
			vertex 0.528 0.122505615234375 0.2967328796386719
			vertex 0.528 0.11931653594970704 0.29770025634765623
			vertex 0.528 0.116 0.2980269165039063
		endloop
	endfacet
	facet normal 1 0 0
		outer loop
			vertex 0.528 0.10397918701171875 0.2930477294921875
			vertex 0.528 0.10186501312255859 0.2904716186523438
			vertex 0.528 0.1002940444946289 0.28753253173828125
		endloop
	endfacet
	facet normal 1 0 0
		outer loop
			vertex 0.528 0.12802081298828125 0.269006103515625
			vertex 0.528 0.10397918701171875 0.2930477294921875
			vertex 0.528 0.1002940444946289 0.28753253173828125
		endloop
	endfacet
	facet normal 1 0 0
		outer loop
			vertex 0.528 0.09932665252685548 0.28434344482421875
			vertex 0.528 0.099 0.28102691650390627
			vertex 0.528 0.1002940444946289 0.28753253173828125
		endloop
	endfacet
	facet normal 1 0 0
		outer loop
			vertex 0.528 0.116 0.2980269165039063
			vertex 0.528 0.11268346405029298 0.29770025634765623
			vertex 0.528 0.10655530548095703 0.2951618957519531
		endloop
	endfacet
	facet normal 1 0 0
		outer loop
			vertex 0.528 0.10949438476562501 0.2967328796386719
			vertex 0.528 0.10655530548095703 0.2951618957519531
			vertex 0.528 0.11268346405029298 0.29770025634765623
		endloop
	endfacet
	facet normal 1 0 0
		outer loop
			vertex 0.528 0.116 0.2980269165039063
			vertex 0.528 0.10655530548095703 0.2951618957519531
			vertex 0.528 0.10397918701171875 0.2930477294921875
		endloop
	endfacet
	facet normal 1 0 0
		outer loop
			vertex 0.528 0.116 0.2980269165039063
			vertex 0.528 0.10397918701171875 0.2930477294921875
			vertex 0.528 0.13170594787597656 0.28753253173828125
		endloop
	endfacet
	facet normal 1 0 0
		outer loop
			vertex 0.528 0.13267335510253905 0.2777103881835938
			vertex 0.528 0.133 0.28102691650390627
			vertex 0.528 0.13267335510253905 0.28434344482421875
		endloop
	endfacet
endsolid exported
