solid exported
	facet normal 0 0 -1
		outer loop
			vertex 0.074 0.47400000000000003 0.22202691650390624
			vertex 0.07200000000000001 0.47900000000000004 0.22202691650390624
			vertex 0.074 0.501 0.22202691650390624
		endloop
	endfacet
	facet normal 0 0 -1
		outer loop
			vertex 0.07200000000000001 0.47900000000000004 0.22202691650390624
			vertex 0.074 0.47400000000000003 0.22202691650390624
			vertex 0.07200000000000001 0.47400000000000003 0.22202691650390624
		endloop
	endfacet
	facet normal 0 0 -1
		outer loop
			vertex 0.059000000000000004 0.47900000000000004 0.22202691650390624
			vertex 0.07200000000000001 0.496 0.22202691650390624
			vertex 0.07200000000000001 0.47900000000000004 0.22202691650390624
		endloop
	endfacet
	facet normal 0 0 -1
		outer loop
			vertex 0.07200000000000001 0.496 0.22202691650390624
			vertex 0.074 0.501 0.22202691650390624
			vertex 0.07200000000000001 0.47900000000000004 0.22202691650390624
		endloop
	endfacet
	facet normal 0 0 -1
		outer loop
			vertex 0.074 0.501 0.22202691650390624
			vertex 0.07200000000000001 0.496 0.22202691650390624
			vertex 0.07200000000000001 0.501 0.22202691650390624
		endloop
	endfacet
	facet normal 0 0 -1
		outer loop
			vertex 0.059000000000000004 0.496 0.22202691650390624
			vertex 0.07200000000000001 0.496 0.22202691650390624
			vertex 0.059000000000000004 0.47900000000000004 0.22202691650390624
		endloop
	endfacet
	facet normal -1 0 0
		outer loop
			vertex 0.07200000000000001 0.47400000000000003 0.22202691650390624
			vertex 0.07200000000000001 0.47400000000000003 0.23402691650390625
			vertex 0.07200000000000001 0.47900000000000004 0.22202691650390624
		endloop
	endfacet
	facet normal -1 0 0
		outer loop
			vertex 0.07200000000000001 0.47900000000000004 0.23402691650390625
			vertex 0.07200000000000001 0.47900000000000004 0.22202691650390624
			vertex 0.07200000000000001 0.47400000000000003 0.23402691650390625
		endloop
	endfacet
	facet normal -1 0 0
		outer loop
			vertex 0.07200000000000001 0.496 0.23402691650390625
			vertex 0.07200000000000001 0.501 0.23402691650390625
			vertex 0.07200000000000001 0.501 0.22202691650390624
		endloop
	endfacet
	facet normal -1 0 0
		outer loop
			vertex 0.07200000000000001 0.501 0.22202691650390624
			vertex 0.07200000000000001 0.496 0.22202691650390624
			vertex 0.07200000000000001 0.496 0.23402691650390625
		endloop
	endfacet
	facet normal 0 -1 0
		outer loop
			vertex 0.074 0.47400000000000003 0.22202691650390624
			vertex 0.074 0.47400000000000003 0.23402691650390625
			vertex 0.07200000000000001 0.47400000000000003 0.23402691650390625
		endloop
	endfacet
	facet normal 0 -1 0
		outer loop
			vertex 0.07200000000000001 0.47400000000000003 0.23402691650390625
			vertex 0.07200000000000001 0.47400000000000003 0.22202691650390624
			vertex 0.074 0.47400000000000003 0.22202691650390624
		endloop
	endfacet
	facet normal 0 1 0
		outer loop
			vertex 0.07200000000000001 0.501 0.22202691650390624
			vertex 0.07200000000000001 0.501 0.23402691650390625
			vertex 0.074 0.501 0.22202691650390624
		endloop
	endfacet
	facet normal 0 1 0
		outer loop
			vertex 0.074 0.501 0.23402691650390625
			vertex 0.074 0.501 0.22202691650390624
			vertex 0.07200000000000001 0.501 0.23402691650390625
		endloop
	endfacet
	facet normal -1 0 0
		outer loop
			vertex 0.059000000000000004 0.47900000000000004 0.22202691650390624
			vertex 0.059000000000000004 0.47900000000000004 0.23002691650390625
			vertex 0.059000000000000004 0.496 0.22202691650390624
		endloop
	endfacet
	facet normal -1 0 0
		outer loop
			vertex 0.059000000000000004 0.496 0.23002691650390625
			vertex 0.059000000000000004 0.496 0.22202691650390624
			vertex 0.059000000000000004 0.47900000000000004 0.23002691650390625
		endloop
	endfacet
	facet normal 0 1 0
		outer loop
			vertex 0.059000000000000004 0.496 0.23002691650390625
			vertex 0.07200000000000001 0.496 0.23402691650390625
			vertex 0.07200000000000001 0.496 0.22202691650390624
		endloop
	endfacet
	facet normal 0 1 0
		outer loop
			vertex 0.07200000000000001 0.496 0.23402691650390625
			vertex 0.059000000000000004 0.496 0.23002691650390625
			vertex 0.059000000000000004 0.496 0.23402691650390625
		endloop
	endfacet
	facet normal 0 1 0
		outer loop
			vertex 0.059000000000000004 0.496 0.23002691650390625
			vertex 0.07200000000000001 0.496 0.22202691650390624
			vertex 0.059000000000000004 0.496 0.22202691650390624
		endloop
	endfacet
	facet normal 0 -1 0
		outer loop
			vertex 0.07200000000000001 0.47900000000000004 0.22202691650390624
			vertex 0.07200000000000001 0.47900000000000004 0.23402691650390625
			vertex 0.059000000000000004 0.47900000000000004 0.23002691650390625
		endloop
	endfacet
	facet normal 0 -1 0
		outer loop
			vertex 0.059000000000000004 0.47900000000000004 0.23402691650390625
			vertex 0.059000000000000004 0.47900000000000004 0.23002691650390625
			vertex 0.07200000000000001 0.47900000000000004 0.23402691650390625
		endloop
	endfacet
	facet normal 0 -1 0
		outer loop
			vertex 0.059000000000000004 0.47900000000000004 0.23002691650390625
			vertex 0.059000000000000004 0.47900000000000004 0.22202691650390624
			vertex 0.07200000000000001 0.47900000000000004 0.22202691650390624
		endloop
	endfacet
endsolid exported
