solid exported
	facet normal 0 1 0
		outer loop
			vertex 0.099 0.094 0.23002691650390625
			vertex 0.099 0.094 0.22752691650390625
			vertex 0.082 0.094 0.23002691650390625
		endloop
	endfacet
	facet normal 0 1 0
		outer loop
			vertex 0.082 0.094 0.22752691650390625
			vertex 0.082 0.094 0.23002691650390625
			vertex 0.099 0.094 0.22752691650390625
		endloop
	endfacet
	facet normal 1 0 0
		outer loop
			vertex 0.099 0.052000000000000005 0.23002691650390625
			vertex 0.099 0.052000000000000005 0.22752691650390625
			vertex 0.099 0.094 0.23002691650390625
		endloop
	endfacet
	facet normal 1 0 0
		outer loop
			vertex 0.099 0.094 0.22752691650390625
			vertex 0.099 0.094 0.23002691650390625
			vertex 0.099 0.052000000000000005 0.22752691650390625
		endloop
	endfacet
	facet normal 0 -1 0
		outer loop
			vertex 0.082 0.052000000000000005 0.23002691650390625
			vertex 0.082 0.052000000000000005 0.22752691650390625
			vertex 0.099 0.052000000000000005 0.23002691650390625
		endloop
	endfacet
	facet normal 0 -1 0
		outer loop
			vertex 0.099 0.052000000000000005 0.22752691650390625
			vertex 0.099 0.052000000000000005 0.23002691650390625
			vertex 0.082 0.052000000000000005 0.22752691650390625
		endloop
	endfacet
	facet normal -1 0 0
		outer loop
			vertex 0.082 0.094 0.23002691650390625
			vertex 0.082 0.094 0.22752691650390625
			vertex 0.082 0.052000000000000005 0.22752691650390625
		endloop
	endfacet
	facet normal -1 0 0
		outer loop
			vertex 0.082 0.052000000000000005 0.22752691650390625
			vertex 0.082 0.052000000000000005 0.23002691650390625
			vertex 0.082 0.094 0.23002691650390625
		endloop
	endfacet
	facet normal 0 0 1
		outer loop
			vertex 0.099 0.052000000000000005 0.23002691650390625
			vertex 0.09115055847167969 0.05792940521240234 0.23002691650390625
			vertex 0.0905 0.05779999923706055 0.23002691650390625
		endloop
	endfacet
	facet normal 0 0 1
		outer loop
			vertex 0.09115055847167969 0.05792940521240234 0.23002691650390625
			vertex 0.099 0.052000000000000005 0.23002691650390625
			vertex 0.09170207977294922 0.058297920227050784 0.23002691650390625
		endloop
	endfacet
	facet normal 0 0 1
		outer loop
			vertex 0.09207059478759766 0.05884943771362305 0.23002691650390625
			vertex 0.09170207977294922 0.058297920227050784 0.23002691650390625
			vertex 0.099 0.052000000000000005 0.23002691650390625
		endloop
	endfacet
	facet normal 0 0 1
		outer loop
			vertex 0.09219999694824219 0.059500000000000004 0.23002691650390625
			vertex 0.09207059478759766 0.05884943771362305 0.23002691650390625
			vertex 0.099 0.052000000000000005 0.23002691650390625
		endloop
	endfacet
	facet normal 0 0 1
		outer loop
			vertex 0.099 0.052000000000000005 0.23002691650390625
			vertex 0.09207059478759766 0.060150562286376955 0.23002691650390625
			vertex 0.09219999694824219 0.059500000000000004 0.23002691650390625
		endloop
	endfacet
	facet normal 0 0 1
		outer loop
			vertex 0.082 0.052000000000000005 0.23002691650390625
			vertex 0.0905 0.05779999923706055 0.23002691650390625
			vertex 0.08984944152832032 0.05792940521240234 0.23002691650390625
		endloop
	endfacet
	facet normal 0 0 1
		outer loop
			vertex 0.0905 0.05779999923706055 0.23002691650390625
			vertex 0.082 0.052000000000000005 0.23002691650390625
			vertex 0.099 0.052000000000000005 0.23002691650390625
		endloop
	endfacet
	facet normal 0 0 1
		outer loop
			vertex 0.08929792022705078 0.058297920227050784 0.23002691650390625
			vertex 0.08892940521240235 0.05884943771362305 0.23002691650390625
			vertex 0.082 0.052000000000000005 0.23002691650390625
		endloop
	endfacet
	facet normal 0 0 1
		outer loop
			vertex 0.08984944152832032 0.05792940521240234 0.23002691650390625
			vertex 0.08929792022705078 0.058297920227050784 0.23002691650390625
			vertex 0.082 0.052000000000000005 0.23002691650390625
		endloop
	endfacet
	facet normal 0 0 1
		outer loop
			vertex 0.082 0.052000000000000005 0.23002691650390625
			vertex 0.08892940521240235 0.05884943771362305 0.23002691650390625
			vertex 0.08880000305175781 0.059500000000000004 0.23002691650390625
		endloop
	endfacet
	facet normal 0 0 1
		outer loop
			vertex 0.09170207977294922 0.06070207977294922 0.23002691650390625
			vertex 0.09207059478759766 0.060150562286376955 0.23002691650390625
			vertex 0.099 0.094 0.23002691650390625
		endloop
	endfacet
	facet normal 0 0 1
		outer loop
			vertex 0.09115055847167969 0.06107059478759766 0.23002691650390625
			vertex 0.099 0.094 0.23002691650390625
			vertex 0.0905 0.06120000076293945 0.23002691650390625
		endloop
	endfacet
	facet normal 0 0 1
		outer loop
			vertex 0.099 0.094 0.23002691650390625
			vertex 0.09115055847167969 0.06107059478759766 0.23002691650390625
			vertex 0.09170207977294922 0.06070207977294922 0.23002691650390625
		endloop
	endfacet
	facet normal 0 0 1
		outer loop
			vertex 0.0905 0.06120000076293945 0.23002691650390625
			vertex 0.099 0.094 0.23002691650390625
			vertex 0.082 0.094 0.23002691650390625
		endloop
	endfacet
	facet normal 0 0 1
		outer loop
			vertex 0.09207059478759766 0.060150562286376955 0.23002691650390625
			vertex 0.099 0.052000000000000005 0.23002691650390625
			vertex 0.099 0.094 0.23002691650390625
		endloop
	endfacet
	facet normal 0 0 1
		outer loop
			vertex 0.08892940521240235 0.060150562286376955 0.23002691650390625
			vertex 0.082 0.094 0.23002691650390625
			vertex 0.082 0.052000000000000005 0.23002691650390625
		endloop
	endfacet
	facet normal 0 0 1
		outer loop
			vertex 0.08929792022705078 0.06070207977294922 0.23002691650390625
			vertex 0.08984944152832032 0.06107059478759766 0.23002691650390625
			vertex 0.082 0.094 0.23002691650390625
		endloop
	endfacet
	facet normal 0 0 1
		outer loop
			vertex 0.082 0.094 0.23002691650390625
			vertex 0.08984944152832032 0.06107059478759766 0.23002691650390625
			vertex 0.0905 0.06120000076293945 0.23002691650390625
		endloop
	endfacet
	facet normal 0 0 1
		outer loop
			vertex 0.08929792022705078 0.06070207977294922 0.23002691650390625
			vertex 0.082 0.094 0.23002691650390625
			vertex 0.08892940521240235 0.060150562286376955 0.23002691650390625
		endloop
	endfacet
	facet normal 0 0 1
		outer loop
			vertex 0.08892940521240235 0.060150562286376955 0.23002691650390625
			vertex 0.082 0.052000000000000005 0.23002691650390625
			vertex 0.08880000305175781 0.059500000000000004 0.23002691650390625
		endloop
	endfacet
	facet normal 0 0 -1
		outer loop
			vertex 0.0905 0.05779999923706055 0.22752691650390625
			vertex 0.09115055847167969 0.05792940521240234 0.22752691650390625
			vertex 0.099 0.052000000000000005 0.22752691650390625
		endloop
	endfacet
	facet normal 0 0 -1
		outer loop
			vertex 0.09170207977294922 0.058297920227050784 0.22752691650390625
			vertex 0.099 0.052000000000000005 0.22752691650390625
			vertex 0.09115055847167969 0.05792940521240234 0.22752691650390625
		endloop
	endfacet
	facet normal 0 0 -1
		outer loop
			vertex 0.099 0.052000000000000005 0.22752691650390625
			vertex 0.09170207977294922 0.058297920227050784 0.22752691650390625
			vertex 0.09207059478759766 0.05884943771362305 0.22752691650390625
		endloop
	endfacet
	facet normal 0 0 -1
		outer loop
			vertex 0.099 0.052000000000000005 0.22752691650390625
			vertex 0.09207059478759766 0.05884943771362305 0.22752691650390625
			vertex 0.09219999694824219 0.059500000000000004 0.22752691650390625
		endloop
	endfacet
	facet normal 0 0 -1
		outer loop
			vertex 0.09219999694824219 0.059500000000000004 0.22752691650390625
			vertex 0.09207059478759766 0.060150562286376955 0.22752691650390625
			vertex 0.099 0.052000000000000005 0.22752691650390625
		endloop
	endfacet
	facet normal 0 0 -1
		outer loop
			vertex 0.08984944152832032 0.05792940521240234 0.22752691650390625
			vertex 0.0905 0.05779999923706055 0.22752691650390625
			vertex 0.082 0.052000000000000005 0.22752691650390625
		endloop
	endfacet
	facet normal 0 0 -1
		outer loop
			vertex 0.099 0.052000000000000005 0.22752691650390625
			vertex 0.082 0.052000000000000005 0.22752691650390625
			vertex 0.0905 0.05779999923706055 0.22752691650390625
		endloop
	endfacet
	facet normal 0 0 -1
		outer loop
			vertex 0.082 0.052000000000000005 0.22752691650390625
			vertex 0.08892940521240235 0.05884943771362305 0.22752691650390625
			vertex 0.08929792022705078 0.058297920227050784 0.22752691650390625
		endloop
	endfacet
	facet normal 0 0 -1
		outer loop
			vertex 0.082 0.052000000000000005 0.22752691650390625
			vertex 0.08929792022705078 0.058297920227050784 0.22752691650390625
			vertex 0.08984944152832032 0.05792940521240234 0.22752691650390625
		endloop
	endfacet
	facet normal 0 0 -1
		outer loop
			vertex 0.08880000305175781 0.059500000000000004 0.22752691650390625
			vertex 0.08892940521240235 0.05884943771362305 0.22752691650390625
			vertex 0.082 0.052000000000000005 0.22752691650390625
		endloop
	endfacet
	facet normal 0 0 -1
		outer loop
			vertex 0.099 0.094 0.22752691650390625
			vertex 0.09207059478759766 0.060150562286376955 0.22752691650390625
			vertex 0.09170207977294922 0.06070207977294922 0.22752691650390625
		endloop
	endfacet
	facet normal 0 0 -1
		outer loop
			vertex 0.0905 0.06120000076293945 0.22752691650390625
			vertex 0.099 0.094 0.22752691650390625
			vertex 0.09115055847167969 0.06107059478759766 0.22752691650390625
		endloop
	endfacet
	facet normal 0 0 -1
		outer loop
			vertex 0.09170207977294922 0.06070207977294922 0.22752691650390625
			vertex 0.09115055847167969 0.06107059478759766 0.22752691650390625
			vertex 0.099 0.094 0.22752691650390625
		endloop
	endfacet
	facet normal 0 0 -1
		outer loop
			vertex 0.082 0.094 0.22752691650390625
			vertex 0.099 0.094 0.22752691650390625
			vertex 0.0905 0.06120000076293945 0.22752691650390625
		endloop
	endfacet
	facet normal 0 0 -1
		outer loop
			vertex 0.099 0.094 0.22752691650390625
			vertex 0.099 0.052000000000000005 0.22752691650390625
			vertex 0.09207059478759766 0.060150562286376955 0.22752691650390625
		endloop
	endfacet
	facet normal 0 0 -1
		outer loop
			vertex 0.082 0.052000000000000005 0.22752691650390625
			vertex 0.082 0.094 0.22752691650390625
			vertex 0.08892940521240235 0.060150562286376955 0.22752691650390625
		endloop
	endfacet
	facet normal 0 0 -1
		outer loop
			vertex 0.082 0.094 0.22752691650390625
			vertex 0.08984944152832032 0.06107059478759766 0.22752691650390625
			vertex 0.08929792022705078 0.06070207977294922 0.22752691650390625
		endloop
	endfacet
	facet normal 0 0 -1
		outer loop
			vertex 0.0905 0.06120000076293945 0.22752691650390625
			vertex 0.08984944152832032 0.06107059478759766 0.22752691650390625
			vertex 0.082 0.094 0.22752691650390625
		endloop
	endfacet
	facet normal 0 0 -1
		outer loop
			vertex 0.08892940521240235 0.060150562286376955 0.22752691650390625
			vertex 0.082 0.094 0.22752691650390625
			vertex 0.08929792022705078 0.06070207977294922 0.22752691650390625
		endloop
	endfacet
	facet normal 0 0 -1
		outer loop
			vertex 0.08880000305175781 0.059500000000000004 0.22752691650390625
			vertex 0.082 0.052000000000000005 0.22752691650390625
			vertex 0.08892940521240235 0.060150562286376955 0.22752691650390625
		endloop
	endfacet
	facet normal 0 -1 0
		outer loop
			vertex 0.082 0.43 0.23002691650390625
			vertex 0.082 0.43 0.22752691650390625
			vertex 0.099 0.43 0.23002691650390625
		endloop
	endfacet
	facet normal 0 -1 0
		outer loop
			vertex 0.099 0.43 0.22752691650390625
			vertex 0.099 0.43 0.23002691650390625
			vertex 0.082 0.43 0.22752691650390625
		endloop
	endfacet
	facet normal -1 0 0
		outer loop
			vertex 0.082 0.47200000000000003 0.23002691650390625
			vertex 0.082 0.47200000000000003 0.22752691650390625
			vertex 0.082 0.43 0.23002691650390625
		endloop
	endfacet
	facet normal -1 0 0
		outer loop
			vertex 0.082 0.43 0.22752691650390625
			vertex 0.082 0.43 0.23002691650390625
			vertex 0.082 0.47200000000000003 0.22752691650390625
		endloop
	endfacet
	facet normal 0 1 0
		outer loop
			vertex 0.099 0.47200000000000003 0.23002691650390625
			vertex 0.099 0.47200000000000003 0.22752691650390625
			vertex 0.082 0.47200000000000003 0.22752691650390625
		endloop
	endfacet
	facet normal 0 1 0
		outer loop
			vertex 0.082 0.47200000000000003 0.22752691650390625
			vertex 0.082 0.47200000000000003 0.23002691650390625
			vertex 0.099 0.47200000000000003 0.23002691650390625
		endloop
	endfacet
	facet normal 1 0 0
		outer loop
			vertex 0.099 0.43 0.23002691650390625
			vertex 0.099 0.43 0.22752691650390625
			vertex 0.099 0.47200000000000003 0.22752691650390625
		endloop
	endfacet
	facet normal 1 0 0
		outer loop
			vertex 0.099 0.47200000000000003 0.22752691650390625
			vertex 0.099 0.47200000000000003 0.23002691650390625
			vertex 0.099 0.43 0.23002691650390625
		endloop
	endfacet
	facet normal 0 0 1
		outer loop
			vertex 0.082 0.47200000000000003 0.23002691650390625
			vertex 0.08984944152832032 0.46607058715820315 0.23002691650390625
			vertex 0.0905 0.4662000122070313 0.23002691650390625
		endloop
	endfacet
	facet normal 0 0 1
		outer loop
			vertex 0.08984944152832032 0.46607058715820315 0.23002691650390625
			vertex 0.082 0.47200000000000003 0.23002691650390625
			vertex 0.08929792022705078 0.46570208740234376 0.23002691650390625
		endloop
	endfacet
	facet normal 0 0 1
		outer loop
			vertex 0.08892940521240235 0.46515057373046875 0.23002691650390625
			vertex 0.08929792022705078 0.46570208740234376 0.23002691650390625
			vertex 0.082 0.47200000000000003 0.23002691650390625
		endloop
	endfacet
	facet normal 0 0 1
		outer loop
			vertex 0.08880000305175781 0.4645 0.23002691650390625
			vertex 0.08892940521240235 0.46515057373046875 0.23002691650390625
			vertex 0.082 0.47200000000000003 0.23002691650390625
		endloop
	endfacet
	facet normal 0 0 1
		outer loop
			vertex 0.082 0.47200000000000003 0.23002691650390625
			vertex 0.08892940521240235 0.46384942626953124 0.23002691650390625
			vertex 0.08880000305175781 0.4645 0.23002691650390625
		endloop
	endfacet
	facet normal 0 0 1
		outer loop
			vertex 0.099 0.47200000000000003 0.23002691650390625
			vertex 0.0905 0.4662000122070313 0.23002691650390625
			vertex 0.09115055847167969 0.46607058715820315 0.23002691650390625
		endloop
	endfacet
	facet normal 0 0 1
		outer loop
			vertex 0.0905 0.4662000122070313 0.23002691650390625
			vertex 0.099 0.47200000000000003 0.23002691650390625
			vertex 0.082 0.47200000000000003 0.23002691650390625
		endloop
	endfacet
	facet normal 0 0 1
		outer loop
			vertex 0.09170207977294922 0.46570208740234376 0.23002691650390625
			vertex 0.09207059478759766 0.46515057373046875 0.23002691650390625
			vertex 0.099 0.47200000000000003 0.23002691650390625
		endloop
	endfacet
	facet normal 0 0 1
		outer loop
			vertex 0.09115055847167969 0.46607058715820315 0.23002691650390625
			vertex 0.09170207977294922 0.46570208740234376 0.23002691650390625
			vertex 0.099 0.47200000000000003 0.23002691650390625
		endloop
	endfacet
	facet normal 0 0 1
		outer loop
			vertex 0.099 0.47200000000000003 0.23002691650390625
			vertex 0.09207059478759766 0.46515057373046875 0.23002691650390625
			vertex 0.09219999694824219 0.4645 0.23002691650390625
		endloop
	endfacet
	facet normal 0 0 1
		outer loop
			vertex 0.08929792022705078 0.46329791259765624 0.23002691650390625
			vertex 0.08892940521240235 0.46384942626953124 0.23002691650390625
			vertex 0.082 0.43 0.23002691650390625
		endloop
	endfacet
	facet normal 0 0 1
		outer loop
			vertex 0.08984944152832032 0.4629294128417969 0.23002691650390625
			vertex 0.082 0.43 0.23002691650390625
			vertex 0.0905 0.46279998779296877 0.23002691650390625
		endloop
	endfacet
	facet normal 0 0 1
		outer loop
			vertex 0.082 0.43 0.23002691650390625
			vertex 0.08984944152832032 0.4629294128417969 0.23002691650390625
			vertex 0.08929792022705078 0.46329791259765624 0.23002691650390625
		endloop
	endfacet
	facet normal 0 0 1
		outer loop
			vertex 0.0905 0.46279998779296877 0.23002691650390625
			vertex 0.082 0.43 0.23002691650390625
			vertex 0.099 0.43 0.23002691650390625
		endloop
	endfacet
	facet normal 0 0 1
		outer loop
			vertex 0.08892940521240235 0.46384942626953124 0.23002691650390625
			vertex 0.082 0.47200000000000003 0.23002691650390625
			vertex 0.082 0.43 0.23002691650390625
		endloop
	endfacet
	facet normal 0 0 1
		outer loop
			vertex 0.09207059478759766 0.46384942626953124 0.23002691650390625
			vertex 0.099 0.43 0.23002691650390625
			vertex 0.099 0.47200000000000003 0.23002691650390625
		endloop
	endfacet
	facet normal 0 0 1
		outer loop
			vertex 0.09170207977294922 0.46329791259765624 0.23002691650390625
			vertex 0.09115055847167969 0.4629294128417969 0.23002691650390625
			vertex 0.099 0.43 0.23002691650390625
		endloop
	endfacet
	facet normal 0 0 1
		outer loop
			vertex 0.099 0.43 0.23002691650390625
			vertex 0.09115055847167969 0.4629294128417969 0.23002691650390625
			vertex 0.0905 0.46279998779296877 0.23002691650390625
		endloop
	endfacet
	facet normal 0 0 1
		outer loop
			vertex 0.09170207977294922 0.46329791259765624 0.23002691650390625
			vertex 0.099 0.43 0.23002691650390625
			vertex 0.09207059478759766 0.46384942626953124 0.23002691650390625
		endloop
	endfacet
	facet normal 0 0 1
		outer loop
			vertex 0.09207059478759766 0.46384942626953124 0.23002691650390625
			vertex 0.099 0.47200000000000003 0.23002691650390625
			vertex 0.09219999694824219 0.4645 0.23002691650390625
		endloop
	endfacet
	facet normal 0 0 -1
		outer loop
			vertex 0.0905 0.4662000122070313 0.22752691650390625
			vertex 0.08984944152832032 0.46607058715820315 0.22752691650390625
			vertex 0.082 0.47200000000000003 0.22752691650390625
		endloop
	endfacet
	facet normal 0 0 -1
		outer loop
			vertex 0.08929792022705078 0.46570208740234376 0.22752691650390625
			vertex 0.082 0.47200000000000003 0.22752691650390625
			vertex 0.08984944152832032 0.46607058715820315 0.22752691650390625
		endloop
	endfacet
	facet normal 0 0 -1
		outer loop
			vertex 0.082 0.47200000000000003 0.22752691650390625
			vertex 0.08929792022705078 0.46570208740234376 0.22752691650390625
			vertex 0.08892940521240235 0.46515057373046875 0.22752691650390625
		endloop
	endfacet
	facet normal 0 0 -1
		outer loop
			vertex 0.082 0.47200000000000003 0.22752691650390625
			vertex 0.08892940521240235 0.46515057373046875 0.22752691650390625
			vertex 0.08880000305175781 0.4645 0.22752691650390625
		endloop
	endfacet
	facet normal 0 0 -1
		outer loop
			vertex 0.08880000305175781 0.4645 0.22752691650390625
			vertex 0.08892940521240235 0.46384942626953124 0.22752691650390625
			vertex 0.082 0.47200000000000003 0.22752691650390625
		endloop
	endfacet
	facet normal 0 0 -1
		outer loop
			vertex 0.09115055847167969 0.46607058715820315 0.22752691650390625
			vertex 0.0905 0.4662000122070313 0.22752691650390625
			vertex 0.099 0.47200000000000003 0.22752691650390625
		endloop
	endfacet
	facet normal 0 0 -1
		outer loop
			vertex 0.082 0.47200000000000003 0.22752691650390625
			vertex 0.099 0.47200000000000003 0.22752691650390625
			vertex 0.0905 0.4662000122070313 0.22752691650390625
		endloop
	endfacet
	facet normal 0 0 -1
		outer loop
			vertex 0.099 0.47200000000000003 0.22752691650390625
			vertex 0.09207059478759766 0.46515057373046875 0.22752691650390625
			vertex 0.09170207977294922 0.46570208740234376 0.22752691650390625
		endloop
	endfacet
	facet normal 0 0 -1
		outer loop
			vertex 0.099 0.47200000000000003 0.22752691650390625
			vertex 0.09170207977294922 0.46570208740234376 0.22752691650390625
			vertex 0.09115055847167969 0.46607058715820315 0.22752691650390625
		endloop
	endfacet
	facet normal 0 0 -1
		outer loop
			vertex 0.09219999694824219 0.4645 0.22752691650390625
			vertex 0.09207059478759766 0.46515057373046875 0.22752691650390625
			vertex 0.099 0.47200000000000003 0.22752691650390625
		endloop
	endfacet
	facet normal 0 0 -1
		outer loop
			vertex 0.082 0.43 0.22752691650390625
			vertex 0.08892940521240235 0.46384942626953124 0.22752691650390625
			vertex 0.08929792022705078 0.46329791259765624 0.22752691650390625
		endloop
	endfacet
	facet normal 0 0 -1
		outer loop
			vertex 0.0905 0.46279998779296877 0.22752691650390625
			vertex 0.082 0.43 0.22752691650390625
			vertex 0.08984944152832032 0.4629294128417969 0.22752691650390625
		endloop
	endfacet
	facet normal 0 0 -1
		outer loop
			vertex 0.08929792022705078 0.46329791259765624 0.22752691650390625
			vertex 0.08984944152832032 0.4629294128417969 0.22752691650390625
			vertex 0.082 0.43 0.22752691650390625
		endloop
	endfacet
	facet normal 0 0 -1
		outer loop
			vertex 0.099 0.43 0.22752691650390625
			vertex 0.082 0.43 0.22752691650390625
			vertex 0.0905 0.46279998779296877 0.22752691650390625
		endloop
	endfacet
	facet normal 0 0 -1
		outer loop
			vertex 0.082 0.43 0.22752691650390625
			vertex 0.082 0.47200000000000003 0.22752691650390625
			vertex 0.08892940521240235 0.46384942626953124 0.22752691650390625
		endloop
	endfacet
	facet normal 0 0 -1
		outer loop
			vertex 0.099 0.47200000000000003 0.22752691650390625
			vertex 0.099 0.43 0.22752691650390625
			vertex 0.09207059478759766 0.46384942626953124 0.22752691650390625
		endloop
	endfacet
	facet normal 0 0 -1
		outer loop
			vertex 0.099 0.43 0.22752691650390625
			vertex 0.09115055847167969 0.4629294128417969 0.22752691650390625
			vertex 0.09170207977294922 0.46329791259765624 0.22752691650390625
		endloop
	endfacet
	facet normal 0 0 -1
		outer loop
			vertex 0.0905 0.46279998779296877 0.22752691650390625
			vertex 0.09115055847167969 0.4629294128417969 0.22752691650390625
			vertex 0.099 0.43 0.22752691650390625
		endloop
	endfacet
	facet normal 0 0 -1
		outer loop
			vertex 0.09207059478759766 0.46384942626953124 0.22752691650390625
			vertex 0.099 0.43 0.22752691650390625
			vertex 0.09170207977294922 0.46329791259765624 0.22752691650390625
		endloop
	endfacet
	facet normal 0 0 -1
		outer loop
			vertex 0.09219999694824219 0.4645 0.22752691650390625
			vertex 0.099 0.47200000000000003 0.22752691650390625
			vertex 0.09207059478759766 0.46384942626953124 0.22752691650390625
		endloop
	endfacet
endsolid exported
