solid exported
	facet normal 0 0 1
		outer loop
			vertex 0.078 0.496 0.23402691650390625
			vertex 0.074 0.47900000000000004 0.23402691650390625
			vertex 0.078 0.47900000000000004 0.23402691650390625
		endloop
	endfacet
	facet normal 0 0 1
		outer loop
			vertex 0.074 0.47900000000000004 0.23402691650390625
			vertex 0.078 0.496 0.23402691650390625
			vertex 0.074 0.496 0.23402691650390625
		endloop
	endfacet
	facet normal 0 1 0
		outer loop
			vertex 0.079 0.496 0.22202691650390624
			vertex 0.078 0.496 0.22302691650390624
			vertex 0.079 0.496 0.23502691650390625
		endloop
	endfacet
	facet normal 0 1 0
		outer loop
			vertex 0.078 0.496 0.22302691650390624
			vertex 0.079 0.496 0.22202691650390624
			vertex 0.078 0.496 0.22202691650390624
		endloop
	endfacet
	facet normal 0 1 0
		outer loop
			vertex 0.074 0.496 0.22302691650390624
			vertex 0.078 0.496 0.23402691650390625
			vertex 0.078 0.496 0.22302691650390624
		endloop
	endfacet
	facet normal 0 1 0
		outer loop
			vertex 0.078 0.496 0.23402691650390625
			vertex 0.079 0.496 0.23502691650390625
			vertex 0.078 0.496 0.22302691650390624
		endloop
	endfacet
	facet normal 0 1 0
		outer loop
			vertex 0.079 0.496 0.23502691650390625
			vertex 0.078 0.496 0.23402691650390625
			vertex 0.078 0.496 0.23502691650390625
		endloop
	endfacet
	facet normal 0 1 0
		outer loop
			vertex 0.074 0.496 0.23402691650390625
			vertex 0.078 0.496 0.23402691650390625
			vertex 0.074 0.496 0.22302691650390624
		endloop
	endfacet
	facet normal 0 0 -1
		outer loop
			vertex 0.078 0.47900000000000004 0.22302691650390624
			vertex 0.074 0.496 0.22302691650390624
			vertex 0.078 0.496 0.22302691650390624
		endloop
	endfacet
	facet normal 0 0 -1
		outer loop
			vertex 0.074 0.496 0.22302691650390624
			vertex 0.078 0.47900000000000004 0.22302691650390624
			vertex 0.074 0.47900000000000004 0.22302691650390624
		endloop
	endfacet
	facet normal 0 -1 0
		outer loop
			vertex 0.079 0.47900000000000004 0.23502691650390625
			vertex 0.078 0.47900000000000004 0.23402691650390625
			vertex 0.079 0.47900000000000004 0.22202691650390624
		endloop
	endfacet
	facet normal 0 -1 0
		outer loop
			vertex 0.078 0.47900000000000004 0.23402691650390625
			vertex 0.079 0.47900000000000004 0.23502691650390625
			vertex 0.078 0.47900000000000004 0.23502691650390625
		endloop
	endfacet
	facet normal 0 -1 0
		outer loop
			vertex 0.074 0.47900000000000004 0.23402691650390625
			vertex 0.074 0.47900000000000004 0.22302691650390624
			vertex 0.078 0.47900000000000004 0.23402691650390625
		endloop
	endfacet
	facet normal 0 -1 0
		outer loop
			vertex 0.074 0.47900000000000004 0.22302691650390624
			vertex 0.078 0.47900000000000004 0.22302691650390624
			vertex 0.078 0.47900000000000004 0.23402691650390625
		endloop
	endfacet
	facet normal 0 -1 0
		outer loop
			vertex 0.078 0.47900000000000004 0.22202691650390624
			vertex 0.079 0.47900000000000004 0.22202691650390624
			vertex 0.078 0.47900000000000004 0.22302691650390624
		endloop
	endfacet
	facet normal 0 -1 0
		outer loop
			vertex 0.078 0.47900000000000004 0.22302691650390624
			vertex 0.079 0.47900000000000004 0.22202691650390624
			vertex 0.078 0.47900000000000004 0.23402691650390625
		endloop
	endfacet
	facet normal 0 1 0
		outer loop
			vertex 0.04766060638427735 0.503 0.2497933349609375
			vertex 0.041928932189941405 0.503 0.24595585632324218
			vertex 0.04652512741088867 0.503 0.2505520477294922
		endloop
	endfacet
	facet normal 0 1 0
		outer loop
			vertex 0.04517316436767578 0.503 0.24378811645507814
			vertex 0.04766060638427735 0.503 0.2497933349609375
			vertex 0.049 0.503 0.24952691650390627
		endloop
	endfacet
	facet normal 0 1 0
		outer loop
			vertex 0.04766060638427735 0.503 0.2497933349609375
			vertex 0.04517316436767578 0.503 0.24378811645507814
			vertex 0.041928932189941405 0.503 0.24595585632324218
		endloop
	endfacet
	facet normal 0 1 0
		outer loop
			vertex 0.041928932189941405 0.503 0.24595585632324218
			vertex 0.03976120376586914 0.503 0.24920008850097658
			vertex 0.04652512741088867 0.503 0.2505520477294922
		endloop
	endfacet
	facet normal 0 1 0
		outer loop
			vertex 0.0455 0.503 0.25302691650390624
			vertex 0.045766422271728516 0.503 0.25168753051757814
			vertex 0.03976120376586914 0.503 0.24920008850097658
		endloop
	endfacet
	facet normal 0 1 0
		outer loop
			vertex 0.0455 0.503 0.25302691650390624
			vertex 0.039 0.503 0.25302691650390624
			vertex 0.045766422271728516 0.503 0.2543663024902344
		endloop
	endfacet
	facet normal 0 1 0
		outer loop
			vertex 0.04652512741088867 0.503 0.2505520477294922
			vertex 0.03976120376586914 0.503 0.24920008850097658
			vertex 0.045766422271728516 0.503 0.25168753051757814
		endloop
	endfacet
	facet normal 0 1 0
		outer loop
			vertex 0.03976120376586914 0.503 0.24920008850097658
			vertex 0.039 0.503 0.25302691650390624
			vertex 0.0455 0.503 0.25302691650390624
		endloop
	endfacet
	facet normal 0 1 0
		outer loop
			vertex 0.05607106781005859 0.503 0.24595585632324218
			vertex 0.05282683563232422 0.503 0.24378811645507814
			vertex 0.050339393615722657 0.503 0.2497933349609375
		endloop
	endfacet
	facet normal 0 1 0
		outer loop
			vertex 0.05223357772827149 0.503 0.25168753051757814
			vertex 0.05823879623413086 0.503 0.24920008850097658
			vertex 0.05607106781005859 0.503 0.24595585632324218
		endloop
	endfacet
	facet normal 0 1 0
		outer loop
			vertex 0.049 0.503 0.24952691650390627
			vertex 0.05282683563232422 0.503 0.24378811645507814
			vertex 0.049 0.503 0.24302691650390626
		endloop
	endfacet
	facet normal 0 1 0
		outer loop
			vertex 0.049 0.503 0.24952691650390627
			vertex 0.050339393615722657 0.503 0.2497933349609375
			vertex 0.05282683563232422 0.503 0.24378811645507814
		endloop
	endfacet
	facet normal 0 1 0
		outer loop
			vertex 0.05147487258911133 0.503 0.2505520477294922
			vertex 0.05223357772827149 0.503 0.25168753051757814
			vertex 0.05607106781005859 0.503 0.24595585632324218
		endloop
	endfacet
	facet normal 0 1 0
		outer loop
			vertex 0.050339393615722657 0.503 0.2497933349609375
			vertex 0.05147487258911133 0.503 0.2505520477294922
			vertex 0.05607106781005859 0.503 0.24595585632324218
		endloop
	endfacet
	facet normal 0 1 0
		outer loop
			vertex 0.049 0.503 0.24302691650390626
			vertex 0.04517316436767578 0.503 0.24378811645507814
			vertex 0.049 0.503 0.24952691650390627
		endloop
	endfacet
	facet normal 0 1 0
		outer loop
			vertex 0.05823879623413086 0.503 0.24920008850097658
			vertex 0.05223357772827149 0.503 0.25168753051757814
			vertex 0.0525 0.503 0.25302691650390624
		endloop
	endfacet
	facet normal 0 1 0
		outer loop
			vertex 0.04652512741088867 0.503 0.2555017852783203
			vertex 0.045766422271728516 0.503 0.2543663024902344
			vertex 0.041928932189941405 0.503 0.26009799194335936
		endloop
	endfacet
	facet normal 0 1 0
		outer loop
			vertex 0.049 0.503 0.25652691650390624
			vertex 0.04766060638427735 0.503 0.256260498046875
			vertex 0.049 0.503 0.26302691650390625
		endloop
	endfacet
	facet normal 0 1 0
		outer loop
			vertex 0.04652512741088867 0.503 0.2555017852783203
			vertex 0.04517316436767578 0.503 0.2622657165527344
			vertex 0.04766060638427735 0.503 0.256260498046875
		endloop
	endfacet
	facet normal 0 1 0
		outer loop
			vertex 0.041928932189941405 0.503 0.26009799194335936
			vertex 0.04517316436767578 0.503 0.2622657165527344
			vertex 0.04652512741088867 0.503 0.2555017852783203
		endloop
	endfacet
	facet normal 0 1 0
		outer loop
			vertex 0.049 0.503 0.26302691650390625
			vertex 0.04766060638427735 0.503 0.256260498046875
			vertex 0.04517316436767578 0.503 0.2622657165527344
		endloop
	endfacet
	facet normal 0 1 0
		outer loop
			vertex 0.045766422271728516 0.503 0.2543663024902344
			vertex 0.03976120376586914 0.503 0.256853759765625
			vertex 0.041928932189941405 0.503 0.26009799194335936
		endloop
	endfacet
	facet normal 0 1 0
		outer loop
			vertex 0.045766422271728516 0.503 0.2543663024902344
			vertex 0.039 0.503 0.25302691650390624
			vertex 0.03976120376586914 0.503 0.256853759765625
		endloop
	endfacet
	facet normal 0 1 0
		outer loop
			vertex 0.049 0.503 0.25652691650390624
			vertex 0.049 0.503 0.26302691650390625
			vertex 0.05282683563232422 0.503 0.2622657165527344
		endloop
	endfacet
	facet normal 0 1 0
		outer loop
			vertex 0.059000000000000004 0.503 0.25302691650390624
			vertex 0.05223357772827149 0.503 0.2543663024902344
			vertex 0.05823879623413086 0.503 0.256853759765625
		endloop
	endfacet
	facet normal 0 1 0
		outer loop
			vertex 0.0525 0.503 0.25302691650390624
			vertex 0.059000000000000004 0.503 0.25302691650390624
			vertex 0.05823879623413086 0.503 0.24920008850097658
		endloop
	endfacet
	facet normal 0 1 0
		outer loop
			vertex 0.059000000000000004 0.503 0.25302691650390624
			vertex 0.0525 0.503 0.25302691650390624
			vertex 0.05223357772827149 0.503 0.2543663024902344
		endloop
	endfacet
	facet normal 0 1 0
		outer loop
			vertex 0.05223357772827149 0.503 0.2543663024902344
			vertex 0.05147487258911133 0.503 0.2555017852783203
			vertex 0.05823879623413086 0.503 0.256853759765625
		endloop
	endfacet
	facet normal 0 1 0
		outer loop
			vertex 0.05282683563232422 0.503 0.2622657165527344
			vertex 0.05607106781005859 0.503 0.26009799194335936
			vertex 0.05147487258911133 0.503 0.2555017852783203
		endloop
	endfacet
	facet normal 0 1 0
		outer loop
			vertex 0.05282683563232422 0.503 0.2622657165527344
			vertex 0.050339393615722657 0.503 0.256260498046875
			vertex 0.049 0.503 0.25652691650390624
		endloop
	endfacet
	facet normal 0 1 0
		outer loop
			vertex 0.05823879623413086 0.503 0.256853759765625
			vertex 0.05147487258911133 0.503 0.2555017852783203
			vertex 0.05607106781005859 0.503 0.26009799194335936
		endloop
	endfacet
	facet normal 0 1 0
		outer loop
			vertex 0.05147487258911133 0.503 0.2555017852783203
			vertex 0.050339393615722657 0.503 0.256260498046875
			vertex 0.05282683563232422 0.503 0.2622657165527344
		endloop
	endfacet
	facet normal 0 -1 0
		outer loop
			vertex 0.04652512741088867 0.502 0.2505520477294922
			vertex 0.041928932189941405 0.502 0.24595585632324218
			vertex 0.04766060638427735 0.502 0.2497933349609375
		endloop
	endfacet
	facet normal 0 -1 0
		outer loop
			vertex 0.049 0.502 0.24952691650390627
			vertex 0.04766060638427735 0.502 0.2497933349609375
			vertex 0.04517316436767578 0.502 0.24378811645507814
		endloop
	endfacet
	facet normal 0 -1 0
		outer loop
			vertex 0.041928932189941405 0.502 0.24595585632324218
			vertex 0.04517316436767578 0.502 0.24378811645507814
			vertex 0.04766060638427735 0.502 0.2497933349609375
		endloop
	endfacet
	facet normal 0 -1 0
		outer loop
			vertex 0.04652512741088867 0.502 0.2505520477294922
			vertex 0.03976120376586914 0.502 0.24920008850097658
			vertex 0.041928932189941405 0.502 0.24595585632324218
		endloop
	endfacet
	facet normal 0 -1 0
		outer loop
			vertex 0.03976120376586914 0.502 0.24920008850097658
			vertex 0.045766422271728516 0.502 0.25168753051757814
			vertex 0.0455 0.502 0.25302691650390624
		endloop
	endfacet
	facet normal 0 -1 0
		outer loop
			vertex 0.045766422271728516 0.502 0.2543663024902344
			vertex 0.039 0.502 0.25302691650390624
			vertex 0.0455 0.502 0.25302691650390624
		endloop
	endfacet
	facet normal 0 -1 0
		outer loop
			vertex 0.045766422271728516 0.502 0.25168753051757814
			vertex 0.03976120376586914 0.502 0.24920008850097658
			vertex 0.04652512741088867 0.502 0.2505520477294922
		endloop
	endfacet
	facet normal 0 -1 0
		outer loop
			vertex 0.0455 0.502 0.25302691650390624
			vertex 0.039 0.502 0.25302691650390624
			vertex 0.03976120376586914 0.502 0.24920008850097658
		endloop
	endfacet
	facet normal 0 -1 0
		outer loop
			vertex 0.050339393615722657 0.502 0.2497933349609375
			vertex 0.05282683563232422 0.502 0.24378811645507814
			vertex 0.05607106781005859 0.502 0.24595585632324218
		endloop
	endfacet
	facet normal 0 -1 0
		outer loop
			vertex 0.05607106781005859 0.502 0.24595585632324218
			vertex 0.05823879623413086 0.502 0.24920008850097658
			vertex 0.05223357772827149 0.502 0.25168753051757814
		endloop
	endfacet
	facet normal 0 -1 0
		outer loop
			vertex 0.049 0.502 0.24302691650390626
			vertex 0.05282683563232422 0.502 0.24378811645507814
			vertex 0.049 0.502 0.24952691650390627
		endloop
	endfacet
	facet normal 0 -1 0
		outer loop
			vertex 0.05282683563232422 0.502 0.24378811645507814
			vertex 0.050339393615722657 0.502 0.2497933349609375
			vertex 0.049 0.502 0.24952691650390627
		endloop
	endfacet
	facet normal 0 -1 0
		outer loop
			vertex 0.05607106781005859 0.502 0.24595585632324218
			vertex 0.05223357772827149 0.502 0.25168753051757814
			vertex 0.05147487258911133 0.502 0.2505520477294922
		endloop
	endfacet
	facet normal 0 -1 0
		outer loop
			vertex 0.05607106781005859 0.502 0.24595585632324218
			vertex 0.05147487258911133 0.502 0.2505520477294922
			vertex 0.050339393615722657 0.502 0.2497933349609375
		endloop
	endfacet
	facet normal 0 -1 0
		outer loop
			vertex 0.049 0.502 0.24952691650390627
			vertex 0.04517316436767578 0.502 0.24378811645507814
			vertex 0.049 0.502 0.24302691650390626
		endloop
	endfacet
	facet normal 0 -1 0
		outer loop
			vertex 0.0525 0.502 0.25302691650390624
			vertex 0.05223357772827149 0.502 0.25168753051757814
			vertex 0.05823879623413086 0.502 0.24920008850097658
		endloop
	endfacet
	facet normal 0 -1 0
		outer loop
			vertex 0.041928932189941405 0.502 0.26009799194335936
			vertex 0.045766422271728516 0.502 0.2543663024902344
			vertex 0.04652512741088867 0.502 0.2555017852783203
		endloop
	endfacet
	facet normal 0 -1 0
		outer loop
			vertex 0.049 0.502 0.26302691650390625
			vertex 0.04766060638427735 0.502 0.256260498046875
			vertex 0.049 0.502 0.25652691650390624
		endloop
	endfacet
	facet normal 0 -1 0
		outer loop
			vertex 0.04766060638427735 0.502 0.256260498046875
			vertex 0.04517316436767578 0.502 0.2622657165527344
			vertex 0.04652512741088867 0.502 0.2555017852783203
		endloop
	endfacet
	facet normal 0 -1 0
		outer loop
			vertex 0.04652512741088867 0.502 0.2555017852783203
			vertex 0.04517316436767578 0.502 0.2622657165527344
			vertex 0.041928932189941405 0.502 0.26009799194335936
		endloop
	endfacet
	facet normal 0 -1 0
		outer loop
			vertex 0.04517316436767578 0.502 0.2622657165527344
			vertex 0.04766060638427735 0.502 0.256260498046875
			vertex 0.049 0.502 0.26302691650390625
		endloop
	endfacet
	facet normal 0 -1 0
		outer loop
			vertex 0.041928932189941405 0.502 0.26009799194335936
			vertex 0.03976120376586914 0.502 0.256853759765625
			vertex 0.045766422271728516 0.502 0.2543663024902344
		endloop
	endfacet
	facet normal 0 -1 0
		outer loop
			vertex 0.03976120376586914 0.502 0.256853759765625
			vertex 0.039 0.502 0.25302691650390624
			vertex 0.045766422271728516 0.502 0.2543663024902344
		endloop
	endfacet
	facet normal 0 -1 0
		outer loop
			vertex 0.05282683563232422 0.502 0.2622657165527344
			vertex 0.049 0.502 0.26302691650390625
			vertex 0.049 0.502 0.25652691650390624
		endloop
	endfacet
	facet normal 0 -1 0
		outer loop
			vertex 0.05823879623413086 0.502 0.256853759765625
			vertex 0.05223357772827149 0.502 0.2543663024902344
			vertex 0.059000000000000004 0.502 0.25302691650390624
		endloop
	endfacet
	facet normal 0 -1 0
		outer loop
			vertex 0.05823879623413086 0.502 0.24920008850097658
			vertex 0.059000000000000004 0.502 0.25302691650390624
			vertex 0.0525 0.502 0.25302691650390624
		endloop
	endfacet
	facet normal 0 -1 0
		outer loop
			vertex 0.05223357772827149 0.502 0.2543663024902344
			vertex 0.0525 0.502 0.25302691650390624
			vertex 0.059000000000000004 0.502 0.25302691650390624
		endloop
	endfacet
	facet normal 0 -1 0
		outer loop
			vertex 0.05823879623413086 0.502 0.256853759765625
			vertex 0.05147487258911133 0.502 0.2555017852783203
			vertex 0.05223357772827149 0.502 0.2543663024902344
		endloop
	endfacet
	facet normal 0 -1 0
		outer loop
			vertex 0.05147487258911133 0.502 0.2555017852783203
			vertex 0.05607106781005859 0.502 0.26009799194335936
			vertex 0.05282683563232422 0.502 0.2622657165527344
		endloop
	endfacet
	facet normal 0 -1 0
		outer loop
			vertex 0.049 0.502 0.25652691650390624
			vertex 0.050339393615722657 0.502 0.256260498046875
			vertex 0.05282683563232422 0.502 0.2622657165527344
		endloop
	endfacet
	facet normal 0 -1 0
		outer loop
			vertex 0.05607106781005859 0.502 0.26009799194335936
			vertex 0.05147487258911133 0.502 0.2555017852783203
			vertex 0.05823879623413086 0.502 0.256853759765625
		endloop
	endfacet
	facet normal 0 -1 0
		outer loop
			vertex 0.05282683563232422 0.502 0.2622657165527344
			vertex 0.050339393615722657 0.502 0.256260498046875
			vertex 0.05147487258911133 0.502 0.2555017852783203
		endloop
	endfacet
	facet normal -0.5555725772696823 0 -0.8314680459199398
		outer loop
			vertex 0.041928932189941405 0.503 0.24595585632324218
			vertex 0.04517316436767578 0.502 0.24378811645507814
			vertex 0.041928932189941405 0.502 0.24595585632324218
		endloop
	endfacet
	facet normal -0.8314694008012392 0 -0.5555705495535452
		outer loop
			vertex 0.041928932189941405 0.502 0.24595585632324218
			vertex 0.03976120376586914 0.502 0.24920008850097658
			vertex 0.03976120376586914 0.503 0.24920008850097658
		endloop
	endfacet
	facet normal -0.9807852633251953 0 -0.19509040787318938
		outer loop
			vertex 0.039 0.502 0.25302691650390624
			vertex 0.03976120376586914 0.503 0.24920008850097658
			vertex 0.03976120376586914 0.502 0.24920008850097658
		endloop
	endfacet
	facet normal -0.9807854121668168 0 0.195089659594678
		outer loop
			vertex 0.039 0.502 0.25302691650390624
			vertex 0.03976120376586914 0.502 0.256853759765625
			vertex 0.039 0.503 0.25302691650390624
		endloop
	endfacet
	facet normal -0.5555698736459633 0 0.8314698524282214
		outer loop
			vertex 0.041928932189941405 0.503 0.26009799194335936
			vertex 0.041928932189941405 0.502 0.26009799194335936
			vertex 0.04517316436767578 0.502 0.2622657165527344
		endloop
	endfacet
	facet normal -0.8314694008012392 0 0.5555705495535452
		outer loop
			vertex 0.03976120376586914 0.503 0.256853759765625
			vertex 0.03976120376586914 0.502 0.256853759765625
			vertex 0.041928932189941405 0.502 0.26009799194335936
		endloop
	endfacet
	facet normal -0.19508909326898882 0 -0.9807855248154329
		outer loop
			vertex 0.049 0.502 0.24302691650390626
			vertex 0.04517316436767578 0.502 0.24378811645507814
			vertex 0.04517316436767578 0.503 0.24378811645507814
		endloop
	endfacet
	facet normal 0.8314694008012392 0 -0.5555705495535452
		outer loop
			vertex 0.05823879623413086 0.502 0.24920008850097658
			vertex 0.05607106781005859 0.502 0.24595585632324218
			vertex 0.05607106781005859 0.503 0.24595585632324218
		endloop
	endfacet
	facet normal 0.5555725772696823 0 -0.8314680459199398
		outer loop
			vertex 0.05607106781005859 0.502 0.24595585632324218
			vertex 0.05282683563232422 0.502 0.24378811645507814
			vertex 0.05282683563232422 0.503 0.24378811645507814
		endloop
	endfacet
	facet normal 0.9807852633251953 0 -0.19509040787318938
		outer loop
			vertex 0.059000000000000004 0.502 0.25302691650390624
			vertex 0.05823879623413086 0.502 0.24920008850097658
			vertex 0.05823879623413086 0.503 0.24920008850097658
		endloop
	endfacet
	facet normal 0.19508909326898882 0 0.9807855248154329
		outer loop
			vertex 0.049 0.503 0.26302691650390625
			vertex 0.049 0.502 0.26302691650390625
			vertex 0.05282683563232422 0.502 0.2622657165527344
		endloop
	endfacet
	facet normal 0.8314694008012392 0 0.5555705495535452
		outer loop
			vertex 0.05823879623413086 0.503 0.256853759765625
			vertex 0.05607106781005859 0.502 0.26009799194335936
			vertex 0.05823879623413086 0.502 0.256853759765625
		endloop
	endfacet
	facet normal 0.5555698736459633 0 0.8314698524282214
		outer loop
			vertex 0.05607106781005859 0.502 0.26009799194335936
			vertex 0.05282683563232422 0.503 0.2622657165527344
			vertex 0.05282683563232422 0.502 0.2622657165527344
		endloop
	endfacet
	facet normal 0.9807854121668168 0 0.195089659594678
		outer loop
			vertex 0.05823879623413086 0.502 0.256853759765625
			vertex 0.059000000000000004 0.502 0.25302691650390624
			vertex 0.059000000000000004 0.503 0.25302691650390624
		endloop
	endfacet
	facet normal -0.19508909326898882 0 0.9807855248154329
		outer loop
			vertex 0.049 0.502 0.26302691650390625
			vertex 0.04517316436767578 0.503 0.2622657165527344
			vertex 0.04517316436767578 0.502 0.2622657165527344
		endloop
	endfacet
	facet normal -0.5555725772696823 0 -0.8314680459199398
		outer loop
			vertex 0.041928932189941405 0.503 0.24595585632324218
			vertex 0.04517316436767578 0.503 0.24378811645507814
			vertex 0.04517316436767578 0.502 0.24378811645507814
		endloop
	endfacet
	facet normal -0.8314694008012392 0 -0.5555705495535452
		outer loop
			vertex 0.041928932189941405 0.503 0.24595585632324218
			vertex 0.041928932189941405 0.502 0.24595585632324218
			vertex 0.03976120376586914 0.503 0.24920008850097658
		endloop
	endfacet
	facet normal -0.9807852633251953 0 -0.19509040787318938
		outer loop
			vertex 0.039 0.503 0.25302691650390624
			vertex 0.03976120376586914 0.503 0.24920008850097658
			vertex 0.039 0.502 0.25302691650390624
		endloop
	endfacet
	facet normal -0.9807854121668168 0 0.195089659594678
		outer loop
			vertex 0.039 0.503 0.25302691650390624
			vertex 0.03976120376586914 0.502 0.256853759765625
			vertex 0.03976120376586914 0.503 0.256853759765625
		endloop
	endfacet
	facet normal -0.5555698736459633 0 0.8314698524282214
		outer loop
			vertex 0.041928932189941405 0.503 0.26009799194335936
			vertex 0.04517316436767578 0.502 0.2622657165527344
			vertex 0.04517316436767578 0.503 0.2622657165527344
		endloop
	endfacet
	facet normal -0.19508909326898882 0 0.9807855248154329
		outer loop
			vertex 0.049 0.502 0.26302691650390625
			vertex 0.049 0.503 0.26302691650390625
			vertex 0.04517316436767578 0.503 0.2622657165527344
		endloop
	endfacet
	facet normal -0.8314694008012392 0 0.5555705495535452
		outer loop
			vertex 0.03976120376586914 0.503 0.256853759765625
			vertex 0.041928932189941405 0.502 0.26009799194335936
			vertex 0.041928932189941405 0.503 0.26009799194335936
		endloop
	endfacet
	facet normal 0.9807852633251953 0 -0.19509040787318938
		outer loop
			vertex 0.059000000000000004 0.503 0.25302691650390624
			vertex 0.059000000000000004 0.502 0.25302691650390624
			vertex 0.05823879623413086 0.503 0.24920008850097658
		endloop
	endfacet
	facet normal 0.5555725772696823 0 -0.8314680459199398
		outer loop
			vertex 0.05607106781005859 0.503 0.24595585632324218
			vertex 0.05607106781005859 0.502 0.24595585632324218
			vertex 0.05282683563232422 0.503 0.24378811645507814
		endloop
	endfacet
	facet normal 0.8314694008012392 0 -0.5555705495535452
		outer loop
			vertex 0.05607106781005859 0.503 0.24595585632324218
			vertex 0.05823879623413086 0.503 0.24920008850097658
			vertex 0.05823879623413086 0.502 0.24920008850097658
		endloop
	endfacet
	facet normal 0.5555698736459633 0 0.8314698524282214
		outer loop
			vertex 0.05282683563232422 0.503 0.2622657165527344
			vertex 0.05607106781005859 0.502 0.26009799194335936
			vertex 0.05607106781005859 0.503 0.26009799194335936
		endloop
	endfacet
	facet normal 0.8314694008012392 0 0.5555705495535452
		outer loop
			vertex 0.05607106781005859 0.503 0.26009799194335936
			vertex 0.05607106781005859 0.502 0.26009799194335936
			vertex 0.05823879623413086 0.503 0.256853759765625
		endloop
	endfacet
	facet normal 0.9807854121668168 0 0.195089659594678
		outer loop
			vertex 0.059000000000000004 0.503 0.25302691650390624
			vertex 0.05823879623413086 0.503 0.256853759765625
			vertex 0.05823879623413086 0.502 0.256853759765625
		endloop
	endfacet
	facet normal 0.19508909326898882 0 0.9807855248154329
		outer loop
			vertex 0.05282683563232422 0.503 0.2622657165527344
			vertex 0.049 0.503 0.26302691650390625
			vertex 0.05282683563232422 0.502 0.2622657165527344
		endloop
	endfacet
	facet normal -0.19508909326898882 0 -0.9807855248154329
		outer loop
			vertex 0.049 0.503 0.24302691650390626
			vertex 0.049 0.502 0.24302691650390626
			vertex 0.04517316436767578 0.503 0.24378811645507814
		endloop
	endfacet
	facet normal 0.19508909326898882 0 -0.9807855248154329
		outer loop
			vertex 0.049 0.503 0.24302691650390626
			vertex 0.05282683563232422 0.502 0.24378811645507814
			vertex 0.049 0.502 0.24302691650390626
		endloop
	endfacet
	facet normal 0.19508909326898882 0 -0.9807855248154329
		outer loop
			vertex 0.049 0.503 0.24302691650390626
			vertex 0.05282683563232422 0.503 0.24378811645507814
			vertex 0.05282683563232422 0.502 0.24378811645507814
		endloop
	endfacet
	facet normal -0.5555752826378553 0 0.8314662382333194
		outer loop
			vertex 0.04766060638427735 0.47700000000000004 0.256260498046875
			vertex 0.04766060638427735 0.502 0.256260498046875
			vertex 0.04652512741088867 0.502 0.2555017852783203
		endloop
	endfacet
	facet normal -0.8314696811601584 0 0.555570129966888
		outer loop
			vertex 0.045766422271728516 0.47700000000000004 0.2543663024902344
			vertex 0.04652512741088867 0.502 0.2555017852783203
			vertex 0.045766422271728516 0.502 0.2543663024902344
		endloop
	endfacet
	facet normal -0.9807850233861082 0 0.19509161412400938
		outer loop
			vertex 0.045766422271728516 0.502 0.2543663024902344
			vertex 0.0455 0.502 0.25302691650390624
			vertex 0.045766422271728516 0.47700000000000004 0.2543663024902344
		endloop
	endfacet
	facet normal -0.8314696811601584 0 -0.555570129966888
		outer loop
			vertex 0.045766422271728516 0.502 0.25168753051757814
			vertex 0.04652512741088867 0.502 0.2505520477294922
			vertex 0.045766422271728516 0.47700000000000004 0.25168753051757814
		endloop
	endfacet
	facet normal -0.5555752826378553 0 -0.8314662382333194
		outer loop
			vertex 0.04652512741088867 0.502 0.2505520477294922
			vertex 0.04766060638427735 0.502 0.2497933349609375
			vertex 0.04766060638427735 0.47700000000000004 0.2497933349609375
		endloop
	endfacet
	facet normal -0.19508785810831297 0 0.9807857705017498
		outer loop
			vertex 0.049 0.502 0.25652691650390624
			vertex 0.04766060638427735 0.502 0.256260498046875
			vertex 0.04766060638427735 0.47700000000000004 0.256260498046875
		endloop
	endfacet
	facet normal -0.19508785810831297 0 -0.9807857705017498
		outer loop
			vertex 0.04766060638427735 0.47700000000000004 0.2497933349609375
			vertex 0.04766060638427735 0.502 0.2497933349609375
			vertex 0.049 0.502 0.24952691650390627
		endloop
	endfacet
	facet normal 0.9807850233861082 0 -0.19509161412400938
		outer loop
			vertex 0.0525 0.502 0.25302691650390624
			vertex 0.05223357772827149 0.47700000000000004 0.25168753051757814
			vertex 0.05223357772827149 0.502 0.25168753051757814
		endloop
	endfacet
	facet normal 0.8314696811601584 0 0.555570129966888
		outer loop
			vertex 0.05147487258911133 0.502 0.2555017852783203
			vertex 0.05147487258911133 0.47700000000000004 0.2555017852783203
			vertex 0.05223357772827149 0.502 0.2543663024902344
		endloop
	endfacet
	facet normal 0.5555752826378553 0 -0.8314662382333194
		outer loop
			vertex 0.050339393615722657 0.502 0.2497933349609375
			vertex 0.05147487258911133 0.502 0.2505520477294922
			vertex 0.05147487258911133 0.47700000000000004 0.2505520477294922
		endloop
	endfacet
	facet normal 0.5555752826378553 0 0.8314662382333194
		outer loop
			vertex 0.05147487258911133 0.502 0.2555017852783203
			vertex 0.050339393615722657 0.502 0.256260498046875
			vertex 0.05147487258911133 0.47700000000000004 0.2555017852783203
		endloop
	endfacet
	facet normal 0.9807850233861082 0 0.19509161412400938
		outer loop
			vertex 0.0525 0.502 0.25302691650390624
			vertex 0.05223357772827149 0.502 0.2543663024902344
			vertex 0.05223357772827149 0.47700000000000004 0.2543663024902344
		endloop
	endfacet
	facet normal 0.8314696811601584 0 -0.555570129966888
		outer loop
			vertex 0.05223357772827149 0.502 0.25168753051757814
			vertex 0.05147487258911133 0.47700000000000004 0.2505520477294922
			vertex 0.05147487258911133 0.502 0.2505520477294922
		endloop
	endfacet
	facet normal 0.19508785810831297 0 -0.9807857705017498
		outer loop
			vertex 0.049 0.47700000000000004 0.24952691650390627
			vertex 0.049 0.502 0.24952691650390627
			vertex 0.050339393615722657 0.502 0.2497933349609375
		endloop
	endfacet
	facet normal -0.9807850233861082 0 -0.19509161412400938
		outer loop
			vertex 0.0455 0.502 0.25302691650390624
			vertex 0.045766422271728516 0.502 0.25168753051757814
			vertex 0.045766422271728516 0.47700000000000004 0.25168753051757814
		endloop
	endfacet
	facet normal -0.19508785810831297 0 0.9807857705017498
		outer loop
			vertex 0.049 0.502 0.25652691650390624
			vertex 0.04766060638427735 0.47700000000000004 0.256260498046875
			vertex 0.049 0.47700000000000004 0.25652691650390624
		endloop
	endfacet
	facet normal -0.8314696811601584 0 0.555570129966888
		outer loop
			vertex 0.045766422271728516 0.47700000000000004 0.2543663024902344
			vertex 0.04652512741088867 0.47700000000000004 0.2555017852783203
			vertex 0.04652512741088867 0.502 0.2555017852783203
		endloop
	endfacet
	facet normal -0.8314696811601584 0 -0.555570129966888
		outer loop
			vertex 0.045766422271728516 0.47700000000000004 0.25168753051757814
			vertex 0.04652512741088867 0.502 0.2505520477294922
			vertex 0.04652512741088867 0.47700000000000004 0.2505520477294922
		endloop
	endfacet
	facet normal -0.5555752826378553 0 0.8314662382333194
		outer loop
			vertex 0.04652512741088867 0.502 0.2555017852783203
			vertex 0.04652512741088867 0.47700000000000004 0.2555017852783203
			vertex 0.04766060638427735 0.47700000000000004 0.256260498046875
		endloop
	endfacet
	facet normal -0.9807850233861082 0 -0.19509161412400938
		outer loop
			vertex 0.0455 0.502 0.25302691650390624
			vertex 0.045766422271728516 0.47700000000000004 0.25168753051757814
			vertex 0.0455 0.47700000000000004 0.25302691650390624
		endloop
	endfacet
	facet normal -0.5555752826378553 0 -0.8314662382333194
		outer loop
			vertex 0.04652512741088867 0.502 0.2505520477294922
			vertex 0.04766060638427735 0.47700000000000004 0.2497933349609375
			vertex 0.04652512741088867 0.47700000000000004 0.2505520477294922
		endloop
	endfacet
	facet normal -0.9807850233861082 0 0.19509161412400938
		outer loop
			vertex 0.0455 0.47700000000000004 0.25302691650390624
			vertex 0.045766422271728516 0.47700000000000004 0.2543663024902344
			vertex 0.0455 0.502 0.25302691650390624
		endloop
	endfacet
	facet normal 0.19508785810831297 0 -0.9807857705017498
		outer loop
			vertex 0.050339393615722657 0.47700000000000004 0.2497933349609375
			vertex 0.049 0.47700000000000004 0.24952691650390627
			vertex 0.050339393615722657 0.502 0.2497933349609375
		endloop
	endfacet
	facet normal 0.5555752826378553 0 -0.8314662382333194
		outer loop
			vertex 0.05147487258911133 0.47700000000000004 0.2505520477294922
			vertex 0.050339393615722657 0.47700000000000004 0.2497933349609375
			vertex 0.050339393615722657 0.502 0.2497933349609375
		endloop
	endfacet
	facet normal 0.9807850233861082 0 -0.19509161412400938
		outer loop
			vertex 0.0525 0.47700000000000004 0.25302691650390624
			vertex 0.05223357772827149 0.47700000000000004 0.25168753051757814
			vertex 0.0525 0.502 0.25302691650390624
		endloop
	endfacet
	facet normal 0.9807850233861082 0 0.19509161412400938
		outer loop
			vertex 0.05223357772827149 0.47700000000000004 0.2543663024902344
			vertex 0.0525 0.47700000000000004 0.25302691650390624
			vertex 0.0525 0.502 0.25302691650390624
		endloop
	endfacet
	facet normal 0.8314696811601584 0 -0.555570129966888
		outer loop
			vertex 0.05147487258911133 0.47700000000000004 0.2505520477294922
			vertex 0.05223357772827149 0.502 0.25168753051757814
			vertex 0.05223357772827149 0.47700000000000004 0.25168753051757814
		endloop
	endfacet
	facet normal 0.5555752826378553 0 0.8314662382333194
		outer loop
			vertex 0.050339393615722657 0.502 0.256260498046875
			vertex 0.050339393615722657 0.47700000000000004 0.256260498046875
			vertex 0.05147487258911133 0.47700000000000004 0.2555017852783203
		endloop
	endfacet
	facet normal 0.8314696811601584 0 0.555570129966888
		outer loop
			vertex 0.05223357772827149 0.47700000000000004 0.2543663024902344
			vertex 0.05223357772827149 0.502 0.2543663024902344
			vertex 0.05147487258911133 0.47700000000000004 0.2555017852783203
		endloop
	endfacet
	facet normal -0.19508785810831297 0 -0.9807857705017498
		outer loop
			vertex 0.04766060638427735 0.47700000000000004 0.2497933349609375
			vertex 0.049 0.502 0.24952691650390627
			vertex 0.049 0.47700000000000004 0.24952691650390627
		endloop
	endfacet
	facet normal 0.19508785810831297 0 0.9807857705017498
		outer loop
			vertex 0.049 0.47700000000000004 0.25652691650390624
			vertex 0.050339393615722657 0.502 0.256260498046875
			vertex 0.049 0.502 0.25652691650390624
		endloop
	endfacet
	facet normal 0.19508785810831297 0 0.9807857705017498
		outer loop
			vertex 0.049 0.47700000000000004 0.25652691650390624
			vertex 0.050339393615722657 0.47700000000000004 0.256260498046875
			vertex 0.050339393615722657 0.502 0.256260498046875
		endloop
	endfacet
	facet normal -0.5555698736459633 0 0.8314698524282215
		outer loop
			vertex 0.04723223495483399 0.47200000000000003 0.25479467773437503
			vertex 0.04804329299926758 0.47700000000000004 0.2553366088867188
			vertex 0.04723223495483399 0.47700000000000004 0.25479467773437503
		endloop
	endfacet
	facet normal -0.8314656317405401 0 0.5555761903054383
		outer loop
			vertex 0.04723223495483399 0.47700000000000004 0.25479467773437503
			vertex 0.04669029998779297 0.47700000000000004 0.25398362731933594
			vertex 0.04669029998779297 0.47200000000000003 0.25398362731933594
		endloop
	endfacet
	facet normal -0.980785599235326 0 0.1950887191320973
		outer loop
			vertex 0.0465 0.47700000000000004 0.25302691650390624
			vertex 0.04669029998779297 0.47200000000000003 0.25398362731933594
			vertex 0.04669029998779297 0.47700000000000004 0.25398362731933594
		endloop
	endfacet
	facet normal -0.980785599235326 0 -0.1950887191320973
		outer loop
			vertex 0.0465 0.47700000000000004 0.25302691650390624
			vertex 0.04669029998779297 0.47700000000000004 0.25207020568847655
			vertex 0.0465 0.47200000000000003 0.25302691650390624
		endloop
	endfacet
	facet normal -0.5555698736459633 0 -0.8314698524282215
		outer loop
			vertex 0.04804329299926758 0.47200000000000003 0.25071722412109376
			vertex 0.04723223495483399 0.47700000000000004 0.2512591552734375
			vertex 0.04804329299926758 0.47700000000000004 0.25071722412109376
		endloop
	endfacet
	facet normal -0.8314656317405401 0 -0.5555761903054383
		outer loop
			vertex 0.04723223495483399 0.47200000000000003 0.2512591552734375
			vertex 0.04669029998779297 0.47700000000000004 0.25207020568847655
			vertex 0.04723223495483399 0.47700000000000004 0.2512591552734375
		endloop
	endfacet
	facet normal -0.19509699111943846 0 0.9807839538125315
		outer loop
			vertex 0.049 0.47700000000000004 0.25552691650390624
			vertex 0.04804329299926758 0.47700000000000004 0.2553366088867188
			vertex 0.049 0.47200000000000003 0.25552691650390624
		endloop
	endfacet
	facet normal 0.8314674382670731 0 0.5555734866798369
		outer loop
			vertex 0.051309700012207034 0.47700000000000004 0.25398362731933594
			vertex 0.05076776885986328 0.47700000000000004 0.25479467773437503
			vertex 0.05076776885986328 0.47200000000000003 0.25479467773437503
		endloop
	endfacet
	facet normal 0.5555680671427151 0 0.8314710594911334
		outer loop
			vertex 0.05076776885986328 0.47700000000000004 0.25479467773437503
			vertex 0.049956707000732424 0.47700000000000004 0.2553366088867188
			vertex 0.049956707000732424 0.47200000000000003 0.2553366088867188
		endloop
	endfacet
	facet normal 0.980785599235326 0 0.1950887191320973
		outer loop
			vertex 0.051500000000000004 0.47700000000000004 0.25302691650390624
			vertex 0.051309700012207034 0.47700000000000004 0.25398362731933594
			vertex 0.051500000000000004 0.47200000000000003 0.25302691650390624
		endloop
	endfacet
	facet normal 0.19509699111943846 0 -0.9807839538125315
		outer loop
			vertex 0.049956707000732424 0.47200000000000003 0.25071722412109376
			vertex 0.049 0.47700000000000004 0.25052691650390624
			vertex 0.049956707000732424 0.47700000000000004 0.25071722412109376
		endloop
	endfacet
	facet normal 0.8314674382670731 0 -0.5555734866798369
		outer loop
			vertex 0.051309700012207034 0.47200000000000003 0.25207020568847655
			vertex 0.05076776885986328 0.47700000000000004 0.2512591552734375
			vertex 0.051309700012207034 0.47700000000000004 0.25207020568847655
		endloop
	endfacet
	facet normal 0.5555680671427151 0 -0.8314710594911334
		outer loop
			vertex 0.05076776885986328 0.47700000000000004 0.2512591552734375
			vertex 0.05076776885986328 0.47200000000000003 0.2512591552734375
			vertex 0.049956707000732424 0.47700000000000004 0.25071722412109376
		endloop
	endfacet
	facet normal 0.980785599235326 0 -0.1950887191320973
		outer loop
			vertex 0.051309700012207034 0.47700000000000004 0.25207020568847655
			vertex 0.051500000000000004 0.47700000000000004 0.25302691650390624
			vertex 0.051500000000000004 0.47200000000000003 0.25302691650390624
		endloop
	endfacet
	facet normal -0.19509699111943846 0 -0.9807839538125315
		outer loop
			vertex 0.049 0.47700000000000004 0.25052691650390624
			vertex 0.049 0.47200000000000003 0.25052691650390624
			vertex 0.04804329299926758 0.47700000000000004 0.25071722412109376
		endloop
	endfacet
	facet normal -0.19509699111943846 0 0.9807839538125315
		outer loop
			vertex 0.04804329299926758 0.47700000000000004 0.2553366088867188
			vertex 0.04804329299926758 0.47200000000000003 0.2553366088867188
			vertex 0.049 0.47200000000000003 0.25552691650390624
		endloop
	endfacet
	facet normal -0.980785599235326 0 0.1950887191320973
		outer loop
			vertex 0.0465 0.47700000000000004 0.25302691650390624
			vertex 0.0465 0.47200000000000003 0.25302691650390624
			vertex 0.04669029998779297 0.47200000000000003 0.25398362731933594
		endloop
	endfacet
	facet normal -0.5555698736459633 0 0.8314698524282215
		outer loop
			vertex 0.04804329299926758 0.47700000000000004 0.2553366088867188
			vertex 0.04723223495483399 0.47200000000000003 0.25479467773437503
			vertex 0.04804329299926758 0.47200000000000003 0.2553366088867188
		endloop
	endfacet
	facet normal -0.980785599235326 0 -0.1950887191320973
		outer loop
			vertex 0.0465 0.47200000000000003 0.25302691650390624
			vertex 0.04669029998779297 0.47700000000000004 0.25207020568847655
			vertex 0.04669029998779297 0.47200000000000003 0.25207020568847655
		endloop
	endfacet
	facet normal -0.5555698736459633 0 -0.8314698524282215
		outer loop
			vertex 0.04723223495483399 0.47200000000000003 0.2512591552734375
			vertex 0.04723223495483399 0.47700000000000004 0.2512591552734375
			vertex 0.04804329299926758 0.47200000000000003 0.25071722412109376
		endloop
	endfacet
	facet normal -0.8314656317405401 0 -0.5555761903054383
		outer loop
			vertex 0.04669029998779297 0.47200000000000003 0.25207020568847655
			vertex 0.04669029998779297 0.47700000000000004 0.25207020568847655
			vertex 0.04723223495483399 0.47200000000000003 0.2512591552734375
		endloop
	endfacet
	facet normal -0.19509699111943846 0 -0.9807839538125315
		outer loop
			vertex 0.04804329299926758 0.47700000000000004 0.25071722412109376
			vertex 0.049 0.47200000000000003 0.25052691650390624
			vertex 0.04804329299926758 0.47200000000000003 0.25071722412109376
		endloop
	endfacet
	facet normal 0.5555680671427151 0 -0.8314710594911334
		outer loop
			vertex 0.049956707000732424 0.47200000000000003 0.25071722412109376
			vertex 0.049956707000732424 0.47700000000000004 0.25071722412109376
			vertex 0.05076776885986328 0.47200000000000003 0.2512591552734375
		endloop
	endfacet
	facet normal 0.5555680671427151 0 0.8314710594911334
		outer loop
			vertex 0.05076776885986328 0.47700000000000004 0.25479467773437503
			vertex 0.049956707000732424 0.47200000000000003 0.2553366088867188
			vertex 0.05076776885986328 0.47200000000000003 0.25479467773437503
		endloop
	endfacet
	facet normal 0.8314674382670731 0 -0.5555734866798369
		outer loop
			vertex 0.05076776885986328 0.47700000000000004 0.2512591552734375
			vertex 0.051309700012207034 0.47200000000000003 0.25207020568847655
			vertex 0.05076776885986328 0.47200000000000003 0.2512591552734375
		endloop
	endfacet
	facet normal 0.19509699111943846 0 -0.9807839538125315
		outer loop
			vertex 0.049956707000732424 0.47200000000000003 0.25071722412109376
			vertex 0.049 0.47200000000000003 0.25052691650390624
			vertex 0.049 0.47700000000000004 0.25052691650390624
		endloop
	endfacet
	facet normal 0.980785599235326 0 -0.1950887191320973
		outer loop
			vertex 0.051309700012207034 0.47200000000000003 0.25207020568847655
			vertex 0.051309700012207034 0.47700000000000004 0.25207020568847655
			vertex 0.051500000000000004 0.47200000000000003 0.25302691650390624
		endloop
	endfacet
	facet normal 0.8314674382670731 0 0.5555734866798369
		outer loop
			vertex 0.051309700012207034 0.47700000000000004 0.25398362731933594
			vertex 0.05076776885986328 0.47200000000000003 0.25479467773437503
			vertex 0.051309700012207034 0.47200000000000003 0.25398362731933594
		endloop
	endfacet
	facet normal 0.980785599235326 0 0.1950887191320973
		outer loop
			vertex 0.051500000000000004 0.47200000000000003 0.25302691650390624
			vertex 0.051309700012207034 0.47700000000000004 0.25398362731933594
			vertex 0.051309700012207034 0.47200000000000003 0.25398362731933594
		endloop
	endfacet
	facet normal -0.8314656317405401 0 0.5555761903054383
		outer loop
			vertex 0.04723223495483399 0.47700000000000004 0.25479467773437503
			vertex 0.04669029998779297 0.47200000000000003 0.25398362731933594
			vertex 0.04723223495483399 0.47200000000000003 0.25479467773437503
		endloop
	endfacet
	facet normal 0.19509699111943846 0 0.9807839538125315
		outer loop
			vertex 0.049 0.47200000000000003 0.25552691650390624
			vertex 0.049956707000732424 0.47200000000000003 0.2553366088867188
			vertex 0.049 0.47700000000000004 0.25552691650390624
		endloop
	endfacet
	facet normal 0.19509699111943846 0 0.9807839538125315
		outer loop
			vertex 0.049 0.47700000000000004 0.25552691650390624
			vertex 0.049956707000732424 0.47200000000000003 0.2553366088867188
			vertex 0.049956707000732424 0.47700000000000004 0.2553366088867188
		endloop
	endfacet
	facet normal -0.8314696811601583 0 0.555570129966888
		outer loop
			vertex 0.04652512741088867 0.522 0.2555017852783203
			vertex 0.045766422271728516 0.522 0.2543663024902344
			vertex 0.04652512741088867 0.503 0.2555017852783203
		endloop
	endfacet
	facet normal -0.9807850233861082 0 0.19509161412400938
		outer loop
			vertex 0.0455 0.522 0.25302691650390624
			vertex 0.045766422271728516 0.503 0.2543663024902344
			vertex 0.045766422271728516 0.522 0.2543663024902344
		endloop
	endfacet
	facet normal -0.9807850233861082 0 -0.19509161412400938
		outer loop
			vertex 0.045766422271728516 0.503 0.25168753051757814
			vertex 0.0455 0.522 0.25302691650390624
			vertex 0.045766422271728516 0.522 0.25168753051757814
		endloop
	endfacet
	facet normal -0.8314696811601583 0 -0.555570129966888
		outer loop
			vertex 0.04652512741088867 0.522 0.2505520477294922
			vertex 0.045766422271728516 0.503 0.25168753051757814
			vertex 0.045766422271728516 0.522 0.25168753051757814
		endloop
	endfacet
	facet normal -0.19508785810831297 0 -0.9807857705017498
		outer loop
			vertex 0.04766060638427735 0.522 0.2497933349609375
			vertex 0.049 0.522 0.24952691650390627
			vertex 0.04766060638427735 0.503 0.2497933349609375
		endloop
	endfacet
	facet normal -0.5555752826378553 0 -0.8314662382333194
		outer loop
			vertex 0.04652512741088867 0.522 0.2505520477294922
			vertex 0.04766060638427735 0.522 0.2497933349609375
			vertex 0.04766060638427735 0.503 0.2497933349609375
		endloop
	endfacet
	facet normal -0.5555752826378553 0 0.8314662382333194
		outer loop
			vertex 0.04652512741088867 0.522 0.2555017852783203
			vertex 0.04766060638427735 0.503 0.256260498046875
			vertex 0.04766060638427735 0.522 0.256260498046875
		endloop
	endfacet
	facet normal 0.8314696811601583 0 0.555570129966888
		outer loop
			vertex 0.05147487258911133 0.522 0.2555017852783203
			vertex 0.05147487258911133 0.503 0.2555017852783203
			vertex 0.05223357772827149 0.522 0.2543663024902344
		endloop
	endfacet
	facet normal 0.5555752826378553 0 0.8314662382333194
		outer loop
			vertex 0.050339393615722657 0.522 0.256260498046875
			vertex 0.05147487258911133 0.503 0.2555017852783203
			vertex 0.05147487258911133 0.522 0.2555017852783203
		endloop
	endfacet
	facet normal 0.5555752826378553 0 -0.8314662382333194
		outer loop
			vertex 0.050339393615722657 0.522 0.2497933349609375
			vertex 0.05147487258911133 0.522 0.2505520477294922
			vertex 0.05147487258911133 0.503 0.2505520477294922
		endloop
	endfacet
	facet normal 0.9807850233861082 0 -0.19509161412400938
		outer loop
			vertex 0.0525 0.522 0.25302691650390624
			vertex 0.05223357772827149 0.503 0.25168753051757814
			vertex 0.05223357772827149 0.522 0.25168753051757814
		endloop
	endfacet
	facet normal 0.8314696811601583 0 -0.555570129966888
		outer loop
			vertex 0.05223357772827149 0.522 0.25168753051757814
			vertex 0.05223357772827149 0.503 0.25168753051757814
			vertex 0.05147487258911133 0.522 0.2505520477294922
		endloop
	endfacet
	facet normal 0.19508785810831297 0 -0.9807857705017498
		outer loop
			vertex 0.049 0.522 0.24952691650390627
			vertex 0.050339393615722657 0.522 0.2497933349609375
			vertex 0.049 0.503 0.24952691650390627
		endloop
	endfacet
	facet normal 0.9807850233861082 0 0.19509161412400938
		outer loop
			vertex 0.05223357772827149 0.522 0.2543663024902344
			vertex 0.05223357772827149 0.503 0.2543663024902344
			vertex 0.0525 0.522 0.25302691650390624
		endloop
	endfacet
	facet normal -0.19508785810831297 0 0.9807857705017498
		outer loop
			vertex 0.04766060638427735 0.503 0.256260498046875
			vertex 0.049 0.522 0.25652691650390624
			vertex 0.04766060638427735 0.522 0.256260498046875
		endloop
	endfacet
	facet normal -0.19508785810831297 0 0.9807857705017498
		outer loop
			vertex 0.049 0.522 0.25652691650390624
			vertex 0.04766060638427735 0.503 0.256260498046875
			vertex 0.049 0.503 0.25652691650390624
		endloop
	endfacet
	facet normal -0.8314696811601583 0 0.555570129966888
		outer loop
			vertex 0.045766422271728516 0.503 0.2543663024902344
			vertex 0.04652512741088867 0.503 0.2555017852783203
			vertex 0.045766422271728516 0.522 0.2543663024902344
		endloop
	endfacet
	facet normal -0.8314696811601583 0 -0.555570129966888
		outer loop
			vertex 0.045766422271728516 0.503 0.25168753051757814
			vertex 0.04652512741088867 0.522 0.2505520477294922
			vertex 0.04652512741088867 0.503 0.2505520477294922
		endloop
	endfacet
	facet normal -0.5555752826378553 0 0.8314662382333194
		outer loop
			vertex 0.04652512741088867 0.522 0.2555017852783203
			vertex 0.04652512741088867 0.503 0.2555017852783203
			vertex 0.04766060638427735 0.503 0.256260498046875
		endloop
	endfacet
	facet normal -0.9807850233861082 0 -0.19509161412400938
		outer loop
			vertex 0.0455 0.522 0.25302691650390624
			vertex 0.045766422271728516 0.503 0.25168753051757814
			vertex 0.0455 0.503 0.25302691650390624
		endloop
	endfacet
	facet normal -0.5555752826378553 0 -0.8314662382333194
		outer loop
			vertex 0.04652512741088867 0.522 0.2505520477294922
			vertex 0.04766060638427735 0.503 0.2497933349609375
			vertex 0.04652512741088867 0.503 0.2505520477294922
		endloop
	endfacet
	facet normal -0.9807850233861082 0 0.19509161412400938
		outer loop
			vertex 0.0455 0.503 0.25302691650390624
			vertex 0.045766422271728516 0.503 0.2543663024902344
			vertex 0.0455 0.522 0.25302691650390624
		endloop
	endfacet
	facet normal 0.19508785810831297 0 -0.9807857705017498
		outer loop
			vertex 0.050339393615722657 0.503 0.2497933349609375
			vertex 0.049 0.503 0.24952691650390627
			vertex 0.050339393615722657 0.522 0.2497933349609375
		endloop
	endfacet
	facet normal 0.5555752826378553 0 -0.8314662382333194
		outer loop
			vertex 0.05147487258911133 0.503 0.2505520477294922
			vertex 0.050339393615722657 0.503 0.2497933349609375
			vertex 0.050339393615722657 0.522 0.2497933349609375
		endloop
	endfacet
	facet normal 0.9807850233861082 0 -0.19509161412400938
		outer loop
			vertex 0.0525 0.503 0.25302691650390624
			vertex 0.05223357772827149 0.503 0.25168753051757814
			vertex 0.0525 0.522 0.25302691650390624
		endloop
	endfacet
	facet normal 0.9807850233861082 0 0.19509161412400938
		outer loop
			vertex 0.05223357772827149 0.503 0.2543663024902344
			vertex 0.0525 0.503 0.25302691650390624
			vertex 0.0525 0.522 0.25302691650390624
		endloop
	endfacet
	facet normal 0.8314696811601583 0 -0.555570129966888
		outer loop
			vertex 0.05147487258911133 0.503 0.2505520477294922
			vertex 0.05147487258911133 0.522 0.2505520477294922
			vertex 0.05223357772827149 0.503 0.25168753051757814
		endloop
	endfacet
	facet normal 0.5555752826378553 0 0.8314662382333194
		outer loop
			vertex 0.050339393615722657 0.522 0.256260498046875
			vertex 0.050339393615722657 0.503 0.256260498046875
			vertex 0.05147487258911133 0.503 0.2555017852783203
		endloop
	endfacet
	facet normal 0.8314696811601583 0 0.555570129966888
		outer loop
			vertex 0.05223357772827149 0.503 0.2543663024902344
			vertex 0.05223357772827149 0.522 0.2543663024902344
			vertex 0.05147487258911133 0.503 0.2555017852783203
		endloop
	endfacet
	facet normal -0.19508785810831297 0 -0.9807857705017498
		outer loop
			vertex 0.04766060638427735 0.503 0.2497933349609375
			vertex 0.049 0.522 0.24952691650390627
			vertex 0.049 0.503 0.24952691650390627
		endloop
	endfacet
	facet normal 0.19508785810831297 0 0.9807857705017498
		outer loop
			vertex 0.049 0.503 0.25652691650390624
			vertex 0.050339393615722657 0.522 0.256260498046875
			vertex 0.049 0.522 0.25652691650390624
		endloop
	endfacet
	facet normal 0.19508785810831297 0 0.9807857705017498
		outer loop
			vertex 0.049 0.503 0.25652691650390624
			vertex 0.050339393615722657 0.503 0.256260498046875
			vertex 0.050339393615722657 0.522 0.256260498046875
		endloop
	endfacet
	facet normal -0.2902872724661216 0 -0.9569395484795159
		outer loop
			vertex 0.04568346405029297 0.597 0.23635356140136718
			vertex 0.04568346405029297 0.537 0.23635356140136718
			vertex 0.04249438095092774 0.537 0.2373209686279297
		endloop
	endfacet
	facet normal -0.4713967507897334 0 -0.8819212568845827
		outer loop
			vertex 0.04249438095092774 0.537 0.2373209686279297
			vertex 0.03955530548095703 0.537 0.2388919372558594
			vertex 0.04249438095092774 0.597 0.2373209686279297
		endloop
	endfacet
	facet normal -0.6343928069924475 0 -0.7730108449667723
		outer loop
			vertex 0.03697918319702149 0.537 0.24100610351562501
			vertex 0.03955530548095703 0.597 0.2388919372558594
			vertex 0.03955530548095703 0.537 0.2388919372558594
		endloop
	endfacet
	facet normal -0.7730113056422708 0 -0.6343922456566063
		outer loop
			vertex 0.03697918319702149 0.537 0.24100610351562501
			vertex 0.03486501693725586 0.537 0.24358222961425782
			vertex 0.03697918319702149 0.597 0.24100610351562501
		endloop
	endfacet
	facet normal -0.8819210025221454 0 -0.47139722666805534
		outer loop
			vertex 0.033294048309326175 0.537 0.24652130126953126
			vertex 0.03486501693725586 0.597 0.24358222961425782
			vertex 0.03486501693725586 0.537 0.24358222961425782
		endloop
	endfacet
	facet normal -0.9569402808808368 0 -0.2902848580751417
		outer loop
			vertex 0.03232664871215821 0.537 0.24971038818359376
			vertex 0.033294048309326175 0.597 0.24652130126953126
			vertex 0.033294048309326175 0.537 0.24652130126953126
		endloop
	endfacet
	facet normal -0.9951847505678679 0 -0.09801689771243877
		outer loop
			vertex 0.03232664871215821 0.597 0.24971038818359376
			vertex 0.03232664871215821 0.537 0.24971038818359376
			vertex 0.032 0.537 0.25302691650390624
		endloop
	endfacet
	facet normal -0.9569402808808368 0 0.2902848580751417
		outer loop
			vertex 0.03232664871215821 0.537 0.2563434448242188
			vertex 0.033294048309326175 0.537 0.2595325317382813
			vertex 0.033294048309326175 0.597 0.2595325317382813
		endloop
	endfacet
	facet normal -0.9951847505678679 0 0.09801689771243877
		outer loop
			vertex 0.03232664871215821 0.537 0.2563434448242188
			vertex 0.03232664871215821 0.597 0.2563434448242188
			vertex 0.032 0.537 0.25302691650390624
		endloop
	endfacet
	facet normal -0.7730094629329398 0 0.6343944910039243
		outer loop
			vertex 0.03486501693725586 0.537 0.26247161865234375
			vertex 0.03697918319702149 0.537 0.2650477294921875
			vertex 0.03486501693725586 0.597 0.26247161865234375
		endloop
	endfacet
	facet normal -0.471400311997868 0 0.8819193533698605
		outer loop
			vertex 0.04249438095092774 0.597 0.2687328796386719
			vertex 0.03955530548095703 0.537 0.26716189575195315
			vertex 0.04249438095092774 0.537 0.2687328796386719
		endloop
	endfacet
	facet normal -0.6343928069924475 0 0.7730108449667723
		outer loop
			vertex 0.03955530548095703 0.537 0.26716189575195315
			vertex 0.03697918319702149 0.597 0.2650477294921875
			vertex 0.03697918319702149 0.537 0.2650477294921875
		endloop
	endfacet
	facet normal -0.8819220199672723 0 0.471395323159709
		outer loop
			vertex 0.03486501693725586 0.597 0.26247161865234375
			vertex 0.033294048309326175 0.537 0.2595325317382813
			vertex 0.03486501693725586 0.537 0.26247161865234375
		endloop
	endfacet
	facet normal -0.09801554072968595 0 -0.9951848842177355
		outer loop
			vertex 0.049 0.537 0.23602691650390625
			vertex 0.04568346405029297 0.537 0.23635356140136718
			vertex 0.04568346405029297 0.597 0.23635356140136718
		endloop
	endfacet
	facet normal -0.09802007540692005 0 0.9951844375879386
		outer loop
			vertex 0.04568346405029297 0.597 0.26970025634765626
			vertex 0.04568346405029297 0.537 0.26970025634765626
			vertex 0.049 0.537 0.27002691650390626
		endloop
	endfacet
	facet normal 0.4713967507897334 0 -0.8819212568845827
		outer loop
			vertex 0.05844469451904297 0.597 0.2388919372558594
			vertex 0.05844469451904297 0.537 0.2388919372558594
			vertex 0.055505619049072266 0.537 0.2373209686279297
		endloop
	endfacet
	facet normal 0.2902872724661216 0 -0.9569395484795159
		outer loop
			vertex 0.055505619049072266 0.537 0.2373209686279297
			vertex 0.05231653594970703 0.537 0.23635356140136718
			vertex 0.05231653594970703 0.597 0.23635356140136718
		endloop
	endfacet
	facet normal 0.6343928069924475 0 -0.7730108449667723
		outer loop
			vertex 0.05844469451904297 0.537 0.2388919372558594
			vertex 0.05844469451904297 0.597 0.2388919372558594
			vertex 0.061020816802978516 0.537 0.24100610351562501
		endloop
	endfacet
	facet normal 0.7730094629329398 0 0.6343944910039243
		outer loop
			vertex 0.061020816802978516 0.597 0.2650477294921875
			vertex 0.061020816802978516 0.537 0.2650477294921875
			vertex 0.06313498306274415 0.537 0.26247161865234375
		endloop
	endfacet
	facet normal 0.471400311997868 0 0.8819193533698605
		outer loop
			vertex 0.055505619049072266 0.537 0.2687328796386719
			vertex 0.05844469451904297 0.537 0.26716189575195315
			vertex 0.05844469451904297 0.597 0.26716189575195315
		endloop
	endfacet
	facet normal 0.6343928069924475 0 0.7730108449667723
		outer loop
			vertex 0.061020816802978516 0.537 0.2650477294921875
			vertex 0.061020816802978516 0.597 0.2650477294921875
			vertex 0.05844469451904297 0.537 0.26716189575195315
		endloop
	endfacet
	facet normal 0.09802007540692005 0 0.9951844375879386
		outer loop
			vertex 0.05231653594970703 0.597 0.26970025634765626
			vertex 0.049 0.537 0.27002691650390626
			vertex 0.05231653594970703 0.537 0.26970025634765626
		endloop
	endfacet
	facet normal 0.9569409168213501 0 0.2902827616533817
		outer loop
			vertex 0.0647059555053711 0.537 0.2595325317382813
			vertex 0.06567334747314453 0.537 0.2563434448242188
			vertex 0.0647059555053711 0.597 0.2595325317382813
		endloop
	endfacet
	facet normal 0.2902788867632275 0 0.9569420922393901
		outer loop
			vertex 0.055505619049072266 0.597 0.2687328796386719
			vertex 0.05231653594970703 0.537 0.26970025634765626
			vertex 0.055505619049072266 0.537 0.2687328796386719
		endloop
	endfacet
	facet normal 0.9569409168213501 0 -0.2902827616533817
		outer loop
			vertex 0.0647059555053711 0.537 0.24652130126953126
			vertex 0.0647059555053711 0.597 0.24652130126953126
			vertex 0.06567334747314453 0.537 0.24971038818359376
		endloop
	endfacet
	facet normal 0.8819205266432192 0 -0.471398116972636
		outer loop
			vertex 0.0647059555053711 0.537 0.24652130126953126
			vertex 0.06313498306274415 0.537 0.24358222961425782
			vertex 0.0647059555053711 0.597 0.24652130126953126
		endloop
	endfacet
	facet normal 0.9951846389105456 0 -0.09801803138447084
		outer loop
			vertex 0.06567334747314453 0.597 0.24971038818359376
			vertex 0.066 0.537 0.25302691650390624
			vertex 0.06567334747314453 0.537 0.24971038818359376
		endloop
	endfacet
	facet normal 0.7730113056422708 0 -0.6343922456566063
		outer loop
			vertex 0.061020816802978516 0.597 0.24100610351562501
			vertex 0.06313498306274415 0.537 0.24358222961425782
			vertex 0.061020816802978516 0.537 0.24100610351562501
		endloop
	endfacet
	facet normal 0.9951846389105456 0 0.09801803138447084
		outer loop
			vertex 0.06567334747314453 0.597 0.2563434448242188
			vertex 0.06567334747314453 0.537 0.2563434448242188
			vertex 0.066 0.537 0.25302691650390624
		endloop
	endfacet
	facet normal 0.88192154409164 0 0.47139621346274885
		outer loop
			vertex 0.0647059555053711 0.537 0.2595325317382813
			vertex 0.06313498306274415 0.597 0.26247161865234375
			vertex 0.06313498306274415 0.537 0.26247161865234375
		endloop
	endfacet
	facet normal -0.2902788867632275 0 0.9569420922393901
		outer loop
			vertex 0.04568346405029297 0.597 0.26970025634765626
			vertex 0.04249438095092774 0.537 0.2687328796386719
			vertex 0.04568346405029297 0.537 0.26970025634765626
		endloop
	endfacet
	facet normal -0.09801554072968595 0 -0.9951848842177355
		outer loop
			vertex 0.049 0.537 0.23602691650390625
			vertex 0.04568346405029297 0.597 0.23635356140136718
			vertex 0.049 0.597 0.23602691650390625
		endloop
	endfacet
	facet normal -0.4713967507897334 0 -0.8819212568845827
		outer loop
			vertex 0.04249438095092774 0.597 0.2373209686279297
			vertex 0.03955530548095703 0.537 0.2388919372558594
			vertex 0.03955530548095703 0.597 0.2388919372558594
		endloop
	endfacet
	facet normal -0.6343928069924475 0 -0.7730108449667723
		outer loop
			vertex 0.03697918319702149 0.537 0.24100610351562501
			vertex 0.03697918319702149 0.597 0.24100610351562501
			vertex 0.03955530548095703 0.597 0.2388919372558594
		endloop
	endfacet
	facet normal -0.8819210025221454 0 -0.47139722666805534
		outer loop
			vertex 0.03486501693725586 0.597 0.24358222961425782
			vertex 0.033294048309326175 0.537 0.24652130126953126
			vertex 0.033294048309326175 0.597 0.24652130126953126
		endloop
	endfacet
	facet normal -0.7730113056422708 0 -0.6343922456566063
		outer loop
			vertex 0.03486501693725586 0.597 0.24358222961425782
			vertex 0.03697918319702149 0.597 0.24100610351562501
			vertex 0.03486501693725586 0.537 0.24358222961425782
		endloop
	endfacet
	facet normal -0.9951847505678679 0 0.09801689771243877
		outer loop
			vertex 0.032 0.597 0.25302691650390624
			vertex 0.032 0.537 0.25302691650390624
			vertex 0.03232664871215821 0.597 0.2563434448242188
		endloop
	endfacet
	facet normal -0.9569402808808368 0 -0.2902848580751417
		outer loop
			vertex 0.03232664871215821 0.597 0.24971038818359376
			vertex 0.033294048309326175 0.597 0.24652130126953126
			vertex 0.03232664871215821 0.537 0.24971038818359376
		endloop
	endfacet
	facet normal -0.09802007540692005 0 0.9951844375879386
		outer loop
			vertex 0.049 0.537 0.27002691650390626
			vertex 0.049 0.597 0.27002691650390626
			vertex 0.04568346405029297 0.597 0.26970025634765626
		endloop
	endfacet
	facet normal -0.9951847505678679 0 -0.09801689771243877
		outer loop
			vertex 0.03232664871215821 0.597 0.24971038818359376
			vertex 0.032 0.537 0.25302691650390624
			vertex 0.032 0.597 0.25302691650390624
		endloop
	endfacet
	facet normal -0.8819220199672723 0 0.471395323159709
		outer loop
			vertex 0.033294048309326175 0.597 0.2595325317382813
			vertex 0.033294048309326175 0.537 0.2595325317382813
			vertex 0.03486501693725586 0.597 0.26247161865234375
		endloop
	endfacet
	facet normal -0.9569402808808368 0 0.2902848580751417
		outer loop
			vertex 0.03232664871215821 0.597 0.2563434448242188
			vertex 0.03232664871215821 0.537 0.2563434448242188
			vertex 0.033294048309326175 0.597 0.2595325317382813
		endloop
	endfacet
	facet normal -0.6343928069924475 0 0.7730108449667723
		outer loop
			vertex 0.03697918319702149 0.597 0.2650477294921875
			vertex 0.03955530548095703 0.537 0.26716189575195315
			vertex 0.03955530548095703 0.597 0.26716189575195315
		endloop
	endfacet
	facet normal -0.2902788867632275 0 0.9569420922393901
		outer loop
			vertex 0.04249438095092774 0.597 0.2687328796386719
			vertex 0.04249438095092774 0.537 0.2687328796386719
			vertex 0.04568346405029297 0.597 0.26970025634765626
		endloop
	endfacet
	facet normal -0.471400311997868 0 0.8819193533698605
		outer loop
			vertex 0.04249438095092774 0.597 0.2687328796386719
			vertex 0.03955530548095703 0.597 0.26716189575195315
			vertex 0.03955530548095703 0.537 0.26716189575195315
		endloop
	endfacet
	facet normal -0.7730094629329398 0 0.6343944910039243
		outer loop
			vertex 0.03486501693725586 0.597 0.26247161865234375
			vertex 0.03697918319702149 0.537 0.2650477294921875
			vertex 0.03697918319702149 0.597 0.2650477294921875
		endloop
	endfacet
	facet normal 0.7730094629329398 0 0.6343944910039243
		outer loop
			vertex 0.061020816802978516 0.597 0.2650477294921875
			vertex 0.06313498306274415 0.537 0.26247161865234375
			vertex 0.06313498306274415 0.597 0.26247161865234375
		endloop
	endfacet
	facet normal 0.88192154409164 0 0.47139621346274885
		outer loop
			vertex 0.0647059555053711 0.597 0.2595325317382813
			vertex 0.06313498306274415 0.597 0.26247161865234375
			vertex 0.0647059555053711 0.537 0.2595325317382813
		endloop
	endfacet
	facet normal 0.6343928069924475 0 0.7730108449667723
		outer loop
			vertex 0.061020816802978516 0.597 0.2650477294921875
			vertex 0.05844469451904297 0.597 0.26716189575195315
			vertex 0.05844469451904297 0.537 0.26716189575195315
		endloop
	endfacet
	facet normal 0.8819205266432192 0 -0.471398116972636
		outer loop
			vertex 0.0647059555053711 0.597 0.24652130126953126
			vertex 0.06313498306274415 0.537 0.24358222961425782
			vertex 0.06313498306274415 0.597 0.24358222961425782
		endloop
	endfacet
	facet normal 0.7730113056422708 0 -0.6343922456566063
		outer loop
			vertex 0.06313498306274415 0.597 0.24358222961425782
			vertex 0.06313498306274415 0.537 0.24358222961425782
			vertex 0.061020816802978516 0.597 0.24100610351562501
		endloop
	endfacet
	facet normal 0.9951846389105456 0 0.09801803138447084
		outer loop
			vertex 0.066 0.537 0.25302691650390624
			vertex 0.066 0.597 0.25302691650390624
			vertex 0.06567334747314453 0.597 0.2563434448242188
		endloop
	endfacet
	facet normal 0.9951846389105456 0 -0.09801803138447084
		outer loop
			vertex 0.06567334747314453 0.597 0.24971038818359376
			vertex 0.066 0.597 0.25302691650390624
			vertex 0.066 0.537 0.25302691650390624
		endloop
	endfacet
	facet normal 0.6343928069924475 0 -0.7730108449667723
		outer loop
			vertex 0.061020816802978516 0.537 0.24100610351562501
			vertex 0.05844469451904297 0.597 0.2388919372558594
			vertex 0.061020816802978516 0.597 0.24100610351562501
		endloop
	endfacet
	facet normal 0.9569409168213501 0 0.2902827616533817
		outer loop
			vertex 0.06567334747314453 0.597 0.2563434448242188
			vertex 0.0647059555053711 0.597 0.2595325317382813
			vertex 0.06567334747314453 0.537 0.2563434448242188
		endloop
	endfacet
	facet normal 0.471400311997868 0 0.8819193533698605
		outer loop
			vertex 0.055505619049072266 0.537 0.2687328796386719
			vertex 0.05844469451904297 0.597 0.26716189575195315
			vertex 0.055505619049072266 0.597 0.2687328796386719
		endloop
	endfacet
	facet normal 0.2902788867632275 0 0.9569420922393901
		outer loop
			vertex 0.05231653594970703 0.537 0.26970025634765626
			vertex 0.055505619049072266 0.597 0.2687328796386719
			vertex 0.05231653594970703 0.597 0.26970025634765626
		endloop
	endfacet
	facet normal 0.2902872724661216 0 -0.9569395484795159
		outer loop
			vertex 0.055505619049072266 0.597 0.2373209686279297
			vertex 0.055505619049072266 0.537 0.2373209686279297
			vertex 0.05231653594970703 0.597 0.23635356140136718
		endloop
	endfacet
	facet normal 0.9569409168213501 0 -0.2902827616533817
		outer loop
			vertex 0.06567334747314453 0.537 0.24971038818359376
			vertex 0.0647059555053711 0.597 0.24652130126953126
			vertex 0.06567334747314453 0.597 0.24971038818359376
		endloop
	endfacet
	facet normal 0.09802007540692005 0 0.9951844375879386
		outer loop
			vertex 0.049 0.537 0.27002691650390626
			vertex 0.05231653594970703 0.597 0.26970025634765626
			vertex 0.049 0.597 0.27002691650390626
		endloop
	endfacet
	facet normal 0.4713967507897334 0 -0.8819212568845827
		outer loop
			vertex 0.05844469451904297 0.597 0.2388919372558594
			vertex 0.055505619049072266 0.537 0.2373209686279297
			vertex 0.055505619049072266 0.597 0.2373209686279297
		endloop
	endfacet
	facet normal -0.2902872724661216 0 -0.9569395484795159
		outer loop
			vertex 0.04249438095092774 0.597 0.2373209686279297
			vertex 0.04568346405029297 0.597 0.23635356140136718
			vertex 0.04249438095092774 0.537 0.2373209686279297
		endloop
	endfacet
	facet normal 0.09801554072968595 0 -0.9951848842177355
		outer loop
			vertex 0.049 0.597 0.23602691650390625
			vertex 0.05231653594970703 0.537 0.23635356140136718
			vertex 0.049 0.537 0.23602691650390625
		endloop
	endfacet
	facet normal 0.09801554072968595 0 -0.9951848842177355
		outer loop
			vertex 0.049 0.597 0.23602691650390625
			vertex 0.05231653594970703 0.597 0.23635356140136718
			vertex 0.05231653594970703 0.537 0.23635356140136718
		endloop
	endfacet
	facet normal 0 1 0
		outer loop
			vertex 0.04249438095092774 0.597 0.2373209686279297
			vertex 0.03955530548095703 0.597 0.2388919372558594
			vertex 0.04568346405029297 0.597 0.23635356140136718
		endloop
	endfacet
	facet normal 0 1 0
		outer loop
			vertex 0.04568346405029297 0.597 0.23635356140136718
			vertex 0.05231653594970703 0.597 0.23635356140136718
			vertex 0.049 0.597 0.23602691650390625
		endloop
	endfacet
	facet normal 0 1 0
		outer loop
			vertex 0.04568346405029297 0.597 0.23635356140136718
			vertex 0.03955530548095703 0.597 0.2388919372558594
			vertex 0.03486501693725586 0.597 0.24358222961425782
		endloop
	endfacet
	facet normal 0 1 0
		outer loop
			vertex 0.055505619049072266 0.597 0.2373209686279297
			vertex 0.04568346405029297 0.597 0.23635356140136718
			vertex 0.049 0.597 0.27002691650390626
		endloop
	endfacet
	facet normal 0 1 0
		outer loop
			vertex 0.03486501693725586 0.597 0.24358222961425782
			vertex 0.033294048309326175 0.597 0.24652130126953126
			vertex 0.04568346405029297 0.597 0.23635356140136718
		endloop
	endfacet
	facet normal 0 1 0
		outer loop
			vertex 0.03697918319702149 0.597 0.24100610351562501
			vertex 0.03486501693725586 0.597 0.24358222961425782
			vertex 0.03955530548095703 0.597 0.2388919372558594
		endloop
	endfacet
	facet normal 0 1 0
		outer loop
			vertex 0.04568346405029297 0.597 0.23635356140136718
			vertex 0.033294048309326175 0.597 0.24652130126953126
			vertex 0.03486501693725586 0.597 0.26247161865234375
		endloop
	endfacet
	facet normal 0 1 0
		outer loop
			vertex 0.06313498306274415 0.597 0.24358222961425782
			vertex 0.05844469451904297 0.597 0.2388919372558594
			vertex 0.055505619049072266 0.597 0.2373209686279297
		endloop
	endfacet
	facet normal 0 1 0
		outer loop
			vertex 0.06313498306274415 0.597 0.24358222961425782
			vertex 0.061020816802978516 0.597 0.24100610351562501
			vertex 0.05844469451904297 0.597 0.2388919372558594
		endloop
	endfacet
	facet normal 0 1 0
		outer loop
			vertex 0.05231653594970703 0.597 0.23635356140136718
			vertex 0.04568346405029297 0.597 0.23635356140136718
			vertex 0.055505619049072266 0.597 0.2373209686279297
		endloop
	endfacet
	facet normal 0 1 0
		outer loop
			vertex 0.0647059555053711 0.597 0.24652130126953126
			vertex 0.06313498306274415 0.597 0.24358222961425782
			vertex 0.06567334747314453 0.597 0.24971038818359376
		endloop
	endfacet
	facet normal 0 1 0
		outer loop
			vertex 0.066 0.597 0.25302691650390624
			vertex 0.06567334747314453 0.597 0.24971038818359376
			vertex 0.06313498306274415 0.597 0.24358222961425782
		endloop
	endfacet
	facet normal 0 1 0
		outer loop
			vertex 0.06313498306274415 0.597 0.24358222961425782
			vertex 0.055505619049072266 0.597 0.2373209686279297
			vertex 0.066 0.597 0.25302691650390624
		endloop
	endfacet
	facet normal 0 1 0
		outer loop
			vertex 0.055505619049072266 0.597 0.2373209686279297
			vertex 0.05844469451904297 0.597 0.26716189575195315
			vertex 0.066 0.597 0.25302691650390624
		endloop
	endfacet
	facet normal 0 1 0
		outer loop
			vertex 0.033294048309326175 0.597 0.24652130126953126
			vertex 0.03232664871215821 0.597 0.24971038818359376
			vertex 0.03232664871215821 0.597 0.2563434448242188
		endloop
	endfacet
	facet normal 0 1 0
		outer loop
			vertex 0.03232664871215821 0.597 0.2563434448242188
			vertex 0.033294048309326175 0.597 0.2595325317382813
			vertex 0.033294048309326175 0.597 0.24652130126953126
		endloop
	endfacet
	facet normal 0 1 0
		outer loop
			vertex 0.03486501693725586 0.597 0.26247161865234375
			vertex 0.033294048309326175 0.597 0.24652130126953126
			vertex 0.033294048309326175 0.597 0.2595325317382813
		endloop
	endfacet
	facet normal 0 1 0
		outer loop
			vertex 0.03486501693725586 0.597 0.26247161865234375
			vertex 0.049 0.597 0.27002691650390626
			vertex 0.04568346405029297 0.597 0.23635356140136718
		endloop
	endfacet
	facet normal 0 1 0
		outer loop
			vertex 0.049 0.597 0.27002691650390626
			vertex 0.03486501693725586 0.597 0.26247161865234375
			vertex 0.03955530548095703 0.597 0.26716189575195315
		endloop
	endfacet
	facet normal 0 1 0
		outer loop
			vertex 0.04249438095092774 0.597 0.2687328796386719
			vertex 0.04568346405029297 0.597 0.26970025634765626
			vertex 0.03955530548095703 0.597 0.26716189575195315
		endloop
	endfacet
	facet normal 0 1 0
		outer loop
			vertex 0.03955530548095703 0.597 0.26716189575195315
			vertex 0.03486501693725586 0.597 0.26247161865234375
			vertex 0.03697918319702149 0.597 0.2650477294921875
		endloop
	endfacet
	facet normal 0 1 0
		outer loop
			vertex 0.049 0.597 0.27002691650390626
			vertex 0.03955530548095703 0.597 0.26716189575195315
			vertex 0.04568346405029297 0.597 0.26970025634765626
		endloop
	endfacet
	facet normal 0 1 0
		outer loop
			vertex 0.05844469451904297 0.597 0.26716189575195315
			vertex 0.061020816802978516 0.597 0.2650477294921875
			vertex 0.06313498306274415 0.597 0.26247161865234375
		endloop
	endfacet
	facet normal 0 1 0
		outer loop
			vertex 0.05844469451904297 0.597 0.26716189575195315
			vertex 0.06313498306274415 0.597 0.26247161865234375
			vertex 0.0647059555053711 0.597 0.2595325317382813
		endloop
	endfacet
	facet normal 0 1 0
		outer loop
			vertex 0.06567334747314453 0.597 0.2563434448242188
			vertex 0.066 0.597 0.25302691650390624
			vertex 0.0647059555053711 0.597 0.2595325317382813
		endloop
	endfacet
	facet normal 0 1 0
		outer loop
			vertex 0.049 0.597 0.27002691650390626
			vertex 0.05231653594970703 0.597 0.26970025634765626
			vertex 0.05844469451904297 0.597 0.26716189575195315
		endloop
	endfacet
	facet normal 0 1 0
		outer loop
			vertex 0.055505619049072266 0.597 0.2687328796386719
			vertex 0.05844469451904297 0.597 0.26716189575195315
			vertex 0.05231653594970703 0.597 0.26970025634765626
		endloop
	endfacet
	facet normal 0 1 0
		outer loop
			vertex 0.0647059555053711 0.597 0.2595325317382813
			vertex 0.066 0.597 0.25302691650390624
			vertex 0.05844469451904297 0.597 0.26716189575195315
		endloop
	endfacet
	facet normal 0 1 0
		outer loop
			vertex 0.05844469451904297 0.597 0.26716189575195315
			vertex 0.055505619049072266 0.597 0.2373209686279297
			vertex 0.049 0.597 0.27002691650390626
		endloop
	endfacet
	facet normal 0 1 0
		outer loop
			vertex 0.03232664871215821 0.597 0.24971038818359376
			vertex 0.032 0.597 0.25302691650390624
			vertex 0.03232664871215821 0.597 0.2563434448242188
		endloop
	endfacet
endsolid exported
