solid exported
	facet normal 0 0 1
		outer loop
			vertex 0.1 0.061 0.042
			vertex 0.1 0.0635 0.042
			vertex 0.083 0.0635 0.042
		endloop
	endfacet
	facet normal 0 0 1
		outer loop
			vertex 0.083 0.0635 0.042
			vertex 0.083 0.061 0.042
			vertex 0.1 0.061 0.042
		endloop
	endfacet
	facet normal 1 0 0
		outer loop
			vertex 0.1 0.061 -9.350742402602919e-15
			vertex 0.1 0.0635 -9.347189688924119e-15
			vertex 0.1 0.061 0.042
		endloop
	endfacet
	facet normal 1 0 0
		outer loop
			vertex 0.1 0.0635 0.042
			vertex 0.1 0.061 0.042
			vertex 0.1 0.0635 -9.347189688924119e-15
		endloop
	endfacet
	facet normal 3.657205257588751e-14 -1.4210854715202005e-15 -1
		outer loop
			vertex 0.083 0.061 -9.972467296393006e-15
			vertex 0.083 0.0635 -9.976020010071808e-15
			vertex 0.1 0.061 -9.350742402602919e-15
		endloop
	endfacet
	facet normal 3.699001889104051e-14 1.4210854715202005e-15 -1
		outer loop
			vertex 0.1 0.0635 -9.347189688924119e-15
			vertex 0.1 0.061 -9.350742402602919e-15
			vertex 0.083 0.0635 -9.976020010071808e-15
		endloop
	endfacet
	facet normal -1 0 0
		outer loop
			vertex 0.083 0.061 0.042
			vertex 0.083 0.0635 0.042
			vertex 0.083 0.061 -9.972467296393006e-15
		endloop
	endfacet
	facet normal -1 0 0
		outer loop
			vertex 0.083 0.0635 -9.976020010071808e-15
			vertex 0.083 0.061 -9.972467296393006e-15
			vertex 0.083 0.0635 0.042
		endloop
	endfacet
	facet normal 0 -1 0
		outer loop
			vertex 0.1 0.061 -9.350742402602919e-15
			vertex 0.09215055847167969 0.061 0.005929404735565185
			vertex 0.0915 0.061 0.005800000190734863
		endloop
	endfacet
	facet normal 0 -1 0
		outer loop
			vertex 0.09215055847167969 0.061 0.005929404735565185
			vertex 0.1 0.061 -9.350742402602919e-15
			vertex 0.09270207977294923 0.061 0.006297918319702149
		endloop
	endfacet
	facet normal 0 -1 0
		outer loop
			vertex 0.09307059478759766 0.061 0.006849438190460205
			vertex 0.09270207977294923 0.061 0.006297918319702149
			vertex 0.1 0.061 -9.350742402602919e-15
		endloop
	endfacet
	facet normal 0 -1 0
		outer loop
			vertex 0.09319999694824219 0.061 0.0075
			vertex 0.09307059478759766 0.061 0.006849438190460205
			vertex 0.1 0.061 -9.350742402602919e-15
		endloop
	endfacet
	facet normal 0 -1 0
		outer loop
			vertex 0.1 0.061 -9.350742402602919e-15
			vertex 0.09307059478759766 0.061 0.008150562286376953
			vertex 0.09319999694824219 0.061 0.0075
		endloop
	endfacet
	facet normal 0 -1 0
		outer loop
			vertex 0.083 0.061 -9.972467296393006e-15
			vertex 0.0915 0.061 0.005800000190734863
			vertex 0.09084944152832032 0.061 0.005929404735565185
		endloop
	endfacet
	facet normal 0 -1 0
		outer loop
			vertex 0.0915 0.061 0.005800000190734863
			vertex 0.083 0.061 -9.972467296393006e-15
			vertex 0.1 0.061 -9.350742402602919e-15
		endloop
	endfacet
	facet normal 0 -1 0
		outer loop
			vertex 0.09029792022705078 0.061 0.006297918319702149
			vertex 0.08992940521240235 0.061 0.006849438190460205
			vertex 0.083 0.061 -9.972467296393006e-15
		endloop
	endfacet
	facet normal 0 -1 0
		outer loop
			vertex 0.09084944152832032 0.061 0.005929404735565185
			vertex 0.09029792022705078 0.061 0.006297918319702149
			vertex 0.083 0.061 -9.972467296393006e-15
		endloop
	endfacet
	facet normal 0 -1 0
		outer loop
			vertex 0.083 0.061 -9.972467296393006e-15
			vertex 0.08992940521240235 0.061 0.006849438190460205
			vertex 0.08980000305175781 0.061 0.0075
		endloop
	endfacet
	facet normal 0 -1 0
		outer loop
			vertex 0.09270207977294923 0.061 0.008702081680297851
			vertex 0.09307059478759766 0.061 0.008150562286376953
			vertex 0.1 0.061 0.042
		endloop
	endfacet
	facet normal 0 -1 0
		outer loop
			vertex 0.09215055847167969 0.061 0.009070594787597657
			vertex 0.1 0.061 0.042
			vertex 0.0915 0.061 0.009199999809265136
		endloop
	endfacet
	facet normal 0 -1 0
		outer loop
			vertex 0.1 0.061 0.042
			vertex 0.09215055847167969 0.061 0.009070594787597657
			vertex 0.09270207977294923 0.061 0.008702081680297851
		endloop
	endfacet
	facet normal 0 -1 0
		outer loop
			vertex 0.0915 0.061 0.009199999809265136
			vertex 0.1 0.061 0.042
			vertex 0.083 0.061 0.042
		endloop
	endfacet
	facet normal 0 -1 0
		outer loop
			vertex 0.09307059478759766 0.061 0.008150562286376953
			vertex 0.1 0.061 -9.350742402602919e-15
			vertex 0.1 0.061 0.042
		endloop
	endfacet
	facet normal 0 -1 0
		outer loop
			vertex 0.08992940521240235 0.061 0.008150562286376953
			vertex 0.083 0.061 0.042
			vertex 0.083 0.061 -9.972467296393006e-15
		endloop
	endfacet
	facet normal 0 -1 0
		outer loop
			vertex 0.09029792022705078 0.061 0.008702081680297851
			vertex 0.09084944152832032 0.061 0.009070594787597657
			vertex 0.083 0.061 0.042
		endloop
	endfacet
	facet normal 0 -1 0
		outer loop
			vertex 0.083 0.061 0.042
			vertex 0.09084944152832032 0.061 0.009070594787597657
			vertex 0.0915 0.061 0.009199999809265136
		endloop
	endfacet
	facet normal 0 -1 0
		outer loop
			vertex 0.09029792022705078 0.061 0.008702081680297851
			vertex 0.083 0.061 0.042
			vertex 0.08992940521240235 0.061 0.008150562286376953
		endloop
	endfacet
	facet normal 0 -1 0
		outer loop
			vertex 0.08992940521240235 0.061 0.008150562286376953
			vertex 0.083 0.061 -9.972467296393006e-15
			vertex 0.08980000305175781 0.061 0.0075
		endloop
	endfacet
	facet normal 0 1 0
		outer loop
			vertex 0.0915 0.0635 0.005800000190734863
			vertex 0.09215055847167969 0.0635 0.005929404735565185
			vertex 0.1 0.0635 -9.347189688924119e-15
		endloop
	endfacet
	facet normal 0 1 0
		outer loop
			vertex 0.09270207977294923 0.0635 0.006297918319702149
			vertex 0.1 0.0635 -9.347189688924119e-15
			vertex 0.09215055847167969 0.0635 0.005929404735565185
		endloop
	endfacet
	facet normal 0 1 0
		outer loop
			vertex 0.1 0.0635 -9.347189688924119e-15
			vertex 0.09270207977294923 0.0635 0.006297918319702149
			vertex 0.09307059478759766 0.0635 0.006849438190460205
		endloop
	endfacet
	facet normal 0 1 0
		outer loop
			vertex 0.1 0.0635 -9.347189688924119e-15
			vertex 0.09307059478759766 0.0635 0.006849438190460205
			vertex 0.09319999694824219 0.0635 0.0075
		endloop
	endfacet
	facet normal 0 1 0
		outer loop
			vertex 0.09319999694824219 0.0635 0.0075
			vertex 0.09307059478759766 0.0635 0.008150562286376953
			vertex 0.1 0.0635 -9.347189688924119e-15
		endloop
	endfacet
	facet normal 0 1 0
		outer loop
			vertex 0.09084944152832032 0.0635 0.005929404735565185
			vertex 0.0915 0.0635 0.005800000190734863
			vertex 0.083 0.0635 -9.976020010071808e-15
		endloop
	endfacet
	facet normal 0 1 0
		outer loop
			vertex 0.1 0.0635 -9.347189688924119e-15
			vertex 0.083 0.0635 -9.976020010071808e-15
			vertex 0.0915 0.0635 0.005800000190734863
		endloop
	endfacet
	facet normal 0 1 0
		outer loop
			vertex 0.083 0.0635 -9.976020010071808e-15
			vertex 0.08992940521240235 0.0635 0.006849438190460205
			vertex 0.09029792022705078 0.0635 0.006297918319702149
		endloop
	endfacet
	facet normal 0 1 0
		outer loop
			vertex 0.083 0.0635 -9.976020010071808e-15
			vertex 0.09029792022705078 0.0635 0.006297918319702149
			vertex 0.09084944152832032 0.0635 0.005929404735565185
		endloop
	endfacet
	facet normal 0 1 0
		outer loop
			vertex 0.08980000305175781 0.0635 0.0075
			vertex 0.08992940521240235 0.0635 0.006849438190460205
			vertex 0.083 0.0635 -9.976020010071808e-15
		endloop
	endfacet
	facet normal 0 1 0
		outer loop
			vertex 0.1 0.0635 0.042
			vertex 0.09307059478759766 0.0635 0.008150562286376953
			vertex 0.09270207977294923 0.0635 0.008702081680297851
		endloop
	endfacet
	facet normal 0 1 0
		outer loop
			vertex 0.0915 0.0635 0.009199999809265136
			vertex 0.1 0.0635 0.042
			vertex 0.09215055847167969 0.0635 0.009070594787597657
		endloop
	endfacet
	facet normal 0 1 0
		outer loop
			vertex 0.09270207977294923 0.0635 0.008702081680297851
			vertex 0.09215055847167969 0.0635 0.009070594787597657
			vertex 0.1 0.0635 0.042
		endloop
	endfacet
	facet normal 0 1 0
		outer loop
			vertex 0.083 0.0635 0.042
			vertex 0.1 0.0635 0.042
			vertex 0.0915 0.0635 0.009199999809265136
		endloop
	endfacet
	facet normal 0 1 0
		outer loop
			vertex 0.1 0.0635 0.042
			vertex 0.1 0.0635 -9.347189688924119e-15
			vertex 0.09307059478759766 0.0635 0.008150562286376953
		endloop
	endfacet
	facet normal 0 1 0
		outer loop
			vertex 0.083 0.0635 -9.976020010071808e-15
			vertex 0.083 0.0635 0.042
			vertex 0.08992940521240235 0.0635 0.008150562286376953
		endloop
	endfacet
	facet normal 0 1 0
		outer loop
			vertex 0.083 0.0635 0.042
			vertex 0.09084944152832032 0.0635 0.009070594787597657
			vertex 0.09029792022705078 0.0635 0.008702081680297851
		endloop
	endfacet
	facet normal 0 1 0
		outer loop
			vertex 0.0915 0.0635 0.009199999809265136
			vertex 0.09084944152832032 0.0635 0.009070594787597657
			vertex 0.083 0.0635 0.042
		endloop
	endfacet
	facet normal 0 1 0
		outer loop
			vertex 0.08992940521240235 0.0635 0.008150562286376953
			vertex 0.083 0.0635 0.042
			vertex 0.09029792022705078 0.0635 0.008702081680297851
		endloop
	endfacet
	facet normal 0 1 0
		outer loop
			vertex 0.08980000305175781 0.0635 0.0075
			vertex 0.083 0.0635 -9.976020010071808e-15
			vertex 0.08992940521240235 0.0635 0.008150562286376953
		endloop
	endfacet
	facet normal 0 0 -1
		outer loop
			vertex 0.083 0.061 0.378
			vertex 0.083 0.0635 0.378
			vertex 0.1 0.061 0.378
		endloop
	endfacet
	facet normal 0 0 -1
		outer loop
			vertex 0.1 0.0635 0.378
			vertex 0.1 0.061 0.378
			vertex 0.083 0.0635 0.378
		endloop
	endfacet
	facet normal -1 0 0
		outer loop
			vertex 0.083 0.061 0.42
			vertex 0.083 0.0635 0.42
			vertex 0.083 0.061 0.378
		endloop
	endfacet
	facet normal -1 0 0
		outer loop
			vertex 0.083 0.0635 0.378
			vertex 0.083 0.061 0.378
			vertex 0.083 0.0635 0.42
		endloop
	endfacet
	facet normal 0 0 1
		outer loop
			vertex 0.1 0.061 0.42
			vertex 0.1 0.0635 0.42
			vertex 0.083 0.0635 0.42
		endloop
	endfacet
	facet normal 0 0 1
		outer loop
			vertex 0.083 0.0635 0.42
			vertex 0.083 0.061 0.42
			vertex 0.1 0.061 0.42
		endloop
	endfacet
	facet normal 1 0 0
		outer loop
			vertex 0.1 0.061 0.378
			vertex 0.1 0.0635 0.378
			vertex 0.1 0.0635 0.42
		endloop
	endfacet
	facet normal 1 0 0
		outer loop
			vertex 0.1 0.0635 0.42
			vertex 0.1 0.061 0.42
			vertex 0.1 0.061 0.378
		endloop
	endfacet
	facet normal 0 -1 0
		outer loop
			vertex 0.083 0.061 0.42
			vertex 0.09084944152832032 0.061 0.4140705871582031
			vertex 0.0915 0.061 0.41420001220703123
		endloop
	endfacet
	facet normal 0 -1 0
		outer loop
			vertex 0.09084944152832032 0.061 0.4140705871582031
			vertex 0.083 0.061 0.42
			vertex 0.09029792022705078 0.061 0.41370208740234377
		endloop
	endfacet
	facet normal 0 -1 0
		outer loop
			vertex 0.08992940521240235 0.061 0.41315057373046876
			vertex 0.09029792022705078 0.061 0.41370208740234377
			vertex 0.083 0.061 0.42
		endloop
	endfacet
	facet normal 0 -1 0
		outer loop
			vertex 0.08980000305175781 0.061 0.41250000000000003
			vertex 0.08992940521240235 0.061 0.41315057373046876
			vertex 0.083 0.061 0.42
		endloop
	endfacet
	facet normal 0 -1 0
		outer loop
			vertex 0.083 0.061 0.42
			vertex 0.08992940521240235 0.061 0.41184942626953125
			vertex 0.08980000305175781 0.061 0.41250000000000003
		endloop
	endfacet
	facet normal 0 -1 0
		outer loop
			vertex 0.1 0.061 0.42
			vertex 0.0915 0.061 0.41420001220703123
			vertex 0.09215055847167969 0.061 0.4140705871582031
		endloop
	endfacet
	facet normal 0 -1 0
		outer loop
			vertex 0.0915 0.061 0.41420001220703123
			vertex 0.1 0.061 0.42
			vertex 0.083 0.061 0.42
		endloop
	endfacet
	facet normal 0 -1 0
		outer loop
			vertex 0.09270207977294923 0.061 0.41370208740234377
			vertex 0.09307059478759766 0.061 0.41315057373046876
			vertex 0.1 0.061 0.42
		endloop
	endfacet
	facet normal 0 -1 0
		outer loop
			vertex 0.09215055847167969 0.061 0.4140705871582031
			vertex 0.09270207977294923 0.061 0.41370208740234377
			vertex 0.1 0.061 0.42
		endloop
	endfacet
	facet normal 0 -1 0
		outer loop
			vertex 0.1 0.061 0.42
			vertex 0.09307059478759766 0.061 0.41315057373046876
			vertex 0.09319999694824219 0.061 0.41250000000000003
		endloop
	endfacet
	facet normal 0 -1 0
		outer loop
			vertex 0.09029792022705078 0.061 0.41129791259765625
			vertex 0.08992940521240235 0.061 0.41184942626953125
			vertex 0.083 0.061 0.378
		endloop
	endfacet
	facet normal 0 -1 0
		outer loop
			vertex 0.09084944152832032 0.061 0.4109294128417969
			vertex 0.083 0.061 0.378
			vertex 0.0915 0.061 0.4107999877929688
		endloop
	endfacet
	facet normal 0 -1 0
		outer loop
			vertex 0.083 0.061 0.378
			vertex 0.09084944152832032 0.061 0.4109294128417969
			vertex 0.09029792022705078 0.061 0.41129791259765625
		endloop
	endfacet
	facet normal 0 -1 0
		outer loop
			vertex 0.0915 0.061 0.4107999877929688
			vertex 0.083 0.061 0.378
			vertex 0.1 0.061 0.378
		endloop
	endfacet
	facet normal 0 -1 0
		outer loop
			vertex 0.08992940521240235 0.061 0.41184942626953125
			vertex 0.083 0.061 0.42
			vertex 0.083 0.061 0.378
		endloop
	endfacet
	facet normal 0 -1 0
		outer loop
			vertex 0.09307059478759766 0.061 0.41184942626953125
			vertex 0.1 0.061 0.378
			vertex 0.1 0.061 0.42
		endloop
	endfacet
	facet normal 0 -1 0
		outer loop
			vertex 0.09270207977294923 0.061 0.41129791259765625
			vertex 0.09215055847167969 0.061 0.4109294128417969
			vertex 0.1 0.061 0.378
		endloop
	endfacet
	facet normal 0 -1 0
		outer loop
			vertex 0.1 0.061 0.378
			vertex 0.09215055847167969 0.061 0.4109294128417969
			vertex 0.0915 0.061 0.4107999877929688
		endloop
	endfacet
	facet normal 0 -1 0
		outer loop
			vertex 0.09270207977294923 0.061 0.41129791259765625
			vertex 0.1 0.061 0.378
			vertex 0.09307059478759766 0.061 0.41184942626953125
		endloop
	endfacet
	facet normal 0 -1 0
		outer loop
			vertex 0.09307059478759766 0.061 0.41184942626953125
			vertex 0.1 0.061 0.42
			vertex 0.09319999694824219 0.061 0.41250000000000003
		endloop
	endfacet
	facet normal 0 1 0
		outer loop
			vertex 0.0915 0.0635 0.41420001220703123
			vertex 0.09084944152832032 0.0635 0.4140705871582031
			vertex 0.083 0.0635 0.42
		endloop
	endfacet
	facet normal 0 1 0
		outer loop
			vertex 0.09029792022705078 0.0635 0.41370208740234377
			vertex 0.083 0.0635 0.42
			vertex 0.09084944152832032 0.0635 0.4140705871582031
		endloop
	endfacet
	facet normal 0 1 0
		outer loop
			vertex 0.083 0.0635 0.42
			vertex 0.09029792022705078 0.0635 0.41370208740234377
			vertex 0.08992940521240235 0.0635 0.41315057373046876
		endloop
	endfacet
	facet normal 0 1 0
		outer loop
			vertex 0.083 0.0635 0.42
			vertex 0.08992940521240235 0.0635 0.41315057373046876
			vertex 0.08980000305175781 0.0635 0.41250000000000003
		endloop
	endfacet
	facet normal 0 1 0
		outer loop
			vertex 0.08980000305175781 0.0635 0.41250000000000003
			vertex 0.08992940521240235 0.0635 0.41184942626953125
			vertex 0.083 0.0635 0.42
		endloop
	endfacet
	facet normal 0 1 0
		outer loop
			vertex 0.09215055847167969 0.0635 0.4140705871582031
			vertex 0.0915 0.0635 0.41420001220703123
			vertex 0.1 0.0635 0.42
		endloop
	endfacet
	facet normal 0 1 0
		outer loop
			vertex 0.083 0.0635 0.42
			vertex 0.1 0.0635 0.42
			vertex 0.0915 0.0635 0.41420001220703123
		endloop
	endfacet
	facet normal 0 1 0
		outer loop
			vertex 0.1 0.0635 0.42
			vertex 0.09307059478759766 0.0635 0.41315057373046876
			vertex 0.09270207977294923 0.0635 0.41370208740234377
		endloop
	endfacet
	facet normal 0 1 0
		outer loop
			vertex 0.1 0.0635 0.42
			vertex 0.09270207977294923 0.0635 0.41370208740234377
			vertex 0.09215055847167969 0.0635 0.4140705871582031
		endloop
	endfacet
	facet normal 0 1 0
		outer loop
			vertex 0.09319999694824219 0.0635 0.41250000000000003
			vertex 0.09307059478759766 0.0635 0.41315057373046876
			vertex 0.1 0.0635 0.42
		endloop
	endfacet
	facet normal 0 1 0
		outer loop
			vertex 0.083 0.0635 0.378
			vertex 0.08992940521240235 0.0635 0.41184942626953125
			vertex 0.09029792022705078 0.0635 0.41129791259765625
		endloop
	endfacet
	facet normal 0 1 0
		outer loop
			vertex 0.0915 0.0635 0.4107999877929688
			vertex 0.083 0.0635 0.378
			vertex 0.09084944152832032 0.0635 0.4109294128417969
		endloop
	endfacet
	facet normal 0 1 0
		outer loop
			vertex 0.09029792022705078 0.0635 0.41129791259765625
			vertex 0.09084944152832032 0.0635 0.4109294128417969
			vertex 0.083 0.0635 0.378
		endloop
	endfacet
	facet normal 0 1 0
		outer loop
			vertex 0.1 0.0635 0.378
			vertex 0.083 0.0635 0.378
			vertex 0.0915 0.0635 0.4107999877929688
		endloop
	endfacet
	facet normal 0 1 0
		outer loop
			vertex 0.083 0.0635 0.378
			vertex 0.083 0.0635 0.42
			vertex 0.08992940521240235 0.0635 0.41184942626953125
		endloop
	endfacet
	facet normal 0 1 0
		outer loop
			vertex 0.1 0.0635 0.42
			vertex 0.1 0.0635 0.378
			vertex 0.09307059478759766 0.0635 0.41184942626953125
		endloop
	endfacet
	facet normal 0 1 0
		outer loop
			vertex 0.1 0.0635 0.378
			vertex 0.09215055847167969 0.0635 0.4109294128417969
			vertex 0.09270207977294923 0.0635 0.41129791259765625
		endloop
	endfacet
	facet normal 0 1 0
		outer loop
			vertex 0.0915 0.0635 0.4107999877929688
			vertex 0.09215055847167969 0.0635 0.4109294128417969
			vertex 0.1 0.0635 0.378
		endloop
	endfacet
	facet normal 0 1 0
		outer loop
			vertex 0.09307059478759766 0.0635 0.41184942626953125
			vertex 0.1 0.0635 0.378
			vertex 0.09270207977294923 0.0635 0.41129791259765625
		endloop
	endfacet
	facet normal 0 1 0
		outer loop
			vertex 0.09319999694824219 0.0635 0.41250000000000003
			vertex 0.1 0.0635 0.42
			vertex 0.09307059478759766 0.0635 0.41184942626953125
		endloop
	endfacet
endsolid exported
