solid exported
	facet normal 0 -1 0
		outer loop
			vertex 0.075 0.057 0.427
			vertex 0.079 0.057 0.427
			vertex 0.079 0.057 0.444
		endloop
	endfacet
	facet normal 0 -1 0
		outer loop
			vertex 0.079 0.057 0.444
			vertex 0.075 0.057 0.444
			vertex 0.075 0.057 0.427
		endloop
	endfacet
	facet normal 0 0 1
		outer loop
			vertex 0.08 0.069 0.444
			vertex 0.079 0.068 0.444
			vertex 0.08 0.056 0.444
		endloop
	endfacet
	facet normal 0 0 1
		outer loop
			vertex 0.079 0.068 0.444
			vertex 0.08 0.069 0.444
			vertex 0.079 0.069 0.444
		endloop
	endfacet
	facet normal 0 0 1
		outer loop
			vertex 0.075 0.068 0.444
			vertex 0.079 0.057 0.444
			vertex 0.079 0.068 0.444
		endloop
	endfacet
	facet normal 0 0 1
		outer loop
			vertex 0.075 0.057 0.444
			vertex 0.079 0.057 0.444
			vertex 0.075 0.068 0.444
		endloop
	endfacet
	facet normal 0 0 1
		outer loop
			vertex 0.079 0.056 0.444
			vertex 0.08 0.056 0.444
			vertex 0.079 0.057 0.444
		endloop
	endfacet
	facet normal 0 0 1
		outer loop
			vertex 0.079 0.057 0.444
			vertex 0.08 0.056 0.444
			vertex 0.079 0.068 0.444
		endloop
	endfacet
	facet normal 0 1 0
		outer loop
			vertex 0.075 0.068 0.444
			vertex 0.079 0.068 0.444
			vertex 0.079 0.068 0.427
		endloop
	endfacet
	facet normal 0 1 0
		outer loop
			vertex 0.079 0.068 0.427
			vertex 0.075 0.068 0.427
			vertex 0.075 0.068 0.444
		endloop
	endfacet
	facet normal 0 0 -1
		outer loop
			vertex 0.08 0.056 0.427
			vertex 0.079 0.057 0.427
			vertex 0.079 0.068 0.427
		endloop
	endfacet
	facet normal 0 0 -1
		outer loop
			vertex 0.079 0.057 0.427
			vertex 0.08 0.056 0.427
			vertex 0.079 0.056 0.427
		endloop
	endfacet
	facet normal 0 0 -1
		outer loop
			vertex 0.075 0.057 0.427
			vertex 0.075 0.068 0.427
			vertex 0.079 0.057 0.427
		endloop
	endfacet
	facet normal 0 0 -1
		outer loop
			vertex 0.075 0.068 0.427
			vertex 0.079 0.068 0.427
			vertex 0.079 0.057 0.427
		endloop
	endfacet
	facet normal 0 0 -1
		outer loop
			vertex 0.079 0.069 0.427
			vertex 0.08 0.069 0.427
			vertex 0.079 0.068 0.427
		endloop
	endfacet
	facet normal 0 0 -1
		outer loop
			vertex 0.079 0.068 0.427
			vertex 0.08 0.069 0.427
			vertex 0.08 0.056 0.427
		endloop
	endfacet
	facet normal 0.19509003373323036 -0.9807853377462201 0
		outer loop
			vertex 0.05382683563232422 0.02876120376586914 0.451
			vertex 0.05 0.028 0.451
			vertex 0.05 0.028 0.45
		endloop
	endfacet
	facet normal 0.8314694008012392 -0.5555705495535452 0
		outer loop
			vertex 0.059238796234130864 0.034173164367675785 0.451
			vertex 0.05707106781005859 0.030928932189941406 0.451
			vertex 0.05707106781005859 0.030928932189941406 0.45
		endloop
	endfacet
	facet normal 0.5555705495535452 -0.8314694008012392 0
		outer loop
			vertex 0.05382683563232422 0.02876120376586914 0.45
			vertex 0.05707106781005859 0.030928932189941406 0.451
			vertex 0.05382683563232422 0.02876120376586914 0.451
		endloop
	endfacet
	facet normal 0.9807853377462201 0.19509003373323036 0
		outer loop
			vertex 0.059238796234130864 0.04182683563232422 0.451
			vertex 0.06 0.038 0.451
			vertex 0.06 0.038 0.45
		endloop
	endfacet
	facet normal 0.5555705495535452 0.8314694008012392 0
		outer loop
			vertex 0.05382683563232422 0.04723879623413086 0.451
			vertex 0.05707106781005859 0.045071067810058596 0.451
			vertex 0.05707106781005859 0.045071067810058596 0.45
		endloop
	endfacet
	facet normal 0.8314694008012392 0.5555705495535452 0
		outer loop
			vertex 0.059238796234130864 0.04182683563232422 0.45
			vertex 0.05707106781005859 0.045071067810058596 0.451
			vertex 0.059238796234130864 0.04182683563232422 0.451
		endloop
	endfacet
	facet normal 0.9807853377462201 -0.19509003373323036 0
		outer loop
			vertex 0.059238796234130864 0.034173164367675785 0.45
			vertex 0.06 0.038 0.451
			vertex 0.059238796234130864 0.034173164367675785 0.451
		endloop
	endfacet
	facet normal -0.19509003373323036 0.9807853377462201 0
		outer loop
			vertex 0.04617316436767578 0.04723879623413086 0.451
			vertex 0.05 0.048 0.451
			vertex 0.05 0.048 0.45
		endloop
	endfacet
	facet normal -0.8314694008012392 0.5555705495535452 0
		outer loop
			vertex 0.04076120376586914 0.04182683563232422 0.451
			vertex 0.042928932189941406 0.045071067810058596 0.451
			vertex 0.042928932189941406 0.045071067810058596 0.45
		endloop
	endfacet
	facet normal -0.5555705495535452 0.8314694008012392 0
		outer loop
			vertex 0.04617316436767578 0.04723879623413086 0.45
			vertex 0.042928932189941406 0.045071067810058596 0.451
			vertex 0.04617316436767578 0.04723879623413086 0.451
		endloop
	endfacet
	facet normal -0.9807853377462201 -0.19509003373323036 0
		outer loop
			vertex 0.04076120376586914 0.034173164367675785 0.451
			vertex 0.04 0.038 0.451
			vertex 0.04 0.038 0.45
		endloop
	endfacet
	facet normal -0.5555705495535452 -0.8314694008012392 0
		outer loop
			vertex 0.04617316436767578 0.02876120376586914 0.451
			vertex 0.042928932189941406 0.030928932189941406 0.451
			vertex 0.042928932189941406 0.030928932189941406 0.45
		endloop
	endfacet
	facet normal -0.8314694008012392 -0.5555705495535452 0
		outer loop
			vertex 0.04076120376586914 0.034173164367675785 0.45
			vertex 0.042928932189941406 0.030928932189941406 0.451
			vertex 0.04076120376586914 0.034173164367675785 0.451
		endloop
	endfacet
	facet normal -0.9807853377462201 0.19509003373323036 0
		outer loop
			vertex 0.04076120376586914 0.04182683563232422 0.45
			vertex 0.04 0.038 0.451
			vertex 0.04076120376586914 0.04182683563232422 0.451
		endloop
	endfacet
	facet normal 0.19509003373323036 0.9807853377462201 0
		outer loop
			vertex 0.05382683563232422 0.04723879623413086 0.45
			vertex 0.05 0.048 0.451
			vertex 0.05382683563232422 0.04723879623413086 0.451
		endloop
	endfacet
	facet normal 0.19509003373323036 -0.9807853377462201 0
		outer loop
			vertex 0.05 0.028 0.45
			vertex 0.05382683563232422 0.02876120376586914 0.45
			vertex 0.05382683563232422 0.02876120376586914 0.451
		endloop
	endfacet
	facet normal 0.8314694008012392 -0.5555705495535452 0
		outer loop
			vertex 0.05707106781005859 0.030928932189941406 0.45
			vertex 0.059238796234130864 0.034173164367675785 0.45
			vertex 0.059238796234130864 0.034173164367675785 0.451
		endloop
	endfacet
	facet normal 0.5555705495535452 -0.8314694008012392 0
		outer loop
			vertex 0.05382683563232422 0.02876120376586914 0.45
			vertex 0.05707106781005859 0.030928932189941406 0.45
			vertex 0.05707106781005859 0.030928932189941406 0.451
		endloop
	endfacet
	facet normal 0.9807853377462201 0.19509003373323036 0
		outer loop
			vertex 0.06 0.038 0.45
			vertex 0.059238796234130864 0.04182683563232422 0.45
			vertex 0.059238796234130864 0.04182683563232422 0.451
		endloop
	endfacet
	facet normal 0.5555705495535452 0.8314694008012392 0
		outer loop
			vertex 0.05707106781005859 0.045071067810058596 0.45
			vertex 0.05382683563232422 0.04723879623413086 0.45
			vertex 0.05382683563232422 0.04723879623413086 0.451
		endloop
	endfacet
	facet normal 0.8314694008012392 0.5555705495535452 0
		outer loop
			vertex 0.059238796234130864 0.04182683563232422 0.45
			vertex 0.05707106781005859 0.045071067810058596 0.45
			vertex 0.05707106781005859 0.045071067810058596 0.451
		endloop
	endfacet
	facet normal 0.9807853377462201 -0.19509003373323036 0
		outer loop
			vertex 0.059238796234130864 0.034173164367675785 0.45
			vertex 0.06 0.038 0.45
			vertex 0.06 0.038 0.451
		endloop
	endfacet
	facet normal -0.19509003373323036 0.9807853377462201 0
		outer loop
			vertex 0.05 0.048 0.45
			vertex 0.04617316436767578 0.04723879623413086 0.45
			vertex 0.04617316436767578 0.04723879623413086 0.451
		endloop
	endfacet
	facet normal -0.8314694008012392 0.5555705495535452 0
		outer loop
			vertex 0.042928932189941406 0.045071067810058596 0.45
			vertex 0.04076120376586914 0.04182683563232422 0.45
			vertex 0.04076120376586914 0.04182683563232422 0.451
		endloop
	endfacet
	facet normal -0.5555705495535452 0.8314694008012392 0
		outer loop
			vertex 0.04617316436767578 0.04723879623413086 0.45
			vertex 0.042928932189941406 0.045071067810058596 0.45
			vertex 0.042928932189941406 0.045071067810058596 0.451
		endloop
	endfacet
	facet normal -0.9807853377462201 -0.19509003373323036 0
		outer loop
			vertex 0.04 0.038 0.45
			vertex 0.04076120376586914 0.034173164367675785 0.45
			vertex 0.04076120376586914 0.034173164367675785 0.451
		endloop
	endfacet
	facet normal -0.5555705495535452 -0.8314694008012392 0
		outer loop
			vertex 0.042928932189941406 0.030928932189941406 0.45
			vertex 0.04617316436767578 0.02876120376586914 0.45
			vertex 0.04617316436767578 0.02876120376586914 0.451
		endloop
	endfacet
	facet normal -0.8314694008012392 -0.5555705495535452 0
		outer loop
			vertex 0.04076120376586914 0.034173164367675785 0.45
			vertex 0.042928932189941406 0.030928932189941406 0.45
			vertex 0.042928932189941406 0.030928932189941406 0.451
		endloop
	endfacet
	facet normal -0.9807853377462201 0.19509003373323036 0
		outer loop
			vertex 0.04076120376586914 0.04182683563232422 0.45
			vertex 0.04 0.038 0.45
			vertex 0.04 0.038 0.451
		endloop
	endfacet
	facet normal 0.19509003373323036 0.9807853377462201 0
		outer loop
			vertex 0.05382683563232422 0.04723879623413086 0.45
			vertex 0.05 0.048 0.45
			vertex 0.05 0.048 0.451
		endloop
	endfacet
	facet normal -0.19509003373323036 -0.9807853377462201 0
		outer loop
			vertex 0.05 0.028 0.451
			vertex 0.04617316436767578 0.02876120376586914 0.45
			vertex 0.05 0.028 0.45
		endloop
	endfacet
	facet normal -0.19509003373323036 -0.9807853377462201 0
		outer loop
			vertex 0.05 0.028 0.451
			vertex 0.04617316436767578 0.02876120376586914 0.451
			vertex 0.04617316436767578 0.02876120376586914 0.45
		endloop
	endfacet
	facet normal 0 0 1
		outer loop
			vertex 0.05133939361572266 0.03476642227172851 0.451
			vertex 0.05707106781005859 0.030928932189941406 0.451
			vertex 0.05247487258911133 0.035525127410888674 0.451
		endloop
	endfacet
	facet normal 0 0 1
		outer loop
			vertex 0.05382683563232422 0.02876120376586914 0.451
			vertex 0.05133939361572266 0.03476642227172851 0.451
			vertex 0.05 0.028 0.451
		endloop
	endfacet
	facet normal 0 0 1
		outer loop
			vertex 0.05133939361572266 0.03476642227172851 0.451
			vertex 0.05382683563232422 0.02876120376586914 0.451
			vertex 0.05707106781005859 0.030928932189941406 0.451
		endloop
	endfacet
	facet normal 0 0 1
		outer loop
			vertex 0.05707106781005859 0.030928932189941406 0.451
			vertex 0.059238796234130864 0.034173164367675785 0.451
			vertex 0.05323357772827149 0.036660606384277344 0.451
		endloop
	endfacet
	facet normal 0 0 1
		outer loop
			vertex 0.06 0.038 0.451
			vertex 0.0535 0.038 0.451
			vertex 0.05323357772827149 0.036660606384277344 0.451
		endloop
	endfacet
	facet normal 0 0 1
		outer loop
			vertex 0.0535 0.038 0.451
			vertex 0.06 0.038 0.451
			vertex 0.05323357772827149 0.039339393615722654 0.451
		endloop
	endfacet
	facet normal 0 0 1
		outer loop
			vertex 0.05247487258911133 0.035525127410888674 0.451
			vertex 0.05707106781005859 0.030928932189941406 0.451
			vertex 0.05323357772827149 0.036660606384277344 0.451
		endloop
	endfacet
	facet normal 0 0 1
		outer loop
			vertex 0.05323357772827149 0.036660606384277344 0.451
			vertex 0.059238796234130864 0.034173164367675785 0.451
			vertex 0.06 0.038 0.451
		endloop
	endfacet
	facet normal 0 0 1
		outer loop
			vertex 0.042928932189941406 0.030928932189941406 0.451
			vertex 0.04617316436767578 0.02876120376586914 0.451
			vertex 0.04866060638427735 0.03476642227172851 0.451
		endloop
	endfacet
	facet normal 0 0 1
		outer loop
			vertex 0.04676642227172852 0.036660606384277344 0.451
			vertex 0.04076120376586914 0.034173164367675785 0.451
			vertex 0.042928932189941406 0.030928932189941406 0.451
		endloop
	endfacet
	facet normal 0 0 1
		outer loop
			vertex 0.05 0.0345 0.451
			vertex 0.04617316436767578 0.02876120376586914 0.451
			vertex 0.05 0.028 0.451
		endloop
	endfacet
	facet normal 0 0 1
		outer loop
			vertex 0.05 0.0345 0.451
			vertex 0.04866060638427735 0.03476642227172851 0.451
			vertex 0.04617316436767578 0.02876120376586914 0.451
		endloop
	endfacet
	facet normal 0 0 1
		outer loop
			vertex 0.04752512741088867 0.035525127410888674 0.451
			vertex 0.04676642227172852 0.036660606384277344 0.451
			vertex 0.042928932189941406 0.030928932189941406 0.451
		endloop
	endfacet
	facet normal 0 0 1
		outer loop
			vertex 0.04866060638427735 0.03476642227172851 0.451
			vertex 0.04752512741088867 0.035525127410888674 0.451
			vertex 0.042928932189941406 0.030928932189941406 0.451
		endloop
	endfacet
	facet normal 0 0 1
		outer loop
			vertex 0.05 0.028 0.451
			vertex 0.05133939361572266 0.03476642227172851 0.451
			vertex 0.05 0.0345 0.451
		endloop
	endfacet
	facet normal 0 0 1
		outer loop
			vertex 0.04076120376586914 0.034173164367675785 0.451
			vertex 0.04676642227172852 0.036660606384277344 0.451
			vertex 0.0465 0.038 0.451
		endloop
	endfacet
	facet normal 0 0 1
		outer loop
			vertex 0.05247487258911133 0.04047487258911133 0.451
			vertex 0.05323357772827149 0.039339393615722654 0.451
			vertex 0.05707106781005859 0.045071067810058596 0.451
		endloop
	endfacet
	facet normal 0 0 1
		outer loop
			vertex 0.05 0.0415 0.451
			vertex 0.05133939361572266 0.041233577728271485 0.451
			vertex 0.05 0.048 0.451
		endloop
	endfacet
	facet normal 0 0 1
		outer loop
			vertex 0.05247487258911133 0.04047487258911133 0.451
			vertex 0.05707106781005859 0.045071067810058596 0.451
			vertex 0.05133939361572266 0.041233577728271485 0.451
		endloop
	endfacet
	facet normal 0 0 1
		outer loop
			vertex 0.05707106781005859 0.045071067810058596 0.451
			vertex 0.05382683563232422 0.04723879623413086 0.451
			vertex 0.05133939361572266 0.041233577728271485 0.451
		endloop
	endfacet
	facet normal 0 0 1
		outer loop
			vertex 0.05 0.048 0.451
			vertex 0.05133939361572266 0.041233577728271485 0.451
			vertex 0.05382683563232422 0.04723879623413086 0.451
		endloop
	endfacet
	facet normal 0 0 1
		outer loop
			vertex 0.05323357772827149 0.039339393615722654 0.451
			vertex 0.059238796234130864 0.04182683563232422 0.451
			vertex 0.05707106781005859 0.045071067810058596 0.451
		endloop
	endfacet
	facet normal 0 0 1
		outer loop
			vertex 0.05323357772827149 0.039339393615722654 0.451
			vertex 0.06 0.038 0.451
			vertex 0.059238796234130864 0.04182683563232422 0.451
		endloop
	endfacet
	facet normal 0 0 1
		outer loop
			vertex 0.05 0.0415 0.451
			vertex 0.05 0.048 0.451
			vertex 0.04866060638427735 0.041233577728271485 0.451
		endloop
	endfacet
	facet normal 0 0 1
		outer loop
			vertex 0.04 0.038 0.451
			vertex 0.04676642227172852 0.039339393615722654 0.451
			vertex 0.04076120376586914 0.04182683563232422 0.451
		endloop
	endfacet
	facet normal 0 0 1
		outer loop
			vertex 0.0465 0.038 0.451
			vertex 0.04 0.038 0.451
			vertex 0.04076120376586914 0.034173164367675785 0.451
		endloop
	endfacet
	facet normal 0 0 1
		outer loop
			vertex 0.04 0.038 0.451
			vertex 0.0465 0.038 0.451
			vertex 0.04676642227172852 0.039339393615722654 0.451
		endloop
	endfacet
	facet normal 0 0 1
		outer loop
			vertex 0.04676642227172852 0.039339393615722654 0.451
			vertex 0.04752512741088867 0.04047487258911133 0.451
			vertex 0.042928932189941406 0.045071067810058596 0.451
		endloop
	endfacet
	facet normal 0 0 1
		outer loop
			vertex 0.04866060638427735 0.041233577728271485 0.451
			vertex 0.04617316436767578 0.04723879623413086 0.451
			vertex 0.042928932189941406 0.045071067810058596 0.451
		endloop
	endfacet
	facet normal 0 0 1
		outer loop
			vertex 0.04617316436767578 0.04723879623413086 0.451
			vertex 0.04866060638427735 0.041233577728271485 0.451
			vertex 0.05 0.048 0.451
		endloop
	endfacet
	facet normal 0 0 1
		outer loop
			vertex 0.04076120376586914 0.04182683563232422 0.451
			vertex 0.04676642227172852 0.039339393615722654 0.451
			vertex 0.042928932189941406 0.045071067810058596 0.451
		endloop
	endfacet
	facet normal 0 0 1
		outer loop
			vertex 0.042928932189941406 0.045071067810058596 0.451
			vertex 0.04752512741088867 0.04047487258911133 0.451
			vertex 0.04866060638427735 0.041233577728271485 0.451
		endloop
	endfacet
	facet normal 0 0 -1
		outer loop
			vertex 0.05247487258911133 0.035525127410888674 0.45
			vertex 0.05707106781005859 0.030928932189941406 0.45
			vertex 0.05133939361572266 0.03476642227172851 0.45
		endloop
	endfacet
	facet normal 0 0 -1
		outer loop
			vertex 0.05 0.028 0.45
			vertex 0.05133939361572266 0.03476642227172851 0.45
			vertex 0.05382683563232422 0.02876120376586914 0.45
		endloop
	endfacet
	facet normal 0 0 -1
		outer loop
			vertex 0.05707106781005859 0.030928932189941406 0.45
			vertex 0.05382683563232422 0.02876120376586914 0.45
			vertex 0.05133939361572266 0.03476642227172851 0.45
		endloop
	endfacet
	facet normal 0 0 -1
		outer loop
			vertex 0.05323357772827149 0.036660606384277344 0.45
			vertex 0.059238796234130864 0.034173164367675785 0.45
			vertex 0.05707106781005859 0.030928932189941406 0.45
		endloop
	endfacet
	facet normal 0 0 -1
		outer loop
			vertex 0.05323357772827149 0.036660606384277344 0.45
			vertex 0.0535 0.038 0.45
			vertex 0.06 0.038 0.45
		endloop
	endfacet
	facet normal 0 0 -1
		outer loop
			vertex 0.05323357772827149 0.039339393615722654 0.45
			vertex 0.06 0.038 0.45
			vertex 0.0535 0.038 0.45
		endloop
	endfacet
	facet normal 0 0 -1
		outer loop
			vertex 0.05323357772827149 0.036660606384277344 0.45
			vertex 0.05707106781005859 0.030928932189941406 0.45
			vertex 0.05247487258911133 0.035525127410888674 0.45
		endloop
	endfacet
	facet normal 0 0 -1
		outer loop
			vertex 0.06 0.038 0.45
			vertex 0.059238796234130864 0.034173164367675785 0.45
			vertex 0.05323357772827149 0.036660606384277344 0.45
		endloop
	endfacet
	facet normal 0 0 -1
		outer loop
			vertex 0.04866060638427735 0.03476642227172851 0.45
			vertex 0.04617316436767578 0.02876120376586914 0.45
			vertex 0.042928932189941406 0.030928932189941406 0.45
		endloop
	endfacet
	facet normal 0 0 -1
		outer loop
			vertex 0.042928932189941406 0.030928932189941406 0.45
			vertex 0.04076120376586914 0.034173164367675785 0.45
			vertex 0.04676642227172852 0.036660606384277344 0.45
		endloop
	endfacet
	facet normal 0 0 -1
		outer loop
			vertex 0.05 0.028 0.45
			vertex 0.04617316436767578 0.02876120376586914 0.45
			vertex 0.05 0.0345 0.45
		endloop
	endfacet
	facet normal 0 0 -1
		outer loop
			vertex 0.04617316436767578 0.02876120376586914 0.45
			vertex 0.04866060638427735 0.03476642227172851 0.45
			vertex 0.05 0.0345 0.45
		endloop
	endfacet
	facet normal 0 0 -1
		outer loop
			vertex 0.042928932189941406 0.030928932189941406 0.45
			vertex 0.04676642227172852 0.036660606384277344 0.45
			vertex 0.04752512741088867 0.035525127410888674 0.45
		endloop
	endfacet
	facet normal 0 0 -1
		outer loop
			vertex 0.042928932189941406 0.030928932189941406 0.45
			vertex 0.04752512741088867 0.035525127410888674 0.45
			vertex 0.04866060638427735 0.03476642227172851 0.45
		endloop
	endfacet
	facet normal 0 0 -1
		outer loop
			vertex 0.05 0.0345 0.45
			vertex 0.05133939361572266 0.03476642227172851 0.45
			vertex 0.05 0.028 0.45
		endloop
	endfacet
	facet normal 0 0 -1
		outer loop
			vertex 0.0465 0.038 0.45
			vertex 0.04676642227172852 0.036660606384277344 0.45
			vertex 0.04076120376586914 0.034173164367675785 0.45
		endloop
	endfacet
	facet normal 0 0 -1
		outer loop
			vertex 0.05707106781005859 0.045071067810058596 0.45
			vertex 0.05323357772827149 0.039339393615722654 0.45
			vertex 0.05247487258911133 0.04047487258911133 0.45
		endloop
	endfacet
	facet normal 0 0 -1
		outer loop
			vertex 0.05 0.048 0.45
			vertex 0.05133939361572266 0.041233577728271485 0.45
			vertex 0.05 0.0415 0.45
		endloop
	endfacet
	facet normal 0 0 -1
		outer loop
			vertex 0.05133939361572266 0.041233577728271485 0.45
			vertex 0.05707106781005859 0.045071067810058596 0.45
			vertex 0.05247487258911133 0.04047487258911133 0.45
		endloop
	endfacet
	facet normal 0 0 -1
		outer loop
			vertex 0.05133939361572266 0.041233577728271485 0.45
			vertex 0.05382683563232422 0.04723879623413086 0.45
			vertex 0.05707106781005859 0.045071067810058596 0.45
		endloop
	endfacet
	facet normal 0 0 -1
		outer loop
			vertex 0.05382683563232422 0.04723879623413086 0.45
			vertex 0.05133939361572266 0.041233577728271485 0.45
			vertex 0.05 0.048 0.45
		endloop
	endfacet
	facet normal 0 0 -1
		outer loop
			vertex 0.05707106781005859 0.045071067810058596 0.45
			vertex 0.059238796234130864 0.04182683563232422 0.45
			vertex 0.05323357772827149 0.039339393615722654 0.45
		endloop
	endfacet
	facet normal 0 0 -1
		outer loop
			vertex 0.059238796234130864 0.04182683563232422 0.45
			vertex 0.06 0.038 0.45
			vertex 0.05323357772827149 0.039339393615722654 0.45
		endloop
	endfacet
	facet normal 0 0 -1
		outer loop
			vertex 0.04866060638427735 0.041233577728271485 0.45
			vertex 0.05 0.048 0.45
			vertex 0.05 0.0415 0.45
		endloop
	endfacet
	facet normal 0 0 -1
		outer loop
			vertex 0.04076120376586914 0.04182683563232422 0.45
			vertex 0.04676642227172852 0.039339393615722654 0.45
			vertex 0.04 0.038 0.45
		endloop
	endfacet
	facet normal 0 0 -1
		outer loop
			vertex 0.04076120376586914 0.034173164367675785 0.45
			vertex 0.04 0.038 0.45
			vertex 0.0465 0.038 0.45
		endloop
	endfacet
	facet normal 0 0 -1
		outer loop
			vertex 0.04676642227172852 0.039339393615722654 0.45
			vertex 0.0465 0.038 0.45
			vertex 0.04 0.038 0.45
		endloop
	endfacet
	facet normal 0 0 -1
		outer loop
			vertex 0.042928932189941406 0.045071067810058596 0.45
			vertex 0.04752512741088867 0.04047487258911133 0.45
			vertex 0.04676642227172852 0.039339393615722654 0.45
		endloop
	endfacet
	facet normal 0 0 -1
		outer loop
			vertex 0.042928932189941406 0.045071067810058596 0.45
			vertex 0.04617316436767578 0.04723879623413086 0.45
			vertex 0.04866060638427735 0.041233577728271485 0.45
		endloop
	endfacet
	facet normal 0 0 -1
		outer loop
			vertex 0.05 0.048 0.45
			vertex 0.04866060638427735 0.041233577728271485 0.45
			vertex 0.04617316436767578 0.04723879623413086 0.45
		endloop
	endfacet
	facet normal 0 0 -1
		outer loop
			vertex 0.042928932189941406 0.045071067810058596 0.45
			vertex 0.04676642227172852 0.039339393615722654 0.45
			vertex 0.04076120376586914 0.04182683563232422 0.45
		endloop
	endfacet
	facet normal 0 0 -1
		outer loop
			vertex 0.04866060638427735 0.041233577728271485 0.45
			vertex 0.04752512741088867 0.04047487258911133 0.45
			vertex 0.042928932189941406 0.045071067810058596 0.45
		endloop
	endfacet
	facet normal 0.1950905451472989 0.9807852360196547 0
		outer loop
			vertex 0.05133939361572266 0.041233577728271485 0.425
			vertex 0.05 0.0415 0.425
			vertex 0.05 0.0415 0.45
		endloop
	endfacet
	facet normal 0.8314688189656957 0.5555714203302679 0
		outer loop
			vertex 0.05323357772827149 0.039339393615722654 0.425
			vertex 0.05247487258911133 0.04047487258911133 0.45
			vertex 0.05323357772827149 0.039339393615722654 0.45
		endloop
	endfacet
	facet normal 0.5555714203302679 0.8314688189656957 0
		outer loop
			vertex 0.05247487258911133 0.04047487258911133 0.45
			vertex 0.05247487258911133 0.04047487258911133 0.425
			vertex 0.05133939361572266 0.041233577728271485 0.45
		endloop
	endfacet
	facet normal 0.9807852360196547 -0.1950905451472989 0
		outer loop
			vertex 0.05323357772827149 0.036660606384277344 0.425
			vertex 0.0535 0.038 0.45
			vertex 0.05323357772827149 0.036660606384277344 0.45
		endloop
	endfacet
	facet normal 0.5555714203302679 -0.8314688189656957 0
		outer loop
			vertex 0.05133939361572266 0.03476642227172851 0.425
			vertex 0.05247487258911133 0.035525127410888674 0.45
			vertex 0.05133939361572266 0.03476642227172851 0.45
		endloop
	endfacet
	facet normal 0.8314688189656957 -0.5555714203302679 0
		outer loop
			vertex 0.05247487258911133 0.035525127410888674 0.45
			vertex 0.05247487258911133 0.035525127410888674 0.425
			vertex 0.05323357772827149 0.036660606384277344 0.45
		endloop
	endfacet
	facet normal 0.9807852360196547 0.1950905451472989 0
		outer loop
			vertex 0.0535 0.038 0.45
			vertex 0.0535 0.038 0.425
			vertex 0.05323357772827149 0.039339393615722654 0.45
		endloop
	endfacet
	facet normal -0.1950905451472989 -0.9807852360196547 0
		outer loop
			vertex 0.05 0.0345 0.425
			vertex 0.05 0.0345 0.45
			vertex 0.04866060638427735 0.03476642227172851 0.45
		endloop
	endfacet
	facet normal -0.8314688189656957 -0.5555714203302679 0
		outer loop
			vertex 0.04752512741088867 0.035525127410888674 0.425
			vertex 0.04752512741088867 0.035525127410888674 0.45
			vertex 0.04676642227172852 0.036660606384277344 0.45
		endloop
	endfacet
	facet normal -0.5555714203302679 -0.8314688189656957 0
		outer loop
			vertex 0.04752512741088867 0.035525127410888674 0.45
			vertex 0.04866060638427735 0.03476642227172851 0.425
			vertex 0.04866060638427735 0.03476642227172851 0.45
		endloop
	endfacet
	facet normal -0.9807852360196547 0.1950905451472989 0
		outer loop
			vertex 0.0465 0.038 0.425
			vertex 0.0465 0.038 0.45
			vertex 0.04676642227172852 0.039339393615722654 0.45
		endloop
	endfacet
	facet normal -0.5555714203302679 0.8314688189656957 0
		outer loop
			vertex 0.04752512741088867 0.04047487258911133 0.425
			vertex 0.04752512741088867 0.04047487258911133 0.45
			vertex 0.04866060638427735 0.041233577728271485 0.45
		endloop
	endfacet
	facet normal -0.8314688189656957 0.5555714203302679 0
		outer loop
			vertex 0.04752512741088867 0.04047487258911133 0.45
			vertex 0.04676642227172852 0.039339393615722654 0.425
			vertex 0.04676642227172852 0.039339393615722654 0.45
		endloop
	endfacet
	facet normal -0.9807852360196547 -0.1950905451472989 0
		outer loop
			vertex 0.0465 0.038 0.45
			vertex 0.04676642227172852 0.036660606384277344 0.425
			vertex 0.04676642227172852 0.036660606384277344 0.45
		endloop
	endfacet
	facet normal 0.1950905451472989 -0.9807852360196547 0
		outer loop
			vertex 0.05133939361572266 0.03476642227172851 0.45
			vertex 0.05 0.0345 0.425
			vertex 0.05133939361572266 0.03476642227172851 0.425
		endloop
	endfacet
	facet normal 0.1950905451472989 0.9807852360196547 0
		outer loop
			vertex 0.05 0.0415 0.45
			vertex 0.05133939361572266 0.041233577728271485 0.45
			vertex 0.05133939361572266 0.041233577728271485 0.425
		endloop
	endfacet
	facet normal 0.8314688189656957 0.5555714203302679 0
		outer loop
			vertex 0.05247487258911133 0.04047487258911133 0.45
			vertex 0.05323357772827149 0.039339393615722654 0.425
			vertex 0.05247487258911133 0.04047487258911133 0.425
		endloop
	endfacet
	facet normal 0.5555714203302679 0.8314688189656957 0
		outer loop
			vertex 0.05133939361572266 0.041233577728271485 0.45
			vertex 0.05247487258911133 0.04047487258911133 0.425
			vertex 0.05133939361572266 0.041233577728271485 0.425
		endloop
	endfacet
	facet normal 0.9807852360196547 -0.1950905451472989 0
		outer loop
			vertex 0.0535 0.038 0.45
			vertex 0.05323357772827149 0.036660606384277344 0.425
			vertex 0.0535 0.038 0.425
		endloop
	endfacet
	facet normal 0.5555714203302679 -0.8314688189656957 0
		outer loop
			vertex 0.05247487258911133 0.035525127410888674 0.45
			vertex 0.05133939361572266 0.03476642227172851 0.425
			vertex 0.05247487258911133 0.035525127410888674 0.425
		endloop
	endfacet
	facet normal 0.8314688189656957 -0.5555714203302679 0
		outer loop
			vertex 0.05323357772827149 0.036660606384277344 0.45
			vertex 0.05247487258911133 0.035525127410888674 0.425
			vertex 0.05323357772827149 0.036660606384277344 0.425
		endloop
	endfacet
	facet normal 0.9807852360196547 0.1950905451472989 0
		outer loop
			vertex 0.05323357772827149 0.039339393615722654 0.45
			vertex 0.0535 0.038 0.425
			vertex 0.05323357772827149 0.039339393615722654 0.425
		endloop
	endfacet
	facet normal -0.1950905451472989 -0.9807852360196547 0
		outer loop
			vertex 0.04866060638427735 0.03476642227172851 0.45
			vertex 0.04866060638427735 0.03476642227172851 0.425
			vertex 0.05 0.0345 0.425
		endloop
	endfacet
	facet normal -0.8314688189656957 -0.5555714203302679 0
		outer loop
			vertex 0.04676642227172852 0.036660606384277344 0.45
			vertex 0.04676642227172852 0.036660606384277344 0.425
			vertex 0.04752512741088867 0.035525127410888674 0.425
		endloop
	endfacet
	facet normal -0.5555714203302679 -0.8314688189656957 0
		outer loop
			vertex 0.04752512741088867 0.035525127410888674 0.45
			vertex 0.04752512741088867 0.035525127410888674 0.425
			vertex 0.04866060638427735 0.03476642227172851 0.425
		endloop
	endfacet
	facet normal -0.9807852360196547 0.1950905451472989 0
		outer loop
			vertex 0.04676642227172852 0.039339393615722654 0.45
			vertex 0.04676642227172852 0.039339393615722654 0.425
			vertex 0.0465 0.038 0.425
		endloop
	endfacet
	facet normal -0.5555714203302679 0.8314688189656957 0
		outer loop
			vertex 0.04866060638427735 0.041233577728271485 0.45
			vertex 0.04866060638427735 0.041233577728271485 0.425
			vertex 0.04752512741088867 0.04047487258911133 0.425
		endloop
	endfacet
	facet normal -0.8314688189656957 0.5555714203302679 0
		outer loop
			vertex 0.04752512741088867 0.04047487258911133 0.45
			vertex 0.04752512741088867 0.04047487258911133 0.425
			vertex 0.04676642227172852 0.039339393615722654 0.425
		endloop
	endfacet
	facet normal -0.9807852360196547 -0.1950905451472989 0
		outer loop
			vertex 0.0465 0.038 0.45
			vertex 0.0465 0.038 0.425
			vertex 0.04676642227172852 0.036660606384277344 0.425
		endloop
	endfacet
	facet normal 0.1950905451472989 -0.9807852360196547 0
		outer loop
			vertex 0.05133939361572266 0.03476642227172851 0.45
			vertex 0.05 0.0345 0.45
			vertex 0.05 0.0345 0.425
		endloop
	endfacet
	facet normal -0.1950905451472989 0.9807852360196547 0
		outer loop
			vertex 0.05 0.0415 0.425
			vertex 0.04866060638427735 0.041233577728271485 0.45
			vertex 0.05 0.0415 0.45
		endloop
	endfacet
	facet normal -0.1950905451472989 0.9807852360196547 0
		outer loop
			vertex 0.05 0.0415 0.425
			vertex 0.04866060638427735 0.041233577728271485 0.425
			vertex 0.04866060638427735 0.041233577728271485 0.45
		endloop
	endfacet
	facet normal 0.1950894674072869 0.9807854503951112 0
		outer loop
			vertex 0.050956707000732425 0.04030970001220703 0.42
			vertex 0.05 0.0405 0.42
			vertex 0.05 0.0405 0.425
		endloop
	endfacet
	facet normal 0.8314710594911334 0.5555680671427151 0
		outer loop
			vertex 0.052309700012207035 0.03895670700073242 0.42
			vertex 0.051767768859863283 0.03976776885986328 0.42
			vertex 0.051767768859863283 0.03976776885986328 0.425
		endloop
	endfacet
	facet normal 0.5555680671427151 0.8314710594911334 0
		outer loop
			vertex 0.050956707000732425 0.04030970001220703 0.425
			vertex 0.051767768859863283 0.03976776885986328 0.42
			vertex 0.050956707000732425 0.04030970001220703 0.42
		endloop
	endfacet
	facet normal 0.9807854503951112 -0.1950894674072869 0
		outer loop
			vertex 0.052309700012207035 0.03704329299926758 0.42
			vertex 0.0525 0.038 0.42
			vertex 0.0525 0.038 0.425
		endloop
	endfacet
	facet normal 0.5555680671427151 -0.8314710594911334 0
		outer loop
			vertex 0.050956707000732425 0.03569029998779297 0.42
			vertex 0.051767768859863283 0.03623223114013672 0.42
			vertex 0.051767768859863283 0.03623223114013672 0.425
		endloop
	endfacet
	facet normal 0.8314710594911334 -0.5555680671427151 0
		outer loop
			vertex 0.052309700012207035 0.03704329299926758 0.425
			vertex 0.051767768859863283 0.03623223114013672 0.42
			vertex 0.052309700012207035 0.03704329299926758 0.42
		endloop
	endfacet
	facet normal 0.9807854503951112 0.1950894674072869 0
		outer loop
			vertex 0.052309700012207035 0.03895670700073242 0.425
			vertex 0.0525 0.038 0.42
			vertex 0.052309700012207035 0.03895670700073242 0.42
		endloop
	endfacet
	facet normal -0.1950894674072869 -0.9807854503951112 0
		outer loop
			vertex 0.04904329299926758 0.03569029998779297 0.42
			vertex 0.05 0.035500000000000004 0.42
			vertex 0.05 0.035500000000000004 0.425
		endloop
	endfacet
	facet normal -0.8314710594911334 -0.5555680671427151 0
		outer loop
			vertex 0.04769029998779297 0.03704329299926758 0.42
			vertex 0.04823223114013672 0.03623223114013672 0.42
			vertex 0.04823223114013672 0.03623223114013672 0.425
		endloop
	endfacet
	facet normal -0.5555680671427151 -0.8314710594911334 0
		outer loop
			vertex 0.04904329299926758 0.03569029998779297 0.425
			vertex 0.04823223114013672 0.03623223114013672 0.42
			vertex 0.04904329299926758 0.03569029998779297 0.42
		endloop
	endfacet
	facet normal -0.9807854503951112 0.1950894674072869 0
		outer loop
			vertex 0.04769029998779297 0.03895670700073242 0.42
			vertex 0.0475 0.038 0.42
			vertex 0.0475 0.038 0.425
		endloop
	endfacet
	facet normal -0.5555680671427151 0.8314710594911334 0
		outer loop
			vertex 0.04904329299926758 0.04030970001220703 0.42
			vertex 0.04823223114013672 0.03976776885986328 0.42
			vertex 0.04823223114013672 0.03976776885986328 0.425
		endloop
	endfacet
	facet normal -0.8314710594911334 0.5555680671427151 0
		outer loop
			vertex 0.04769029998779297 0.03895670700073242 0.425
			vertex 0.04823223114013672 0.03976776885986328 0.42
			vertex 0.04769029998779297 0.03895670700073242 0.42
		endloop
	endfacet
	facet normal -0.9807854503951112 -0.1950894674072869 0
		outer loop
			vertex 0.04769029998779297 0.03704329299926758 0.425
			vertex 0.0475 0.038 0.42
			vertex 0.04769029998779297 0.03704329299926758 0.42
		endloop
	endfacet
	facet normal 0.1950894674072869 -0.9807854503951112 0
		outer loop
			vertex 0.050956707000732425 0.03569029998779297 0.425
			vertex 0.05 0.035500000000000004 0.42
			vertex 0.050956707000732425 0.03569029998779297 0.42
		endloop
	endfacet
	facet normal 0.1950894674072869 0.9807854503951112 0
		outer loop
			vertex 0.05 0.0405 0.425
			vertex 0.050956707000732425 0.04030970001220703 0.425
			vertex 0.050956707000732425 0.04030970001220703 0.42
		endloop
	endfacet
	facet normal 0.8314710594911334 0.5555680671427151 0
		outer loop
			vertex 0.051767768859863283 0.03976776885986328 0.425
			vertex 0.052309700012207035 0.03895670700073242 0.425
			vertex 0.052309700012207035 0.03895670700073242 0.42
		endloop
	endfacet
	facet normal 0.5555680671427151 0.8314710594911334 0
		outer loop
			vertex 0.050956707000732425 0.04030970001220703 0.425
			vertex 0.051767768859863283 0.03976776885986328 0.425
			vertex 0.051767768859863283 0.03976776885986328 0.42
		endloop
	endfacet
	facet normal 0.9807854503951112 -0.1950894674072869 0
		outer loop
			vertex 0.0525 0.038 0.425
			vertex 0.052309700012207035 0.03704329299926758 0.425
			vertex 0.052309700012207035 0.03704329299926758 0.42
		endloop
	endfacet
	facet normal 0.5555680671427151 -0.8314710594911334 0
		outer loop
			vertex 0.051767768859863283 0.03623223114013672 0.425
			vertex 0.050956707000732425 0.03569029998779297 0.425
			vertex 0.050956707000732425 0.03569029998779297 0.42
		endloop
	endfacet
	facet normal 0.8314710594911334 -0.5555680671427151 0
		outer loop
			vertex 0.052309700012207035 0.03704329299926758 0.425
			vertex 0.051767768859863283 0.03623223114013672 0.425
			vertex 0.051767768859863283 0.03623223114013672 0.42
		endloop
	endfacet
	facet normal 0.9807854503951112 0.1950894674072869 0
		outer loop
			vertex 0.052309700012207035 0.03895670700073242 0.425
			vertex 0.0525 0.038 0.425
			vertex 0.0525 0.038 0.42
		endloop
	endfacet
	facet normal -0.1950894674072869 -0.9807854503951112 0
		outer loop
			vertex 0.05 0.035500000000000004 0.425
			vertex 0.04904329299926758 0.03569029998779297 0.425
			vertex 0.04904329299926758 0.03569029998779297 0.42
		endloop
	endfacet
	facet normal -0.8314710594911334 -0.5555680671427151 0
		outer loop
			vertex 0.04823223114013672 0.03623223114013672 0.425
			vertex 0.04769029998779297 0.03704329299926758 0.425
			vertex 0.04769029998779297 0.03704329299926758 0.42
		endloop
	endfacet
	facet normal -0.5555680671427151 -0.8314710594911334 0
		outer loop
			vertex 0.04904329299926758 0.03569029998779297 0.425
			vertex 0.04823223114013672 0.03623223114013672 0.425
			vertex 0.04823223114013672 0.03623223114013672 0.42
		endloop
	endfacet
	facet normal -0.9807854503951112 0.1950894674072869 0
		outer loop
			vertex 0.0475 0.038 0.425
			vertex 0.04769029998779297 0.03895670700073242 0.425
			vertex 0.04769029998779297 0.03895670700073242 0.42
		endloop
	endfacet
	facet normal -0.5555680671427151 0.8314710594911334 0
		outer loop
			vertex 0.04823223114013672 0.03976776885986328 0.425
			vertex 0.04904329299926758 0.04030970001220703 0.425
			vertex 0.04904329299926758 0.04030970001220703 0.42
		endloop
	endfacet
	facet normal -0.8314710594911334 0.5555680671427151 0
		outer loop
			vertex 0.04769029998779297 0.03895670700073242 0.425
			vertex 0.04823223114013672 0.03976776885986328 0.425
			vertex 0.04823223114013672 0.03976776885986328 0.42
		endloop
	endfacet
	facet normal -0.9807854503951112 -0.1950894674072869 0
		outer loop
			vertex 0.04769029998779297 0.03704329299926758 0.425
			vertex 0.0475 0.038 0.425
			vertex 0.0475 0.038 0.42
		endloop
	endfacet
	facet normal 0.1950894674072869 -0.9807854503951112 0
		outer loop
			vertex 0.050956707000732425 0.03569029998779297 0.425
			vertex 0.05 0.035500000000000004 0.425
			vertex 0.05 0.035500000000000004 0.42
		endloop
	endfacet
	facet normal -0.1950894674072869 0.9807854503951112 0
		outer loop
			vertex 0.05 0.0405 0.42
			vertex 0.04904329299926758 0.04030970001220703 0.425
			vertex 0.05 0.0405 0.425
		endloop
	endfacet
	facet normal -0.1950894674072869 0.9807854503951112 0
		outer loop
			vertex 0.05 0.0405 0.42
			vertex 0.04904329299926758 0.04030970001220703 0.42
			vertex 0.04904329299926758 0.04030970001220703 0.425
		endloop
	endfacet
	facet normal 0.19509054514729893 0.9807852360196548 0
		outer loop
			vertex 0.05133939361572266 0.041233577728271485 0.451
			vertex 0.05 0.0415 0.47000000000000003
			vertex 0.05133939361572266 0.041233577728271485 0.47000000000000003
		endloop
	endfacet
	facet normal 0.8314688189656957 0.555571420330268 0
		outer loop
			vertex 0.05323357772827149 0.039339393615722654 0.451
			vertex 0.05247487258911133 0.04047487258911133 0.47000000000000003
			vertex 0.05323357772827149 0.039339393615722654 0.47000000000000003
		endloop
	endfacet
	facet normal 0.555571420330268 0.8314688189656957 0
		outer loop
			vertex 0.05247487258911133 0.04047487258911133 0.47000000000000003
			vertex 0.05247487258911133 0.04047487258911133 0.451
			vertex 0.05133939361572266 0.041233577728271485 0.47000000000000003
		endloop
	endfacet
	facet normal 0.9807852360196548 -0.19509054514729893 0
		outer loop
			vertex 0.05323357772827149 0.036660606384277344 0.451
			vertex 0.0535 0.038 0.47000000000000003
			vertex 0.05323357772827149 0.036660606384277344 0.47000000000000003
		endloop
	endfacet
	facet normal 0.555571420330268 -0.8314688189656957 0
		outer loop
			vertex 0.05133939361572266 0.03476642227172851 0.451
			vertex 0.05247487258911133 0.035525127410888674 0.451
			vertex 0.05247487258911133 0.035525127410888674 0.47000000000000003
		endloop
	endfacet
	facet normal 0.8314688189656957 -0.555571420330268 0
		outer loop
			vertex 0.05247487258911133 0.035525127410888674 0.47000000000000003
			vertex 0.05247487258911133 0.035525127410888674 0.451
			vertex 0.05323357772827149 0.036660606384277344 0.47000000000000003
		endloop
	endfacet
	facet normal 0.9807852360196548 0.19509054514729893 0
		outer loop
			vertex 0.0535 0.038 0.47000000000000003
			vertex 0.0535 0.038 0.451
			vertex 0.05323357772827149 0.039339393615722654 0.47000000000000003
		endloop
	endfacet
	facet normal -0.19509054514729893 -0.9807852360196548 0
		outer loop
			vertex 0.05 0.0345 0.451
			vertex 0.05 0.0345 0.47000000000000003
			vertex 0.04866060638427735 0.03476642227172851 0.47000000000000003
		endloop
	endfacet
	facet normal -0.8314688189656957 -0.555571420330268 0
		outer loop
			vertex 0.04752512741088867 0.035525127410888674 0.451
			vertex 0.04752512741088867 0.035525127410888674 0.47000000000000003
			vertex 0.04676642227172852 0.036660606384277344 0.47000000000000003
		endloop
	endfacet
	facet normal -0.555571420330268 -0.8314688189656957 0
		outer loop
			vertex 0.04752512741088867 0.035525127410888674 0.47000000000000003
			vertex 0.04866060638427735 0.03476642227172851 0.451
			vertex 0.04866060638427735 0.03476642227172851 0.47000000000000003
		endloop
	endfacet
	facet normal -0.9807852360196548 0.19509054514729893 0
		outer loop
			vertex 0.0465 0.038 0.451
			vertex 0.0465 0.038 0.47000000000000003
			vertex 0.04676642227172852 0.039339393615722654 0.47000000000000003
		endloop
	endfacet
	facet normal -0.555571420330268 0.8314688189656957 0
		outer loop
			vertex 0.04752512741088867 0.04047487258911133 0.451
			vertex 0.04752512741088867 0.04047487258911133 0.47000000000000003
			vertex 0.04866060638427735 0.041233577728271485 0.47000000000000003
		endloop
	endfacet
	facet normal -0.8314688189656957 0.555571420330268 0
		outer loop
			vertex 0.04752512741088867 0.04047487258911133 0.47000000000000003
			vertex 0.04676642227172852 0.039339393615722654 0.451
			vertex 0.04676642227172852 0.039339393615722654 0.47000000000000003
		endloop
	endfacet
	facet normal -0.9807852360196548 -0.19509054514729893 0
		outer loop
			vertex 0.0465 0.038 0.47000000000000003
			vertex 0.04676642227172852 0.036660606384277344 0.451
			vertex 0.04676642227172852 0.036660606384277344 0.47000000000000003
		endloop
	endfacet
	facet normal 0.19509054514729893 -0.9807852360196548 0
		outer loop
			vertex 0.05133939361572266 0.03476642227172851 0.47000000000000003
			vertex 0.05 0.0345 0.451
			vertex 0.05133939361572266 0.03476642227172851 0.451
		endloop
	endfacet
	facet normal 0.19509054514729893 0.9807852360196548 0
		outer loop
			vertex 0.05 0.0415 0.47000000000000003
			vertex 0.05133939361572266 0.041233577728271485 0.451
			vertex 0.05 0.0415 0.451
		endloop
	endfacet
	facet normal 0.8314688189656957 0.555571420330268 0
		outer loop
			vertex 0.05247487258911133 0.04047487258911133 0.47000000000000003
			vertex 0.05323357772827149 0.039339393615722654 0.451
			vertex 0.05247487258911133 0.04047487258911133 0.451
		endloop
	endfacet
	facet normal 0.555571420330268 0.8314688189656957 0
		outer loop
			vertex 0.05133939361572266 0.041233577728271485 0.47000000000000003
			vertex 0.05247487258911133 0.04047487258911133 0.451
			vertex 0.05133939361572266 0.041233577728271485 0.451
		endloop
	endfacet
	facet normal 0.9807852360196548 -0.19509054514729893 0
		outer loop
			vertex 0.0535 0.038 0.47000000000000003
			vertex 0.05323357772827149 0.036660606384277344 0.451
			vertex 0.0535 0.038 0.451
		endloop
	endfacet
	facet normal 0.555571420330268 -0.8314688189656957 0
		outer loop
			vertex 0.05247487258911133 0.035525127410888674 0.47000000000000003
			vertex 0.05133939361572266 0.03476642227172851 0.47000000000000003
			vertex 0.05133939361572266 0.03476642227172851 0.451
		endloop
	endfacet
	facet normal 0.8314688189656957 -0.555571420330268 0
		outer loop
			vertex 0.05323357772827149 0.036660606384277344 0.47000000000000003
			vertex 0.05247487258911133 0.035525127410888674 0.451
			vertex 0.05323357772827149 0.036660606384277344 0.451
		endloop
	endfacet
	facet normal 0.9807852360196548 0.19509054514729893 0
		outer loop
			vertex 0.05323357772827149 0.039339393615722654 0.47000000000000003
			vertex 0.0535 0.038 0.451
			vertex 0.05323357772827149 0.039339393615722654 0.451
		endloop
	endfacet
	facet normal -0.19509054514729893 -0.9807852360196548 0
		outer loop
			vertex 0.04866060638427735 0.03476642227172851 0.47000000000000003
			vertex 0.04866060638427735 0.03476642227172851 0.451
			vertex 0.05 0.0345 0.451
		endloop
	endfacet
	facet normal -0.8314688189656957 -0.555571420330268 0
		outer loop
			vertex 0.04676642227172852 0.036660606384277344 0.47000000000000003
			vertex 0.04676642227172852 0.036660606384277344 0.451
			vertex 0.04752512741088867 0.035525127410888674 0.451
		endloop
	endfacet
	facet normal -0.555571420330268 -0.8314688189656957 0
		outer loop
			vertex 0.04752512741088867 0.035525127410888674 0.47000000000000003
			vertex 0.04752512741088867 0.035525127410888674 0.451
			vertex 0.04866060638427735 0.03476642227172851 0.451
		endloop
	endfacet
	facet normal -0.9807852360196548 0.19509054514729893 0
		outer loop
			vertex 0.04676642227172852 0.039339393615722654 0.47000000000000003
			vertex 0.04676642227172852 0.039339393615722654 0.451
			vertex 0.0465 0.038 0.451
		endloop
	endfacet
	facet normal -0.555571420330268 0.8314688189656957 0
		outer loop
			vertex 0.04866060638427735 0.041233577728271485 0.47000000000000003
			vertex 0.04866060638427735 0.041233577728271485 0.451
			vertex 0.04752512741088867 0.04047487258911133 0.451
		endloop
	endfacet
	facet normal -0.8314688189656957 0.555571420330268 0
		outer loop
			vertex 0.04752512741088867 0.04047487258911133 0.47000000000000003
			vertex 0.04752512741088867 0.04047487258911133 0.451
			vertex 0.04676642227172852 0.039339393615722654 0.451
		endloop
	endfacet
	facet normal -0.9807852360196548 -0.19509054514729893 0
		outer loop
			vertex 0.0465 0.038 0.47000000000000003
			vertex 0.0465 0.038 0.451
			vertex 0.04676642227172852 0.036660606384277344 0.451
		endloop
	endfacet
	facet normal 0.19509054514729893 -0.9807852360196548 0
		outer loop
			vertex 0.05133939361572266 0.03476642227172851 0.47000000000000003
			vertex 0.05 0.0345 0.47000000000000003
			vertex 0.05 0.0345 0.451
		endloop
	endfacet
	facet normal -0.19509054514729893 0.9807852360196548 0
		outer loop
			vertex 0.05 0.0415 0.451
			vertex 0.04866060638427735 0.041233577728271485 0.451
			vertex 0.05 0.0415 0.47000000000000003
		endloop
	endfacet
	facet normal -0.19509054514729893 0.9807852360196548 0
		outer loop
			vertex 0.05 0.0415 0.47000000000000003
			vertex 0.04866060638427735 0.041233577728271485 0.451
			vertex 0.04866060638427735 0.041233577728271485 0.47000000000000003
		endloop
	endfacet
	facet normal 0.19509035435670805 -0.9807852739702886 0
		outer loop
			vertex 0.05650561904907227 0.022294048309326173 0.545
			vertex 0.05 0.021 0.545
			vertex 0.05 0.021 0.485
		endloop
	endfacet
	facet normal 0.8314694274880747 -0.5555705096139043 0
		outer loop
			vertex 0.06570595550537109 0.031494380950927735 0.545
			vertex 0.062020816802978516 0.02597918510437012 0.485
			vertex 0.06570595550537109 0.031494380950927735 0.485
		endloop
	endfacet
	facet normal 0.5555701779862775 -0.8314696490746346 0
		outer loop
			vertex 0.05650561904907227 0.022294048309326173 0.485
			vertex 0.062020816802978516 0.02597918510437012 0.545
			vertex 0.05650561904907227 0.022294048309326173 0.545
		endloop
	endfacet
	facet normal 0.9807853840112949 0.19508980114249164 0
		outer loop
			vertex 0.067 0.038 0.545
			vertex 0.067 0.038 0.485
			vertex 0.06570595550537109 0.04450561904907226 0.485
		endloop
	endfacet
	facet normal 0.5555699791899762 0.8314697819060232 0
		outer loop
			vertex 0.05650561904907227 0.05370595169067383 0.545
			vertex 0.062020816802978516 0.05002081680297852 0.485
			vertex 0.05650561904907227 0.05370595169067383 0.485
		endloop
	endfacet
	facet normal 0.8314695162432412 0.5555703767824836 0
		outer loop
			vertex 0.062020816802978516 0.05002081680297852 0.485
			vertex 0.06570595550537109 0.04450561904907226 0.545
			vertex 0.06570595550537109 0.04450561904907226 0.485
		endloop
	endfacet
	facet normal 0.9807853840112949 -0.19508980114249164 0
		outer loop
			vertex 0.067 0.038 0.485
			vertex 0.067 0.038 0.545
			vertex 0.06570595550537109 0.031494380950927735 0.485
		endloop
	endfacet
	facet normal -0.19509035435670805 0.9807852739702886 0
		outer loop
			vertex 0.04349438095092774 0.05370595169067383 0.545
			vertex 0.05 0.055 0.485
			vertex 0.04349438095092774 0.05370595169067383 0.485
		endloop
	endfacet
	facet normal -0.8314697819060232 0.5555699791899762 0
		outer loop
			vertex 0.03797918319702148 0.05002081680297852 0.545
			vertex 0.03797918319702148 0.05002081680297852 0.485
			vertex 0.03429404830932617 0.04450561904907226 0.485
		endloop
	endfacet
	facet normal -0.5555699791899762 0.8314697819060232 0
		outer loop
			vertex 0.03797918319702148 0.05002081680297852 0.485
			vertex 0.03797918319702148 0.05002081680297852 0.545
			vertex 0.04349438095092774 0.05370595169067383 0.485
		endloop
	endfacet
	facet normal -0.9807852739702886 -0.19509035435670805 0
		outer loop
			vertex 0.03429404830932617 0.031494380950927735 0.545
			vertex 0.033 0.038 0.485
			vertex 0.03429404830932617 0.031494380950927735 0.485
		endloop
	endfacet
	facet normal -0.5555701779862775 -0.8314696490746346 0
		outer loop
			vertex 0.04349438095092774 0.022294048309326173 0.545
			vertex 0.03797918319702148 0.02597918510437012 0.485
			vertex 0.04349438095092774 0.022294048309326173 0.485
		endloop
	endfacet
	facet normal -0.8314696931509555 -0.5555701120213867 0
		outer loop
			vertex 0.03797918319702148 0.02597918510437012 0.485
			vertex 0.03797918319702148 0.02597918510437012 0.545
			vertex 0.03429404830932617 0.031494380950927735 0.485
		endloop
	endfacet
	facet normal -0.9807852739702886 0.19509035435670805 0
		outer loop
			vertex 0.033 0.038 0.485
			vertex 0.03429404830932617 0.04450561904907226 0.545
			vertex 0.03429404830932617 0.04450561904907226 0.485
		endloop
	endfacet
	facet normal 0.19509035435670805 0.9807852739702886 0
		outer loop
			vertex 0.05 0.055 0.485
			vertex 0.05 0.055 0.545
			vertex 0.05650561904907227 0.05370595169067383 0.485
		endloop
	endfacet
	facet normal 0.19509035435670805 -0.9807852739702886 0
		outer loop
			vertex 0.05 0.021 0.485
			vertex 0.05650561904907227 0.022294048309326173 0.485
			vertex 0.05650561904907227 0.022294048309326173 0.545
		endloop
	endfacet
	facet normal 0.8314694274880747 -0.5555705096139043 0
		outer loop
			vertex 0.062020816802978516 0.02597918510437012 0.485
			vertex 0.06570595550537109 0.031494380950927735 0.545
			vertex 0.062020816802978516 0.02597918510437012 0.545
		endloop
	endfacet
	facet normal 0.5555701779862775 -0.8314696490746346 0
		outer loop
			vertex 0.05650561904907227 0.022294048309326173 0.485
			vertex 0.062020816802978516 0.02597918510437012 0.485
			vertex 0.062020816802978516 0.02597918510437012 0.545
		endloop
	endfacet
	facet normal 0.9807853840112949 0.19508980114249164 0
		outer loop
			vertex 0.06570595550537109 0.04450561904907226 0.485
			vertex 0.06570595550537109 0.04450561904907226 0.545
			vertex 0.067 0.038 0.545
		endloop
	endfacet
	facet normal 0.5555699791899762 0.8314697819060232 0
		outer loop
			vertex 0.062020816802978516 0.05002081680297852 0.485
			vertex 0.05650561904907227 0.05370595169067383 0.545
			vertex 0.062020816802978516 0.05002081680297852 0.545
		endloop
	endfacet
	facet normal 0.8314695162432412 0.5555703767824836 0
		outer loop
			vertex 0.062020816802978516 0.05002081680297852 0.485
			vertex 0.062020816802978516 0.05002081680297852 0.545
			vertex 0.06570595550537109 0.04450561904907226 0.545
		endloop
	endfacet
	facet normal 0.9807853840112949 -0.19508980114249164 0
		outer loop
			vertex 0.06570595550537109 0.031494380950927735 0.485
			vertex 0.067 0.038 0.545
			vertex 0.06570595550537109 0.031494380950927735 0.545
		endloop
	endfacet
	facet normal -0.19509035435670805 0.9807852739702886 0
		outer loop
			vertex 0.05 0.055 0.485
			vertex 0.04349438095092774 0.05370595169067383 0.545
			vertex 0.05 0.055 0.545
		endloop
	endfacet
	facet normal -0.8314697819060232 0.5555699791899762 0
		outer loop
			vertex 0.03429404830932617 0.04450561904907226 0.485
			vertex 0.03429404830932617 0.04450561904907226 0.545
			vertex 0.03797918319702148 0.05002081680297852 0.545
		endloop
	endfacet
	facet normal -0.5555699791899762 0.8314697819060232 0
		outer loop
			vertex 0.04349438095092774 0.05370595169067383 0.485
			vertex 0.03797918319702148 0.05002081680297852 0.545
			vertex 0.04349438095092774 0.05370595169067383 0.545
		endloop
	endfacet
	facet normal -0.9807852739702886 -0.19509035435670805 0
		outer loop
			vertex 0.033 0.038 0.485
			vertex 0.03429404830932617 0.031494380950927735 0.545
			vertex 0.033 0.038 0.545
		endloop
	endfacet
	facet normal -0.5555701779862775 -0.8314696490746346 0
		outer loop
			vertex 0.03797918319702148 0.02597918510437012 0.485
			vertex 0.04349438095092774 0.022294048309326173 0.545
			vertex 0.03797918319702148 0.02597918510437012 0.545
		endloop
	endfacet
	facet normal -0.8314696931509555 -0.5555701120213867 0
		outer loop
			vertex 0.03429404830932617 0.031494380950927735 0.485
			vertex 0.03797918319702148 0.02597918510437012 0.545
			vertex 0.03429404830932617 0.031494380950927735 0.545
		endloop
	endfacet
	facet normal -0.9807852739702886 0.19509035435670805 0
		outer loop
			vertex 0.033 0.038 0.485
			vertex 0.033 0.038 0.545
			vertex 0.03429404830932617 0.04450561904907226 0.545
		endloop
	endfacet
	facet normal 0.19509035435670805 0.9807852739702886 0
		outer loop
			vertex 0.05650561904907227 0.05370595169067383 0.485
			vertex 0.05 0.055 0.545
			vertex 0.05650561904907227 0.05370595169067383 0.545
		endloop
	endfacet
	facet normal -0.19509035435670805 -0.9807852739702886 0
		outer loop
			vertex 0.05 0.021 0.545
			vertex 0.04349438095092774 0.022294048309326173 0.485
			vertex 0.05 0.021 0.485
		endloop
	endfacet
	facet normal -0.19509035435670805 -0.9807852739702886 0
		outer loop
			vertex 0.05 0.021 0.545
			vertex 0.04349438095092774 0.022294048309326173 0.545
			vertex 0.04349438095092774 0.022294048309326173 0.485
		endloop
	endfacet
	facet normal 0 0 1
		outer loop
			vertex 0.05650561904907227 0.022294048309326173 0.545
			vertex 0.062020816802978516 0.02597918510437012 0.545
			vertex 0.06570595550537109 0.031494380950927735 0.545
		endloop
	endfacet
	facet normal 0 0 1
		outer loop
			vertex 0.05650561904907227 0.022294048309326173 0.545
			vertex 0.06570595550537109 0.031494380950927735 0.545
			vertex 0.05 0.021 0.545
		endloop
	endfacet
	facet normal 0 0 1
		outer loop
			vertex 0.06570595550537109 0.031494380950927735 0.545
			vertex 0.06570595550537109 0.04450561904907226 0.545
			vertex 0.03797918319702148 0.02597918510437012 0.545
		endloop
	endfacet
	facet normal 0 0 1
		outer loop
			vertex 0.04349438095092774 0.022294048309326173 0.545
			vertex 0.05 0.021 0.545
			vertex 0.03797918319702148 0.02597918510437012 0.545
		endloop
	endfacet
	facet normal 0 0 1
		outer loop
			vertex 0.03797918319702148 0.02597918510437012 0.545
			vertex 0.05 0.021 0.545
			vertex 0.06570595550537109 0.031494380950927735 0.545
		endloop
	endfacet
	facet normal 0 0 1
		outer loop
			vertex 0.03797918319702148 0.02597918510437012 0.545
			vertex 0.06570595550537109 0.04450561904907226 0.545
			vertex 0.03429404830932617 0.031494380950927735 0.545
		endloop
	endfacet
	facet normal 0 0 1
		outer loop
			vertex 0.06570595550537109 0.031494380950927735 0.545
			vertex 0.067 0.038 0.545
			vertex 0.06570595550537109 0.04450561904907226 0.545
		endloop
	endfacet
	facet normal 0 0 1
		outer loop
			vertex 0.03429404830932617 0.04450561904907226 0.545
			vertex 0.06570595550537109 0.04450561904907226 0.545
			vertex 0.062020816802978516 0.05002081680297852 0.545
		endloop
	endfacet
	facet normal 0 0 1
		outer loop
			vertex 0.05650561904907227 0.05370595169067383 0.545
			vertex 0.05 0.055 0.545
			vertex 0.062020816802978516 0.05002081680297852 0.545
		endloop
	endfacet
	facet normal 0 0 1
		outer loop
			vertex 0.04349438095092774 0.05370595169067383 0.545
			vertex 0.062020816802978516 0.05002081680297852 0.545
			vertex 0.05 0.055 0.545
		endloop
	endfacet
	facet normal 0 0 1
		outer loop
			vertex 0.03429404830932617 0.031494380950927735 0.545
			vertex 0.03429404830932617 0.04450561904907226 0.545
			vertex 0.033 0.038 0.545
		endloop
	endfacet
	facet normal 0 0 1
		outer loop
			vertex 0.04349438095092774 0.05370595169067383 0.545
			vertex 0.03797918319702148 0.05002081680297852 0.545
			vertex 0.03429404830932617 0.04450561904907226 0.545
		endloop
	endfacet
	facet normal 0 0 1
		outer loop
			vertex 0.062020816802978516 0.05002081680297852 0.545
			vertex 0.04349438095092774 0.05370595169067383 0.545
			vertex 0.03429404830932617 0.04450561904907226 0.545
		endloop
	endfacet
	facet normal 0 0 1
		outer loop
			vertex 0.03429404830932617 0.04450561904907226 0.545
			vertex 0.03429404830932617 0.031494380950927735 0.545
			vertex 0.06570595550537109 0.04450561904907226 0.545
		endloop
	endfacet
endsolid exported
