solid exported
	facet normal 1 0 0
		outer loop
			vertex 0.098 0.07200000000000001 0.26702691650390625
			vertex 0.098 0.07820845031738281 0.27523538208007814
			vertex 0.098 0.07643297576904297 0.2778925476074219
		endloop
	endfacet
	facet normal 1 0 0
		outer loop
			vertex 0.098 0.07820845031738281 0.27523538208007814
			vertex 0.098 0.07200000000000001 0.26702691650390625
			vertex 0.098 0.08086563873291015 0.27345989990234376
		endloop
	endfacet
	facet normal 1 0 0
		outer loop
			vertex 0.098 0.07643297576904297 0.2778925476074219
			vertex 0.098 0.07580950927734376 0.28102691650390627
			vertex 0.098 0.07200000000000001 0.26702691650390625
		endloop
	endfacet
	facet normal 1 0 0
		outer loop
			vertex 0.098 0.07200000000000001 0.26702691650390625
			vertex 0.098 0.07580950927734376 0.28102691650390627
			vertex 0.098 0.07200000000000001 0.2950269165039063
		endloop
	endfacet
	facet normal 1 0 0
		outer loop
			vertex 0.098 0.084 0.27283642578125
			vertex 0.098 0.08086563873291015 0.27345989990234376
			vertex 0.098 0.07200000000000001 0.26702691650390625
		endloop
	endfacet
	facet normal 1 0 0
		outer loop
			vertex 0.098 0.08979154968261718 0.27523538208007814
			vertex 0.098 0.08713436126708984 0.27345989990234376
			vertex 0.098 0.1137039031982422 0.275483642578125
		endloop
	endfacet
	facet normal 1 0 0
		outer loop
			vertex 0.098 0.09156702423095703 0.2778925476074219
			vertex 0.098 0.08979154968261718 0.27523538208007814
			vertex 0.098 0.11175736236572266 0.27678427124023436
		endloop
	endfacet
	facet normal 1 0 0
		outer loop
			vertex 0.098 0.084 0.27283642578125
			vertex 0.098 0.07200000000000001 0.26702691650390625
			vertex 0.098 0.08713436126708984 0.27345989990234376
		endloop
	endfacet
	facet normal 1 0 0
		outer loop
			vertex 0.098 0.07200000000000001 0.26702691650390625
			vertex 0.098 0.137 0.26702691650390625
			vertex 0.098 0.08713436126708984 0.27345989990234376
		endloop
	endfacet
	facet normal 1 0 0
		outer loop
			vertex 0.098 0.07643297576904297 0.28416128540039065
			vertex 0.098 0.07820845031738281 0.2868184814453125
			vertex 0.098 0.07200000000000001 0.2950269165039063
		endloop
	endfacet
	facet normal 1 0 0
		outer loop
			vertex 0.098 0.07200000000000001 0.2950269165039063
			vertex 0.098 0.08086563873291015 0.28859393310546877
			vertex 0.098 0.084 0.28921740722656253
		endloop
	endfacet
	facet normal 1 0 0
		outer loop
			vertex 0.098 0.08086563873291015 0.28859393310546877
			vertex 0.098 0.07200000000000001 0.2950269165039063
			vertex 0.098 0.07820845031738281 0.2868184814453125
		endloop
	endfacet
	facet normal 1 0 0
		outer loop
			vertex 0.098 0.07643297576904297 0.28416128540039065
			vertex 0.098 0.07200000000000001 0.2950269165039063
			vertex 0.098 0.07580950927734376 0.28102691650390627
		endloop
	endfacet
	facet normal 1 0 0
		outer loop
			vertex 0.098 0.09156702423095703 0.28416128540039065
			vertex 0.098 0.09219049072265625 0.28102691650390627
			vertex 0.098 0.11045672607421875 0.2833230285644531
		endloop
	endfacet
	facet normal 1 0 0
		outer loop
			vertex 0.098 0.08713436126708984 0.28859393310546877
			vertex 0.098 0.08979154968261718 0.2868184814453125
			vertex 0.098 0.1137039031982422 0.2865701904296875
		endloop
	endfacet
	facet normal 1 0 0
		outer loop
			vertex 0.098 0.084 0.28921740722656253
			vertex 0.098 0.08713436126708984 0.28859393310546877
			vertex 0.098 0.07200000000000001 0.2950269165039063
		endloop
	endfacet
	facet normal 1 0 0
		outer loop
			vertex 0.098 0.09156702423095703 0.28416128540039065
			vertex 0.098 0.11175736236572266 0.2852695617675781
			vertex 0.098 0.08979154968261718 0.2868184814453125
		endloop
	endfacet
	facet normal 1 0 0
		outer loop
			vertex 0.098 0.07200000000000001 0.2950269165039063
			vertex 0.098 0.08713436126708984 0.28859393310546877
			vertex 0.098 0.137 0.2950269165039063
		endloop
	endfacet
	facet normal 1 0 0
		outer loop
			vertex 0.098 0.09156702423095703 0.2778925476074219
			vertex 0.098 0.11045672607421875 0.2787308044433594
			vertex 0.098 0.09219049072265625 0.28102691650390627
		endloop
	endfacet
	facet normal 1 0 0
		outer loop
			vertex 0.098 0.1137039031982422 0.275483642578125
			vertex 0.098 0.11175736236572266 0.27678427124023436
			vertex 0.098 0.08979154968261718 0.27523538208007814
		endloop
	endfacet
	facet normal 1 0 0
		outer loop
			vertex 0.098 0.11045672607421875 0.2787308044433594
			vertex 0.098 0.11 0.28102691650390627
			vertex 0.098 0.09219049072265625 0.28102691650390627
		endloop
	endfacet
	facet normal 1 0 0
		outer loop
			vertex 0.098 0.11175736236572266 0.27678427124023436
			vertex 0.098 0.11045672607421875 0.2787308044433594
			vertex 0.098 0.09156702423095703 0.2778925476074219
		endloop
	endfacet
	facet normal 1 0 0
		outer loop
			vertex 0.098 0.116 0.27502691650390626
			vertex 0.098 0.137 0.26702691650390625
			vertex 0.098 0.11829609680175782 0.275483642578125
		endloop
	endfacet
	facet normal 1 0 0
		outer loop
			vertex 0.098 0.116 0.27502691650390626
			vertex 0.098 0.1137039031982422 0.275483642578125
			vertex 0.098 0.08713436126708984 0.27345989990234376
		endloop
	endfacet
	facet normal 1 0 0
		outer loop
			vertex 0.098 0.12024263763427735 0.27678427124023436
			vertex 0.098 0.11829609680175782 0.275483642578125
			vertex 0.098 0.137 0.26702691650390625
		endloop
	endfacet
	facet normal 1 0 0
		outer loop
			vertex 0.098 0.12154327392578125 0.2787308044433594
			vertex 0.098 0.12024263763427735 0.27678427124023436
			vertex 0.098 0.137 0.26702691650390625
		endloop
	endfacet
	facet normal 1 0 0
		outer loop
			vertex 0.098 0.137 0.26702691650390625
			vertex 0.098 0.122 0.28102691650390627
			vertex 0.098 0.12154327392578125 0.2787308044433594
		endloop
	endfacet
	facet normal 1 0 0
		outer loop
			vertex 0.098 0.08713436126708984 0.27345989990234376
			vertex 0.098 0.137 0.26702691650390625
			vertex 0.098 0.116 0.27502691650390626
		endloop
	endfacet
	facet normal 1 0 0
		outer loop
			vertex 0.098 0.11045672607421875 0.2833230285644531
			vertex 0.098 0.11175736236572266 0.2852695617675781
			vertex 0.098 0.09156702423095703 0.28416128540039065
		endloop
	endfacet
	facet normal 1 0 0
		outer loop
			vertex 0.098 0.116 0.28702691650390627
			vertex 0.098 0.137 0.2950269165039063
			vertex 0.098 0.08713436126708984 0.28859393310546877
		endloop
	endfacet
	facet normal 1 0 0
		outer loop
			vertex 0.098 0.11175736236572266 0.2852695617675781
			vertex 0.098 0.1137039031982422 0.2865701904296875
			vertex 0.098 0.08979154968261718 0.2868184814453125
		endloop
	endfacet
	facet normal 1 0 0
		outer loop
			vertex 0.098 0.12154327392578125 0.2833230285644531
			vertex 0.098 0.122 0.28102691650390627
			vertex 0.098 0.137 0.2950269165039063
		endloop
	endfacet
	facet normal 1 0 0
		outer loop
			vertex 0.098 0.11829609680175782 0.2865701904296875
			vertex 0.098 0.12024263763427735 0.2852695617675781
			vertex 0.098 0.137 0.2950269165039063
		endloop
	endfacet
	facet normal 1 0 0
		outer loop
			vertex 0.098 0.137 0.2950269165039063
			vertex 0.098 0.12024263763427735 0.2852695617675781
			vertex 0.098 0.12154327392578125 0.2833230285644531
		endloop
	endfacet
	facet normal 1 0 0
		outer loop
			vertex 0.098 0.11829609680175782 0.2865701904296875
			vertex 0.098 0.137 0.2950269165039063
			vertex 0.098 0.116 0.28702691650390627
		endloop
	endfacet
	facet normal 1 0 0
		outer loop
			vertex 0.098 0.122 0.28102691650390627
			vertex 0.098 0.137 0.26702691650390625
			vertex 0.098 0.137 0.2950269165039063
		endloop
	endfacet
	facet normal 1 0 0
		outer loop
			vertex 0.098 0.116 0.28702691650390627
			vertex 0.098 0.08713436126708984 0.28859393310546877
			vertex 0.098 0.1137039031982422 0.2865701904296875
		endloop
	endfacet
	facet normal 1 0 0
		outer loop
			vertex 0.098 0.11 0.28102691650390627
			vertex 0.098 0.11045672607421875 0.2833230285644531
			vertex 0.098 0.09219049072265625 0.28102691650390627
		endloop
	endfacet
	facet normal 0 -1 0
		outer loop
			vertex 0.082 0.07200000000000001 0.2950269165039063
			vertex 0.082 0.07200000000000001 0.26702691650390625
			vertex 0.098 0.07200000000000001 0.2950269165039063
		endloop
	endfacet
	facet normal 0 -1 0
		outer loop
			vertex 0.098 0.07200000000000001 0.26702691650390625
			vertex 0.098 0.07200000000000001 0.2950269165039063
			vertex 0.082 0.07200000000000001 0.26702691650390625
		endloop
	endfacet
	facet normal -1 0 0
		outer loop
			vertex 0.082 0.097 0.26702691650390625
			vertex 0.082 0.09156702423095703 0.2778925476074219
			vertex 0.082 0.09219049072265625 0.28102691650390627
		endloop
	endfacet
	facet normal -1 0 0
		outer loop
			vertex 0.082 0.09156702423095703 0.2778925476074219
			vertex 0.082 0.097 0.26702691650390625
			vertex 0.082 0.08979154968261718 0.27523538208007814
		endloop
	endfacet
	facet normal -1 0 0
		outer loop
			vertex 0.082 0.08713436126708984 0.27345989990234376
			vertex 0.082 0.08979154968261718 0.27523538208007814
			vertex 0.082 0.097 0.26702691650390625
		endloop
	endfacet
	facet normal -1 0 0
		outer loop
			vertex 0.082 0.084 0.27283642578125
			vertex 0.082 0.08713436126708984 0.27345989990234376
			vertex 0.082 0.097 0.26702691650390625
		endloop
	endfacet
	facet normal -1 0 0
		outer loop
			vertex 0.082 0.097 0.26702691650390625
			vertex 0.082 0.07200000000000001 0.26702691650390625
			vertex 0.082 0.084 0.27283642578125
		endloop
	endfacet
	facet normal -1 0 0
		outer loop
			vertex 0.082 0.097 0.2950269165039063
			vertex 0.082 0.09219049072265625 0.28102691650390627
			vertex 0.082 0.09156702423095703 0.28416128540039065
		endloop
	endfacet
	facet normal -1 0 0
		outer loop
			vertex 0.082 0.09219049072265625 0.28102691650390627
			vertex 0.082 0.097 0.2950269165039063
			vertex 0.082 0.097 0.26702691650390625
		endloop
	endfacet
	facet normal -1 0 0
		outer loop
			vertex 0.082 0.08979154968261718 0.2868184814453125
			vertex 0.082 0.08713436126708984 0.28859393310546877
			vertex 0.082 0.097 0.2950269165039063
		endloop
	endfacet
	facet normal -1 0 0
		outer loop
			vertex 0.082 0.09156702423095703 0.28416128540039065
			vertex 0.082 0.08979154968261718 0.2868184814453125
			vertex 0.082 0.097 0.2950269165039063
		endloop
	endfacet
	facet normal -1 0 0
		outer loop
			vertex 0.082 0.097 0.2950269165039063
			vertex 0.082 0.08713436126708984 0.28859393310546877
			vertex 0.082 0.084 0.28921740722656253
		endloop
	endfacet
	facet normal -1 0 0
		outer loop
			vertex 0.082 0.07820845031738281 0.27523538208007814
			vertex 0.082 0.08086563873291015 0.27345989990234376
			vertex 0.082 0.07200000000000001 0.26702691650390625
		endloop
	endfacet
	facet normal -1 0 0
		outer loop
			vertex 0.082 0.07643297576904297 0.2778925476074219
			vertex 0.082 0.07200000000000001 0.26702691650390625
			vertex 0.082 0.07580950927734376 0.28102691650390627
		endloop
	endfacet
	facet normal -1 0 0
		outer loop
			vertex 0.082 0.07200000000000001 0.26702691650390625
			vertex 0.082 0.07643297576904297 0.2778925476074219
			vertex 0.082 0.07820845031738281 0.27523538208007814
		endloop
	endfacet
	facet normal -1 0 0
		outer loop
			vertex 0.082 0.07580950927734376 0.28102691650390627
			vertex 0.082 0.07200000000000001 0.26702691650390625
			vertex 0.082 0.07200000000000001 0.2950269165039063
		endloop
	endfacet
	facet normal -1 0 0
		outer loop
			vertex 0.082 0.08086563873291015 0.27345989990234376
			vertex 0.082 0.084 0.27283642578125
			vertex 0.082 0.07200000000000001 0.26702691650390625
		endloop
	endfacet
	facet normal -1 0 0
		outer loop
			vertex 0.082 0.084 0.28921740722656253
			vertex 0.082 0.08086563873291015 0.28859393310546877
			vertex 0.082 0.07200000000000001 0.2950269165039063
		endloop
	endfacet
	facet normal -1 0 0
		outer loop
			vertex 0.082 0.07820845031738281 0.2868184814453125
			vertex 0.082 0.07643297576904297 0.28416128540039065
			vertex 0.082 0.07200000000000001 0.2950269165039063
		endloop
	endfacet
	facet normal -1 0 0
		outer loop
			vertex 0.082 0.07200000000000001 0.2950269165039063
			vertex 0.082 0.07643297576904297 0.28416128540039065
			vertex 0.082 0.07580950927734376 0.28102691650390627
		endloop
	endfacet
	facet normal -1 0 0
		outer loop
			vertex 0.082 0.07820845031738281 0.2868184814453125
			vertex 0.082 0.07200000000000001 0.2950269165039063
			vertex 0.082 0.08086563873291015 0.28859393310546877
		endloop
	endfacet
	facet normal -1 0 0
		outer loop
			vertex 0.082 0.084 0.28921740722656253
			vertex 0.082 0.07200000000000001 0.2950269165039063
			vertex 0.082 0.097 0.2950269165039063
		endloop
	endfacet
	facet normal 0 -1 0
		outer loop
			vertex 0.014 0.097 0.2950269165039063
			vertex 0.014 0.097 0.26702691650390625
			vertex 0.082 0.097 0.2950269165039063
		endloop
	endfacet
	facet normal 0 -1 0
		outer loop
			vertex 0.082 0.097 0.26702691650390625
			vertex 0.082 0.097 0.2950269165039063
			vertex 0.014 0.097 0.26702691650390625
		endloop
	endfacet
	facet normal 1 0 0
		outer loop
			vertex 0.014 0.07200000000000001 0.26702691650390625
			vertex 0.014 0.07643297576904297 0.2778925476074219
			vertex 0.014 0.07580950927734376 0.28102691650390627
		endloop
	endfacet
	facet normal 1 0 0
		outer loop
			vertex 0.014 0.07643297576904297 0.2778925476074219
			vertex 0.014 0.07200000000000001 0.26702691650390625
			vertex 0.014 0.07820845031738281 0.27523538208007814
		endloop
	endfacet
	facet normal 1 0 0
		outer loop
			vertex 0.014 0.08086563873291015 0.27345989990234376
			vertex 0.014 0.07820845031738281 0.27523538208007814
			vertex 0.014 0.07200000000000001 0.26702691650390625
		endloop
	endfacet
	facet normal 1 0 0
		outer loop
			vertex 0.014 0.084 0.27283642578125
			vertex 0.014 0.08086563873291015 0.27345989990234376
			vertex 0.014 0.07200000000000001 0.26702691650390625
		endloop
	endfacet
	facet normal 1 0 0
		outer loop
			vertex 0.014 0.07200000000000001 0.26702691650390625
			vertex 0.014 0.097 0.26702691650390625
			vertex 0.014 0.084 0.27283642578125
		endloop
	endfacet
	facet normal 1 0 0
		outer loop
			vertex 0.014 0.07200000000000001 0.2950269165039063
			vertex 0.014 0.07580950927734376 0.28102691650390627
			vertex 0.014 0.07643297576904297 0.28416128540039065
		endloop
	endfacet
	facet normal 1 0 0
		outer loop
			vertex 0.014 0.07580950927734376 0.28102691650390627
			vertex 0.014 0.07200000000000001 0.2950269165039063
			vertex 0.014 0.07200000000000001 0.26702691650390625
		endloop
	endfacet
	facet normal 1 0 0
		outer loop
			vertex 0.014 0.07820845031738281 0.2868184814453125
			vertex 0.014 0.08086563873291015 0.28859393310546877
			vertex 0.014 0.07200000000000001 0.2950269165039063
		endloop
	endfacet
	facet normal 1 0 0
		outer loop
			vertex 0.014 0.07643297576904297 0.28416128540039065
			vertex 0.014 0.07820845031738281 0.2868184814453125
			vertex 0.014 0.07200000000000001 0.2950269165039063
		endloop
	endfacet
	facet normal 1 0 0
		outer loop
			vertex 0.014 0.07200000000000001 0.2950269165039063
			vertex 0.014 0.08086563873291015 0.28859393310546877
			vertex 0.014 0.084 0.28921740722656253
		endloop
	endfacet
	facet normal 1 0 0
		outer loop
			vertex 0.014 0.08979154968261718 0.27523538208007814
			vertex 0.014 0.08713436126708984 0.27345989990234376
			vertex 0.014 0.097 0.26702691650390625
		endloop
	endfacet
	facet normal 1 0 0
		outer loop
			vertex 0.014 0.09156702423095703 0.2778925476074219
			vertex 0.014 0.097 0.26702691650390625
			vertex 0.014 0.09219049072265625 0.28102691650390627
		endloop
	endfacet
	facet normal 1 0 0
		outer loop
			vertex 0.014 0.097 0.26702691650390625
			vertex 0.014 0.09156702423095703 0.2778925476074219
			vertex 0.014 0.08979154968261718 0.27523538208007814
		endloop
	endfacet
	facet normal 1 0 0
		outer loop
			vertex 0.014 0.09219049072265625 0.28102691650390627
			vertex 0.014 0.097 0.26702691650390625
			vertex 0.014 0.097 0.2950269165039063
		endloop
	endfacet
	facet normal 1 0 0
		outer loop
			vertex 0.014 0.08713436126708984 0.27345989990234376
			vertex 0.014 0.084 0.27283642578125
			vertex 0.014 0.097 0.26702691650390625
		endloop
	endfacet
	facet normal 1 0 0
		outer loop
			vertex 0.014 0.084 0.28921740722656253
			vertex 0.014 0.08713436126708984 0.28859393310546877
			vertex 0.014 0.097 0.2950269165039063
		endloop
	endfacet
	facet normal 1 0 0
		outer loop
			vertex 0.014 0.08979154968261718 0.2868184814453125
			vertex 0.014 0.09156702423095703 0.28416128540039065
			vertex 0.014 0.097 0.2950269165039063
		endloop
	endfacet
	facet normal 1 0 0
		outer loop
			vertex 0.014 0.097 0.2950269165039063
			vertex 0.014 0.09156702423095703 0.28416128540039065
			vertex 0.014 0.09219049072265625 0.28102691650390627
		endloop
	endfacet
	facet normal 1 0 0
		outer loop
			vertex 0.014 0.08979154968261718 0.2868184814453125
			vertex 0.014 0.097 0.2950269165039063
			vertex 0.014 0.08713436126708984 0.28859393310546877
		endloop
	endfacet
	facet normal 1 0 0
		outer loop
			vertex 0.014 0.084 0.28921740722656253
			vertex 0.014 0.097 0.2950269165039063
			vertex 0.014 0.07200000000000001 0.2950269165039063
		endloop
	endfacet
	facet normal 0 -1 0
		outer loop
			vertex -0.002 0.07200000000000001 0.2950269165039063
			vertex -0.002 0.07200000000000001 0.26702691650390625
			vertex 0.014 0.07200000000000001 0.26702691650390625
		endloop
	endfacet
	facet normal 0 -1 0
		outer loop
			vertex 0.014 0.07200000000000001 0.26702691650390625
			vertex 0.014 0.07200000000000001 0.2950269165039063
			vertex -0.002 0.07200000000000001 0.2950269165039063
		endloop
	endfacet
	facet normal -1 0 0
		outer loop
			vertex -0.002 0.137 0.26702691650390625
			vertex -0.002 0.12024263763427735 0.27678427124023436
			vertex -0.002 0.12154327392578125 0.2787308044433594
		endloop
	endfacet
	facet normal -1 0 0
		outer loop
			vertex -0.002 0.12024263763427735 0.27678427124023436
			vertex -0.002 0.137 0.26702691650390625
			vertex -0.002 0.11829609680175782 0.275483642578125
		endloop
	endfacet
	facet normal -1 0 0
		outer loop
			vertex -0.002 0.12154327392578125 0.2787308044433594
			vertex -0.002 0.122 0.28102691650390627
			vertex -0.002 0.137 0.26702691650390625
		endloop
	endfacet
	facet normal -1 0 0
		outer loop
			vertex -0.002 0.137 0.26702691650390625
			vertex -0.002 0.122 0.28102691650390627
			vertex -0.002 0.137 0.2950269165039063
		endloop
	endfacet
	facet normal -1 0 0
		outer loop
			vertex -0.002 0.116 0.27502691650390626
			vertex -0.002 0.11829609680175782 0.275483642578125
			vertex -0.002 0.137 0.26702691650390625
		endloop
	endfacet
	facet normal -1 0 0
		outer loop
			vertex -0.002 0.11175736236572266 0.27678427124023436
			vertex -0.002 0.1137039031982422 0.275483642578125
			vertex -0.002 0.08979154968261718 0.27523538208007814
		endloop
	endfacet
	facet normal -1 0 0
		outer loop
			vertex -0.002 0.11045672607421875 0.2787308044433594
			vertex -0.002 0.11175736236572266 0.27678427124023436
			vertex -0.002 0.09156702423095703 0.2778925476074219
		endloop
	endfacet
	facet normal -1 0 0
		outer loop
			vertex -0.002 0.1137039031982422 0.275483642578125
			vertex -0.002 0.116 0.27502691650390626
			vertex -0.002 0.08713436126708984 0.27345989990234376
		endloop
	endfacet
	facet normal -1 0 0
		outer loop
			vertex -0.002 0.116 0.27502691650390626
			vertex -0.002 0.137 0.26702691650390625
			vertex -0.002 0.08713436126708984 0.27345989990234376
		endloop
	endfacet
	facet normal -1 0 0
		outer loop
			vertex -0.002 0.12154327392578125 0.2833230285644531
			vertex -0.002 0.12024263763427735 0.2852695617675781
			vertex -0.002 0.137 0.2950269165039063
		endloop
	endfacet
	facet normal -1 0 0
		outer loop
			vertex -0.002 0.137 0.2950269165039063
			vertex -0.002 0.11829609680175782 0.2865701904296875
			vertex -0.002 0.116 0.28702691650390627
		endloop
	endfacet
	facet normal -1 0 0
		outer loop
			vertex -0.002 0.11829609680175782 0.2865701904296875
			vertex -0.002 0.137 0.2950269165039063
			vertex -0.002 0.12024263763427735 0.2852695617675781
		endloop
	endfacet
	facet normal -1 0 0
		outer loop
			vertex -0.002 0.12154327392578125 0.2833230285644531
			vertex -0.002 0.137 0.2950269165039063
			vertex -0.002 0.122 0.28102691650390627
		endloop
	endfacet
	facet normal -1 0 0
		outer loop
			vertex -0.002 0.11045672607421875 0.2833230285644531
			vertex -0.002 0.11 0.28102691650390627
			vertex -0.002 0.09219049072265625 0.28102691650390627
		endloop
	endfacet
	facet normal -1 0 0
		outer loop
			vertex -0.002 0.1137039031982422 0.2865701904296875
			vertex -0.002 0.11175736236572266 0.2852695617675781
			vertex -0.002 0.08979154968261718 0.2868184814453125
		endloop
	endfacet
	facet normal -1 0 0
		outer loop
			vertex -0.002 0.137 0.2950269165039063
			vertex -0.002 0.116 0.28702691650390627
			vertex -0.002 0.08713436126708984 0.28859393310546877
		endloop
	endfacet
	facet normal -1 0 0
		outer loop
			vertex -0.002 0.11045672607421875 0.2833230285644531
			vertex -0.002 0.09156702423095703 0.28416128540039065
			vertex -0.002 0.11175736236572266 0.2852695617675781
		endloop
	endfacet
	facet normal -1 0 0
		outer loop
			vertex -0.002 0.08713436126708984 0.28859393310546877
			vertex -0.002 0.116 0.28702691650390627
			vertex -0.002 0.1137039031982422 0.2865701904296875
		endloop
	endfacet
	facet normal -1 0 0
		outer loop
			vertex -0.002 0.11045672607421875 0.2787308044433594
			vertex -0.002 0.09219049072265625 0.28102691650390627
			vertex -0.002 0.11 0.28102691650390627
		endloop
	endfacet
	facet normal -1 0 0
		outer loop
			vertex -0.002 0.08713436126708984 0.27345989990234376
			vertex -0.002 0.08979154968261718 0.27523538208007814
			vertex -0.002 0.1137039031982422 0.275483642578125
		endloop
	endfacet
	facet normal -1 0 0
		outer loop
			vertex -0.002 0.09156702423095703 0.2778925476074219
			vertex -0.002 0.09219049072265625 0.28102691650390627
			vertex -0.002 0.11045672607421875 0.2787308044433594
		endloop
	endfacet
	facet normal -1 0 0
		outer loop
			vertex -0.002 0.08979154968261718 0.27523538208007814
			vertex -0.002 0.09156702423095703 0.2778925476074219
			vertex -0.002 0.11175736236572266 0.27678427124023436
		endloop
	endfacet
	facet normal -1 0 0
		outer loop
			vertex -0.002 0.084 0.27283642578125
			vertex -0.002 0.07200000000000001 0.26702691650390625
			vertex -0.002 0.08086563873291015 0.27345989990234376
		endloop
	endfacet
	facet normal -1 0 0
		outer loop
			vertex -0.002 0.07200000000000001 0.26702691650390625
			vertex -0.002 0.084 0.27283642578125
			vertex -0.002 0.08713436126708984 0.27345989990234376
		endloop
	endfacet
	facet normal -1 0 0
		outer loop
			vertex -0.002 0.07820845031738281 0.27523538208007814
			vertex -0.002 0.08086563873291015 0.27345989990234376
			vertex -0.002 0.07200000000000001 0.26702691650390625
		endloop
	endfacet
	facet normal -1 0 0
		outer loop
			vertex -0.002 0.07643297576904297 0.2778925476074219
			vertex -0.002 0.07820845031738281 0.27523538208007814
			vertex -0.002 0.07200000000000001 0.26702691650390625
		endloop
	endfacet
	facet normal -1 0 0
		outer loop
			vertex -0.002 0.07200000000000001 0.26702691650390625
			vertex -0.002 0.07580950927734376 0.28102691650390627
			vertex -0.002 0.07643297576904297 0.2778925476074219
		endloop
	endfacet
	facet normal -1 0 0
		outer loop
			vertex -0.002 0.08713436126708984 0.27345989990234376
			vertex -0.002 0.137 0.26702691650390625
			vertex -0.002 0.07200000000000001 0.26702691650390625
		endloop
	endfacet
	facet normal -1 0 0
		outer loop
			vertex -0.002 0.09156702423095703 0.28416128540039065
			vertex -0.002 0.08979154968261718 0.2868184814453125
			vertex -0.002 0.11175736236572266 0.2852695617675781
		endloop
	endfacet
	facet normal -1 0 0
		outer loop
			vertex -0.002 0.08713436126708984 0.28859393310546877
			vertex -0.002 0.084 0.28921740722656253
			vertex -0.002 0.07200000000000001 0.2950269165039063
		endloop
	endfacet
	facet normal -1 0 0
		outer loop
			vertex -0.002 0.08979154968261718 0.2868184814453125
			vertex -0.002 0.08713436126708984 0.28859393310546877
			vertex -0.002 0.1137039031982422 0.2865701904296875
		endloop
	endfacet
	facet normal -1 0 0
		outer loop
			vertex -0.002 0.07643297576904297 0.28416128540039065
			vertex -0.002 0.07580950927734376 0.28102691650390627
			vertex -0.002 0.07200000000000001 0.2950269165039063
		endloop
	endfacet
	facet normal -1 0 0
		outer loop
			vertex -0.002 0.08086563873291015 0.28859393310546877
			vertex -0.002 0.07820845031738281 0.2868184814453125
			vertex -0.002 0.07200000000000001 0.2950269165039063
		endloop
	endfacet
	facet normal -1 0 0
		outer loop
			vertex -0.002 0.07200000000000001 0.2950269165039063
			vertex -0.002 0.07820845031738281 0.2868184814453125
			vertex -0.002 0.07643297576904297 0.28416128540039065
		endloop
	endfacet
	facet normal -1 0 0
		outer loop
			vertex -0.002 0.08086563873291015 0.28859393310546877
			vertex -0.002 0.07200000000000001 0.2950269165039063
			vertex -0.002 0.084 0.28921740722656253
		endloop
	endfacet
	facet normal -1 0 0
		outer loop
			vertex -0.002 0.07580950927734376 0.28102691650390627
			vertex -0.002 0.07200000000000001 0.26702691650390625
			vertex -0.002 0.07200000000000001 0.2950269165039063
		endloop
	endfacet
	facet normal -1 0 0
		outer loop
			vertex -0.002 0.08713436126708984 0.28859393310546877
			vertex -0.002 0.07200000000000001 0.2950269165039063
			vertex -0.002 0.137 0.2950269165039063
		endloop
	endfacet
	facet normal -1 0 0
		outer loop
			vertex -0.002 0.09219049072265625 0.28102691650390627
			vertex -0.002 0.09156702423095703 0.28416128540039065
			vertex -0.002 0.11045672607421875 0.2833230285644531
		endloop
	endfacet
	facet normal 0 1 0
		outer loop
			vertex 0.033 0.137 0.2950269165039063
			vertex 0.033 0.137 0.26702691650390625
			vertex -0.002 0.137 0.2950269165039063
		endloop
	endfacet
	facet normal 0 1 0
		outer loop
			vertex -0.002 0.137 0.26702691650390625
			vertex -0.002 0.137 0.2950269165039063
			vertex 0.033 0.137 0.26702691650390625
		endloop
	endfacet
	facet normal -1 0 0
		outer loop
			vertex 0.033 0.16 0.26702691650390625
			vertex 0.033 0.15544136047363283 0.27794461059570313
			vertex 0.033 0.15605447387695312 0.28102691650390627
		endloop
	endfacet
	facet normal -1 0 0
		outer loop
			vertex 0.033 0.15544136047363283 0.27794461059570313
			vertex 0.033 0.16 0.26702691650390625
			vertex 0.033 0.15369537353515625 0.27533154296875
		endloop
	endfacet
	facet normal -1 0 0
		outer loop
			vertex 0.033 0.1510823211669922 0.2735855407714844
			vertex 0.033 0.15369537353515625 0.27533154296875
			vertex 0.033 0.16 0.26702691650390625
		endloop
	endfacet
	facet normal -1 0 0
		outer loop
			vertex 0.033 0.148 0.27297244262695314
			vertex 0.033 0.1510823211669922 0.2735855407714844
			vertex 0.033 0.16 0.26702691650390625
		endloop
	endfacet
	facet normal -1 0 0
		outer loop
			vertex 0.033 0.16 0.26702691650390625
			vertex 0.033 0.137 0.26702691650390625
			vertex 0.033 0.148 0.27297244262695314
		endloop
	endfacet
	facet normal -1 0 0
		outer loop
			vertex 0.033 0.16 0.2950269165039063
			vertex 0.033 0.15605447387695312 0.28102691650390627
			vertex 0.033 0.15544136047363283 0.2841092224121094
		endloop
	endfacet
	facet normal -1 0 0
		outer loop
			vertex 0.033 0.15605447387695312 0.28102691650390627
			vertex 0.033 0.16 0.2950269165039063
			vertex 0.033 0.16 0.26702691650390625
		endloop
	endfacet
	facet normal -1 0 0
		outer loop
			vertex 0.033 0.15369537353515625 0.2867222900390625
			vertex 0.033 0.1510823211669922 0.28846829223632814
			vertex 0.033 0.16 0.2950269165039063
		endloop
	endfacet
	facet normal -1 0 0
		outer loop
			vertex 0.033 0.15544136047363283 0.2841092224121094
			vertex 0.033 0.15369537353515625 0.2867222900390625
			vertex 0.033 0.16 0.2950269165039063
		endloop
	endfacet
	facet normal -1 0 0
		outer loop
			vertex 0.033 0.16 0.2950269165039063
			vertex 0.033 0.1510823211669922 0.28846829223632814
			vertex 0.033 0.148 0.2890813903808594
		endloop
	endfacet
	facet normal -1 0 0
		outer loop
			vertex 0.033 0.14230462646484376 0.27533154296875
			vertex 0.033 0.14491767883300782 0.2735855407714844
			vertex 0.033 0.137 0.26702691650390625
		endloop
	endfacet
	facet normal -1 0 0
		outer loop
			vertex 0.033 0.14055863952636719 0.27794461059570313
			vertex 0.033 0.137 0.26702691650390625
			vertex 0.033 0.13994552612304687 0.28102691650390627
		endloop
	endfacet
	facet normal -1 0 0
		outer loop
			vertex 0.033 0.137 0.26702691650390625
			vertex 0.033 0.14055863952636719 0.27794461059570313
			vertex 0.033 0.14230462646484376 0.27533154296875
		endloop
	endfacet
	facet normal -1 0 0
		outer loop
			vertex 0.033 0.13994552612304687 0.28102691650390627
			vertex 0.033 0.137 0.26702691650390625
			vertex 0.033 0.137 0.2950269165039063
		endloop
	endfacet
	facet normal -1 0 0
		outer loop
			vertex 0.033 0.14491767883300782 0.2735855407714844
			vertex 0.033 0.148 0.27297244262695314
			vertex 0.033 0.137 0.26702691650390625
		endloop
	endfacet
	facet normal -1 0 0
		outer loop
			vertex 0.033 0.148 0.2890813903808594
			vertex 0.033 0.14491767883300782 0.28846829223632814
			vertex 0.033 0.137 0.2950269165039063
		endloop
	endfacet
	facet normal -1 0 0
		outer loop
			vertex 0.033 0.14230462646484376 0.2867222900390625
			vertex 0.033 0.14055863952636719 0.2841092224121094
			vertex 0.033 0.137 0.2950269165039063
		endloop
	endfacet
	facet normal -1 0 0
		outer loop
			vertex 0.033 0.137 0.2950269165039063
			vertex 0.033 0.14055863952636719 0.2841092224121094
			vertex 0.033 0.13994552612304687 0.28102691650390627
		endloop
	endfacet
	facet normal -1 0 0
		outer loop
			vertex 0.033 0.14230462646484376 0.2867222900390625
			vertex 0.033 0.137 0.2950269165039063
			vertex 0.033 0.14491767883300782 0.28846829223632814
		endloop
	endfacet
	facet normal -1 0 0
		outer loop
			vertex 0.033 0.148 0.2890813903808594
			vertex 0.033 0.137 0.2950269165039063
			vertex 0.033 0.16 0.2950269165039063
		endloop
	endfacet
	facet normal 0 1 0
		outer loop
			vertex 0.063 0.16 0.2950269165039063
			vertex 0.063 0.16 0.26702691650390625
			vertex 0.033 0.16 0.2950269165039063
		endloop
	endfacet
	facet normal 0 1 0
		outer loop
			vertex 0.033 0.16 0.26702691650390625
			vertex 0.033 0.16 0.2950269165039063
			vertex 0.063 0.16 0.26702691650390625
		endloop
	endfacet
	facet normal 1 0 0
		outer loop
			vertex 0.063 0.137 0.26702691650390625
			vertex 0.063 0.14055863952636719 0.27794461059570313
			vertex 0.063 0.13994552612304687 0.28102691650390627
		endloop
	endfacet
	facet normal 1 0 0
		outer loop
			vertex 0.063 0.14055863952636719 0.27794461059570313
			vertex 0.063 0.137 0.26702691650390625
			vertex 0.063 0.14230462646484376 0.27533154296875
		endloop
	endfacet
	facet normal 1 0 0
		outer loop
			vertex 0.063 0.14491767883300782 0.2735855407714844
			vertex 0.063 0.14230462646484376 0.27533154296875
			vertex 0.063 0.137 0.26702691650390625
		endloop
	endfacet
	facet normal 1 0 0
		outer loop
			vertex 0.063 0.148 0.27297244262695314
			vertex 0.063 0.14491767883300782 0.2735855407714844
			vertex 0.063 0.137 0.26702691650390625
		endloop
	endfacet
	facet normal 1 0 0
		outer loop
			vertex 0.063 0.137 0.26702691650390625
			vertex 0.063 0.16 0.26702691650390625
			vertex 0.063 0.148 0.27297244262695314
		endloop
	endfacet
	facet normal 1 0 0
		outer loop
			vertex 0.063 0.137 0.2950269165039063
			vertex 0.063 0.13994552612304687 0.28102691650390627
			vertex 0.063 0.14055863952636719 0.2841092224121094
		endloop
	endfacet
	facet normal 1 0 0
		outer loop
			vertex 0.063 0.13994552612304687 0.28102691650390627
			vertex 0.063 0.137 0.2950269165039063
			vertex 0.063 0.137 0.26702691650390625
		endloop
	endfacet
	facet normal 1 0 0
		outer loop
			vertex 0.063 0.14230462646484376 0.2867222900390625
			vertex 0.063 0.14491767883300782 0.28846829223632814
			vertex 0.063 0.137 0.2950269165039063
		endloop
	endfacet
	facet normal 1 0 0
		outer loop
			vertex 0.063 0.14055863952636719 0.2841092224121094
			vertex 0.063 0.14230462646484376 0.2867222900390625
			vertex 0.063 0.137 0.2950269165039063
		endloop
	endfacet
	facet normal 1 0 0
		outer loop
			vertex 0.063 0.137 0.2950269165039063
			vertex 0.063 0.14491767883300782 0.28846829223632814
			vertex 0.063 0.148 0.2890813903808594
		endloop
	endfacet
	facet normal 1 0 0
		outer loop
			vertex 0.063 0.15369537353515625 0.27533154296875
			vertex 0.063 0.1510823211669922 0.2735855407714844
			vertex 0.063 0.16 0.26702691650390625
		endloop
	endfacet
	facet normal 1 0 0
		outer loop
			vertex 0.063 0.15544136047363283 0.27794461059570313
			vertex 0.063 0.16 0.26702691650390625
			vertex 0.063 0.15605447387695312 0.28102691650390627
		endloop
	endfacet
	facet normal 1 0 0
		outer loop
			vertex 0.063 0.16 0.26702691650390625
			vertex 0.063 0.15544136047363283 0.27794461059570313
			vertex 0.063 0.15369537353515625 0.27533154296875
		endloop
	endfacet
	facet normal 1 0 0
		outer loop
			vertex 0.063 0.15605447387695312 0.28102691650390627
			vertex 0.063 0.16 0.26702691650390625
			vertex 0.063 0.16 0.2950269165039063
		endloop
	endfacet
	facet normal 1 0 0
		outer loop
			vertex 0.063 0.1510823211669922 0.2735855407714844
			vertex 0.063 0.148 0.27297244262695314
			vertex 0.063 0.16 0.26702691650390625
		endloop
	endfacet
	facet normal 1 0 0
		outer loop
			vertex 0.063 0.148 0.2890813903808594
			vertex 0.063 0.1510823211669922 0.28846829223632814
			vertex 0.063 0.16 0.2950269165039063
		endloop
	endfacet
	facet normal 1 0 0
		outer loop
			vertex 0.063 0.15369537353515625 0.2867222900390625
			vertex 0.063 0.15544136047363283 0.2841092224121094
			vertex 0.063 0.16 0.2950269165039063
		endloop
	endfacet
	facet normal 1 0 0
		outer loop
			vertex 0.063 0.16 0.2950269165039063
			vertex 0.063 0.15544136047363283 0.2841092224121094
			vertex 0.063 0.15605447387695312 0.28102691650390627
		endloop
	endfacet
	facet normal 1 0 0
		outer loop
			vertex 0.063 0.15369537353515625 0.2867222900390625
			vertex 0.063 0.16 0.2950269165039063
			vertex 0.063 0.1510823211669922 0.28846829223632814
		endloop
	endfacet
	facet normal 1 0 0
		outer loop
			vertex 0.063 0.148 0.2890813903808594
			vertex 0.063 0.16 0.2950269165039063
			vertex 0.063 0.137 0.2950269165039063
		endloop
	endfacet
	facet normal 0 1 0
		outer loop
			vertex 0.098 0.137 0.2950269165039063
			vertex 0.098 0.137 0.26702691650390625
			vertex 0.063 0.137 0.26702691650390625
		endloop
	endfacet
	facet normal 0 1 0
		outer loop
			vertex 0.063 0.137 0.26702691650390625
			vertex 0.063 0.137 0.2950269165039063
			vertex 0.098 0.137 0.2950269165039063
		endloop
	endfacet
	facet normal 0 0 1
		outer loop
			vertex -0.002 0.07200000000000001 0.2950269165039063
			vertex 0.0035125577449798585 0.07499478149414063 0.2950269165039063
			vertex 0.00140380597114563 0.07640380859375 0.2950269165039063
		endloop
	endfacet
	facet normal 0 0 1
		outer loop
			vertex 0.0035125577449798585 0.07499478149414063 0.2950269165039063
			vertex -0.002 0.07200000000000001 0.2950269165039063
			vertex 0.006 0.0745 0.2950269165039063
		endloop
	endfacet
	facet normal 0 0 1
		outer loop
			vertex -0.000005216961260885 0.07851255798339844 0.2950269165039063
			vertex -0.0005 0.081 0.2950269165039063
			vertex -0.002 0.07200000000000001 0.2950269165039063
		endloop
	endfacet
	facet normal 0 0 1
		outer loop
			vertex 0.00140380597114563 0.07640380859375 0.2950269165039063
			vertex -0.000005216961260885 0.07851255798339844 0.2950269165039063
			vertex -0.002 0.07200000000000001 0.2950269165039063
		endloop
	endfacet
	facet normal 0 0 1
		outer loop
			vertex -0.002 0.07200000000000001 0.2950269165039063
			vertex -0.0005 0.081 0.2950269165039063
			vertex -0.002 0.137 0.2950269165039063
		endloop
	endfacet
	facet normal 0 0 1
		outer loop
			vertex 0.006 0.0745 0.2950269165039063
			vertex 0.014 0.07200000000000001 0.2950269165039063
			vertex 0.008487442016601563 0.07499478149414063 0.2950269165039063
		endloop
	endfacet
	facet normal 0 0 1
		outer loop
			vertex 0.014 0.07200000000000001 0.2950269165039063
			vertex 0.006 0.0745 0.2950269165039063
			vertex -0.002 0.07200000000000001 0.2950269165039063
		endloop
	endfacet
	facet normal 0 0 1
		outer loop
			vertex 0.01059619426727295 0.07640380859375 0.2950269165039063
			vertex 0.008487442016601563 0.07499478149414063 0.2950269165039063
			vertex 0.014 0.07200000000000001 0.2950269165039063
		endloop
	endfacet
	facet normal 0 0 1
		outer loop
			vertex 0.012005216598510742 0.07851255798339844 0.2950269165039063
			vertex 0.01059619426727295 0.07640380859375 0.2950269165039063
			vertex 0.014 0.07200000000000001 0.2950269165039063
		endloop
	endfacet
	facet normal 0 0 1
		outer loop
			vertex 0.014 0.07200000000000001 0.2950269165039063
			vertex 0.0125 0.081 0.2950269165039063
			vertex 0.012005216598510742 0.07851255798339844 0.2950269165039063
		endloop
	endfacet
	facet normal 0 0 1
		outer loop
			vertex 0.0835 0.081 0.2950269165039063
			vertex 0.082 0.0845 0.2950269165039063
			vertex 0.082 0.07200000000000001 0.2950269165039063
		endloop
	endfacet
	facet normal 0 0 1
		outer loop
			vertex -0.000005216961260885 0.08348744201660156 0.2950269165039063
			vertex 0.00140380597114563 0.08559619140625001 0.2950269165039063
			vertex -0.002 0.137 0.2950269165039063
		endloop
	endfacet
	facet normal 0 0 1
		outer loop
			vertex 0.006 0.08750000000000001 0.2950269165039063
			vertex 0.008487442016601563 0.08700521850585938 0.2950269165039063
			vertex 0.014 0.097 0.2950269165039063
		endloop
	endfacet
	facet normal 0 0 1
		outer loop
			vertex 0.0035125577449798585 0.08700521850585938 0.2950269165039063
			vertex 0.006 0.08750000000000001 0.2950269165039063
			vertex 0.014 0.097 0.2950269165039063
		endloop
	endfacet
	facet normal 0 0 1
		outer loop
			vertex -0.002 0.137 0.2950269165039063
			vertex 0.00140380597114563 0.08559619140625001 0.2950269165039063
			vertex 0.0035125577449798585 0.08700521850585938 0.2950269165039063
		endloop
	endfacet
	facet normal 0 0 1
		outer loop
			vertex 0.01059619426727295 0.08559619140625001 0.2950269165039063
			vertex 0.014 0.0845 0.2950269165039063
			vertex 0.014 0.097 0.2950269165039063
		endloop
	endfacet
	facet normal 0 0 1
		outer loop
			vertex 0.012005216598510742 0.08348744201660156 0.2950269165039063
			vertex 0.014 0.0845 0.2950269165039063
			vertex 0.01059619426727295 0.08559619140625001 0.2950269165039063
		endloop
	endfacet
	facet normal 0 0 1
		outer loop
			vertex 0.014 0.097 0.2950269165039063
			vertex 0.029700000762939455 0.10200000000000001 0.2950269165039063
			vertex 0.029951196670532226 0.10326285552978516 0.2950269165039063
		endloop
	endfacet
	facet normal 0 0 1
		outer loop
			vertex 0.029951196670532226 0.10073714447021484 0.2950269165039063
			vertex 0.029700000762939455 0.10200000000000001 0.2950269165039063
			vertex 0.014 0.097 0.2950269165039063
		endloop
	endfacet
	facet normal 0 0 1
		outer loop
			vertex 0.03115224075317383 0.11623463439941406 0.2950269165039063
			vertex 0.014 0.097 0.2950269165039063
			vertex 0.029951196670532226 0.10326285552978516 0.2950269165039063
		endloop
	endfacet
	facet normal 0 0 1
		outer loop
			vertex 0.01059619426727295 0.08559619140625001 0.2950269165039063
			vertex 0.014 0.097 0.2950269165039063
			vertex 0.008487442016601563 0.08700521850585938 0.2950269165039063
		endloop
	endfacet
	facet normal 0 0 1
		outer loop
			vertex 0.014 0.097 0.2950269165039063
			vertex -0.002 0.137 0.2950269165039063
			vertex 0.0035125577449798585 0.08700521850585938 0.2950269165039063
		endloop
	endfacet
	facet normal 0 0 1
		outer loop
			vertex -0.0005 0.081 0.2950269165039063
			vertex -0.000005216961260885 0.08348744201660156 0.2950269165039063
			vertex -0.002 0.137 0.2950269165039063
		endloop
	endfacet
	facet normal 0 0 1
		outer loop
			vertex 0.03173714447021484 0.09895119476318359 0.2950269165039063
			vertex 0.030666547775268557 0.09966654968261719 0.2950269165039063
			vertex 0.031 0.097 0.2950269165039063
		endloop
	endfacet
	facet normal 0 0 1
		outer loop
			vertex 0.029951196670532226 0.10073714447021484 0.2950269165039063
			vertex 0.014 0.097 0.2950269165039063
			vertex 0.031 0.097 0.2950269165039063
		endloop
	endfacet
	facet normal 0 0 1
		outer loop
			vertex 0.031 0.097 0.2950269165039063
			vertex 0.048 0.097 0.2950269165039063
			vertex 0.034262855529785155 0.09895119476318359 0.2950269165039063
		endloop
	endfacet
	facet normal 0 0 1
		outer loop
			vertex 0.029951196670532226 0.10073714447021484 0.2950269165039063
			vertex 0.031 0.097 0.2950269165039063
			vertex 0.030666547775268557 0.09966654968261719 0.2950269165039063
		endloop
	endfacet
	facet normal 0 0 1
		outer loop
			vertex 0.048 0.097 0.2950269165039063
			vertex 0.04658578491210938 0.10058578491210937 0.2950269165039063
			vertex 0.035333454132080076 0.09966654968261719 0.2950269165039063
		endloop
	endfacet
	facet normal 0 0 1
		outer loop
			vertex 0.035333454132080076 0.09966654968261719 0.2950269165039063
			vertex 0.034262855529785155 0.09895119476318359 0.2950269165039063
			vertex 0.048 0.097 0.2950269165039063
		endloop
	endfacet
	facet normal 0 0 1
		outer loop
			vertex 0.035333454132080076 0.09966654968261719 0.2950269165039063
			vertex 0.04658578491210938 0.10058578491210937 0.2950269165039063
			vertex 0.036048801422119144 0.10073714447021484 0.2950269165039063
		endloop
	endfacet
	facet normal 0 0 1
		outer loop
			vertex 0.036048801422119144 0.10073714447021484 0.2950269165039063
			vertex 0.046152240753173826 0.10123463439941406 0.2950269165039063
			vertex 0.036299999237060544 0.10200000000000001 0.2950269165039063
		endloop
	endfacet
	facet normal 0 0 1
		outer loop
			vertex 0.046152240753173826 0.10123463439941406 0.2950269165039063
			vertex 0.036048801422119144 0.10073714447021484 0.2950269165039063
			vertex 0.04658578491210938 0.10058578491210937 0.2950269165039063
		endloop
	endfacet
	facet normal 0 0 1
		outer loop
			vertex 0.036299999237060544 0.10200000000000001 0.2950269165039063
			vertex 0.046152240753173826 0.10123463439941406 0.2950269165039063
			vertex 0.046 0.10200000000000001 0.2950269165039063
		endloop
	endfacet
	facet normal 0 0 1
		outer loop
			vertex 0.04658578491210938 0.10058578491210937 0.2950269165039063
			vertex 0.048 0.097 0.2950269165039063
			vertex 0.04723463439941406 0.1001522445678711 0.2950269165039063
		endloop
	endfacet
	facet normal 0 0 1
		outer loop
			vertex 0.031585786819458006 0.11558578491210937 0.2950269165039063
			vertex 0.030666547775268557 0.10433345031738281 0.2950269165039063
			vertex 0.03173714447021484 0.10504880523681641 0.2950269165039063
		endloop
	endfacet
	facet normal 0 0 1
		outer loop
			vertex 0.033 0.115 0.2950269165039063
			vertex 0.033 0.10530000305175781 0.2950269165039063
			vertex 0.03376536560058594 0.1151522445678711 0.2950269165039063
		endloop
	endfacet
	facet normal 0 0 1
		outer loop
			vertex 0.034262855529785155 0.10504880523681641 0.2950269165039063
			vertex 0.03376536560058594 0.1151522445678711 0.2950269165039063
			vertex 0.033 0.10530000305175781 0.2950269165039063
		endloop
	endfacet
	facet normal 0 0 1
		outer loop
			vertex 0.03173714447021484 0.10504880523681641 0.2950269165039063
			vertex 0.033 0.10530000305175781 0.2950269165039063
			vertex 0.03223463439941406 0.1151522445678711 0.2950269165039063
		endloop
	endfacet
	facet normal 0 0 1
		outer loop
			vertex 0.03115224075317383 0.11623463439941406 0.2950269165039063
			vertex 0.029951196670532226 0.10326285552978516 0.2950269165039063
			vertex 0.030666547775268557 0.10433345031738281 0.2950269165039063
		endloop
	endfacet
	facet normal 0 0 1
		outer loop
			vertex 0.036299999237060544 0.10200000000000001 0.2950269165039063
			vertex 0.046152240753173826 0.10276536560058594 0.2950269165039063
			vertex 0.036048801422119144 0.10326285552978516 0.2950269165039063
		endloop
	endfacet
	facet normal 0 0 1
		outer loop
			vertex 0.046152240753173826 0.10276536560058594 0.2950269165039063
			vertex 0.036299999237060544 0.10200000000000001 0.2950269165039063
			vertex 0.046 0.10200000000000001 0.2950269165039063
		endloop
	endfacet
	facet normal 0 0 1
		outer loop
			vertex 0.036048801422119144 0.10326285552978516 0.2950269165039063
			vertex 0.046152240753173826 0.10276536560058594 0.2950269165039063
			vertex 0.04658578491210938 0.10341421508789063 0.2950269165039063
		endloop
	endfacet
	facet normal 0 0 1
		outer loop
			vertex 0.035333454132080076 0.10433345031738281 0.2950269165039063
			vertex 0.04658578491210938 0.10341421508789063 0.2950269165039063
			vertex 0.04723463439941406 0.1038477554321289 0.2950269165039063
		endloop
	endfacet
	facet normal 0 0 1
		outer loop
			vertex 0.04658578491210938 0.10341421508789063 0.2950269165039063
			vertex 0.035333454132080076 0.10433345031738281 0.2950269165039063
			vertex 0.036048801422119144 0.10326285552978516 0.2950269165039063
		endloop
	endfacet
	facet normal 0 0 1
		outer loop
			vertex 0.03441421508789062 0.11558578491210937 0.2950269165039063
			vertex 0.034262855529785155 0.10504880523681641 0.2950269165039063
			vertex 0.035333454132080076 0.10433345031738281 0.2950269165039063
		endloop
	endfacet
	facet normal 0 0 1
		outer loop
			vertex 0.03441421508789062 0.11558578491210937 0.2950269165039063
			vertex 0.035333454132080076 0.10433345031738281 0.2950269165039063
			vertex 0.04723463439941406 0.1038477554321289 0.2950269165039063
		endloop
	endfacet
	facet normal 0 0 1
		outer loop
			vertex 0.048 0.10400000000000001 0.2950269165039063
			vertex 0.03484775924682617 0.11623463439941406 0.2950269165039063
			vertex 0.04723463439941406 0.1038477554321289 0.2950269165039063
		endloop
	endfacet
	facet normal 0 0 1
		outer loop
			vertex 0.034262855529785155 0.09895119476318359 0.2950269165039063
			vertex 0.033 0.09869999694824219 0.2950269165039063
			vertex 0.031 0.097 0.2950269165039063
		endloop
	endfacet
	facet normal 0 0 1
		outer loop
			vertex 0.03223463439941406 0.1151522445678711 0.2950269165039063
			vertex 0.033 0.10530000305175781 0.2950269165039063
			vertex 0.033 0.115 0.2950269165039063
		endloop
	endfacet
	facet normal 0 0 1
		outer loop
			vertex 0.031 0.117 0.2950269165039063
			vertex 0.014 0.097 0.2950269165039063
			vertex 0.03115224075317383 0.11623463439941406 0.2950269165039063
		endloop
	endfacet
	facet normal 0 0 1
		outer loop
			vertex 0.03126157760620117 0.13026158142089844 0.2950269165039063
			vertex 0.03115224075317383 0.11776536560058594 0.2950269165039063
			vertex 0.031585786819458006 0.11841421508789063 0.2950269165039063
		endloop
	endfacet
	facet normal 0 0 1
		outer loop
			vertex -0.002 0.137 0.2950269165039063
			vertex 0.031 0.117 0.2950269165039063
			vertex 0.03115224075317383 0.11776536560058594 0.2950269165039063
		endloop
	endfacet
	facet normal 0 0 1
		outer loop
			vertex 0.031 0.117 0.2950269165039063
			vertex -0.002 0.137 0.2950269165039063
			vertex 0.014 0.097 0.2950269165039063
		endloop
	endfacet
	facet normal 0 0 1
		outer loop
			vertex 0.033 0.12954150390625 0.2950269165039063
			vertex 0.033 0.11900000000000001 0.2950269165039063
			vertex 0.03376536560058594 0.11884775543212892 0.2950269165039063
		endloop
	endfacet
	facet normal 0 0 1
		outer loop
			vertex 0.033 0.11900000000000001 0.2950269165039063
			vertex 0.033 0.12954150390625 0.2950269165039063
			vertex 0.03223463439941406 0.11884775543212892 0.2950269165039063
		endloop
	endfacet
	facet normal 0 0 1
		outer loop
			vertex 0.031585786819458006 0.11841421508789063 0.2950269165039063
			vertex 0.03223463439941406 0.11884775543212892 0.2950269165039063
			vertex 0.03205917358398438 0.1297286376953125 0.2950269165039063
		endloop
	endfacet
	facet normal 0 0 1
		outer loop
			vertex 0.030666547775268557 0.10433345031738281 0.2950269165039063
			vertex 0.031585786819458006 0.11558578491210937 0.2950269165039063
			vertex 0.03115224075317383 0.11623463439941406 0.2950269165039063
		endloop
	endfacet
	facet normal 0 0 1
		outer loop
			vertex 0.03223463439941406 0.11884775543212892 0.2950269165039063
			vertex 0.033 0.12954150390625 0.2950269165039063
			vertex 0.03205917358398438 0.1297286376953125 0.2950269165039063
		endloop
	endfacet
	facet normal 0 0 1
		outer loop
			vertex 0.030728641510009765 0.1310591735839844 0.2950269165039063
			vertex -0.002 0.137 0.2950269165039063
			vertex 0.03115224075317383 0.11776536560058594 0.2950269165039063
		endloop
	endfacet
	facet normal 0 0 1
		outer loop
			vertex -0.002 0.137 0.2950269165039063
			vertex 0.030541500091552733 0.132 0.2950269165039063
			vertex 0.030728641510009765 0.13294082641601562 0.2950269165039063
		endloop
	endfacet
	facet normal 0 0 1
		outer loop
			vertex 0.030541500091552733 0.132 0.2950269165039063
			vertex -0.002 0.137 0.2950269165039063
			vertex 0.030728641510009765 0.1310591735839844 0.2950269165039063
		endloop
	endfacet
	facet normal 0 0 1
		outer loop
			vertex -0.002 0.137 0.2950269165039063
			vertex 0.030728641510009765 0.13294082641601562 0.2950269165039063
			vertex 0.03126157760620117 0.13373841857910157 0.2950269165039063
		endloop
	endfacet
	facet normal 0 0 1
		outer loop
			vertex 0.03115224075317383 0.11776536560058594 0.2950269165039063
			vertex 0.03126157760620117 0.13026158142089844 0.2950269165039063
			vertex 0.030728641510009765 0.1310591735839844 0.2950269165039063
		endloop
	endfacet
	facet normal 0 0 1
		outer loop
			vertex 0.03126157760620117 0.13373841857910157 0.2950269165039063
			vertex 0.03205917358398438 0.1342713623046875 0.2950269165039063
			vertex 0.033 0.137 0.2950269165039063
		endloop
	endfacet
	facet normal 0 0 1
		outer loop
			vertex 0.033940826416015625 0.1342713623046875 0.2950269165039063
			vertex 0.033 0.137 0.2950269165039063
			vertex 0.033 0.13445849609375 0.2950269165039063
		endloop
	endfacet
	facet normal 0 0 1
		outer loop
			vertex 0.04723463439941406 0.13384776306152343 0.2950269165039063
			vertex 0.033 0.16 0.2950269165039063
			vertex 0.033 0.137 0.2950269165039063
		endloop
	endfacet
	facet normal 0 0 1
		outer loop
			vertex 0.033 0.137 0.2950269165039063
			vertex 0.03205917358398438 0.1342713623046875 0.2950269165039063
			vertex 0.033 0.13445849609375 0.2950269165039063
		endloop
	endfacet
	facet normal 0 0 1
		outer loop
			vertex 0.033 0.137 0.2950269165039063
			vertex -0.002 0.137 0.2950269165039063
			vertex 0.03126157760620117 0.13373841857910157 0.2950269165039063
		endloop
	endfacet
	facet normal 0 0 1
		outer loop
			vertex 0.031585786819458006 0.11841421508789063 0.2950269165039063
			vertex 0.03205917358398438 0.1297286376953125 0.2950269165039063
			vertex 0.03126157760620117 0.13026158142089844 0.2950269165039063
		endloop
	endfacet
	facet normal 0 0 1
		outer loop
			vertex 0.014 0.0845 0.2950269165039063
			vertex 0.0125 0.081 0.2950269165039063
			vertex 0.014 0.07200000000000001 0.2950269165039063
		endloop
	endfacet
	facet normal 0 0 1
		outer loop
			vertex 0.03376536560058594 0.11884775543212892 0.2950269165039063
			vertex 0.033940826416015625 0.1297286376953125 0.2950269165039063
			vertex 0.033 0.12954150390625 0.2950269165039063
		endloop
	endfacet
	facet normal 0 0 1
		outer loop
			vertex 0.031585786819458006 0.11558578491210937 0.2950269165039063
			vertex 0.03173714447021484 0.10504880523681641 0.2950269165039063
			vertex 0.03223463439941406 0.1151522445678711 0.2950269165039063
		endloop
	endfacet
	facet normal 0 0 1
		outer loop
			vertex 0.03441421508789062 0.11558578491210937 0.2950269165039063
			vertex 0.03376536560058594 0.1151522445678711 0.2950269165039063
			vertex 0.034262855529785155 0.10504880523681641 0.2950269165039063
		endloop
	endfacet
	facet normal 0 0 1
		outer loop
			vertex 0.033940826416015625 0.1297286376953125 0.2950269165039063
			vertex 0.03441421508789062 0.11841421508789063 0.2950269165039063
			vertex 0.03473842239379883 0.13026158142089844 0.2950269165039063
		endloop
	endfacet
	facet normal 0 0 1
		outer loop
			vertex 0.033940826416015625 0.1297286376953125 0.2950269165039063
			vertex 0.03376536560058594 0.11884775543212892 0.2950269165039063
			vertex 0.03441421508789062 0.11841421508789063 0.2950269165039063
		endloop
	endfacet
	facet normal 0 0 1
		outer loop
			vertex 0.04658578491210938 0.13058578491210937 0.2950269165039063
			vertex 0.03473842239379883 0.13026158142089844 0.2950269165039063
			vertex 0.03441421508789062 0.11841421508789063 0.2950269165039063
		endloop
	endfacet
	facet normal 0 0 1
		outer loop
			vertex 0.035 0.117 0.2950269165039063
			vertex 0.03484775924682617 0.11623463439941406 0.2950269165039063
			vertex 0.048 0.10400000000000001 0.2950269165039063
		endloop
	endfacet
	facet normal 0 0 1
		outer loop
			vertex 0.03484775924682617 0.11776536560058594 0.2950269165039063
			vertex 0.035 0.117 0.2950269165039063
			vertex 0.048 0.13 0.2950269165039063
		endloop
	endfacet
	facet normal 0 0 1
		outer loop
			vertex 0.04658578491210938 0.13058578491210937 0.2950269165039063
			vertex 0.03441421508789062 0.11841421508789063 0.2950269165039063
			vertex 0.04723463439941406 0.13015223693847658 0.2950269165039063
		endloop
	endfacet
	facet normal 0 0 1
		outer loop
			vertex 0.048 0.13 0.2950269165039063
			vertex 0.04723463439941406 0.13015223693847658 0.2950269165039063
			vertex 0.03484775924682617 0.11776536560058594 0.2950269165039063
		endloop
	endfacet
	facet normal 0 0 1
		outer loop
			vertex 0.03441421508789062 0.11558578491210937 0.2950269165039063
			vertex 0.04723463439941406 0.1038477554321289 0.2950269165039063
			vertex 0.03484775924682617 0.11623463439941406 0.2950269165039063
		endloop
	endfacet
	facet normal 0 0 1
		outer loop
			vertex 0.04723463439941406 0.13015223693847658 0.2950269165039063
			vertex 0.03441421508789062 0.11841421508789063 0.2950269165039063
			vertex 0.03484775924682617 0.11776536560058594 0.2950269165039063
		endloop
	endfacet
	facet normal 0 0 1
		outer loop
			vertex 0.061 0.117 0.2950269165039063
			vertex 0.048 0.13 0.2950269165039063
			vertex 0.035 0.117 0.2950269165039063
		endloop
	endfacet
	facet normal 0 0 1
		outer loop
			vertex 0.03473842239379883 0.13026158142089844 0.2950269165039063
			vertex 0.04658578491210938 0.13058578491210937 0.2950269165039063
			vertex 0.03527135848999024 0.1310591735839844 0.2950269165039063
		endloop
	endfacet
	facet normal 0 0 1
		outer loop
			vertex 0.035458499908447266 0.132 0.2950269165039063
			vertex 0.03527135848999024 0.1310591735839844 0.2950269165039063
			vertex 0.046152240753173826 0.13123463439941407 0.2950269165039063
		endloop
	endfacet
	facet normal 0 0 1
		outer loop
			vertex 0.03473842239379883 0.13373841857910157 0.2950269165039063
			vertex 0.03527135848999024 0.13294082641601562 0.2950269165039063
			vertex 0.04658578491210938 0.13341421508789061 0.2950269165039063
		endloop
	endfacet
	facet normal 0 0 1
		outer loop
			vertex 0.04658578491210938 0.13341421508789061 0.2950269165039063
			vertex 0.033 0.137 0.2950269165039063
			vertex 0.03473842239379883 0.13373841857910157 0.2950269165039063
		endloop
	endfacet
	facet normal 0 0 1
		outer loop
			vertex 0.035458499908447266 0.132 0.2950269165039063
			vertex 0.046152240753173826 0.13276536560058594 0.2950269165039063
			vertex 0.03527135848999024 0.13294082641601562 0.2950269165039063
		endloop
	endfacet
	facet normal 0 0 1
		outer loop
			vertex 0.046152240753173826 0.13123463439941407 0.2950269165039063
			vertex 0.046 0.132 0.2950269165039063
			vertex 0.035458499908447266 0.132 0.2950269165039063
		endloop
	endfacet
	facet normal 0 0 1
		outer loop
			vertex 0.046 0.132 0.2950269165039063
			vertex 0.046152240753173826 0.13276536560058594 0.2950269165039063
			vertex 0.035458499908447266 0.132 0.2950269165039063
		endloop
	endfacet
	facet normal 0 0 1
		outer loop
			vertex 0.048 0.134 0.2950269165039063
			vertex 0.033 0.16 0.2950269165039063
			vertex 0.04723463439941406 0.13384776306152343 0.2950269165039063
		endloop
	endfacet
	facet normal 0 0 1
		outer loop
			vertex 0.04723463439941406 0.13384776306152343 0.2950269165039063
			vertex 0.033 0.137 0.2950269165039063
			vertex 0.04658578491210938 0.13341421508789061 0.2950269165039063
		endloop
	endfacet
	facet normal 0 0 1
		outer loop
			vertex 0.046152240753173826 0.13276536560058594 0.2950269165039063
			vertex 0.04658578491210938 0.13341421508789061 0.2950269165039063
			vertex 0.03527135848999024 0.13294082641601562 0.2950269165039063
		endloop
	endfacet
	facet normal 0 0 1
		outer loop
			vertex 0.03527135848999024 0.1310591735839844 0.2950269165039063
			vertex 0.04658578491210938 0.13058578491210937 0.2950269165039063
			vertex 0.046152240753173826 0.13123463439941407 0.2950269165039063
		endloop
	endfacet
	facet normal 0 0 1
		outer loop
			vertex 0.033 0.137 0.2950269165039063
			vertex 0.033940826416015625 0.1342713623046875 0.2950269165039063
			vertex 0.03473842239379883 0.13373841857910157 0.2950269165039063
		endloop
	endfacet
	facet normal 0 0 1
		outer loop
			vertex 0.033 0.16 0.2950269165039063
			vertex 0.048 0.134 0.2950269165039063
			vertex 0.063 0.16 0.2950269165039063
		endloop
	endfacet
	facet normal 0 0 1
		outer loop
			vertex 0.012005216598510742 0.08348744201660156 0.2950269165039063
			vertex 0.0125 0.081 0.2950269165039063
			vertex 0.014 0.0845 0.2950269165039063
		endloop
	endfacet
	facet normal 0 0 1
		outer loop
			vertex 0.04941421508789062 0.10058578491210937 0.2950269165039063
			vertex 0.04876536560058594 0.1001522445678711 0.2950269165039063
			vertex 0.048 0.097 0.2950269165039063
		endloop
	endfacet
	facet normal 0 0 1
		outer loop
			vertex 0.04941421508789062 0.10058578491210937 0.2950269165039063
			vertex 0.06072864151000976 0.10105917358398438 0.2950269165039063
			vertex 0.049847759246826176 0.10123463439941406 0.2950269165039063
		endloop
	endfacet
	facet normal 0 0 1
		outer loop
			vertex 0.06126157760620117 0.10026158142089844 0.2950269165039063
			vertex 0.06072864151000976 0.10105917358398438 0.2950269165039063
			vertex 0.04941421508789062 0.10058578491210937 0.2950269165039063
		endloop
	endfacet
	facet normal 0 0 1
		outer loop
			vertex 0.049847759246826176 0.10123463439941406 0.2950269165039063
			vertex 0.06072864151000976 0.10105917358398438 0.2950269165039063
			vertex 0.060541500091552736 0.10200000000000001 0.2950269165039063
		endloop
	endfacet
	facet normal 0 0 1
		outer loop
			vertex 0.048 0.1 0.2950269165039063
			vertex 0.048 0.097 0.2950269165039063
			vertex 0.04876536560058594 0.1001522445678711 0.2950269165039063
		endloop
	endfacet
	facet normal 0 0 1
		outer loop
			vertex 0.06205917358398438 0.09972864532470703 0.2950269165039063
			vertex 0.048 0.097 0.2950269165039063
			vertex 0.065 0.097 0.2950269165039063
		endloop
	endfacet
	facet normal 0 0 1
		outer loop
			vertex 0.06394082641601563 0.09972864532470703 0.2950269165039063
			vertex 0.065 0.097 0.2950269165039063
			vertex 0.06473841857910156 0.10026158142089844 0.2950269165039063
		endloop
	endfacet
	facet normal 0 0 1
		outer loop
			vertex 0.065 0.097 0.2950269165039063
			vertex 0.06394082641601563 0.09972864532470703 0.2950269165039063
			vertex 0.063 0.09954149627685548 0.2950269165039063
		endloop
	endfacet
	facet normal 0 0 1
		outer loop
			vertex 0.04941421508789062 0.10058578491210937 0.2950269165039063
			vertex 0.048 0.097 0.2950269165039063
			vertex 0.06126157760620117 0.10026158142089844 0.2950269165039063
		endloop
	endfacet
	facet normal 0 0 1
		outer loop
			vertex 0.06205917358398438 0.09972864532470703 0.2950269165039063
			vertex 0.06126157760620117 0.10026158142089844 0.2950269165039063
			vertex 0.048 0.097 0.2950269165039063
		endloop
	endfacet
	facet normal 0 0 1
		outer loop
			vertex 0.049847759246826176 0.10276536560058594 0.2950269165039063
			vertex 0.05 0.10200000000000001 0.2950269165039063
			vertex 0.060541500091552736 0.10200000000000001 0.2950269165039063
		endloop
	endfacet
	facet normal 0 0 1
		outer loop
			vertex 0.06158578491210938 0.11558578491210937 0.2950269165039063
			vertex 0.04876536560058594 0.1038477554321289 0.2950269165039063
			vertex 0.04941421508789062 0.10341421508789063 0.2950269165039063
		endloop
	endfacet
	facet normal 0 0 1
		outer loop
			vertex 0.06115224075317383 0.11623463439941406 0.2950269165039063
			vertex 0.048 0.10400000000000001 0.2950269165039063
			vertex 0.04876536560058594 0.1038477554321289 0.2950269165039063
		endloop
	endfacet
	facet normal 0 0 1
		outer loop
			vertex 0.049847759246826176 0.10276536560058594 0.2950269165039063
			vertex 0.06072864151000976 0.10294082641601562 0.2950269165039063
			vertex 0.04941421508789062 0.10341421508789063 0.2950269165039063
		endloop
	endfacet
	facet normal 0 0 1
		outer loop
			vertex 0.06072864151000976 0.10294082641601562 0.2950269165039063
			vertex 0.06126157760620117 0.10373841857910157 0.2950269165039063
			vertex 0.04941421508789062 0.10341421508789063 0.2950269165039063
		endloop
	endfacet
	facet normal 0 0 1
		outer loop
			vertex 0.060541500091552736 0.10200000000000001 0.2950269165039063
			vertex 0.06072864151000976 0.10294082641601562 0.2950269165039063
			vertex 0.049847759246826176 0.10276536560058594 0.2950269165039063
		endloop
	endfacet
	facet normal 0 0 1
		outer loop
			vertex 0.06441421508789062 0.11558578491210937 0.2950269165039063
			vertex 0.06394082641601563 0.10427135467529297 0.2950269165039063
			vertex 0.06473841857910156 0.10373841857910157 0.2950269165039063
		endloop
	endfacet
	facet normal 0 0 1
		outer loop
			vertex 0.06158578491210938 0.11558578491210937 0.2950269165039063
			vertex 0.04941421508789062 0.10341421508789063 0.2950269165039063
			vertex 0.06126157760620117 0.10373841857910157 0.2950269165039063
		endloop
	endfacet
	facet normal 0 0 1
		outer loop
			vertex 0.05 0.10200000000000001 0.2950269165039063
			vertex 0.049847759246826176 0.10123463439941406 0.2950269165039063
			vertex 0.060541500091552736 0.10200000000000001 0.2950269165039063
		endloop
	endfacet
	facet normal 0 0 1
		outer loop
			vertex 0.06205917358398438 0.10427135467529297 0.2950269165039063
			vertex 0.06158578491210938 0.11558578491210937 0.2950269165039063
			vertex 0.06126157760620117 0.10373841857910157 0.2950269165039063
		endloop
	endfacet
	facet normal 0 0 1
		outer loop
			vertex 0.082 0.07200000000000001 0.2950269165039063
			vertex 0.08751255798339844 0.07499478149414063 0.2950269165039063
			vertex 0.08540380859375 0.07640380859375 0.2950269165039063
		endloop
	endfacet
	facet normal 0 0 1
		outer loop
			vertex 0.08751255798339844 0.07499478149414063 0.2950269165039063
			vertex 0.082 0.07200000000000001 0.2950269165039063
			vertex 0.09 0.0745 0.2950269165039063
		endloop
	endfacet
	facet normal 0 0 1
		outer loop
			vertex 0.08399478149414062 0.07851255798339844 0.2950269165039063
			vertex 0.0835 0.081 0.2950269165039063
			vertex 0.082 0.07200000000000001 0.2950269165039063
		endloop
	endfacet
	facet normal 0 0 1
		outer loop
			vertex 0.08540380859375 0.07640380859375 0.2950269165039063
			vertex 0.08399478149414062 0.07851255798339844 0.2950269165039063
			vertex 0.082 0.07200000000000001 0.2950269165039063
		endloop
	endfacet
	facet normal 0 0 1
		outer loop
			vertex 0.09 0.0745 0.2950269165039063
			vertex 0.098 0.07200000000000001 0.2950269165039063
			vertex 0.09248744201660157 0.07499478149414063 0.2950269165039063
		endloop
	endfacet
	facet normal 0 0 1
		outer loop
			vertex 0.098 0.07200000000000001 0.2950269165039063
			vertex 0.09 0.0745 0.2950269165039063
			vertex 0.082 0.07200000000000001 0.2950269165039063
		endloop
	endfacet
	facet normal 0 0 1
		outer loop
			vertex 0.09248744201660157 0.07499478149414063 0.2950269165039063
			vertex 0.098 0.07200000000000001 0.2950269165039063
			vertex 0.09459619140625 0.07640380859375 0.2950269165039063
		endloop
	endfacet
	facet normal 0 0 1
		outer loop
			vertex 0.09600521850585937 0.07851255798339844 0.2950269165039063
			vertex 0.09459619140625 0.07640380859375 0.2950269165039063
			vertex 0.098 0.07200000000000001 0.2950269165039063
		endloop
	endfacet
	facet normal 0 0 1
		outer loop
			vertex 0.0965 0.081 0.2950269165039063
			vertex 0.09600521850585937 0.07851255798339844 0.2950269165039063
			vertex 0.098 0.07200000000000001 0.2950269165039063
		endloop
	endfacet
	facet normal 0 0 1
		outer loop
			vertex 0.098 0.07200000000000001 0.2950269165039063
			vertex 0.098 0.137 0.2950269165039063
			vertex 0.0965 0.081 0.2950269165039063
		endloop
	endfacet
	facet normal 0 0 1
		outer loop
			vertex 0.082 0.0845 0.2950269165039063
			vertex 0.08540380859375 0.08559619140625001 0.2950269165039063
			vertex 0.082 0.097 0.2950269165039063
		endloop
	endfacet
	facet normal 0 0 1
		outer loop
			vertex 0.06527135467529296 0.10105917358398438 0.2950269165039063
			vertex 0.06473841857910156 0.10026158142089844 0.2950269165039063
			vertex 0.065 0.097 0.2950269165039063
		endloop
	endfacet
	facet normal 0 0 1
		outer loop
			vertex 0.06545850372314453 0.10200000000000001 0.2950269165039063
			vertex 0.06527135467529296 0.10105917358398438 0.2950269165039063
			vertex 0.082 0.097 0.2950269165039063
		endloop
	endfacet
	facet normal 0 0 1
		outer loop
			vertex 0.06527135467529296 0.10294082641601562 0.2950269165039063
			vertex 0.06545850372314453 0.10200000000000001 0.2950269165039063
			vertex 0.082 0.097 0.2950269165039063
		endloop
	endfacet
	facet normal 0 0 1
		outer loop
			vertex 0.06527135467529296 0.10294082641601562 0.2950269165039063
			vertex 0.06484775543212891 0.11623463439941406 0.2950269165039063
			vertex 0.06473841857910156 0.10373841857910157 0.2950269165039063
		endloop
	endfacet
	facet normal 0 0 1
		outer loop
			vertex 0.06527135467529296 0.10105917358398438 0.2950269165039063
			vertex 0.065 0.097 0.2950269165039063
			vertex 0.082 0.097 0.2950269165039063
		endloop
	endfacet
	facet normal 0 0 1
		outer loop
			vertex 0.09459619140625 0.08559619140625001 0.2950269165039063
			vertex 0.09600521850585937 0.08348744201660156 0.2950269165039063
			vertex 0.098 0.137 0.2950269165039063
		endloop
	endfacet
	facet normal 0 0 1
		outer loop
			vertex 0.09 0.08750000000000001 0.2950269165039063
			vertex 0.09248744201660157 0.08700521850585938 0.2950269165039063
			vertex 0.082 0.097 0.2950269165039063
		endloop
	endfacet
	facet normal 0 0 1
		outer loop
			vertex 0.08751255798339844 0.08700521850585938 0.2950269165039063
			vertex 0.09 0.08750000000000001 0.2950269165039063
			vertex 0.082 0.097 0.2950269165039063
		endloop
	endfacet
	facet normal 0 0 1
		outer loop
			vertex 0.09248744201660157 0.08700521850585938 0.2950269165039063
			vertex 0.098 0.137 0.2950269165039063
			vertex 0.082 0.097 0.2950269165039063
		endloop
	endfacet
	facet normal 0 0 1
		outer loop
			vertex 0.08540380859375 0.08559619140625001 0.2950269165039063
			vertex 0.08751255798339844 0.08700521850585938 0.2950269165039063
			vertex 0.082 0.097 0.2950269165039063
		endloop
	endfacet
	facet normal 0 0 1
		outer loop
			vertex 0.098 0.137 0.2950269165039063
			vertex 0.09248744201660157 0.08700521850585938 0.2950269165039063
			vertex 0.09459619140625 0.08559619140625001 0.2950269165039063
		endloop
	endfacet
	facet normal 0 0 1
		outer loop
			vertex 0.0965 0.081 0.2950269165039063
			vertex 0.098 0.137 0.2950269165039063
			vertex 0.09600521850585937 0.08348744201660156 0.2950269165039063
		endloop
	endfacet
	facet normal 0 0 1
		outer loop
			vertex 0.06205917358398438 0.09972864532470703 0.2950269165039063
			vertex 0.065 0.097 0.2950269165039063
			vertex 0.063 0.09954149627685548 0.2950269165039063
		endloop
	endfacet
	facet normal 0 0 1
		outer loop
			vertex 0.082 0.097 0.2950269165039063
			vertex 0.06484775543212891 0.11623463439941406 0.2950269165039063
			vertex 0.06527135467529296 0.10294082641601562 0.2950269165039063
		endloop
	endfacet
	facet normal 0 0 1
		outer loop
			vertex 0.048 0.13 0.2950269165039063
			vertex 0.061 0.117 0.2950269165039063
			vertex 0.06115224075317383 0.11776536560058594 0.2950269165039063
		endloop
	endfacet
	facet normal 0 0 1
		outer loop
			vertex 0.060666545867919926 0.12966654968261718 0.2950269165039063
			vertex 0.04876536560058594 0.13015223693847658 0.2950269165039063
			vertex 0.06158578491210938 0.11841421508789063 0.2950269165039063
		endloop
	endfacet
	facet normal 0 0 1
		outer loop
			vertex 0.04876536560058594 0.13015223693847658 0.2950269165039063
			vertex 0.048 0.13 0.2950269165039063
			vertex 0.06115224075317383 0.11776536560058594 0.2950269165039063
		endloop
	endfacet
	facet normal 0 0 1
		outer loop
			vertex 0.06158578491210938 0.11841421508789063 0.2950269165039063
			vertex 0.04876536560058594 0.13015223693847658 0.2950269165039063
			vertex 0.06115224075317383 0.11776536560058594 0.2950269165039063
		endloop
	endfacet
	facet normal 0 0 1
		outer loop
			vertex 0.04876536560058594 0.13015223693847658 0.2950269165039063
			vertex 0.060666545867919926 0.12966654968261718 0.2950269165039063
			vertex 0.04941421508789062 0.13058578491210937 0.2950269165039063
		endloop
	endfacet
	facet normal 0 0 1
		outer loop
			vertex 0.06115224075317383 0.11623463439941406 0.2950269165039063
			vertex 0.04876536560058594 0.1038477554321289 0.2950269165039063
			vertex 0.06158578491210938 0.11558578491210937 0.2950269165039063
		endloop
	endfacet
	facet normal 0 0 1
		outer loop
			vertex 0.06158578491210938 0.11558578491210937 0.2950269165039063
			vertex 0.06205917358398438 0.10427135467529297 0.2950269165039063
			vertex 0.06223463439941406 0.1151522445678711 0.2950269165039063
		endloop
	endfacet
	facet normal 0 0 1
		outer loop
			vertex 0.06158578491210938 0.11841421508789063 0.2950269165039063
			vertex 0.06223463439941406 0.11884775543212892 0.2950269165039063
			vertex 0.06173714447021485 0.12895120239257812 0.2950269165039063
		endloop
	endfacet
	facet normal 0 0 1
		outer loop
			vertex 0.06158578491210938 0.11841421508789063 0.2950269165039063
			vertex 0.06173714447021485 0.12895120239257812 0.2950269165039063
			vertex 0.060666545867919926 0.12966654968261718 0.2950269165039063
		endloop
	endfacet
	facet normal 0 0 1
		outer loop
			vertex 0.048 0.10400000000000001 0.2950269165039063
			vertex 0.06115224075317383 0.11623463439941406 0.2950269165039063
			vertex 0.061 0.117 0.2950269165039063
		endloop
	endfacet
	facet normal 0 0 1
		outer loop
			vertex 0.049847759246826176 0.13123463439941407 0.2950269165039063
			vertex 0.04941421508789062 0.13058578491210937 0.2950269165039063
			vertex 0.05995119857788086 0.13073715209960937 0.2950269165039063
		endloop
	endfacet
	facet normal 0 0 1
		outer loop
			vertex 0.04941421508789062 0.13341421508789061 0.2950269165039063
			vertex 0.049847759246826176 0.13276536560058594 0.2950269165039063
			vertex 0.05995119857788086 0.13326284790039064 0.2950269165039063
		endloop
	endfacet
	facet normal 0 0 1
		outer loop
			vertex 0.04876536560058594 0.13384776306152343 0.2950269165039063
			vertex 0.04941421508789062 0.13341421508789061 0.2950269165039063
			vertex 0.060666545867919926 0.1343334503173828 0.2950269165039063
		endloop
	endfacet
	facet normal 0 0 1
		outer loop
			vertex 0.049847759246826176 0.13123463439941407 0.2950269165039063
			vertex 0.05970000076293946 0.132 0.2950269165039063
			vertex 0.05 0.132 0.2950269165039063
		endloop
	endfacet
	facet normal 0 0 1
		outer loop
			vertex 0.05970000076293946 0.132 0.2950269165039063
			vertex 0.049847759246826176 0.13123463439941407 0.2950269165039063
			vertex 0.05995119857788086 0.13073715209960937 0.2950269165039063
		endloop
	endfacet
	facet normal 0 0 1
		outer loop
			vertex 0.05970000076293946 0.132 0.2950269165039063
			vertex 0.05995119857788086 0.13326284790039064 0.2950269165039063
			vertex 0.049847759246826176 0.13276536560058594 0.2950269165039063
		endloop
	endfacet
	facet normal 0 0 1
		outer loop
			vertex 0.060666545867919926 0.1343334503173828 0.2950269165039063
			vertex 0.063 0.137 0.2950269165039063
			vertex 0.04876536560058594 0.13384776306152343 0.2950269165039063
		endloop
	endfacet
	facet normal 0 0 1
		outer loop
			vertex 0.060666545867919926 0.1343334503173828 0.2950269165039063
			vertex 0.04941421508789062 0.13341421508789061 0.2950269165039063
			vertex 0.05995119857788086 0.13326284790039064 0.2950269165039063
		endloop
	endfacet
	facet normal 0 0 1
		outer loop
			vertex 0.05 0.132 0.2950269165039063
			vertex 0.05970000076293946 0.132 0.2950269165039063
			vertex 0.049847759246826176 0.13276536560058594 0.2950269165039063
		endloop
	endfacet
	facet normal 0 0 1
		outer loop
			vertex 0.04941421508789062 0.13058578491210937 0.2950269165039063
			vertex 0.060666545867919926 0.12966654968261718 0.2950269165039063
			vertex 0.05995119857788086 0.13073715209960937 0.2950269165039063
		endloop
	endfacet
	facet normal 0 0 1
		outer loop
			vertex 0.063 0.137 0.2950269165039063
			vertex 0.060666545867919926 0.1343334503173828 0.2950269165039063
			vertex 0.06173714447021485 0.1350487976074219 0.2950269165039063
		endloop
	endfacet
	facet normal 0 0 1
		outer loop
			vertex 0.06173714447021485 0.12895120239257812 0.2950269165039063
			vertex 0.06223463439941406 0.11884775543212892 0.2950269165039063
			vertex 0.063 0.1286999969482422 0.2950269165039063
		endloop
	endfacet
	facet normal 0 0 1
		outer loop
			vertex 0.063 0.11900000000000001 0.2950269165039063
			vertex 0.06376536560058593 0.11884775543212892 0.2950269165039063
			vertex 0.063 0.1286999969482422 0.2950269165039063
		endloop
	endfacet
	facet normal 0 0 1
		outer loop
			vertex 0.06426285552978515 0.12895120239257812 0.2950269165039063
			vertex 0.063 0.1286999969482422 0.2950269165039063
			vertex 0.06376536560058593 0.11884775543212892 0.2950269165039063
		endloop
	endfacet
	facet normal 0 0 1
		outer loop
			vertex 0.063 0.1286999969482422 0.2950269165039063
			vertex 0.06223463439941406 0.11884775543212892 0.2950269165039063
			vertex 0.063 0.11900000000000001 0.2950269165039063
		endloop
	endfacet
	facet normal 0 0 1
		outer loop
			vertex 0.063 0.115 0.2950269165039063
			vertex 0.063 0.10445850372314454 0.2950269165039063
			vertex 0.06376536560058593 0.1151522445678711 0.2950269165039063
		endloop
	endfacet
	facet normal 0 0 1
		outer loop
			vertex 0.06376536560058593 0.1151522445678711 0.2950269165039063
			vertex 0.063 0.10445850372314454 0.2950269165039063
			vertex 0.06394082641601563 0.10427135467529297 0.2950269165039063
		endloop
	endfacet
	facet normal 0 0 1
		outer loop
			vertex 0.06376536560058593 0.1151522445678711 0.2950269165039063
			vertex 0.06394082641601563 0.10427135467529297 0.2950269165039063
			vertex 0.06441421508789062 0.11558578491210937 0.2950269165039063
		endloop
	endfacet
	facet normal 0 0 1
		outer loop
			vertex 0.06533345031738282 0.12966654968261718 0.2950269165039063
			vertex 0.06441421508789062 0.11841421508789063 0.2950269165039063
			vertex 0.06484775543212891 0.11776536560058594 0.2950269165039063
		endloop
	endfacet
	facet normal 0 0 1
		outer loop
			vertex 0.06426285552978515 0.12895120239257812 0.2950269165039063
			vertex 0.06376536560058593 0.11884775543212892 0.2950269165039063
			vertex 0.06441421508789062 0.11841421508789063 0.2950269165039063
		endloop
	endfacet
	facet normal 0 0 1
		outer loop
			vertex 0.06484775543212891 0.11623463439941406 0.2950269165039063
			vertex 0.082 0.097 0.2950269165039063
			vertex 0.065 0.117 0.2950269165039063
		endloop
	endfacet
	facet normal 0 0 1
		outer loop
			vertex 0.06473841857910156 0.10373841857910157 0.2950269165039063
			vertex 0.06484775543212891 0.11623463439941406 0.2950269165039063
			vertex 0.06441421508789062 0.11558578491210937 0.2950269165039063
		endloop
	endfacet
	facet normal 0 0 1
		outer loop
			vertex 0.098 0.137 0.2950269165039063
			vertex 0.06484775543212891 0.11776536560058594 0.2950269165039063
			vertex 0.065 0.117 0.2950269165039063
		endloop
	endfacet
	facet normal 0 0 1
		outer loop
			vertex 0.063 0.137 0.2950269165039063
			vertex 0.063 0.13530000305175782 0.2950269165039063
			vertex 0.06426285552978515 0.1350487976074219 0.2950269165039063
		endloop
	endfacet
	facet normal 0 0 1
		outer loop
			vertex 0.063 0.16 0.2950269165039063
			vertex 0.04876536560058594 0.13384776306152343 0.2950269165039063
			vertex 0.063 0.137 0.2950269165039063
		endloop
	endfacet
	facet normal 0 0 1
		outer loop
			vertex 0.063 0.137 0.2950269165039063
			vertex 0.06173714447021485 0.1350487976074219 0.2950269165039063
			vertex 0.063 0.13530000305175782 0.2950269165039063
		endloop
	endfacet
	facet normal 0 0 1
		outer loop
			vertex 0.063 0.137 0.2950269165039063
			vertex 0.06426285552978515 0.1350487976074219 0.2950269165039063
			vertex 0.06533345031738282 0.1343334503173828 0.2950269165039063
		endloop
	endfacet
	facet normal 0 0 1
		outer loop
			vertex 0.06533345031738282 0.12966654968261718 0.2950269165039063
			vertex 0.06484775543212891 0.11776536560058594 0.2950269165039063
			vertex 0.0660488052368164 0.13073715209960937 0.2950269165039063
		endloop
	endfacet
	facet normal 0 0 1
		outer loop
			vertex 0.06630000305175782 0.132 0.2950269165039063
			vertex 0.0660488052368164 0.13073715209960937 0.2950269165039063
			vertex 0.098 0.137 0.2950269165039063
		endloop
	endfacet
	facet normal 0 0 1
		outer loop
			vertex 0.06533345031738282 0.1343334503173828 0.2950269165039063
			vertex 0.0660488052368164 0.13326284790039064 0.2950269165039063
			vertex 0.098 0.137 0.2950269165039063
		endloop
	endfacet
	facet normal 0 0 1
		outer loop
			vertex 0.098 0.137 0.2950269165039063
			vertex 0.0660488052368164 0.13326284790039064 0.2950269165039063
			vertex 0.06630000305175782 0.132 0.2950269165039063
		endloop
	endfacet
	facet normal 0 0 1
		outer loop
			vertex 0.06533345031738282 0.1343334503173828 0.2950269165039063
			vertex 0.098 0.137 0.2950269165039063
			vertex 0.063 0.137 0.2950269165039063
		endloop
	endfacet
	facet normal 0 0 1
		outer loop
			vertex 0.06426285552978515 0.12895120239257812 0.2950269165039063
			vertex 0.06441421508789062 0.11841421508789063 0.2950269165039063
			vertex 0.06533345031738282 0.12966654968261718 0.2950269165039063
		endloop
	endfacet
	facet normal 0 0 1
		outer loop
			vertex 0.098 0.137 0.2950269165039063
			vertex 0.0660488052368164 0.13073715209960937 0.2950269165039063
			vertex 0.06484775543212891 0.11776536560058594 0.2950269165039063
		endloop
	endfacet
	facet normal 0 0 1
		outer loop
			vertex 0.098 0.137 0.2950269165039063
			vertex 0.065 0.117 0.2950269165039063
			vertex 0.082 0.097 0.2950269165039063
		endloop
	endfacet
	facet normal 0 0 1
		outer loop
			vertex 0.063 0.10445850372314454 0.2950269165039063
			vertex 0.063 0.115 0.2950269165039063
			vertex 0.06223463439941406 0.1151522445678711 0.2950269165039063
		endloop
	endfacet
	facet normal 0 0 1
		outer loop
			vertex 0.06223463439941406 0.1151522445678711 0.2950269165039063
			vertex 0.06205917358398438 0.10427135467529297 0.2950269165039063
			vertex 0.063 0.10445850372314454 0.2950269165039063
		endloop
	endfacet
	facet normal 0 0 1
		outer loop
			vertex 0.04876536560058594 0.13384776306152343 0.2950269165039063
			vertex 0.063 0.16 0.2950269165039063
			vertex 0.048 0.134 0.2950269165039063
		endloop
	endfacet
	facet normal 0 0 1
		outer loop
			vertex 0.03173714447021484 0.09895119476318359 0.2950269165039063
			vertex 0.031 0.097 0.2950269165039063
			vertex 0.033 0.09869999694824219 0.2950269165039063
		endloop
	endfacet
	facet normal 0 0 1
		outer loop
			vertex 0.035 0.117 0.2950269165039063
			vertex 0.048 0.10400000000000001 0.2950269165039063
			vertex 0.061 0.117 0.2950269165039063
		endloop
	endfacet
	facet normal 0 0 1
		outer loop
			vertex 0.048 0.097 0.2950269165039063
			vertex 0.048 0.1 0.2950269165039063
			vertex 0.04723463439941406 0.1001522445678711 0.2950269165039063
		endloop
	endfacet
	facet normal 0 0 1
		outer loop
			vertex 0.0835 0.081 0.2950269165039063
			vertex 0.08399478149414062 0.08348744201660156 0.2950269165039063
			vertex 0.082 0.0845 0.2950269165039063
		endloop
	endfacet
	facet normal 0 0 1
		outer loop
			vertex 0.082 0.0845 0.2950269165039063
			vertex 0.08399478149414062 0.08348744201660156 0.2950269165039063
			vertex 0.08540380859375 0.08559619140625001 0.2950269165039063
		endloop
	endfacet
	facet normal 0 0 -1
		outer loop
			vertex -0.000005216961260885 0.07851255798339844 0.26702691650390625
			vertex 0.00140380597114563 0.07640380859375 0.26702691650390625
			vertex -0.002 0.07200000000000001 0.26702691650390625
		endloop
	endfacet
	facet normal 0 0 -1
		outer loop
			vertex 0.0035125577449798585 0.07499478149414063 0.26702691650390625
			vertex -0.002 0.07200000000000001 0.26702691650390625
			vertex 0.00140380597114563 0.07640380859375 0.26702691650390625
		endloop
	endfacet
	facet normal 0 0 -1
		outer loop
			vertex -0.002 0.07200000000000001 0.26702691650390625
			vertex 0.0035125577449798585 0.07499478149414063 0.26702691650390625
			vertex 0.006 0.0745 0.26702691650390625
		endloop
	endfacet
	facet normal 0 0 -1
		outer loop
			vertex 0.006 0.0745 0.26702691650390625
			vertex 0.014 0.07200000000000001 0.26702691650390625
			vertex -0.002 0.07200000000000001 0.26702691650390625
		endloop
	endfacet
	facet normal 0 0 -1
		outer loop
			vertex -0.002 0.07200000000000001 0.26702691650390625
			vertex -0.0005 0.081 0.26702691650390625
			vertex -0.000005216961260885 0.07851255798339844 0.26702691650390625
		endloop
	endfacet
	facet normal 0 0 -1
		outer loop
			vertex 0.0035125577449798585 0.08700521850585938 0.26702691650390625
			vertex 0.00140380597114563 0.08559619140625001 0.26702691650390625
			vertex -0.002 0.137 0.26702691650390625
		endloop
	endfacet
	facet normal 0 0 -1
		outer loop
			vertex -0.002 0.137 0.26702691650390625
			vertex 0.00140380597114563 0.08559619140625001 0.26702691650390625
			vertex -0.000005216961260885 0.08348744201660156 0.26702691650390625
		endloop
	endfacet
	facet normal 0 0 -1
		outer loop
			vertex -0.002 0.137 0.26702691650390625
			vertex -0.000005216961260885 0.08348744201660156 0.26702691650390625
			vertex -0.0005 0.081 0.26702691650390625
		endloop
	endfacet
	facet normal 0 0 -1
		outer loop
			vertex -0.002 0.137 0.26702691650390625
			vertex -0.0005 0.081 0.26702691650390625
			vertex -0.002 0.07200000000000001 0.26702691650390625
		endloop
	endfacet
	facet normal 0 0 -1
		outer loop
			vertex 0.014 0.07200000000000001 0.26702691650390625
			vertex 0.008487442016601563 0.07499478149414063 0.26702691650390625
			vertex 0.01059619426727295 0.07640380859375 0.26702691650390625
		endloop
	endfacet
	facet normal 0 0 -1
		outer loop
			vertex 0.0125 0.081 0.26702691650390625
			vertex 0.014 0.07200000000000001 0.26702691650390625
			vertex 0.012005216598510742 0.07851255798339844 0.26702691650390625
		endloop
	endfacet
	facet normal 0 0 -1
		outer loop
			vertex 0.01059619426727295 0.07640380859375 0.26702691650390625
			vertex 0.012005216598510742 0.07851255798339844 0.26702691650390625
			vertex 0.014 0.07200000000000001 0.26702691650390625
		endloop
	endfacet
	facet normal 0 0 -1
		outer loop
			vertex 0.014 0.07200000000000001 0.26702691650390625
			vertex 0.006 0.0745 0.26702691650390625
			vertex 0.008487442016601563 0.07499478149414063 0.26702691650390625
		endloop
	endfacet
	facet normal 0 0 -1
		outer loop
			vertex 0.014 0.097 0.26702691650390625
			vertex 0.008487442016601563 0.08700521850585938 0.26702691650390625
			vertex 0.006 0.08750000000000001 0.26702691650390625
		endloop
	endfacet
	facet normal 0 0 -1
		outer loop
			vertex 0.01059619426727295 0.08559619140625001 0.26702691650390625
			vertex 0.014 0.0845 0.26702691650390625
			vertex 0.012005216598510742 0.08348744201660156 0.26702691650390625
		endloop
	endfacet
	facet normal 0 0 -1
		outer loop
			vertex 0.01059619426727295 0.08559619140625001 0.26702691650390625
			vertex 0.014 0.097 0.26702691650390625
			vertex 0.014 0.0845 0.26702691650390625
		endloop
	endfacet
	facet normal 0 0 -1
		outer loop
			vertex 0.008487442016601563 0.08700521850585938 0.26702691650390625
			vertex 0.014 0.097 0.26702691650390625
			vertex 0.01059619426727295 0.08559619140625001 0.26702691650390625
		endloop
	endfacet
	facet normal 0 0 -1
		outer loop
			vertex 0.0035125577449798585 0.08700521850585938 0.26702691650390625
			vertex 0.014 0.097 0.26702691650390625
			vertex 0.006 0.08750000000000001 0.26702691650390625
		endloop
	endfacet
	facet normal 0 0 -1
		outer loop
			vertex 0.014 0.0845 0.26702691650390625
			vertex 0.0125 0.081 0.26702691650390625
			vertex 0.012005216598510742 0.08348744201660156 0.26702691650390625
		endloop
	endfacet
	facet normal 0 0 -1
		outer loop
			vertex 0.014 0.097 0.26702691650390625
			vertex 0.0035125577449798585 0.08700521850585938 0.26702691650390625
			vertex -0.002 0.137 0.26702691650390625
		endloop
	endfacet
	facet normal 0 0 -1
		outer loop
			vertex 0.029700000762939455 0.10200000000000001 0.26702691650390625
			vertex 0.014 0.097 0.26702691650390625
			vertex 0.029951196670532226 0.10326285552978516 0.26702691650390625
		endloop
	endfacet
	facet normal 0 0 -1
		outer loop
			vertex 0.030666547775268557 0.09966654968261719 0.26702691650390625
			vertex 0.031 0.097 0.26702691650390625
			vertex 0.029951196670532226 0.10073714447021484 0.26702691650390625
		endloop
	endfacet
	facet normal 0 0 -1
		outer loop
			vertex 0.029700000762939455 0.10200000000000001 0.26702691650390625
			vertex 0.029951196670532226 0.10073714447021484 0.26702691650390625
			vertex 0.014 0.097 0.26702691650390625
		endloop
	endfacet
	facet normal 0 0 -1
		outer loop
			vertex -0.002 0.137 0.26702691650390625
			vertex 0.030666547775268557 0.10433345031738281 0.26702691650390625
			vertex 0.014 0.097 0.26702691650390625
		endloop
	endfacet
	facet normal 0 0 -1
		outer loop
			vertex 0.030666547775268557 0.10433345031738281 0.26702691650390625
			vertex 0.029951196670532226 0.10326285552978516 0.26702691650390625
			vertex 0.014 0.097 0.26702691650390625
		endloop
	endfacet
	facet normal 0 0 -1
		outer loop
			vertex 0.03173714447021484 0.10504880523681641 0.26702691650390625
			vertex 0.030666547775268557 0.10433345031738281 0.26702691650390625
			vertex 0.033 0.137 0.26702691650390625
		endloop
	endfacet
	facet normal 0 0 -1
		outer loop
			vertex 0.033 0.137 0.26702691650390625
			vertex 0.030666547775268557 0.10433345031738281 0.26702691650390625
			vertex -0.002 0.137 0.26702691650390625
		endloop
	endfacet
	facet normal 0 0 -1
		outer loop
			vertex 0.033 0.10530000305175781 0.26702691650390625
			vertex 0.03173714447021484 0.10504880523681641 0.26702691650390625
			vertex 0.033 0.137 0.26702691650390625
		endloop
	endfacet
	facet normal 0 0 -1
		outer loop
			vertex 0.029951196670532226 0.10073714447021484 0.26702691650390625
			vertex 0.031 0.097 0.26702691650390625
			vertex 0.014 0.097 0.26702691650390625
		endloop
	endfacet
	facet normal 0 0 -1
		outer loop
			vertex 0.031 0.097 0.26702691650390625
			vertex 0.034262855529785155 0.09895119476318359 0.26702691650390625
			vertex 0.048 0.097 0.26702691650390625
		endloop
	endfacet
	facet normal 0 0 -1
		outer loop
			vertex 0.034262855529785155 0.09895119476318359 0.26702691650390625
			vertex 0.035333454132080076 0.09966654968261719 0.26702691650390625
			vertex 0.048 0.097 0.26702691650390625
		endloop
	endfacet
	facet normal 0 0 -1
		outer loop
			vertex 0.036299999237060544 0.10200000000000001 0.26702691650390625
			vertex 0.048 0.097 0.26702691650390625
			vertex 0.036048801422119144 0.10073714447021484 0.26702691650390625
		endloop
	endfacet
	facet normal 0 0 -1
		outer loop
			vertex 0.036048801422119144 0.10326285552978516 0.26702691650390625
			vertex 0.035333454132080076 0.10433345031738281 0.26702691650390625
			vertex 0.048 0.097 0.26702691650390625
		endloop
	endfacet
	facet normal 0 0 -1
		outer loop
			vertex 0.035333454132080076 0.10433345031738281 0.26702691650390625
			vertex 0.034262855529785155 0.10504880523681641 0.26702691650390625
			vertex 0.060666545867919926 0.12966654968261718 0.26702691650390625
		endloop
	endfacet
	facet normal 0 0 -1
		outer loop
			vertex 0.05995119857788086 0.13073715209960937 0.26702691650390625
			vertex 0.034262855529785155 0.10504880523681641 0.26702691650390625
			vertex 0.033 0.137 0.26702691650390625
		endloop
	endfacet
	facet normal 0 0 -1
		outer loop
			vertex 0.033 0.137 0.26702691650390625
			vertex 0.034262855529785155 0.10504880523681641 0.26702691650390625
			vertex 0.033 0.10530000305175781 0.26702691650390625
		endloop
	endfacet
	facet normal 0 0 -1
		outer loop
			vertex 0.063 0.16 0.26702691650390625
			vertex 0.033 0.137 0.26702691650390625
			vertex 0.033 0.16 0.26702691650390625
		endloop
	endfacet
	facet normal 0 0 -1
		outer loop
			vertex 0.048 0.097 0.26702691650390625
			vertex 0.036299999237060544 0.10200000000000001 0.26702691650390625
			vertex 0.036048801422119144 0.10326285552978516 0.26702691650390625
		endloop
	endfacet
	facet normal 0 0 -1
		outer loop
			vertex 0.036048801422119144 0.10073714447021484 0.26702691650390625
			vertex 0.048 0.097 0.26702691650390625
			vertex 0.035333454132080076 0.09966654968261719 0.26702691650390625
		endloop
	endfacet
	facet normal 0 0 -1
		outer loop
			vertex 0.08399478149414062 0.08348744201660156 0.26702691650390625
			vertex 0.082 0.0845 0.26702691650390625
			vertex 0.08540380859375 0.08559619140625001 0.26702691650390625
		endloop
	endfacet
	facet normal 0 0 -1
		outer loop
			vertex 0.0835 0.081 0.26702691650390625
			vertex 0.08399478149414062 0.07851255798339844 0.26702691650390625
			vertex 0.082 0.07200000000000001 0.26702691650390625
		endloop
	endfacet
	facet normal 0 0 -1
		outer loop
			vertex 0.08540380859375 0.07640380859375 0.26702691650390625
			vertex 0.082 0.07200000000000001 0.26702691650390625
			vertex 0.08399478149414062 0.07851255798339844 0.26702691650390625
		endloop
	endfacet
	facet normal 0 0 -1
		outer loop
			vertex 0.082 0.07200000000000001 0.26702691650390625
			vertex 0.08540380859375 0.07640380859375 0.26702691650390625
			vertex 0.08751255798339844 0.07499478149414063 0.26702691650390625
		endloop
	endfacet
	facet normal 0 0 -1
		outer loop
			vertex 0.08751255798339844 0.07499478149414063 0.26702691650390625
			vertex 0.09 0.0745 0.26702691650390625
			vertex 0.082 0.07200000000000001 0.26702691650390625
		endloop
	endfacet
	facet normal 0 0 -1
		outer loop
			vertex 0.034262855529785155 0.09895119476318359 0.26702691650390625
			vertex 0.031 0.097 0.26702691650390625
			vertex 0.033 0.09869999694824219 0.26702691650390625
		endloop
	endfacet
	facet normal 0 0 -1
		outer loop
			vertex 0.082 0.0845 0.26702691650390625
			vertex 0.08399478149414062 0.08348744201660156 0.26702691650390625
			vertex 0.0835 0.081 0.26702691650390625
		endloop
	endfacet
	facet normal 0 0 -1
		outer loop
			vertex 0.082 0.097 0.26702691650390625
			vertex 0.08751255798339844 0.08700521850585938 0.26702691650390625
			vertex 0.08540380859375 0.08559619140625001 0.26702691650390625
		endloop
	endfacet
	facet normal 0 0 -1
		outer loop
			vertex 0.082 0.0845 0.26702691650390625
			vertex 0.082 0.097 0.26702691650390625
			vertex 0.08540380859375 0.08559619140625001 0.26702691650390625
		endloop
	endfacet
	facet normal 0 0 -1
		outer loop
			vertex 0.09 0.08750000000000001 0.26702691650390625
			vertex 0.08751255798339844 0.08700521850585938 0.26702691650390625
			vertex 0.082 0.097 0.26702691650390625
		endloop
	endfacet
	facet normal 0 0 -1
		outer loop
			vertex 0.048 0.097 0.26702691650390625
			vertex 0.06173714447021485 0.12895120239257812 0.26702691650390625
			vertex 0.063 0.1286999969482422 0.26702691650390625
		endloop
	endfacet
	facet normal 0 0 -1
		outer loop
			vertex 0.098 0.07200000000000001 0.26702691650390625
			vertex 0.09 0.0745 0.26702691650390625
			vertex 0.09248744201660157 0.07499478149414063 0.26702691650390625
		endloop
	endfacet
	facet normal 0 0 -1
		outer loop
			vertex 0.09600521850585937 0.07851255798339844 0.26702691650390625
			vertex 0.098 0.07200000000000001 0.26702691650390625
			vertex 0.09459619140625 0.07640380859375 0.26702691650390625
		endloop
	endfacet
	facet normal 0 0 -1
		outer loop
			vertex 0.09248744201660157 0.07499478149414063 0.26702691650390625
			vertex 0.09459619140625 0.07640380859375 0.26702691650390625
			vertex 0.098 0.07200000000000001 0.26702691650390625
		endloop
	endfacet
	facet normal 0 0 -1
		outer loop
			vertex 0.0965 0.081 0.26702691650390625
			vertex 0.098 0.07200000000000001 0.26702691650390625
			vertex 0.09600521850585937 0.07851255798339844 0.26702691650390625
		endloop
	endfacet
	facet normal 0 0 -1
		outer loop
			vertex 0.098 0.07200000000000001 0.26702691650390625
			vertex 0.082 0.07200000000000001 0.26702691650390625
			vertex 0.09 0.0745 0.26702691650390625
		endloop
	endfacet
	facet normal 0 0 -1
		outer loop
			vertex 0.082 0.097 0.26702691650390625
			vertex 0.09248744201660157 0.08700521850585938 0.26702691650390625
			vertex 0.09 0.08750000000000001 0.26702691650390625
		endloop
	endfacet
	facet normal 0 0 -1
		outer loop
			vertex 0.098 0.137 0.26702691650390625
			vertex 0.0965 0.081 0.26702691650390625
			vertex 0.09600521850585937 0.08348744201660156 0.26702691650390625
		endloop
	endfacet
	facet normal 0 0 -1
		outer loop
			vertex 0.098 0.137 0.26702691650390625
			vertex 0.09600521850585937 0.08348744201660156 0.26702691650390625
			vertex 0.09459619140625 0.08559619140625001 0.26702691650390625
		endloop
	endfacet
	facet normal 0 0 -1
		outer loop
			vertex 0.098 0.137 0.26702691650390625
			vertex 0.09248744201660157 0.08700521850585938 0.26702691650390625
			vertex 0.082 0.097 0.26702691650390625
		endloop
	endfacet
	facet normal 0 0 -1
		outer loop
			vertex 0.0965 0.081 0.26702691650390625
			vertex 0.098 0.137 0.26702691650390625
			vertex 0.098 0.07200000000000001 0.26702691650390625
		endloop
	endfacet
	facet normal 0 0 -1
		outer loop
			vertex 0.09459619140625 0.08559619140625001 0.26702691650390625
			vertex 0.09248744201660157 0.08700521850585938 0.26702691650390625
			vertex 0.098 0.137 0.26702691650390625
		endloop
	endfacet
	facet normal 0 0 -1
		outer loop
			vertex 0.033 0.137 0.26702691650390625
			vertex 0.05970000076293946 0.132 0.26702691650390625
			vertex 0.05995119857788086 0.13073715209960937 0.26702691650390625
		endloop
	endfacet
	facet normal 0 0 -1
		outer loop
			vertex 0.06173714447021485 0.12895120239257812 0.26702691650390625
			vertex 0.035333454132080076 0.10433345031738281 0.26702691650390625
			vertex 0.060666545867919926 0.12966654968261718 0.26702691650390625
		endloop
	endfacet
	facet normal 0 0 -1
		outer loop
			vertex 0.05995119857788086 0.13073715209960937 0.26702691650390625
			vertex 0.060666545867919926 0.12966654968261718 0.26702691650390625
			vertex 0.034262855529785155 0.10504880523681641 0.26702691650390625
		endloop
	endfacet
	facet normal 0 0 -1
		outer loop
			vertex 0.060666545867919926 0.1343334503173828 0.26702691650390625
			vertex 0.033 0.137 0.26702691650390625
			vertex 0.063 0.137 0.26702691650390625
		endloop
	endfacet
	facet normal 0 0 -1
		outer loop
			vertex 0.063 0.137 0.26702691650390625
			vertex 0.033 0.137 0.26702691650390625
			vertex 0.063 0.16 0.26702691650390625
		endloop
	endfacet
	facet normal 0 0 -1
		outer loop
			vertex 0.06173714447021485 0.1350487976074219 0.26702691650390625
			vertex 0.063 0.137 0.26702691650390625
			vertex 0.063 0.13530000305175782 0.26702691650390625
		endloop
	endfacet
	facet normal 0 0 -1
		outer loop
			vertex 0.06173714447021485 0.1350487976074219 0.26702691650390625
			vertex 0.060666545867919926 0.1343334503173828 0.26702691650390625
			vertex 0.063 0.137 0.26702691650390625
		endloop
	endfacet
	facet normal 0 0 -1
		outer loop
			vertex 0.060666545867919926 0.1343334503173828 0.26702691650390625
			vertex 0.05995119857788086 0.13326284790039064 0.26702691650390625
			vertex 0.033 0.137 0.26702691650390625
		endloop
	endfacet
	facet normal 0 0 -1
		outer loop
			vertex 0.05970000076293946 0.132 0.26702691650390625
			vertex 0.033 0.137 0.26702691650390625
			vertex 0.05995119857788086 0.13326284790039064 0.26702691650390625
		endloop
	endfacet
	facet normal 0 0 -1
		outer loop
			vertex 0.082 0.097 0.26702691650390625
			vertex 0.063 0.1286999969482422 0.26702691650390625
			vertex 0.06426285552978515 0.12895120239257812 0.26702691650390625
		endloop
	endfacet
	facet normal 0 0 -1
		outer loop
			vertex 0.098 0.137 0.26702691650390625
			vertex 0.06533345031738282 0.12966654968261718 0.26702691650390625
			vertex 0.0660488052368164 0.13073715209960937 0.26702691650390625
		endloop
	endfacet
	facet normal 0 0 -1
		outer loop
			vertex 0.098 0.137 0.26702691650390625
			vertex 0.0660488052368164 0.13073715209960937 0.26702691650390625
			vertex 0.06630000305175782 0.132 0.26702691650390625
		endloop
	endfacet
	facet normal 0 0 -1
		outer loop
			vertex 0.06426285552978515 0.12895120239257812 0.26702691650390625
			vertex 0.06533345031738282 0.12966654968261718 0.26702691650390625
			vertex 0.082 0.097 0.26702691650390625
		endloop
	endfacet
	facet normal 0 0 -1
		outer loop
			vertex 0.06426285552978515 0.1350487976074219 0.26702691650390625
			vertex 0.063 0.137 0.26702691650390625
			vertex 0.06533345031738282 0.1343334503173828 0.26702691650390625
		endloop
	endfacet
	facet normal 0 0 -1
		outer loop
			vertex 0.098 0.137 0.26702691650390625
			vertex 0.0660488052368164 0.13326284790039064 0.26702691650390625
			vertex 0.06533345031738282 0.1343334503173828 0.26702691650390625
		endloop
	endfacet
	facet normal 0 0 -1
		outer loop
			vertex 0.06630000305175782 0.132 0.26702691650390625
			vertex 0.0660488052368164 0.13326284790039064 0.26702691650390625
			vertex 0.098 0.137 0.26702691650390625
		endloop
	endfacet
	facet normal 0 0 -1
		outer loop
			vertex 0.06533345031738282 0.1343334503173828 0.26702691650390625
			vertex 0.063 0.137 0.26702691650390625
			vertex 0.098 0.137 0.26702691650390625
		endloop
	endfacet
	facet normal 0 0 -1
		outer loop
			vertex 0.063 0.13530000305175782 0.26702691650390625
			vertex 0.063 0.137 0.26702691650390625
			vertex 0.06426285552978515 0.1350487976074219 0.26702691650390625
		endloop
	endfacet
	facet normal 0 0 -1
		outer loop
			vertex 0.06533345031738282 0.12966654968261718 0.26702691650390625
			vertex 0.098 0.137 0.26702691650390625
			vertex 0.082 0.097 0.26702691650390625
		endloop
	endfacet
	facet normal 0 0 -1
		outer loop
			vertex 0.048 0.097 0.26702691650390625
			vertex 0.035333454132080076 0.10433345031738281 0.26702691650390625
			vertex 0.06173714447021485 0.12895120239257812 0.26702691650390625
		endloop
	endfacet
	facet normal 0 0 -1
		outer loop
			vertex 0.048 0.097 0.26702691650390625
			vertex 0.063 0.1286999969482422 0.26702691650390625
			vertex 0.082 0.097 0.26702691650390625
		endloop
	endfacet
	facet normal 0 0 -1
		outer loop
			vertex 0.031 0.097 0.26702691650390625
			vertex 0.03173714447021484 0.09895119476318359 0.26702691650390625
			vertex 0.033 0.09869999694824219 0.26702691650390625
		endloop
	endfacet
	facet normal 0 0 -1
		outer loop
			vertex 0.082 0.07200000000000001 0.26702691650390625
			vertex 0.082 0.0845 0.26702691650390625
			vertex 0.0835 0.081 0.26702691650390625
		endloop
	endfacet
	facet normal 0 0 -1
		outer loop
			vertex 0.031 0.097 0.26702691650390625
			vertex 0.030666547775268557 0.09966654968261719 0.26702691650390625
			vertex 0.03173714447021484 0.09895119476318359 0.26702691650390625
		endloop
	endfacet
	facet normal 0 0 -1
		outer loop
			vertex 0.0125 0.081 0.26702691650390625
			vertex 0.014 0.0845 0.26702691650390625
			vertex 0.014 0.07200000000000001 0.26702691650390625
		endloop
	endfacet
endsolid exported
