solid exported
	facet normal 0 1 0
		outer loop
			vertex 0.093 0.167 0.23902691650390626
			vertex 0.0867915496826172 0.167 0.24723536682128908
			vertex 0.08856702423095704 0.167 0.24989254760742188
		endloop
	endfacet
	facet normal 0 1 0
		outer loop
			vertex 0.0867915496826172 0.167 0.24723536682128908
			vertex 0.093 0.167 0.23902691650390626
			vertex 0.08413436126708984 0.167 0.24545989990234376
		endloop
	endfacet
	facet normal 0 1 0
		outer loop
			vertex 0.08856702423095704 0.167 0.24989254760742188
			vertex 0.08919049072265625 0.167 0.25302691650390624
			vertex 0.093 0.167 0.23902691650390626
		endloop
	endfacet
	facet normal 0 1 0
		outer loop
			vertex 0.093 0.167 0.23902691650390626
			vertex 0.08919049072265625 0.167 0.25302691650390624
			vertex 0.093 0.167 0.26702691650390625
		endloop
	endfacet
	facet normal 0 1 0
		outer loop
			vertex 0.07786563873291016 0.167 0.24545989990234376
			vertex 0.081 0.167 0.24483642578125
			vertex 0.093 0.167 0.23902691650390626
		endloop
	endfacet
	facet normal 0 1 0
		outer loop
			vertex 0.07343297576904297 0.167 0.24989254760742188
			vertex 0.07520845031738281 0.167 0.24723536682128908
			vertex 0.05324264144897461 0.167 0.2487842712402344
		endloop
	endfacet
	facet normal 0 1 0
		outer loop
			vertex 0.07786563873291016 0.167 0.24545989990234376
			vertex 0.05129610061645508 0.167 0.247483642578125
			vertex 0.07520845031738281 0.167 0.24723536682128908
		endloop
	endfacet
	facet normal 0 1 0
		outer loop
			vertex 0.081 0.167 0.24483642578125
			vertex 0.08413436126708984 0.167 0.24545989990234376
			vertex 0.093 0.167 0.23902691650390626
		endloop
	endfacet
	facet normal 0 1 0
		outer loop
			vertex 0.093 0.167 0.23902691650390626
			vertex 0.028 0.167 0.23902691650390626
			vertex 0.07786563873291016 0.167 0.24545989990234376
		endloop
	endfacet
	facet normal 0 1 0
		outer loop
			vertex 0.08856702423095704 0.167 0.2561612854003906
			vertex 0.0867915496826172 0.167 0.2588184814453125
			vertex 0.093 0.167 0.26702691650390625
		endloop
	endfacet
	facet normal 0 1 0
		outer loop
			vertex 0.093 0.167 0.26702691650390625
			vertex 0.08413436126708984 0.167 0.26059393310546874
			vertex 0.081 0.167 0.2612174072265625
		endloop
	endfacet
	facet normal 0 1 0
		outer loop
			vertex 0.08413436126708984 0.167 0.26059393310546874
			vertex 0.093 0.167 0.26702691650390625
			vertex 0.0867915496826172 0.167 0.2588184814453125
		endloop
	endfacet
	facet normal 0 1 0
		outer loop
			vertex 0.08856702423095704 0.167 0.2561612854003906
			vertex 0.093 0.167 0.26702691650390625
			vertex 0.08919049072265625 0.167 0.25302691650390624
		endloop
	endfacet
	facet normal 0 1 0
		outer loop
			vertex 0.07343297576904297 0.167 0.2561612854003906
			vertex 0.07280950927734375 0.167 0.25302691650390624
			vertex 0.05454327774047852 0.167 0.2553230133056641
		endloop
	endfacet
	facet normal 0 1 0
		outer loop
			vertex 0.07786563873291016 0.167 0.26059393310546874
			vertex 0.07520845031738281 0.167 0.2588184814453125
			vertex 0.05129610061645508 0.167 0.2585701904296875
		endloop
	endfacet
	facet normal 0 1 0
		outer loop
			vertex 0.081 0.167 0.2612174072265625
			vertex 0.07786563873291016 0.167 0.26059393310546874
			vertex 0.093 0.167 0.26702691650390625
		endloop
	endfacet
	facet normal 0 1 0
		outer loop
			vertex 0.07343297576904297 0.167 0.2561612854003906
			vertex 0.05324264144897461 0.167 0.25726956176757815
			vertex 0.07520845031738281 0.167 0.2588184814453125
		endloop
	endfacet
	facet normal 0 1 0
		outer loop
			vertex 0.093 0.167 0.26702691650390625
			vertex 0.07786563873291016 0.167 0.26059393310546874
			vertex 0.028 0.167 0.26702691650390625
		endloop
	endfacet
	facet normal 0 1 0
		outer loop
			vertex 0.07343297576904297 0.167 0.24989254760742188
			vertex 0.05454327774047852 0.167 0.25073081970214844
			vertex 0.07280950927734375 0.167 0.25302691650390624
		endloop
	endfacet
	facet normal 0 1 0
		outer loop
			vertex 0.05129610061645508 0.167 0.247483642578125
			vertex 0.07786563873291016 0.167 0.24545989990234376
			vertex 0.049 0.167 0.24702691650390626
		endloop
	endfacet
	facet normal 0 1 0
		outer loop
			vertex 0.05324264144897461 0.167 0.2487842712402344
			vertex 0.05454327774047852 0.167 0.25073081970214844
			vertex 0.07343297576904297 0.167 0.24989254760742188
		endloop
	endfacet
	facet normal 0 1 0
		outer loop
			vertex 0.05129610061645508 0.167 0.247483642578125
			vertex 0.05324264144897461 0.167 0.2487842712402344
			vertex 0.07520845031738281 0.167 0.24723536682128908
		endloop
	endfacet
	facet normal 0 1 0
		outer loop
			vertex 0.046703899383544925 0.167 0.247483642578125
			vertex 0.028 0.167 0.23902691650390626
			vertex 0.04475735855102539 0.167 0.2487842712402344
		endloop
	endfacet
	facet normal 0 1 0
		outer loop
			vertex 0.028 0.167 0.23902691650390626
			vertex 0.046703899383544925 0.167 0.247483642578125
			vertex 0.049 0.167 0.24702691650390626
		endloop
	endfacet
	facet normal 0 1 0
		outer loop
			vertex 0.043456722259521484 0.167 0.25073081970214844
			vertex 0.04475735855102539 0.167 0.2487842712402344
			vertex 0.028 0.167 0.23902691650390626
		endloop
	endfacet
	facet normal 0 1 0
		outer loop
			vertex 0.043000000000000003 0.167 0.25302691650390624
			vertex 0.043456722259521484 0.167 0.25073081970214844
			vertex 0.028 0.167 0.23902691650390626
		endloop
	endfacet
	facet normal 0 1 0
		outer loop
			vertex 0.028 0.167 0.23902691650390626
			vertex 0.028 0.167 0.26702691650390625
			vertex 0.043000000000000003 0.167 0.25302691650390624
		endloop
	endfacet
	facet normal 0 1 0
		outer loop
			vertex 0.07786563873291016 0.167 0.24545989990234376
			vertex 0.028 0.167 0.23902691650390626
			vertex 0.049 0.167 0.24702691650390626
		endloop
	endfacet
	facet normal 0 1 0
		outer loop
			vertex 0.055 0.167 0.25302691650390624
			vertex 0.05454327774047852 0.167 0.2553230133056641
			vertex 0.07280950927734375 0.167 0.25302691650390624
		endloop
	endfacet
	facet normal 0 1 0
		outer loop
			vertex 0.05324264144897461 0.167 0.25726956176757815
			vertex 0.05129610061645508 0.167 0.2585701904296875
			vertex 0.07520845031738281 0.167 0.2588184814453125
		endloop
	endfacet
	facet normal 0 1 0
		outer loop
			vertex 0.05454327774047852 0.167 0.2553230133056641
			vertex 0.05324264144897461 0.167 0.25726956176757815
			vertex 0.07343297576904297 0.167 0.2561612854003906
		endloop
	endfacet
	facet normal 0 1 0
		outer loop
			vertex 0.04475735855102539 0.167 0.25726956176757815
			vertex 0.043456722259521484 0.167 0.2553230133056641
			vertex 0.028 0.167 0.26702691650390625
		endloop
	endfacet
	facet normal 0 1 0
		outer loop
			vertex 0.049 0.167 0.25902691650390625
			vertex 0.046703899383544925 0.167 0.2585701904296875
			vertex 0.028 0.167 0.26702691650390625
		endloop
	endfacet
	facet normal 0 1 0
		outer loop
			vertex 0.028 0.167 0.26702691650390625
			vertex 0.046703899383544925 0.167 0.2585701904296875
			vertex 0.04475735855102539 0.167 0.25726956176757815
		endloop
	endfacet
	facet normal 0 1 0
		outer loop
			vertex 0.028 0.167 0.26702691650390625
			vertex 0.07786563873291016 0.167 0.26059393310546874
			vertex 0.049 0.167 0.25902691650390625
		endloop
	endfacet
	facet normal 0 1 0
		outer loop
			vertex 0.043456722259521484 0.167 0.2553230133056641
			vertex 0.043000000000000003 0.167 0.25302691650390624
			vertex 0.028 0.167 0.26702691650390625
		endloop
	endfacet
	facet normal 0 1 0
		outer loop
			vertex 0.049 0.167 0.25902691650390625
			vertex 0.07786563873291016 0.167 0.26059393310546874
			vertex 0.05129610061645508 0.167 0.2585701904296875
		endloop
	endfacet
	facet normal 0 1 0
		outer loop
			vertex 0.05454327774047852 0.167 0.25073081970214844
			vertex 0.055 0.167 0.25302691650390624
			vertex 0.07280950927734375 0.167 0.25302691650390624
		endloop
	endfacet
	facet normal 1 0 0
		outer loop
			vertex 0.093 0.151 0.26702691650390625
			vertex 0.093 0.151 0.23902691650390626
			vertex 0.093 0.167 0.23902691650390626
		endloop
	endfacet
	facet normal 1 0 0
		outer loop
			vertex 0.093 0.167 0.23902691650390626
			vertex 0.093 0.167 0.26702691650390625
			vertex 0.093 0.151 0.26702691650390625
		endloop
	endfacet
	facet normal 0 -1 0
		outer loop
			vertex 0.068 0.151 0.23902691650390626
			vertex 0.07343297576904297 0.151 0.24989254760742188
			vertex 0.07280950927734375 0.151 0.25302691650390624
		endloop
	endfacet
	facet normal 0 -1 0
		outer loop
			vertex 0.07343297576904297 0.151 0.24989254760742188
			vertex 0.068 0.151 0.23902691650390626
			vertex 0.07520845031738281 0.151 0.24723536682128908
		endloop
	endfacet
	facet normal 0 -1 0
		outer loop
			vertex 0.07786563873291016 0.151 0.24545989990234376
			vertex 0.07520845031738281 0.151 0.24723536682128908
			vertex 0.068 0.151 0.23902691650390626
		endloop
	endfacet
	facet normal 0 -1 0
		outer loop
			vertex 0.081 0.151 0.24483642578125
			vertex 0.07786563873291016 0.151 0.24545989990234376
			vertex 0.068 0.151 0.23902691650390626
		endloop
	endfacet
	facet normal 0 -1 0
		outer loop
			vertex 0.068 0.151 0.23902691650390626
			vertex 0.093 0.151 0.23902691650390626
			vertex 0.081 0.151 0.24483642578125
		endloop
	endfacet
	facet normal 0 -1 0
		outer loop
			vertex 0.068 0.151 0.26702691650390625
			vertex 0.07280950927734375 0.151 0.25302691650390624
			vertex 0.07343297576904297 0.151 0.2561612854003906
		endloop
	endfacet
	facet normal 0 -1 0
		outer loop
			vertex 0.07280950927734375 0.151 0.25302691650390624
			vertex 0.068 0.151 0.26702691650390625
			vertex 0.068 0.151 0.23902691650390626
		endloop
	endfacet
	facet normal 0 -1 0
		outer loop
			vertex 0.07520845031738281 0.151 0.2588184814453125
			vertex 0.07786563873291016 0.151 0.26059393310546874
			vertex 0.068 0.151 0.26702691650390625
		endloop
	endfacet
	facet normal 0 -1 0
		outer loop
			vertex 0.07343297576904297 0.151 0.2561612854003906
			vertex 0.07520845031738281 0.151 0.2588184814453125
			vertex 0.068 0.151 0.26702691650390625
		endloop
	endfacet
	facet normal 0 -1 0
		outer loop
			vertex 0.068 0.151 0.26702691650390625
			vertex 0.07786563873291016 0.151 0.26059393310546874
			vertex 0.081 0.151 0.2612174072265625
		endloop
	endfacet
	facet normal 0 -1 0
		outer loop
			vertex 0.0867915496826172 0.151 0.24723536682128908
			vertex 0.08413436126708984 0.151 0.24545989990234376
			vertex 0.093 0.151 0.23902691650390626
		endloop
	endfacet
	facet normal 0 -1 0
		outer loop
			vertex 0.08856702423095704 0.151 0.24989254760742188
			vertex 0.093 0.151 0.23902691650390626
			vertex 0.08919049072265625 0.151 0.25302691650390624
		endloop
	endfacet
	facet normal 0 -1 0
		outer loop
			vertex 0.093 0.151 0.23902691650390626
			vertex 0.08856702423095704 0.151 0.24989254760742188
			vertex 0.0867915496826172 0.151 0.24723536682128908
		endloop
	endfacet
	facet normal 0 -1 0
		outer loop
			vertex 0.08919049072265625 0.151 0.25302691650390624
			vertex 0.093 0.151 0.23902691650390626
			vertex 0.093 0.151 0.26702691650390625
		endloop
	endfacet
	facet normal 0 -1 0
		outer loop
			vertex 0.08413436126708984 0.151 0.24545989990234376
			vertex 0.081 0.151 0.24483642578125
			vertex 0.093 0.151 0.23902691650390626
		endloop
	endfacet
	facet normal 0 -1 0
		outer loop
			vertex 0.081 0.151 0.2612174072265625
			vertex 0.08413436126708984 0.151 0.26059393310546874
			vertex 0.093 0.151 0.26702691650390625
		endloop
	endfacet
	facet normal 0 -1 0
		outer loop
			vertex 0.0867915496826172 0.151 0.2588184814453125
			vertex 0.08856702423095704 0.151 0.2561612854003906
			vertex 0.093 0.151 0.26702691650390625
		endloop
	endfacet
	facet normal 0 -1 0
		outer loop
			vertex 0.093 0.151 0.26702691650390625
			vertex 0.08856702423095704 0.151 0.2561612854003906
			vertex 0.08919049072265625 0.151 0.25302691650390624
		endloop
	endfacet
	facet normal 0 -1 0
		outer loop
			vertex 0.0867915496826172 0.151 0.2588184814453125
			vertex 0.093 0.151 0.26702691650390625
			vertex 0.08413436126708984 0.151 0.26059393310546874
		endloop
	endfacet
	facet normal 0 -1 0
		outer loop
			vertex 0.081 0.151 0.2612174072265625
			vertex 0.093 0.151 0.26702691650390625
			vertex 0.068 0.151 0.26702691650390625
		endloop
	endfacet
	facet normal 1 0 0
		outer loop
			vertex 0.068 0.083 0.26702691650390625
			vertex 0.068 0.083 0.23902691650390626
			vertex 0.068 0.151 0.23902691650390626
		endloop
	endfacet
	facet normal 1 0 0
		outer loop
			vertex 0.068 0.151 0.23902691650390626
			vertex 0.068 0.151 0.26702691650390625
			vertex 0.068 0.083 0.26702691650390625
		endloop
	endfacet
	facet normal 0 1 0
		outer loop
			vertex 0.093 0.083 0.23902691650390626
			vertex 0.08856702423095704 0.083 0.24989254760742188
			vertex 0.08919049072265625 0.083 0.25302691650390624
		endloop
	endfacet
	facet normal 0 1 0
		outer loop
			vertex 0.08856702423095704 0.083 0.24989254760742188
			vertex 0.093 0.083 0.23902691650390626
			vertex 0.0867915496826172 0.083 0.24723536682128908
		endloop
	endfacet
	facet normal 0 1 0
		outer loop
			vertex 0.08413436126708984 0.083 0.24545989990234376
			vertex 0.0867915496826172 0.083 0.24723536682128908
			vertex 0.093 0.083 0.23902691650390626
		endloop
	endfacet
	facet normal 0 1 0
		outer loop
			vertex 0.081 0.083 0.24483642578125
			vertex 0.08413436126708984 0.083 0.24545989990234376
			vertex 0.093 0.083 0.23902691650390626
		endloop
	endfacet
	facet normal 0 1 0
		outer loop
			vertex 0.093 0.083 0.23902691650390626
			vertex 0.068 0.083 0.23902691650390626
			vertex 0.081 0.083 0.24483642578125
		endloop
	endfacet
	facet normal 0 1 0
		outer loop
			vertex 0.093 0.083 0.26702691650390625
			vertex 0.08919049072265625 0.083 0.25302691650390624
			vertex 0.08856702423095704 0.083 0.2561612854003906
		endloop
	endfacet
	facet normal 0 1 0
		outer loop
			vertex 0.08919049072265625 0.083 0.25302691650390624
			vertex 0.093 0.083 0.26702691650390625
			vertex 0.093 0.083 0.23902691650390626
		endloop
	endfacet
	facet normal 0 1 0
		outer loop
			vertex 0.0867915496826172 0.083 0.2588184814453125
			vertex 0.08413436126708984 0.083 0.26059393310546874
			vertex 0.093 0.083 0.26702691650390625
		endloop
	endfacet
	facet normal 0 1 0
		outer loop
			vertex 0.08856702423095704 0.083 0.2561612854003906
			vertex 0.0867915496826172 0.083 0.2588184814453125
			vertex 0.093 0.083 0.26702691650390625
		endloop
	endfacet
	facet normal 0 1 0
		outer loop
			vertex 0.093 0.083 0.26702691650390625
			vertex 0.08413436126708984 0.083 0.26059393310546874
			vertex 0.081 0.083 0.2612174072265625
		endloop
	endfacet
	facet normal 0 1 0
		outer loop
			vertex 0.07520845031738281 0.083 0.24723536682128908
			vertex 0.07786563873291016 0.083 0.24545989990234376
			vertex 0.068 0.083 0.23902691650390626
		endloop
	endfacet
	facet normal 0 1 0
		outer loop
			vertex 0.07343297576904297 0.083 0.24989254760742188
			vertex 0.068 0.083 0.23902691650390626
			vertex 0.07280950927734375 0.083 0.25302691650390624
		endloop
	endfacet
	facet normal 0 1 0
		outer loop
			vertex 0.068 0.083 0.23902691650390626
			vertex 0.07343297576904297 0.083 0.24989254760742188
			vertex 0.07520845031738281 0.083 0.24723536682128908
		endloop
	endfacet
	facet normal 0 1 0
		outer loop
			vertex 0.07280950927734375 0.083 0.25302691650390624
			vertex 0.068 0.083 0.23902691650390626
			vertex 0.068 0.083 0.26702691650390625
		endloop
	endfacet
	facet normal 0 1 0
		outer loop
			vertex 0.07786563873291016 0.083 0.24545989990234376
			vertex 0.081 0.083 0.24483642578125
			vertex 0.068 0.083 0.23902691650390626
		endloop
	endfacet
	facet normal 0 1 0
		outer loop
			vertex 0.081 0.083 0.2612174072265625
			vertex 0.07786563873291016 0.083 0.26059393310546874
			vertex 0.068 0.083 0.26702691650390625
		endloop
	endfacet
	facet normal 0 1 0
		outer loop
			vertex 0.07520845031738281 0.083 0.2588184814453125
			vertex 0.07343297576904297 0.083 0.2561612854003906
			vertex 0.068 0.083 0.26702691650390625
		endloop
	endfacet
	facet normal 0 1 0
		outer loop
			vertex 0.068 0.083 0.26702691650390625
			vertex 0.07343297576904297 0.083 0.2561612854003906
			vertex 0.07280950927734375 0.083 0.25302691650390624
		endloop
	endfacet
	facet normal 0 1 0
		outer loop
			vertex 0.07520845031738281 0.083 0.2588184814453125
			vertex 0.068 0.083 0.26702691650390625
			vertex 0.07786563873291016 0.083 0.26059393310546874
		endloop
	endfacet
	facet normal 0 1 0
		outer loop
			vertex 0.081 0.083 0.2612174072265625
			vertex 0.068 0.083 0.26702691650390625
			vertex 0.093 0.083 0.26702691650390625
		endloop
	endfacet
	facet normal 1 0 0
		outer loop
			vertex 0.093 0.067 0.26702691650390625
			vertex 0.093 0.067 0.23902691650390626
			vertex 0.093 0.083 0.23902691650390626
		endloop
	endfacet
	facet normal 1 0 0
		outer loop
			vertex 0.093 0.083 0.23902691650390626
			vertex 0.093 0.083 0.26702691650390625
			vertex 0.093 0.067 0.26702691650390625
		endloop
	endfacet
	facet normal 0 -1 0
		outer loop
			vertex 0.028 0.067 0.23902691650390626
			vertex 0.04475735855102539 0.067 0.2487842712402344
			vertex 0.043456722259521484 0.067 0.25073081970214844
		endloop
	endfacet
	facet normal 0 -1 0
		outer loop
			vertex 0.04475735855102539 0.067 0.2487842712402344
			vertex 0.028 0.067 0.23902691650390626
			vertex 0.046703899383544925 0.067 0.247483642578125
		endloop
	endfacet
	facet normal 0 -1 0
		outer loop
			vertex 0.043456722259521484 0.067 0.25073081970214844
			vertex 0.043000000000000003 0.067 0.25302691650390624
			vertex 0.028 0.067 0.23902691650390626
		endloop
	endfacet
	facet normal 0 -1 0
		outer loop
			vertex 0.028 0.067 0.23902691650390626
			vertex 0.043000000000000003 0.067 0.25302691650390624
			vertex 0.028 0.067 0.26702691650390625
		endloop
	endfacet
	facet normal 0 -1 0
		outer loop
			vertex 0.049 0.067 0.24702691650390626
			vertex 0.046703899383544925 0.067 0.247483642578125
			vertex 0.028 0.067 0.23902691650390626
		endloop
	endfacet
	facet normal 0 -1 0
		outer loop
			vertex 0.05324264144897461 0.067 0.2487842712402344
			vertex 0.05129610061645508 0.067 0.247483642578125
			vertex 0.07520845031738281 0.067 0.24723536682128908
		endloop
	endfacet
	facet normal 0 -1 0
		outer loop
			vertex 0.05454327774047852 0.067 0.25073081970214844
			vertex 0.05324264144897461 0.067 0.2487842712402344
			vertex 0.07343297576904297 0.067 0.24989254760742188
		endloop
	endfacet
	facet normal 0 -1 0
		outer loop
			vertex 0.05129610061645508 0.067 0.247483642578125
			vertex 0.049 0.067 0.24702691650390626
			vertex 0.07786563873291016 0.067 0.24545989990234376
		endloop
	endfacet
	facet normal 0 -1 0
		outer loop
			vertex 0.049 0.067 0.24702691650390626
			vertex 0.028 0.067 0.23902691650390626
			vertex 0.07786563873291016 0.067 0.24545989990234376
		endloop
	endfacet
	facet normal 0 -1 0
		outer loop
			vertex 0.043456722259521484 0.067 0.2553230133056641
			vertex 0.04475735855102539 0.067 0.25726956176757815
			vertex 0.028 0.067 0.26702691650390625
		endloop
	endfacet
	facet normal 0 -1 0
		outer loop
			vertex 0.028 0.067 0.26702691650390625
			vertex 0.046703899383544925 0.067 0.2585701904296875
			vertex 0.049 0.067 0.25902691650390625
		endloop
	endfacet
	facet normal 0 -1 0
		outer loop
			vertex 0.046703899383544925 0.067 0.2585701904296875
			vertex 0.028 0.067 0.26702691650390625
			vertex 0.04475735855102539 0.067 0.25726956176757815
		endloop
	endfacet
	facet normal 0 -1 0
		outer loop
			vertex 0.043456722259521484 0.067 0.2553230133056641
			vertex 0.028 0.067 0.26702691650390625
			vertex 0.043000000000000003 0.067 0.25302691650390624
		endloop
	endfacet
	facet normal 0 -1 0
		outer loop
			vertex 0.05454327774047852 0.067 0.2553230133056641
			vertex 0.055 0.067 0.25302691650390624
			vertex 0.07280950927734375 0.067 0.25302691650390624
		endloop
	endfacet
	facet normal 0 -1 0
		outer loop
			vertex 0.05129610061645508 0.067 0.2585701904296875
			vertex 0.05324264144897461 0.067 0.25726956176757815
			vertex 0.07520845031738281 0.067 0.2588184814453125
		endloop
	endfacet
	facet normal 0 -1 0
		outer loop
			vertex 0.028 0.067 0.26702691650390625
			vertex 0.049 0.067 0.25902691650390625
			vertex 0.07786563873291016 0.067 0.26059393310546874
		endloop
	endfacet
	facet normal 0 -1 0
		outer loop
			vertex 0.05454327774047852 0.067 0.2553230133056641
			vertex 0.07343297576904297 0.067 0.2561612854003906
			vertex 0.05324264144897461 0.067 0.25726956176757815
		endloop
	endfacet
	facet normal 0 -1 0
		outer loop
			vertex 0.07786563873291016 0.067 0.26059393310546874
			vertex 0.049 0.067 0.25902691650390625
			vertex 0.05129610061645508 0.067 0.2585701904296875
		endloop
	endfacet
	facet normal 0 -1 0
		outer loop
			vertex 0.05454327774047852 0.067 0.25073081970214844
			vertex 0.07280950927734375 0.067 0.25302691650390624
			vertex 0.055 0.067 0.25302691650390624
		endloop
	endfacet
	facet normal 0 -1 0
		outer loop
			vertex 0.081 0.067 0.24483642578125
			vertex 0.07786563873291016 0.067 0.24545989990234376
			vertex 0.093 0.067 0.23902691650390626
		endloop
	endfacet
	facet normal 0 -1 0
		outer loop
			vertex 0.07520845031738281 0.067 0.24723536682128908
			vertex 0.07343297576904297 0.067 0.24989254760742188
			vertex 0.05324264144897461 0.067 0.2487842712402344
		endloop
	endfacet
	facet normal 0 -1 0
		outer loop
			vertex 0.07786563873291016 0.067 0.24545989990234376
			vertex 0.07520845031738281 0.067 0.24723536682128908
			vertex 0.05129610061645508 0.067 0.247483642578125
		endloop
	endfacet
	facet normal 0 -1 0
		outer loop
			vertex 0.08413436126708984 0.067 0.24545989990234376
			vertex 0.093 0.067 0.23902691650390626
			vertex 0.0867915496826172 0.067 0.24723536682128908
		endloop
	endfacet
	facet normal 0 -1 0
		outer loop
			vertex 0.093 0.067 0.23902691650390626
			vertex 0.08413436126708984 0.067 0.24545989990234376
			vertex 0.081 0.067 0.24483642578125
		endloop
	endfacet
	facet normal 0 -1 0
		outer loop
			vertex 0.08856702423095704 0.067 0.24989254760742188
			vertex 0.0867915496826172 0.067 0.24723536682128908
			vertex 0.093 0.067 0.23902691650390626
		endloop
	endfacet
	facet normal 0 -1 0
		outer loop
			vertex 0.08919049072265625 0.067 0.25302691650390624
			vertex 0.08856702423095704 0.067 0.24989254760742188
			vertex 0.093 0.067 0.23902691650390626
		endloop
	endfacet
	facet normal 0 -1 0
		outer loop
			vertex 0.093 0.067 0.23902691650390626
			vertex 0.093 0.067 0.26702691650390625
			vertex 0.08919049072265625 0.067 0.25302691650390624
		endloop
	endfacet
	facet normal 0 -1 0
		outer loop
			vertex 0.07786563873291016 0.067 0.24545989990234376
			vertex 0.028 0.067 0.23902691650390626
			vertex 0.093 0.067 0.23902691650390626
		endloop
	endfacet
	facet normal 0 -1 0
		outer loop
			vertex 0.07280950927734375 0.067 0.25302691650390624
			vertex 0.07343297576904297 0.067 0.2561612854003906
			vertex 0.05454327774047852 0.067 0.2553230133056641
		endloop
	endfacet
	facet normal 0 -1 0
		outer loop
			vertex 0.07520845031738281 0.067 0.2588184814453125
			vertex 0.07786563873291016 0.067 0.26059393310546874
			vertex 0.05129610061645508 0.067 0.2585701904296875
		endloop
	endfacet
	facet normal 0 -1 0
		outer loop
			vertex 0.07343297576904297 0.067 0.2561612854003906
			vertex 0.07520845031738281 0.067 0.2588184814453125
			vertex 0.05324264144897461 0.067 0.25726956176757815
		endloop
	endfacet
	facet normal 0 -1 0
		outer loop
			vertex 0.0867915496826172 0.067 0.2588184814453125
			vertex 0.08856702423095704 0.067 0.2561612854003906
			vertex 0.093 0.067 0.26702691650390625
		endloop
	endfacet
	facet normal 0 -1 0
		outer loop
			vertex 0.081 0.067 0.2612174072265625
			vertex 0.08413436126708984 0.067 0.26059393310546874
			vertex 0.093 0.067 0.26702691650390625
		endloop
	endfacet
	facet normal 0 -1 0
		outer loop
			vertex 0.093 0.067 0.26702691650390625
			vertex 0.08413436126708984 0.067 0.26059393310546874
			vertex 0.0867915496826172 0.067 0.2588184814453125
		endloop
	endfacet
	facet normal 0 -1 0
		outer loop
			vertex 0.081 0.067 0.2612174072265625
			vertex 0.093 0.067 0.26702691650390625
			vertex 0.07786563873291016 0.067 0.26059393310546874
		endloop
	endfacet
	facet normal 0 -1 0
		outer loop
			vertex 0.08856702423095704 0.067 0.2561612854003906
			vertex 0.08919049072265625 0.067 0.25302691650390624
			vertex 0.093 0.067 0.26702691650390625
		endloop
	endfacet
	facet normal 0 -1 0
		outer loop
			vertex 0.07786563873291016 0.067 0.26059393310546874
			vertex 0.093 0.067 0.26702691650390625
			vertex 0.028 0.067 0.26702691650390625
		endloop
	endfacet
	facet normal 0 -1 0
		outer loop
			vertex 0.07343297576904297 0.067 0.24989254760742188
			vertex 0.07280950927734375 0.067 0.25302691650390624
			vertex 0.05454327774047852 0.067 0.25073081970214844
		endloop
	endfacet
	facet normal -1 0 0
		outer loop
			vertex 0.028 0.10200000000000001 0.26702691650390625
			vertex 0.028 0.10200000000000001 0.23902691650390626
			vertex 0.028 0.067 0.26702691650390625
		endloop
	endfacet
	facet normal -1 0 0
		outer loop
			vertex 0.028 0.067 0.23902691650390626
			vertex 0.028 0.067 0.26702691650390625
			vertex 0.028 0.10200000000000001 0.23902691650390626
		endloop
	endfacet
	facet normal 0 -1 0
		outer loop
			vertex 0.005 0.10200000000000001 0.23902691650390626
			vertex 0.009558631896972656 0.10200000000000001 0.24994459533691407
			vertex 0.008945521354675292 0.10200000000000001 0.25302691650390624
		endloop
	endfacet
	facet normal 0 -1 0
		outer loop
			vertex 0.009558631896972656 0.10200000000000001 0.24994459533691407
			vertex 0.005 0.10200000000000001 0.23902691650390626
			vertex 0.0113046236038208 0.10200000000000001 0.24733154296875
		endloop
	endfacet
	facet normal 0 -1 0
		outer loop
			vertex 0.013917684555053711 0.10200000000000001 0.24558555603027343
			vertex 0.0113046236038208 0.10200000000000001 0.24733154296875
			vertex 0.005 0.10200000000000001 0.23902691650390626
		endloop
	endfacet
	facet normal 0 -1 0
		outer loop
			vertex 0.017 0.10200000000000001 0.24497244262695314
			vertex 0.013917684555053711 0.10200000000000001 0.24558555603027343
			vertex 0.005 0.10200000000000001 0.23902691650390626
		endloop
	endfacet
	facet normal 0 -1 0
		outer loop
			vertex 0.005 0.10200000000000001 0.23902691650390626
			vertex 0.028 0.10200000000000001 0.23902691650390626
			vertex 0.017 0.10200000000000001 0.24497244262695314
		endloop
	endfacet
	facet normal 0 -1 0
		outer loop
			vertex 0.005 0.10200000000000001 0.26702691650390625
			vertex 0.008945521354675292 0.10200000000000001 0.25302691650390624
			vertex 0.009558631896972656 0.10200000000000001 0.25610922241210937
		endloop
	endfacet
	facet normal 0 -1 0
		outer loop
			vertex 0.008945521354675292 0.10200000000000001 0.25302691650390624
			vertex 0.005 0.10200000000000001 0.26702691650390625
			vertex 0.005 0.10200000000000001 0.23902691650390626
		endloop
	endfacet
	facet normal 0 -1 0
		outer loop
			vertex 0.0113046236038208 0.10200000000000001 0.2587222900390625
			vertex 0.013917684555053711 0.10200000000000001 0.2604682922363281
			vertex 0.005 0.10200000000000001 0.26702691650390625
		endloop
	endfacet
	facet normal 0 -1 0
		outer loop
			vertex 0.009558631896972656 0.10200000000000001 0.25610922241210937
			vertex 0.0113046236038208 0.10200000000000001 0.2587222900390625
			vertex 0.005 0.10200000000000001 0.26702691650390625
		endloop
	endfacet
	facet normal 0 -1 0
		outer loop
			vertex 0.005 0.10200000000000001 0.26702691650390625
			vertex 0.013917684555053711 0.10200000000000001 0.2604682922363281
			vertex 0.017 0.10200000000000001 0.26108139038085937
		endloop
	endfacet
	facet normal 0 -1 0
		outer loop
			vertex 0.022695377349853517 0.10200000000000001 0.24733154296875
			vertex 0.020082315444946288 0.10200000000000001 0.24558555603027343
			vertex 0.028 0.10200000000000001 0.23902691650390626
		endloop
	endfacet
	facet normal 0 -1 0
		outer loop
			vertex 0.024441368103027345 0.10200000000000001 0.24994459533691407
			vertex 0.028 0.10200000000000001 0.23902691650390626
			vertex 0.025054477691650392 0.10200000000000001 0.25302691650390624
		endloop
	endfacet
	facet normal 0 -1 0
		outer loop
			vertex 0.028 0.10200000000000001 0.23902691650390626
			vertex 0.024441368103027345 0.10200000000000001 0.24994459533691407
			vertex 0.022695377349853517 0.10200000000000001 0.24733154296875
		endloop
	endfacet
	facet normal 0 -1 0
		outer loop
			vertex 0.025054477691650392 0.10200000000000001 0.25302691650390624
			vertex 0.028 0.10200000000000001 0.23902691650390626
			vertex 0.028 0.10200000000000001 0.26702691650390625
		endloop
	endfacet
	facet normal 0 -1 0
		outer loop
			vertex 0.020082315444946288 0.10200000000000001 0.24558555603027343
			vertex 0.017 0.10200000000000001 0.24497244262695314
			vertex 0.028 0.10200000000000001 0.23902691650390626
		endloop
	endfacet
	facet normal 0 -1 0
		outer loop
			vertex 0.017 0.10200000000000001 0.26108139038085937
			vertex 0.020082315444946288 0.10200000000000001 0.2604682922363281
			vertex 0.028 0.10200000000000001 0.26702691650390625
		endloop
	endfacet
	facet normal 0 -1 0
		outer loop
			vertex 0.022695377349853517 0.10200000000000001 0.2587222900390625
			vertex 0.024441368103027345 0.10200000000000001 0.25610922241210937
			vertex 0.028 0.10200000000000001 0.26702691650390625
		endloop
	endfacet
	facet normal 0 -1 0
		outer loop
			vertex 0.028 0.10200000000000001 0.26702691650390625
			vertex 0.024441368103027345 0.10200000000000001 0.25610922241210937
			vertex 0.025054477691650392 0.10200000000000001 0.25302691650390624
		endloop
	endfacet
	facet normal 0 -1 0
		outer loop
			vertex 0.022695377349853517 0.10200000000000001 0.2587222900390625
			vertex 0.028 0.10200000000000001 0.26702691650390625
			vertex 0.020082315444946288 0.10200000000000001 0.2604682922363281
		endloop
	endfacet
	facet normal 0 -1 0
		outer loop
			vertex 0.017 0.10200000000000001 0.26108139038085937
			vertex 0.028 0.10200000000000001 0.26702691650390625
			vertex 0.005 0.10200000000000001 0.26702691650390625
		endloop
	endfacet
	facet normal -1 0 0
		outer loop
			vertex 0.005 0.132 0.26702691650390625
			vertex 0.005 0.132 0.23902691650390626
			vertex 0.005 0.10200000000000001 0.23902691650390626
		endloop
	endfacet
	facet normal -1 0 0
		outer loop
			vertex 0.005 0.10200000000000001 0.23902691650390626
			vertex 0.005 0.10200000000000001 0.26702691650390625
			vertex 0.005 0.132 0.26702691650390625
		endloop
	endfacet
	facet normal 0 1 0
		outer loop
			vertex 0.028 0.132 0.23902691650390626
			vertex 0.025054477691650392 0.132 0.25302691650390624
			vertex 0.028 0.132 0.26702691650390625
		endloop
	endfacet
	facet normal 0 1 0
		outer loop
			vertex 0.025054477691650392 0.132 0.25302691650390624
			vertex 0.028 0.132 0.23902691650390626
			vertex 0.024441368103027345 0.132 0.24994459533691407
		endloop
	endfacet
	facet normal 0 1 0
		outer loop
			vertex 0.022695377349853517 0.132 0.24733154296875
			vertex 0.024441368103027345 0.132 0.24994459533691407
			vertex 0.028 0.132 0.23902691650390626
		endloop
	endfacet
	facet normal 0 1 0
		outer loop
			vertex 0.020082315444946288 0.132 0.24558555603027343
			vertex 0.022695377349853517 0.132 0.24733154296875
			vertex 0.028 0.132 0.23902691650390626
		endloop
	endfacet
	facet normal 0 1 0
		outer loop
			vertex 0.028 0.132 0.23902691650390626
			vertex 0.017 0.132 0.24497244262695314
			vertex 0.020082315444946288 0.132 0.24558555603027343
		endloop
	endfacet
	facet normal 0 1 0
		outer loop
			vertex 0.028 0.132 0.26702691650390625
			vertex 0.024441368103027345 0.132 0.25610922241210937
			vertex 0.022695377349853517 0.132 0.2587222900390625
		endloop
	endfacet
	facet normal 0 1 0
		outer loop
			vertex 0.024441368103027345 0.132 0.25610922241210937
			vertex 0.028 0.132 0.26702691650390625
			vertex 0.025054477691650392 0.132 0.25302691650390624
		endloop
	endfacet
	facet normal 0 1 0
		outer loop
			vertex 0.020082315444946288 0.132 0.2604682922363281
			vertex 0.017 0.132 0.26108139038085937
			vertex 0.028 0.132 0.26702691650390625
		endloop
	endfacet
	facet normal 0 1 0
		outer loop
			vertex 0.022695377349853517 0.132 0.2587222900390625
			vertex 0.020082315444946288 0.132 0.2604682922363281
			vertex 0.028 0.132 0.26702691650390625
		endloop
	endfacet
	facet normal 0 1 0
		outer loop
			vertex 0.028 0.132 0.26702691650390625
			vertex 0.017 0.132 0.26108139038085937
			vertex 0.005 0.132 0.26702691650390625
		endloop
	endfacet
	facet normal 0 1 0
		outer loop
			vertex 0.013917684555053711 0.132 0.24558555603027343
			vertex 0.017 0.132 0.24497244262695314
			vertex 0.005 0.132 0.23902691650390626
		endloop
	endfacet
	facet normal 0 1 0
		outer loop
			vertex 0.0113046236038208 0.132 0.24733154296875
			vertex 0.005 0.132 0.23902691650390626
			vertex 0.009558631896972656 0.132 0.24994459533691407
		endloop
	endfacet
	facet normal 0 1 0
		outer loop
			vertex 0.005 0.132 0.23902691650390626
			vertex 0.0113046236038208 0.132 0.24733154296875
			vertex 0.013917684555053711 0.132 0.24558555603027343
		endloop
	endfacet
	facet normal 0 1 0
		outer loop
			vertex 0.009558631896972656 0.132 0.24994459533691407
			vertex 0.005 0.132 0.23902691650390626
			vertex 0.008945521354675292 0.132 0.25302691650390624
		endloop
	endfacet
	facet normal 0 1 0
		outer loop
			vertex 0.017 0.132 0.24497244262695314
			vertex 0.028 0.132 0.23902691650390626
			vertex 0.005 0.132 0.23902691650390626
		endloop
	endfacet
	facet normal 0 1 0
		outer loop
			vertex 0.013917684555053711 0.132 0.2604682922363281
			vertex 0.0113046236038208 0.132 0.2587222900390625
			vertex 0.005 0.132 0.26702691650390625
		endloop
	endfacet
	facet normal 0 1 0
		outer loop
			vertex 0.009558631896972656 0.132 0.25610922241210937
			vertex 0.008945521354675292 0.132 0.25302691650390624
			vertex 0.005 0.132 0.26702691650390625
		endloop
	endfacet
	facet normal 0 1 0
		outer loop
			vertex 0.005 0.132 0.26702691650390625
			vertex 0.008945521354675292 0.132 0.25302691650390624
			vertex 0.005 0.132 0.23902691650390626
		endloop
	endfacet
	facet normal 0 1 0
		outer loop
			vertex 0.009558631896972656 0.132 0.25610922241210937
			vertex 0.005 0.132 0.26702691650390625
			vertex 0.0113046236038208 0.132 0.2587222900390625
		endloop
	endfacet
	facet normal 0 1 0
		outer loop
			vertex 0.013917684555053711 0.132 0.2604682922363281
			vertex 0.005 0.132 0.26702691650390625
			vertex 0.017 0.132 0.26108139038085937
		endloop
	endfacet
	facet normal -1 0 0
		outer loop
			vertex 0.028 0.167 0.26702691650390625
			vertex 0.028 0.167 0.23902691650390626
			vertex 0.028 0.132 0.26702691650390625
		endloop
	endfacet
	facet normal -1 0 0
		outer loop
			vertex 0.028 0.132 0.23902691650390626
			vertex 0.028 0.132 0.26702691650390625
			vertex 0.028 0.167 0.23902691650390626
		endloop
	endfacet
	facet normal 0 0 1
		outer loop
			vertex 0.093 0.067 0.26702691650390625
			vertex 0.0905 0.075 0.26702691650390625
			vertex 0.09000521850585938 0.07251255798339844 0.26702691650390625
		endloop
	endfacet
	facet normal 0 0 1
		outer loop
			vertex 0.0905 0.075 0.26702691650390625
			vertex 0.093 0.067 0.26702691650390625
			vertex 0.093 0.083 0.26702691650390625
		endloop
	endfacet
	facet normal 0 0 1
		outer loop
			vertex 0.08859619140625 0.07040380859375 0.26702691650390625
			vertex 0.08648744201660157 0.06899478149414062 0.26702691650390625
			vertex 0.093 0.067 0.26702691650390625
		endloop
	endfacet
	facet normal 0 0 1
		outer loop
			vertex 0.09000521850585938 0.07251255798339844 0.26702691650390625
			vertex 0.08859619140625 0.07040380859375 0.26702691650390625
			vertex 0.093 0.067 0.26702691650390625
		endloop
	endfacet
	facet normal 0 0 1
		outer loop
			vertex 0.093 0.067 0.26702691650390625
			vertex 0.08648744201660157 0.06899478149414062 0.26702691650390625
			vertex 0.084 0.0685 0.26702691650390625
		endloop
	endfacet
	facet normal 0 0 1
		outer loop
			vertex 0.09000521850585938 0.07748744201660157 0.26702691650390625
			vertex 0.093 0.083 0.26702691650390625
			vertex 0.08859619140625 0.07959619140625 0.26702691650390625
		endloop
	endfacet
	facet normal 0 0 1
		outer loop
			vertex 0.093 0.083 0.26702691650390625
			vertex 0.09000521850585938 0.07748744201660157 0.26702691650390625
			vertex 0.0905 0.075 0.26702691650390625
		endloop
	endfacet
	facet normal 0 0 1
		outer loop
			vertex 0.08648744201660157 0.08100521850585937 0.26702691650390625
			vertex 0.08859619140625 0.07959619140625 0.26702691650390625
			vertex 0.093 0.083 0.26702691650390625
		endloop
	endfacet
	facet normal 0 0 1
		outer loop
			vertex 0.084 0.0815 0.26702691650390625
			vertex 0.08648744201660157 0.08100521850585937 0.26702691650390625
			vertex 0.093 0.083 0.26702691650390625
		endloop
	endfacet
	facet normal 0 0 1
		outer loop
			vertex 0.084 0.1525 0.26702691650390625
			vertex 0.0805 0.151 0.26702691650390625
			vertex 0.093 0.151 0.26702691650390625
		endloop
	endfacet
	facet normal 0 0 1
		outer loop
			vertex 0.084 0.0685 0.26702691650390625
			vertex 0.08151255798339845 0.06899478149414062 0.26702691650390625
			vertex 0.028 0.067 0.26702691650390625
		endloop
	endfacet
	facet normal 0 0 1
		outer loop
			vertex 0.07799478149414063 0.07251255798339844 0.26702691650390625
			vertex 0.0775 0.075 0.26702691650390625
			vertex 0.068 0.083 0.26702691650390625
		endloop
	endfacet
	facet normal 0 0 1
		outer loop
			vertex 0.028 0.067 0.26702691650390625
			vertex 0.07940380859375 0.07040380859375 0.26702691650390625
			vertex 0.07799478149414063 0.07251255798339844 0.26702691650390625
		endloop
	endfacet
	facet normal 0 0 1
		outer loop
			vertex 0.08151255798339845 0.06899478149414062 0.26702691650390625
			vertex 0.07940380859375 0.07040380859375 0.26702691650390625
			vertex 0.028 0.067 0.26702691650390625
		endloop
	endfacet
	facet normal 0 0 1
		outer loop
			vertex 0.08151255798339845 0.08100521850585937 0.26702691650390625
			vertex 0.0805 0.083 0.26702691650390625
			vertex 0.07940380859375 0.07959619140625 0.26702691650390625
		endloop
	endfacet
	facet normal 0 0 1
		outer loop
			vertex 0.07799478149414063 0.07748744201660157 0.26702691650390625
			vertex 0.07940380859375 0.07959619140625 0.26702691650390625
			vertex 0.068 0.083 0.26702691650390625
		endloop
	endfacet
	facet normal 0 0 1
		outer loop
			vertex 0.068 0.083 0.26702691650390625
			vertex 0.06426285552978515 0.09895119476318359 0.26702691650390625
			vertex 0.063 0.09869999694824219 0.26702691650390625
		endloop
	endfacet
	facet normal 0 0 1
		outer loop
			vertex 0.06426285552978515 0.09895119476318359 0.26702691650390625
			vertex 0.068 0.083 0.26702691650390625
			vertex 0.068 0.1 0.26702691650390625
		endloop
	endfacet
	facet normal 0 0 1
		outer loop
			vertex 0.068 0.083 0.26702691650390625
			vertex 0.063 0.09869999694824219 0.26702691650390625
			vertex 0.06173714447021485 0.09895119476318359 0.26702691650390625
		endloop
	endfacet
	facet normal 0 0 1
		outer loop
			vertex 0.07940380859375 0.07959619140625 0.26702691650390625
			vertex 0.0805 0.083 0.26702691650390625
			vertex 0.068 0.083 0.26702691650390625
		endloop
	endfacet
	facet normal 0 0 1
		outer loop
			vertex 0.07799478149414063 0.07748744201660157 0.26702691650390625
			vertex 0.068 0.083 0.26702691650390625
			vertex 0.0775 0.075 0.26702691650390625
		endloop
	endfacet
	facet normal 0 0 1
		outer loop
			vertex 0.028 0.067 0.26702691650390625
			vertex 0.07799478149414063 0.07251255798339844 0.26702691650390625
			vertex 0.068 0.083 0.26702691650390625
		endloop
	endfacet
	facet normal 0 0 1
		outer loop
			vertex 0.093 0.067 0.26702691650390625
			vertex 0.084 0.0685 0.26702691650390625
			vertex 0.028 0.067 0.26702691650390625
		endloop
	endfacet
	facet normal 0 0 1
		outer loop
			vertex 0.0660488052368164 0.10073714447021484 0.26702691650390625
			vertex 0.06533345031738282 0.09966654968261719 0.26702691650390625
			vertex 0.068 0.1 0.26702691650390625
		endloop
	endfacet
	facet normal 0 0 1
		outer loop
			vertex 0.0660488052368164 0.10326285552978516 0.26702691650390625
			vertex 0.068 0.117 0.26702691650390625
			vertex 0.06533345031738282 0.10433345031738281 0.26702691650390625
		endloop
	endfacet
	facet normal 0 0 1
		outer loop
			vertex 0.068 0.1 0.26702691650390625
			vertex 0.068 0.117 0.26702691650390625
			vertex 0.0660488052368164 0.10326285552978516 0.26702691650390625
		endloop
	endfacet
	facet normal 0 0 1
		outer loop
			vertex 0.06426285552978515 0.09895119476318359 0.26702691650390625
			vertex 0.068 0.1 0.26702691650390625
			vertex 0.06533345031738282 0.09966654968261719 0.26702691650390625
		endloop
	endfacet
	facet normal 0 0 1
		outer loop
			vertex 0.06441421508789062 0.11558578491210937 0.26702691650390625
			vertex 0.06426285552978515 0.10504880523681641 0.26702691650390625
			vertex 0.06533345031738282 0.10433345031738281 0.26702691650390625
		endloop
	endfacet
	facet normal 0 0 1
		outer loop
			vertex 0.06533345031738282 0.10433345031738281 0.26702691650390625
			vertex 0.068 0.117 0.26702691650390625
			vertex 0.06441421508789062 0.11558578491210937 0.26702691650390625
		endloop
	endfacet
	facet normal 0 0 1
		outer loop
			vertex 0.06426285552978515 0.10504880523681641 0.26702691650390625
			vertex 0.06376536560058593 0.1151522445678711 0.26702691650390625
			vertex 0.063 0.10530000305175781 0.26702691650390625
		endloop
	endfacet
	facet normal 0 0 1
		outer loop
			vertex 0.06376536560058593 0.1151522445678711 0.26702691650390625
			vertex 0.06426285552978515 0.10504880523681641 0.26702691650390625
			vertex 0.06441421508789062 0.11558578491210937 0.26702691650390625
		endloop
	endfacet
	facet normal 0 0 1
		outer loop
			vertex 0.063 0.10530000305175781 0.26702691650390625
			vertex 0.06376536560058593 0.1151522445678711 0.26702691650390625
			vertex 0.063 0.115 0.26702691650390625
		endloop
	endfacet
	facet normal 0 0 1
		outer loop
			vertex 0.06484775543212891 0.11623463439941406 0.26702691650390625
			vertex 0.06441421508789062 0.11558578491210937 0.26702691650390625
			vertex 0.068 0.117 0.26702691650390625
		endloop
	endfacet
	facet normal 0 0 1
		outer loop
			vertex 0.06630000305175782 0.10200000000000001 0.26702691650390625
			vertex 0.068 0.1 0.26702691650390625
			vertex 0.0660488052368164 0.10326285552978516 0.26702691650390625
		endloop
	endfacet
	facet normal 0 0 1
		outer loop
			vertex 0.068 0.083 0.26702691650390625
			vertex 0.06173714447021485 0.09895119476318359 0.26702691650390625
			vertex 0.04876536560058594 0.1001522445678711 0.26702691650390625
		endloop
	endfacet
	facet normal 0 0 1
		outer loop
			vertex 0.04941421508789062 0.10341421508789063 0.26702691650390625
			vertex 0.05995119857788086 0.10326285552978516 0.26702691650390625
			vertex 0.060666545867919926 0.10433345031738281 0.26702691650390625
		endloop
	endfacet
	facet normal 0 0 1
		outer loop
			vertex 0.04876536560058594 0.1001522445678711 0.26702691650390625
			vertex 0.06173714447021485 0.09895119476318359 0.26702691650390625
			vertex 0.060666545867919926 0.09966654968261719 0.26702691650390625
		endloop
	endfacet
	facet normal 0 0 1
		outer loop
			vertex 0.063 0.10530000305175781 0.26702691650390625
			vertex 0.06223463439941406 0.1151522445678711 0.26702691650390625
			vertex 0.06173714447021485 0.10504880523681641 0.26702691650390625
		endloop
	endfacet
	facet normal 0 0 1
		outer loop
			vertex 0.06173714447021485 0.10504880523681641 0.26702691650390625
			vertex 0.06223463439941406 0.1151522445678711 0.26702691650390625
			vertex 0.06158578491210938 0.11558578491210937 0.26702691650390625
		endloop
	endfacet
	facet normal 0 0 1
		outer loop
			vertex 0.060666545867919926 0.10433345031738281 0.26702691650390625
			vertex 0.06115224075317383 0.11623463439941406 0.26702691650390625
			vertex 0.04941421508789062 0.10341421508789063 0.26702691650390625
		endloop
	endfacet
	facet normal 0 0 1
		outer loop
			vertex 0.06115224075317383 0.11623463439941406 0.26702691650390625
			vertex 0.060666545867919926 0.10433345031738281 0.26702691650390625
			vertex 0.06158578491210938 0.11558578491210937 0.26702691650390625
		endloop
	endfacet
	facet normal 0 0 1
		outer loop
			vertex 0.060666545867919926 0.10433345031738281 0.26702691650390625
			vertex 0.06173714447021485 0.10504880523681641 0.26702691650390625
			vertex 0.06158578491210938 0.11558578491210937 0.26702691650390625
		endloop
	endfacet
	facet normal 0 0 1
		outer loop
			vertex 0.063 0.115 0.26702691650390625
			vertex 0.06223463439941406 0.1151522445678711 0.26702691650390625
			vertex 0.063 0.10530000305175781 0.26702691650390625
		endloop
	endfacet
	facet normal 0 0 1
		outer loop
			vertex 0.04876536560058594 0.1038477554321289 0.26702691650390625
			vertex 0.06115224075317383 0.11623463439941406 0.26702691650390625
			vertex 0.061 0.117 0.26702691650390625
		endloop
	endfacet
	facet normal 0 0 1
		outer loop
			vertex 0.04941421508789062 0.10058578491210937 0.26702691650390625
			vertex 0.060666545867919926 0.09966654968261719 0.26702691650390625
			vertex 0.05995119857788086 0.10073714447021484 0.26702691650390625
		endloop
	endfacet
	facet normal 0 0 1
		outer loop
			vertex 0.04876536560058594 0.1001522445678711 0.26702691650390625
			vertex 0.060666545867919926 0.09966654968261719 0.26702691650390625
			vertex 0.04941421508789062 0.10058578491210937 0.26702691650390625
		endloop
	endfacet
	facet normal 0 0 1
		outer loop
			vertex 0.04723463439941406 0.1001522445678711 0.26702691650390625
			vertex 0.04658578491210938 0.10058578491210937 0.26702691650390625
			vertex 0.03473842239379883 0.10026158142089844 0.26702691650390625
		endloop
	endfacet
	facet normal 0 0 1
		outer loop
			vertex 0.048 0.1 0.26702691650390625
			vertex 0.04723463439941406 0.1001522445678711 0.26702691650390625
			vertex 0.028 0.067 0.26702691650390625
		endloop
	endfacet
	facet normal 0 0 1
		outer loop
			vertex 0.048 0.1 0.26702691650390625
			vertex 0.068 0.083 0.26702691650390625
			vertex 0.04876536560058594 0.1001522445678711 0.26702691650390625
		endloop
	endfacet
	facet normal 0 0 1
		outer loop
			vertex 0.05970000076293946 0.10200000000000001 0.26702691650390625
			vertex 0.05 0.10200000000000001 0.26702691650390625
			vertex 0.049847759246826176 0.10123463439941406 0.26702691650390625
		endloop
	endfacet
	facet normal 0 0 1
		outer loop
			vertex 0.05 0.10200000000000001 0.26702691650390625
			vertex 0.05970000076293946 0.10200000000000001 0.26702691650390625
			vertex 0.049847759246826176 0.10276536560058594 0.26702691650390625
		endloop
	endfacet
	facet normal 0 0 1
		outer loop
			vertex 0.046152240753173826 0.10123463439941406 0.26702691650390625
			vertex 0.046 0.10200000000000001 0.26702691650390625
			vertex 0.035458499908447266 0.10200000000000001 0.26702691650390625
		endloop
	endfacet
	facet normal 0 0 1
		outer loop
			vertex 0.049847759246826176 0.10123463439941406 0.26702691650390625
			vertex 0.04941421508789062 0.10058578491210937 0.26702691650390625
			vertex 0.05995119857788086 0.10073714447021484 0.26702691650390625
		endloop
	endfacet
	facet normal 0 0 1
		outer loop
			vertex 0.048 0.1 0.26702691650390625
			vertex 0.028 0.067 0.26702691650390625
			vertex 0.068 0.083 0.26702691650390625
		endloop
	endfacet
	facet normal 0 0 1
		outer loop
			vertex 0.04658578491210938 0.10058578491210937 0.26702691650390625
			vertex 0.046152240753173826 0.10123463439941406 0.26702691650390625
			vertex 0.03527135848999024 0.10105917358398438 0.26702691650390625
		endloop
	endfacet
	facet normal 0 0 1
		outer loop
			vertex 0.033940826416015625 0.09972864532470703 0.26702691650390625
			vertex 0.028 0.067 0.26702691650390625
			vertex 0.04723463439941406 0.1001522445678711 0.26702691650390625
		endloop
	endfacet
	facet normal 0 0 1
		outer loop
			vertex 0.028 0.067 0.26702691650390625
			vertex 0.033 0.09954149627685548 0.26702691650390625
			vertex 0.03205917358398438 0.09972864532470703 0.26702691650390625
		endloop
	endfacet
	facet normal 0 0 1
		outer loop
			vertex 0.033 0.09954149627685548 0.26702691650390625
			vertex 0.028 0.067 0.26702691650390625
			vertex 0.033940826416015625 0.09972864532470703 0.26702691650390625
		endloop
	endfacet
	facet normal 0 0 1
		outer loop
			vertex 0.028 0.067 0.26702691650390625
			vertex 0.03205917358398438 0.09972864532470703 0.26702691650390625
			vertex 0.03126157760620117 0.10026158142089844 0.26702691650390625
		endloop
	endfacet
	facet normal 0 0 1
		outer loop
			vertex 0.04723463439941406 0.1001522445678711 0.26702691650390625
			vertex 0.03473842239379883 0.10026158142089844 0.26702691650390625
			vertex 0.033940826416015625 0.09972864532470703 0.26702691650390625
		endloop
	endfacet
	facet normal 0 0 1
		outer loop
			vertex 0.035458499908447266 0.10200000000000001 0.26702691650390625
			vertex 0.03527135848999024 0.10105917358398438 0.26702691650390625
			vertex 0.046152240753173826 0.10123463439941406 0.26702691650390625
		endloop
	endfacet
	facet normal 0 0 1
		outer loop
			vertex 0.028 0.10200000000000001 0.26702691650390625
			vertex 0.03126157760620117 0.10026158142089844 0.26702691650390625
			vertex 0.030728641510009765 0.10105917358398438 0.26702691650390625
		endloop
	endfacet
	facet normal 0 0 1
		outer loop
			vertex 0.028 0.067 0.26702691650390625
			vertex 0.03126157760620117 0.10026158142089844 0.26702691650390625
			vertex 0.028 0.10200000000000001 0.26702691650390625
		endloop
	endfacet
	facet normal 0 0 1
		outer loop
			vertex 0.030728641510009765 0.10105917358398438 0.26702691650390625
			vertex 0.030541500091552733 0.10200000000000001 0.26702691650390625
			vertex 0.028 0.10200000000000001 0.26702691650390625
		endloop
	endfacet
	facet normal 0 0 1
		outer loop
			vertex 0.04658578491210938 0.10058578491210937 0.26702691650390625
			vertex 0.03527135848999024 0.10105917358398438 0.26702691650390625
			vertex 0.03473842239379883 0.10026158142089844 0.26702691650390625
		endloop
	endfacet
	facet normal 0 0 1
		outer loop
			vertex 0.0805 0.083 0.26702691650390625
			vertex 0.084 0.0815 0.26702691650390625
			vertex 0.093 0.083 0.26702691650390625
		endloop
	endfacet
	facet normal 0 0 1
		outer loop
			vertex 0.046152240753173826 0.10276536560058594 0.26702691650390625
			vertex 0.035458499908447266 0.10200000000000001 0.26702691650390625
			vertex 0.046 0.10200000000000001 0.26702691650390625
		endloop
	endfacet
	facet normal 0 0 1
		outer loop
			vertex 0.05970000076293946 0.10200000000000001 0.26702691650390625
			vertex 0.049847759246826176 0.10123463439941406 0.26702691650390625
			vertex 0.05995119857788086 0.10073714447021484 0.26702691650390625
		endloop
	endfacet
	facet normal 0 0 1
		outer loop
			vertex 0.049847759246826176 0.10276536560058594 0.26702691650390625
			vertex 0.05970000076293946 0.10200000000000001 0.26702691650390625
			vertex 0.05995119857788086 0.10326285552978516 0.26702691650390625
		endloop
	endfacet
	facet normal 0 0 1
		outer loop
			vertex 0.046152240753173826 0.10276536560058594 0.26702691650390625
			vertex 0.04658578491210938 0.10341421508789063 0.26702691650390625
			vertex 0.03527135848999024 0.10294082641601562 0.26702691650390625
		endloop
	endfacet
	facet normal 0 0 1
		outer loop
			vertex 0.03527135848999024 0.10294082641601562 0.26702691650390625
			vertex 0.04658578491210938 0.10341421508789063 0.26702691650390625
			vertex 0.03473842239379883 0.10373841857910157 0.26702691650390625
		endloop
	endfacet
	facet normal 0 0 1
		outer loop
			vertex 0.03527135848999024 0.10294082641601562 0.26702691650390625
			vertex 0.035458499908447266 0.10200000000000001 0.26702691650390625
			vertex 0.046152240753173826 0.10276536560058594 0.26702691650390625
		endloop
	endfacet
	facet normal 0 0 1
		outer loop
			vertex 0.04876536560058594 0.1038477554321289 0.26702691650390625
			vertex 0.061 0.117 0.26702691650390625
			vertex 0.048 0.10400000000000001 0.26702691650390625
		endloop
	endfacet
	facet normal 0 0 1
		outer loop
			vertex 0.03484775924682617 0.11623463439941406 0.26702691650390625
			vertex 0.04723463439941406 0.1038477554321289 0.26702691650390625
			vertex 0.035 0.117 0.26702691650390625
		endloop
	endfacet
	facet normal 0 0 1
		outer loop
			vertex 0.04658578491210938 0.10341421508789063 0.26702691650390625
			vertex 0.04723463439941406 0.1038477554321289 0.26702691650390625
			vertex 0.03484775924682617 0.11623463439941406 0.26702691650390625
		endloop
	endfacet
	facet normal 0 0 1
		outer loop
			vertex 0.03441421508789062 0.11558578491210937 0.26702691650390625
			vertex 0.03473842239379883 0.10373841857910157 0.26702691650390625
			vertex 0.04658578491210938 0.10341421508789063 0.26702691650390625
		endloop
	endfacet
	facet normal 0 0 1
		outer loop
			vertex 0.04658578491210938 0.10341421508789063 0.26702691650390625
			vertex 0.03484775924682617 0.11623463439941406 0.26702691650390625
			vertex 0.03441421508789062 0.11558578491210937 0.26702691650390625
		endloop
	endfacet
	facet normal 0 0 1
		outer loop
			vertex 0.03473842239379883 0.10373841857910157 0.26702691650390625
			vertex 0.03441421508789062 0.11558578491210937 0.26702691650390625
			vertex 0.033940826416015625 0.10427135467529297 0.26702691650390625
		endloop
	endfacet
	facet normal 0 0 1
		outer loop
			vertex 0.05995119857788086 0.10326285552978516 0.26702691650390625
			vertex 0.04941421508789062 0.10341421508789063 0.26702691650390625
			vertex 0.049847759246826176 0.10276536560058594 0.26702691650390625
		endloop
	endfacet
	facet normal 0 0 1
		outer loop
			vertex 0.04876536560058594 0.1038477554321289 0.26702691650390625
			vertex 0.04941421508789062 0.10341421508789063 0.26702691650390625
			vertex 0.06115224075317383 0.11623463439941406 0.26702691650390625
		endloop
	endfacet
	facet normal 0 0 1
		outer loop
			vertex 0.028 0.10200000000000001 0.26702691650390625
			vertex 0.030728641510009765 0.10294082641601562 0.26702691650390625
			vertex 0.03126157760620117 0.10373841857910157 0.26702691650390625
		endloop
	endfacet
	facet normal 0 0 1
		outer loop
			vertex 0.028 0.10200000000000001 0.26702691650390625
			vertex 0.030541500091552733 0.10200000000000001 0.26702691650390625
			vertex 0.030728641510009765 0.10294082641601562 0.26702691650390625
		endloop
	endfacet
	facet normal 0 0 1
		outer loop
			vertex 0.031585786819458006 0.11558578491210937 0.26702691650390625
			vertex 0.028 0.10200000000000001 0.26702691650390625
			vertex 0.03126157760620117 0.10373841857910157 0.26702691650390625
		endloop
	endfacet
	facet normal 0 0 1
		outer loop
			vertex 0.03126157760620117 0.10373841857910157 0.26702691650390625
			vertex 0.03205917358398438 0.10427135467529297 0.26702691650390625
			vertex 0.031585786819458006 0.11558578491210937 0.26702691650390625
		endloop
	endfacet
	facet normal 0 0 1
		outer loop
			vertex 0.033 0.10445850372314454 0.26702691650390625
			vertex 0.03376536560058594 0.1151522445678711 0.26702691650390625
			vertex 0.033 0.115 0.26702691650390625
		endloop
	endfacet
	facet normal 0 0 1
		outer loop
			vertex 0.03376536560058594 0.1151522445678711 0.26702691650390625
			vertex 0.033 0.10445850372314454 0.26702691650390625
			vertex 0.033940826416015625 0.10427135467529297 0.26702691650390625
		endloop
	endfacet
	facet normal 0 0 1
		outer loop
			vertex 0.033 0.10445850372314454 0.26702691650390625
			vertex 0.033 0.115 0.26702691650390625
			vertex 0.03223463439941406 0.1151522445678711 0.26702691650390625
		endloop
	endfacet
	facet normal 0 0 1
		outer loop
			vertex 0.03115224075317383 0.11623463439941406 0.26702691650390625
			vertex 0.028 0.10200000000000001 0.26702691650390625
			vertex 0.031585786819458006 0.11558578491210937 0.26702691650390625
		endloop
	endfacet
	facet normal 0 0 1
		outer loop
			vertex 0.031585786819458006 0.11558578491210937 0.26702691650390625
			vertex 0.03205917358398438 0.10427135467529297 0.26702691650390625
			vertex 0.03223463439941406 0.1151522445678711 0.26702691650390625
		endloop
	endfacet
	facet normal 0 0 1
		outer loop
			vertex 0.03205917358398438 0.10427135467529297 0.26702691650390625
			vertex 0.033 0.10445850372314454 0.26702691650390625
			vertex 0.03223463439941406 0.1151522445678711 0.26702691650390625
		endloop
	endfacet
	facet normal 0 0 1
		outer loop
			vertex 0.033940826416015625 0.10427135467529297 0.26702691650390625
			vertex 0.03441421508789062 0.11558578491210937 0.26702691650390625
			vertex 0.03376536560058594 0.1151522445678711 0.26702691650390625
		endloop
	endfacet
	facet normal 0 0 1
		outer loop
			vertex 0.028 0.10200000000000001 0.26702691650390625
			vertex 0.03115224075317383 0.11623463439941406 0.26702691650390625
			vertex 0.005 0.10200000000000001 0.26702691650390625
		endloop
	endfacet
	facet normal 0 0 1
		outer loop
			vertex 0.048 0.10400000000000001 0.26702691650390625
			vertex 0.035 0.117 0.26702691650390625
			vertex 0.04723463439941406 0.1038477554321289 0.26702691650390625
		endloop
	endfacet
	facet normal 0 0 1
		outer loop
			vertex 0.005 0.10200000000000001 0.26702691650390625
			vertex 0.03115224075317383 0.11623463439941406 0.26702691650390625
			vertex 0.031 0.117 0.26702691650390625
		endloop
	endfacet
	facet normal 0 0 1
		outer loop
			vertex 0.048 0.13 0.26702691650390625
			vertex 0.048 0.10400000000000001 0.26702691650390625
			vertex 0.061 0.117 0.26702691650390625
		endloop
	endfacet
	facet normal 0 0 1
		outer loop
			vertex 0.08151255798339845 0.08100521850585937 0.26702691650390625
			vertex 0.084 0.0815 0.26702691650390625
			vertex 0.0805 0.083 0.26702691650390625
		endloop
	endfacet
	facet normal 0 0 1
		outer loop
			vertex 0.06394082641601563 0.1297286376953125 0.26702691650390625
			vertex 0.06441421508789062 0.11841421508789063 0.26702691650390625
			vertex 0.06473841857910156 0.13026158142089844 0.26702691650390625
		endloop
	endfacet
	facet normal 0 0 1
		outer loop
			vertex 0.06376536560058593 0.11884775543212892 0.26702691650390625
			vertex 0.06394082641601563 0.1297286376953125 0.26702691650390625
			vertex 0.063 0.12954150390625 0.26702691650390625
		endloop
	endfacet
	facet normal 0 0 1
		outer loop
			vertex 0.06394082641601563 0.1297286376953125 0.26702691650390625
			vertex 0.06376536560058593 0.11884775543212892 0.26702691650390625
			vertex 0.06441421508789062 0.11841421508789063 0.26702691650390625
		endloop
	endfacet
	facet normal 0 0 1
		outer loop
			vertex 0.06376536560058593 0.11884775543212892 0.26702691650390625
			vertex 0.063 0.12954150390625 0.26702691650390625
			vertex 0.063 0.11900000000000001 0.26702691650390625
		endloop
	endfacet
	facet normal 0 0 1
		outer loop
			vertex 0.06484775543212891 0.11776536560058594 0.26702691650390625
			vertex 0.068 0.117 0.26702691650390625
			vertex 0.06441421508789062 0.11841421508789063 0.26702691650390625
		endloop
	endfacet
	facet normal 0 0 1
		outer loop
			vertex 0.06527135467529296 0.1310591735839844 0.26702691650390625
			vertex 0.068 0.117 0.26702691650390625
			vertex 0.068 0.134 0.26702691650390625
		endloop
	endfacet
	facet normal 0 0 1
		outer loop
			vertex 0.06527135467529296 0.13294082641601562 0.26702691650390625
			vertex 0.068 0.134 0.26702691650390625
			vertex 0.06473841857910156 0.13373841857910157 0.26702691650390625
		endloop
	endfacet
	facet normal 0 0 1
		outer loop
			vertex 0.068 0.134 0.26702691650390625
			vertex 0.06527135467529296 0.13294082641601562 0.26702691650390625
			vertex 0.06545850372314453 0.132 0.26702691650390625
		endloop
	endfacet
	facet normal 0 0 1
		outer loop
			vertex 0.06441421508789062 0.11841421508789063 0.26702691650390625
			vertex 0.068 0.117 0.26702691650390625
			vertex 0.06473841857910156 0.13026158142089844 0.26702691650390625
		endloop
	endfacet
	facet normal 0 0 1
		outer loop
			vertex 0.065 0.117 0.26702691650390625
			vertex 0.068 0.117 0.26702691650390625
			vertex 0.06484775543212891 0.11776536560058594 0.26702691650390625
		endloop
	endfacet
	facet normal 0 0 1
		outer loop
			vertex 0.063 0.11900000000000001 0.26702691650390625
			vertex 0.063 0.12954150390625 0.26702691650390625
			vertex 0.06223463439941406 0.11884775543212892 0.26702691650390625
		endloop
	endfacet
	facet normal 0 0 1
		outer loop
			vertex 0.06158578491210938 0.11841421508789063 0.26702691650390625
			vertex 0.04941421508789062 0.13058578491210937 0.26702691650390625
			vertex 0.06115224075317383 0.11776536560058594 0.26702691650390625
		endloop
	endfacet
	facet normal 0 0 1
		outer loop
			vertex 0.06205917358398438 0.1297286376953125 0.26702691650390625
			vertex 0.06158578491210938 0.11841421508789063 0.26702691650390625
			vertex 0.06223463439941406 0.11884775543212892 0.26702691650390625
		endloop
	endfacet
	facet normal 0 0 1
		outer loop
			vertex 0.06126157760620117 0.13026158142089844 0.26702691650390625
			vertex 0.06158578491210938 0.11841421508789063 0.26702691650390625
			vertex 0.06205917358398438 0.1297286376953125 0.26702691650390625
		endloop
	endfacet
	facet normal 0 0 1
		outer loop
			vertex 0.063 0.12954150390625 0.26702691650390625
			vertex 0.06205917358398438 0.1297286376953125 0.26702691650390625
			vertex 0.06223463439941406 0.11884775543212892 0.26702691650390625
		endloop
	endfacet
	facet normal 0 0 1
		outer loop
			vertex 0.04941421508789062 0.13058578491210937 0.26702691650390625
			vertex 0.06126157760620117 0.13026158142089844 0.26702691650390625
			vertex 0.06072864151000976 0.1310591735839844 0.26702691650390625
		endloop
	endfacet
	facet normal 0 0 1
		outer loop
			vertex 0.05 0.132 0.26702691650390625
			vertex 0.060541500091552736 0.132 0.26702691650390625
			vertex 0.049847759246826176 0.13276536560058594 0.26702691650390625
		endloop
	endfacet
	facet normal 0 0 1
		outer loop
			vertex 0.06072864151000976 0.13294082641601562 0.26702691650390625
			vertex 0.049847759246826176 0.13276536560058594 0.26702691650390625
			vertex 0.060541500091552736 0.132 0.26702691650390625
		endloop
	endfacet
	facet normal 0 0 1
		outer loop
			vertex 0.06072864151000976 0.1310591735839844 0.26702691650390625
			vertex 0.060541500091552736 0.132 0.26702691650390625
			vertex 0.049847759246826176 0.13123463439941407 0.26702691650390625
		endloop
	endfacet
	facet normal 0 0 1
		outer loop
			vertex 0.04941421508789062 0.13341421508789061 0.26702691650390625
			vertex 0.06072864151000976 0.13294082641601562 0.26702691650390625
			vertex 0.06126157760620117 0.13373841857910157 0.26702691650390625
		endloop
	endfacet
	facet normal 0 0 1
		outer loop
			vertex 0.06158578491210938 0.11841421508789063 0.26702691650390625
			vertex 0.06126157760620117 0.13026158142089844 0.26702691650390625
			vertex 0.04941421508789062 0.13058578491210937 0.26702691650390625
		endloop
	endfacet
	facet normal 0 0 1
		outer loop
			vertex 0.049847759246826176 0.13123463439941407 0.26702691650390625
			vertex 0.060541500091552736 0.132 0.26702691650390625
			vertex 0.05 0.132 0.26702691650390625
		endloop
	endfacet
	facet normal 0 0 1
		outer loop
			vertex 0.061 0.117 0.26702691650390625
			vertex 0.06115224075317383 0.11776536560058594 0.26702691650390625
			vertex 0.04876536560058594 0.13015223693847658 0.26702691650390625
		endloop
	endfacet
	facet normal 0 0 1
		outer loop
			vertex 0.093 0.151 0.26702691650390625
			vertex 0.09000521850585938 0.15651255798339844 0.26702691650390625
			vertex 0.08859619140625 0.15440380859375 0.26702691650390625
		endloop
	endfacet
	facet normal 0 0 1
		outer loop
			vertex 0.09000521850585938 0.15651255798339844 0.26702691650390625
			vertex 0.093 0.151 0.26702691650390625
			vertex 0.0905 0.159 0.26702691650390625
		endloop
	endfacet
	facet normal 0 0 1
		outer loop
			vertex 0.08648744201660157 0.15299478149414064 0.26702691650390625
			vertex 0.084 0.1525 0.26702691650390625
			vertex 0.093 0.151 0.26702691650390625
		endloop
	endfacet
	facet normal 0 0 1
		outer loop
			vertex 0.08859619140625 0.15440380859375 0.26702691650390625
			vertex 0.08648744201660157 0.15299478149414064 0.26702691650390625
			vertex 0.093 0.151 0.26702691650390625
		endloop
	endfacet
	facet normal 0 0 1
		outer loop
			vertex 0.0905 0.159 0.26702691650390625
			vertex 0.093 0.167 0.26702691650390625
			vertex 0.09000521850585938 0.16148744201660156 0.26702691650390625
		endloop
	endfacet
	facet normal 0 0 1
		outer loop
			vertex 0.093 0.167 0.26702691650390625
			vertex 0.0905 0.159 0.26702691650390625
			vertex 0.093 0.151 0.26702691650390625
		endloop
	endfacet
	facet normal 0 0 1
		outer loop
			vertex 0.09000521850585938 0.16148744201660156 0.26702691650390625
			vertex 0.093 0.167 0.26702691650390625
			vertex 0.08859619140625 0.16359619140625 0.26702691650390625
		endloop
	endfacet
	facet normal 0 0 1
		outer loop
			vertex 0.08648744201660157 0.1650052185058594 0.26702691650390625
			vertex 0.08859619140625 0.16359619140625 0.26702691650390625
			vertex 0.093 0.167 0.26702691650390625
		endloop
	endfacet
	facet normal 0 0 1
		outer loop
			vertex 0.084 0.1655 0.26702691650390625
			vertex 0.08648744201660157 0.1650052185058594 0.26702691650390625
			vertex 0.093 0.167 0.26702691650390625
		endloop
	endfacet
	facet normal 0 0 1
		outer loop
			vertex 0.093 0.167 0.26702691650390625
			vertex 0.028 0.167 0.26702691650390625
			vertex 0.084 0.1655 0.26702691650390625
		endloop
	endfacet
	facet normal 0 0 1
		outer loop
			vertex 0.0805 0.151 0.26702691650390625
			vertex 0.07940380859375 0.15440380859375 0.26702691650390625
			vertex 0.068 0.151 0.26702691650390625
		endloop
	endfacet
	facet normal 0 0 1
		outer loop
			vertex 0.06394082641601563 0.1342713623046875 0.26702691650390625
			vertex 0.06473841857910156 0.13373841857910157 0.26702691650390625
			vertex 0.068 0.134 0.26702691650390625
		endloop
	endfacet
	facet normal 0 0 1
		outer loop
			vertex 0.063 0.13445849609375 0.26702691650390625
			vertex 0.06394082641601563 0.1342713623046875 0.26702691650390625
			vertex 0.068 0.151 0.26702691650390625
		endloop
	endfacet
	facet normal 0 0 1
		outer loop
			vertex 0.06205917358398438 0.1342713623046875 0.26702691650390625
			vertex 0.063 0.13445849609375 0.26702691650390625
			vertex 0.068 0.151 0.26702691650390625
		endloop
	endfacet
	facet normal 0 0 1
		outer loop
			vertex 0.06205917358398438 0.1342713623046875 0.26702691650390625
			vertex 0.04876536560058594 0.13384776306152343 0.26702691650390625
			vertex 0.06126157760620117 0.13373841857910157 0.26702691650390625
		endloop
	endfacet
	facet normal 0 0 1
		outer loop
			vertex 0.06394082641601563 0.1342713623046875 0.26702691650390625
			vertex 0.068 0.134 0.26702691650390625
			vertex 0.068 0.151 0.26702691650390625
		endloop
	endfacet
	facet normal 0 0 1
		outer loop
			vertex 0.07940380859375 0.16359619140625 0.26702691650390625
			vertex 0.08151255798339845 0.1650052185058594 0.26702691650390625
			vertex 0.028 0.167 0.26702691650390625
		endloop
	endfacet
	facet normal 0 0 1
		outer loop
			vertex 0.0775 0.159 0.26702691650390625
			vertex 0.07799478149414063 0.16148744201660156 0.26702691650390625
			vertex 0.068 0.151 0.26702691650390625
		endloop
	endfacet
	facet normal 0 0 1
		outer loop
			vertex 0.07799478149414063 0.15651255798339844 0.26702691650390625
			vertex 0.0775 0.159 0.26702691650390625
			vertex 0.068 0.151 0.26702691650390625
		endloop
	endfacet
	facet normal 0 0 1
		outer loop
			vertex 0.07799478149414063 0.16148744201660156 0.26702691650390625
			vertex 0.028 0.167 0.26702691650390625
			vertex 0.068 0.151 0.26702691650390625
		endloop
	endfacet
	facet normal 0 0 1
		outer loop
			vertex 0.07940380859375 0.15440380859375 0.26702691650390625
			vertex 0.07799478149414063 0.15651255798339844 0.26702691650390625
			vertex 0.068 0.151 0.26702691650390625
		endloop
	endfacet
	facet normal 0 0 1
		outer loop
			vertex 0.068 0.151 0.26702691650390625
			vertex 0.04876536560058594 0.13384776306152343 0.26702691650390625
			vertex 0.06205917358398438 0.1342713623046875 0.26702691650390625
		endloop
	endfacet
	facet normal 0 0 1
		outer loop
			vertex 0.084 0.1655 0.26702691650390625
			vertex 0.028 0.167 0.26702691650390625
			vertex 0.08151255798339845 0.1650052185058594 0.26702691650390625
		endloop
	endfacet
	facet normal 0 0 1
		outer loop
			vertex 0.06527135467529296 0.1310591735839844 0.26702691650390625
			vertex 0.068 0.134 0.26702691650390625
			vertex 0.06545850372314453 0.132 0.26702691650390625
		endloop
	endfacet
	facet normal 0 0 1
		outer loop
			vertex 0.06473841857910156 0.13026158142089844 0.26702691650390625
			vertex 0.068 0.117 0.26702691650390625
			vertex 0.06527135467529296 0.1310591735839844 0.26702691650390625
		endloop
	endfacet
	facet normal 0 0 1
		outer loop
			vertex 0.07940380859375 0.16359619140625 0.26702691650390625
			vertex 0.028 0.167 0.26702691650390625
			vertex 0.07799478149414063 0.16148744201660156 0.26702691650390625
		endloop
	endfacet
	facet normal 0 0 1
		outer loop
			vertex 0.048 0.13 0.26702691650390625
			vertex 0.04723463439941406 0.13015223693847658 0.26702691650390625
			vertex 0.035 0.117 0.26702691650390625
		endloop
	endfacet
	facet normal 0 0 1
		outer loop
			vertex 0.03484775924682617 0.11776536560058594 0.26702691650390625
			vertex 0.04658578491210938 0.13058578491210937 0.26702691650390625
			vertex 0.035333454132080076 0.12966654968261718 0.26702691650390625
		endloop
	endfacet
	facet normal 0 0 1
		outer loop
			vertex 0.04723463439941406 0.13015223693847658 0.26702691650390625
			vertex 0.03484775924682617 0.11776536560058594 0.26702691650390625
			vertex 0.035 0.117 0.26702691650390625
		endloop
	endfacet
	facet normal 0 0 1
		outer loop
			vertex 0.03441421508789062 0.11841421508789063 0.26702691650390625
			vertex 0.03484775924682617 0.11776536560058594 0.26702691650390625
			vertex 0.035333454132080076 0.12966654968261718 0.26702691650390625
		endloop
	endfacet
	facet normal 0 0 1
		outer loop
			vertex 0.035333454132080076 0.12966654968261718 0.26702691650390625
			vertex 0.034262855529785155 0.12895120239257812 0.26702691650390625
			vertex 0.03441421508789062 0.11841421508789063 0.26702691650390625
		endloop
	endfacet
	facet normal 0 0 1
		outer loop
			vertex 0.048 0.10400000000000001 0.26702691650390625
			vertex 0.048 0.13 0.26702691650390625
			vertex 0.035 0.117 0.26702691650390625
		endloop
	endfacet
	facet normal 0 0 1
		outer loop
			vertex 0.061 0.117 0.26702691650390625
			vertex 0.04876536560058594 0.13015223693847658 0.26702691650390625
			vertex 0.048 0.13 0.26702691650390625
		endloop
	endfacet
	facet normal 0 0 1
		outer loop
			vertex 0.04658578491210938 0.13058578491210937 0.26702691650390625
			vertex 0.036048801422119144 0.13073715209960937 0.26702691650390625
			vertex 0.035333454132080076 0.12966654968261718 0.26702691650390625
		endloop
	endfacet
	facet normal 0 0 1
		outer loop
			vertex 0.046152240753173826 0.13123463439941407 0.26702691650390625
			vertex 0.036048801422119144 0.13073715209960937 0.26702691650390625
			vertex 0.04658578491210938 0.13058578491210937 0.26702691650390625
		endloop
	endfacet
	facet normal 0 0 1
		outer loop
			vertex 0.04658578491210938 0.13058578491210937 0.26702691650390625
			vertex 0.03484775924682617 0.11776536560058594 0.26702691650390625
			vertex 0.04723463439941406 0.13015223693847658 0.26702691650390625
		endloop
	endfacet
	facet normal 0 0 1
		outer loop
			vertex 0.06115224075317383 0.11776536560058594 0.26702691650390625
			vertex 0.04941421508789062 0.13058578491210937 0.26702691650390625
			vertex 0.04876536560058594 0.13015223693847658 0.26702691650390625
		endloop
	endfacet
	facet normal 0 0 1
		outer loop
			vertex 0.03115224075317383 0.11776536560058594 0.26702691650390625
			vertex 0.031585786819458006 0.11841421508789063 0.26702691650390625
			vertex 0.030666547775268557 0.12966654968261718 0.26702691650390625
		endloop
	endfacet
	facet normal 0 0 1
		outer loop
			vertex 0.005 0.132 0.26702691650390625
			vertex 0.031 0.117 0.26702691650390625
			vertex 0.03115224075317383 0.11776536560058594 0.26702691650390625
		endloop
	endfacet
	facet normal 0 0 1
		outer loop
			vertex 0.03223463439941406 0.11884775543212892 0.26702691650390625
			vertex 0.03173714447021484 0.12895120239257812 0.26702691650390625
			vertex 0.031585786819458006 0.11841421508789063 0.26702691650390625
		endloop
	endfacet
	facet normal 0 0 1
		outer loop
			vertex 0.03376536560058594 0.11884775543212892 0.26702691650390625
			vertex 0.033 0.1286999969482422 0.26702691650390625
			vertex 0.033 0.11900000000000001 0.26702691650390625
		endloop
	endfacet
	facet normal 0 0 1
		outer loop
			vertex 0.033 0.1286999969482422 0.26702691650390625
			vertex 0.03376536560058594 0.11884775543212892 0.26702691650390625
			vertex 0.034262855529785155 0.12895120239257812 0.26702691650390625
		endloop
	endfacet
	facet normal 0 0 1
		outer loop
			vertex 0.033 0.1286999969482422 0.26702691650390625
			vertex 0.03173714447021484 0.12895120239257812 0.26702691650390625
			vertex 0.03223463439941406 0.11884775543212892 0.26702691650390625
		endloop
	endfacet
	facet normal 0 0 1
		outer loop
			vertex 0.030666547775268557 0.12966654968261718 0.26702691650390625
			vertex 0.028 0.132 0.26702691650390625
			vertex 0.03115224075317383 0.11776536560058594 0.26702691650390625
		endloop
	endfacet
	facet normal 0 0 1
		outer loop
			vertex 0.030666547775268557 0.12966654968261718 0.26702691650390625
			vertex 0.031585786819458006 0.11841421508789063 0.26702691650390625
			vertex 0.03173714447021484 0.12895120239257812 0.26702691650390625
		endloop
	endfacet
	facet normal 0 0 1
		outer loop
			vertex 0.033 0.11900000000000001 0.26702691650390625
			vertex 0.033 0.1286999969482422 0.26702691650390625
			vertex 0.03223463439941406 0.11884775543212892 0.26702691650390625
		endloop
	endfacet
	facet normal 0 0 1
		outer loop
			vertex 0.03376536560058594 0.11884775543212892 0.26702691650390625
			vertex 0.03441421508789062 0.11841421508789063 0.26702691650390625
			vertex 0.034262855529785155 0.12895120239257812 0.26702691650390625
		endloop
	endfacet
	facet normal 0 0 1
		outer loop
			vertex 0.029951196670532226 0.13073715209960937 0.26702691650390625
			vertex 0.028 0.132 0.26702691650390625
			vertex 0.030666547775268557 0.12966654968261718 0.26702691650390625
		endloop
	endfacet
	facet normal 0 0 1
		outer loop
			vertex 0.046152240753173826 0.13123463439941407 0.26702691650390625
			vertex 0.046 0.132 0.26702691650390625
			vertex 0.036299999237060544 0.132 0.26702691650390625
		endloop
	endfacet
	facet normal 0 0 1
		outer loop
			vertex 0.046152240753173826 0.13276536560058594 0.26702691650390625
			vertex 0.036299999237060544 0.132 0.26702691650390625
			vertex 0.046 0.132 0.26702691650390625
		endloop
	endfacet
	facet normal 0 0 1
		outer loop
			vertex 0.04941421508789062 0.13341421508789061 0.26702691650390625
			vertex 0.06126157760620117 0.13373841857910157 0.26702691650390625
			vertex 0.04876536560058594 0.13384776306152343 0.26702691650390625
		endloop
	endfacet
	facet normal 0 0 1
		outer loop
			vertex 0.04876536560058594 0.13384776306152343 0.26702691650390625
			vertex 0.068 0.151 0.26702691650390625
			vertex 0.048 0.134 0.26702691650390625
		endloop
	endfacet
	facet normal 0 0 1
		outer loop
			vertex 0.036048801422119144 0.13326284790039064 0.26702691650390625
			vertex 0.046152240753173826 0.13276536560058594 0.26702691650390625
			vertex 0.04658578491210938 0.13341421508789061 0.26702691650390625
		endloop
	endfacet
	facet normal 0 0 1
		outer loop
			vertex 0.036299999237060544 0.132 0.26702691650390625
			vertex 0.046152240753173826 0.13276536560058594 0.26702691650390625
			vertex 0.036048801422119144 0.13326284790039064 0.26702691650390625
		endloop
	endfacet
	facet normal 0 0 1
		outer loop
			vertex 0.04658578491210938 0.13341421508789061 0.26702691650390625
			vertex 0.04723463439941406 0.13384776306152343 0.26702691650390625
			vertex 0.035333454132080076 0.1343334503173828 0.26702691650390625
		endloop
	endfacet
	facet normal 0 0 1
		outer loop
			vertex 0.06072864151000976 0.13294082641601562 0.26702691650390625
			vertex 0.04941421508789062 0.13341421508789061 0.26702691650390625
			vertex 0.049847759246826176 0.13276536560058594 0.26702691650390625
		endloop
	endfacet
	facet normal 0 0 1
		outer loop
			vertex 0.028 0.167 0.26702691650390625
			vertex 0.04723463439941406 0.13384776306152343 0.26702691650390625
			vertex 0.048 0.134 0.26702691650390625
		endloop
	endfacet
	facet normal 0 0 1
		outer loop
			vertex 0.029700000762939455 0.132 0.26702691650390625
			vertex 0.029951196670532226 0.13326284790039064 0.26702691650390625
			vertex 0.028 0.132 0.26702691650390625
		endloop
	endfacet
	facet normal 0 0 1
		outer loop
			vertex 0.028 0.132 0.26702691650390625
			vertex 0.029951196670532226 0.13073715209960937 0.26702691650390625
			vertex 0.029700000762939455 0.132 0.26702691650390625
		endloop
	endfacet
	facet normal 0 0 1
		outer loop
			vertex 0.005 0.132 0.26702691650390625
			vertex 0.03115224075317383 0.11776536560058594 0.26702691650390625
			vertex 0.028 0.132 0.26702691650390625
		endloop
	endfacet
	facet normal 0 0 1
		outer loop
			vertex 0.028 0.132 0.26702691650390625
			vertex 0.029951196670532226 0.13326284790039064 0.26702691650390625
			vertex 0.030666547775268557 0.1343334503173828 0.26702691650390625
		endloop
	endfacet
	facet normal 0 0 1
		outer loop
			vertex 0.035333454132080076 0.1343334503173828 0.26702691650390625
			vertex 0.04723463439941406 0.13384776306152343 0.26702691650390625
			vertex 0.034262855529785155 0.1350487976074219 0.26702691650390625
		endloop
	endfacet
	facet normal 0 0 1
		outer loop
			vertex 0.033 0.13530000305175782 0.26702691650390625
			vertex 0.034262855529785155 0.1350487976074219 0.26702691650390625
			vertex 0.028 0.167 0.26702691650390625
		endloop
	endfacet
	facet normal 0 0 1
		outer loop
			vertex 0.030666547775268557 0.1343334503173828 0.26702691650390625
			vertex 0.03173714447021484 0.1350487976074219 0.26702691650390625
			vertex 0.028 0.167 0.26702691650390625
		endloop
	endfacet
	facet normal 0 0 1
		outer loop
			vertex 0.028 0.167 0.26702691650390625
			vertex 0.03173714447021484 0.1350487976074219 0.26702691650390625
			vertex 0.033 0.13530000305175782 0.26702691650390625
		endloop
	endfacet
	facet normal 0 0 1
		outer loop
			vertex 0.030666547775268557 0.1343334503173828 0.26702691650390625
			vertex 0.028 0.167 0.26702691650390625
			vertex 0.028 0.132 0.26702691650390625
		endloop
	endfacet
	facet normal 0 0 1
		outer loop
			vertex 0.036048801422119144 0.13326284790039064 0.26702691650390625
			vertex 0.04658578491210938 0.13341421508789061 0.26702691650390625
			vertex 0.035333454132080076 0.1343334503173828 0.26702691650390625
		endloop
	endfacet
	facet normal 0 0 1
		outer loop
			vertex 0.028 0.167 0.26702691650390625
			vertex 0.034262855529785155 0.1350487976074219 0.26702691650390625
			vertex 0.04723463439941406 0.13384776306152343 0.26702691650390625
		endloop
	endfacet
	facet normal 0 0 1
		outer loop
			vertex 0.048 0.134 0.26702691650390625
			vertex 0.068 0.151 0.26702691650390625
			vertex 0.028 0.167 0.26702691650390625
		endloop
	endfacet
	facet normal 0 0 1
		outer loop
			vertex 0.046152240753173826 0.13123463439941407 0.26702691650390625
			vertex 0.036299999237060544 0.132 0.26702691650390625
			vertex 0.036048801422119144 0.13073715209960937 0.26702691650390625
		endloop
	endfacet
	facet normal 0 0 1
		outer loop
			vertex 0.04941421508789062 0.13058578491210937 0.26702691650390625
			vertex 0.06072864151000976 0.1310591735839844 0.26702691650390625
			vertex 0.049847759246826176 0.13123463439941407 0.26702691650390625
		endloop
	endfacet
	facet normal 0 0 1
		outer loop
			vertex 0.031 0.117 0.26702691650390625
			vertex 0.005 0.132 0.26702691650390625
			vertex 0.005 0.10200000000000001 0.26702691650390625
		endloop
	endfacet
	facet normal 0 0 1
		outer loop
			vertex 0.0660488052368164 0.10073714447021484 0.26702691650390625
			vertex 0.068 0.1 0.26702691650390625
			vertex 0.06630000305175782 0.10200000000000001 0.26702691650390625
		endloop
	endfacet
	facet normal 0 0 1
		outer loop
			vertex 0.068 0.117 0.26702691650390625
			vertex 0.065 0.117 0.26702691650390625
			vertex 0.06484775543212891 0.11623463439941406 0.26702691650390625
		endloop
	endfacet
	facet normal 0 0 1
		outer loop
			vertex 0.084 0.1525 0.26702691650390625
			vertex 0.08151255798339845 0.15299478149414064 0.26702691650390625
			vertex 0.0805 0.151 0.26702691650390625
		endloop
	endfacet
	facet normal 0 0 1
		outer loop
			vertex 0.0805 0.151 0.26702691650390625
			vertex 0.08151255798339845 0.15299478149414064 0.26702691650390625
			vertex 0.07940380859375 0.15440380859375 0.26702691650390625
		endloop
	endfacet
	facet normal 0 0 -1
		outer loop
			vertex 0.08648744201660157 0.06899478149414062 0.23902691650390626
			vertex 0.08859619140625 0.07040380859375 0.23902691650390626
			vertex 0.093 0.067 0.23902691650390626
		endloop
	endfacet
	facet normal 0 0 -1
		outer loop
			vertex 0.09000521850585938 0.07251255798339844 0.23902691650390626
			vertex 0.093 0.067 0.23902691650390626
			vertex 0.08859619140625 0.07040380859375 0.23902691650390626
		endloop
	endfacet
	facet normal 0 0 -1
		outer loop
			vertex 0.093 0.067 0.23902691650390626
			vertex 0.09000521850585938 0.07251255798339844 0.23902691650390626
			vertex 0.0905 0.075 0.23902691650390626
		endloop
	endfacet
	facet normal 0 0 -1
		outer loop
			vertex 0.0905 0.075 0.23902691650390626
			vertex 0.093 0.083 0.23902691650390626
			vertex 0.093 0.067 0.23902691650390626
		endloop
	endfacet
	facet normal 0 0 -1
		outer loop
			vertex 0.093 0.067 0.23902691650390626
			vertex 0.084 0.0685 0.23902691650390626
			vertex 0.08648744201660157 0.06899478149414062 0.23902691650390626
		endloop
	endfacet
	facet normal 0 0 -1
		outer loop
			vertex 0.07799478149414063 0.07251255798339844 0.23902691650390626
			vertex 0.07940380859375 0.07040380859375 0.23902691650390626
			vertex 0.028 0.067 0.23902691650390626
		endloop
	endfacet
	facet normal 0 0 -1
		outer loop
			vertex 0.028 0.067 0.23902691650390626
			vertex 0.07940380859375 0.07040380859375 0.23902691650390626
			vertex 0.08151255798339845 0.06899478149414062 0.23902691650390626
		endloop
	endfacet
	facet normal 0 0 -1
		outer loop
			vertex 0.028 0.067 0.23902691650390626
			vertex 0.08151255798339845 0.06899478149414062 0.23902691650390626
			vertex 0.084 0.0685 0.23902691650390626
		endloop
	endfacet
	facet normal 0 0 -1
		outer loop
			vertex 0.028 0.067 0.23902691650390626
			vertex 0.084 0.0685 0.23902691650390626
			vertex 0.093 0.067 0.23902691650390626
		endloop
	endfacet
	facet normal 0 0 -1
		outer loop
			vertex 0.093 0.083 0.23902691650390626
			vertex 0.09000521850585938 0.07748744201660157 0.23902691650390626
			vertex 0.08859619140625 0.07959619140625 0.23902691650390626
		endloop
	endfacet
	facet normal 0 0 -1
		outer loop
			vertex 0.084 0.0815 0.23902691650390626
			vertex 0.093 0.083 0.23902691650390626
			vertex 0.08648744201660157 0.08100521850585937 0.23902691650390626
		endloop
	endfacet
	facet normal 0 0 -1
		outer loop
			vertex 0.08859619140625 0.07959619140625 0.23902691650390626
			vertex 0.08648744201660157 0.08100521850585937 0.23902691650390626
			vertex 0.093 0.083 0.23902691650390626
		endloop
	endfacet
	facet normal 0 0 -1
		outer loop
			vertex 0.093 0.083 0.23902691650390626
			vertex 0.0905 0.075 0.23902691650390626
			vertex 0.09000521850585938 0.07748744201660157 0.23902691650390626
		endloop
	endfacet
	facet normal 0 0 -1
		outer loop
			vertex 0.068 0.083 0.23902691650390626
			vertex 0.07799478149414063 0.07748744201660157 0.23902691650390626
			vertex 0.0775 0.075 0.23902691650390626
		endloop
	endfacet
	facet normal 0 0 -1
		outer loop
			vertex 0.07940380859375 0.07959619140625 0.23902691650390626
			vertex 0.0805 0.083 0.23902691650390626
			vertex 0.08151255798339845 0.08100521850585937 0.23902691650390626
		endloop
	endfacet
	facet normal 0 0 -1
		outer loop
			vertex 0.07940380859375 0.07959619140625 0.23902691650390626
			vertex 0.068 0.083 0.23902691650390626
			vertex 0.0805 0.083 0.23902691650390626
		endloop
	endfacet
	facet normal 0 0 -1
		outer loop
			vertex 0.07799478149414063 0.07748744201660157 0.23902691650390626
			vertex 0.068 0.083 0.23902691650390626
			vertex 0.07940380859375 0.07959619140625 0.23902691650390626
		endloop
	endfacet
	facet normal 0 0 -1
		outer loop
			vertex 0.07799478149414063 0.07251255798339844 0.23902691650390626
			vertex 0.068 0.083 0.23902691650390626
			vertex 0.0775 0.075 0.23902691650390626
		endloop
	endfacet
	facet normal 0 0 -1
		outer loop
			vertex 0.0805 0.083 0.23902691650390626
			vertex 0.084 0.0815 0.23902691650390626
			vertex 0.08151255798339845 0.08100521850585937 0.23902691650390626
		endloop
	endfacet
	facet normal 0 0 -1
		outer loop
			vertex 0.068 0.083 0.23902691650390626
			vertex 0.07799478149414063 0.07251255798339844 0.23902691650390626
			vertex 0.028 0.067 0.23902691650390626
		endloop
	endfacet
	facet normal 0 0 -1
		outer loop
			vertex 0.06426285552978515 0.09895119476318359 0.23902691650390626
			vertex 0.068 0.083 0.23902691650390626
			vertex 0.063 0.09869999694824219 0.23902691650390626
		endloop
	endfacet
	facet normal 0 0 -1
		outer loop
			vertex 0.06426285552978515 0.09895119476318359 0.23902691650390626
			vertex 0.06533345031738282 0.09966654968261719 0.23902691650390626
			vertex 0.068 0.1 0.23902691650390626
		endloop
	endfacet
	facet normal 0 0 -1
		outer loop
			vertex 0.068 0.083 0.23902691650390626
			vertex 0.060666545867919926 0.09966654968261719 0.23902691650390626
			vertex 0.06173714447021485 0.09895119476318359 0.23902691650390626
		endloop
	endfacet
	facet normal 0 0 -1
		outer loop
			vertex 0.06173714447021485 0.09895119476318359 0.23902691650390626
			vertex 0.063 0.09869999694824219 0.23902691650390626
			vertex 0.068 0.083 0.23902691650390626
		endloop
	endfacet
	facet normal 0 0 -1
		outer loop
			vertex 0.028 0.10200000000000001 0.23902691650390626
			vertex 0.060666545867919926 0.09966654968261719 0.23902691650390626
			vertex 0.028 0.067 0.23902691650390626
		endloop
	endfacet
	facet normal 0 0 -1
		outer loop
			vertex 0.068 0.083 0.23902691650390626
			vertex 0.028 0.067 0.23902691650390626
			vertex 0.060666545867919926 0.09966654968261719 0.23902691650390626
		endloop
	endfacet
	facet normal 0 0 -1
		outer loop
			vertex 0.05995119857788086 0.10073714447021484 0.23902691650390626
			vertex 0.060666545867919926 0.09966654968261719 0.23902691650390626
			vertex 0.028 0.10200000000000001 0.23902691650390626
		endloop
	endfacet
	facet normal 0 0 -1
		outer loop
			vertex 0.06426285552978515 0.09895119476318359 0.23902691650390626
			vertex 0.068 0.1 0.23902691650390626
			vertex 0.068 0.083 0.23902691650390626
		endloop
	endfacet
	facet normal 0 0 -1
		outer loop
			vertex 0.063 0.10530000305175781 0.23902691650390626
			vertex 0.068 0.117 0.23902691650390626
			vertex 0.06426285552978515 0.10504880523681641 0.23902691650390626
		endloop
	endfacet
	facet normal 0 0 -1
		outer loop
			vertex 0.068 0.117 0.23902691650390626
			vertex 0.06173714447021485 0.10504880523681641 0.23902691650390626
			vertex 0.060666545867919926 0.10433345031738281 0.23902691650390626
		endloop
	endfacet
	facet normal 0 0 -1
		outer loop
			vertex 0.068 0.117 0.23902691650390626
			vertex 0.0660488052368164 0.10326285552978516 0.23902691650390626
			vertex 0.06533345031738282 0.10433345031738281 0.23902691650390626
		endloop
	endfacet
	facet normal 0 0 -1
		outer loop
			vertex 0.05995119857788086 0.10326285552978516 0.23902691650390626
			vertex 0.05970000076293946 0.10200000000000001 0.23902691650390626
			vertex 0.028 0.10200000000000001 0.23902691650390626
		endloop
	endfacet
	facet normal 0 0 -1
		outer loop
			vertex 0.060666545867919926 0.10433345031738281 0.23902691650390626
			vertex 0.05995119857788086 0.10326285552978516 0.23902691650390626
			vertex 0.035333454132080076 0.12966654968261718 0.23902691650390626
		endloop
	endfacet
	facet normal 0 0 -1
		outer loop
			vertex 0.028 0.10200000000000001 0.23902691650390626
			vertex 0.034262855529785155 0.12895120239257812 0.23902691650390626
			vertex 0.05995119857788086 0.10326285552978516 0.23902691650390626
		endloop
	endfacet
	facet normal 0 0 -1
		outer loop
			vertex 0.028 0.132 0.23902691650390626
			vertex 0.028 0.10200000000000001 0.23902691650390626
			vertex 0.005 0.10200000000000001 0.23902691650390626
		endloop
	endfacet
	facet normal 0 0 -1
		outer loop
			vertex 0.05970000076293946 0.10200000000000001 0.23902691650390626
			vertex 0.05995119857788086 0.10073714447021484 0.23902691650390626
			vertex 0.028 0.10200000000000001 0.23902691650390626
		endloop
	endfacet
	facet normal 0 0 -1
		outer loop
			vertex 0.068 0.117 0.23902691650390626
			vertex 0.063 0.10530000305175781 0.23902691650390626
			vertex 0.06173714447021485 0.10504880523681641 0.23902691650390626
		endloop
	endfacet
	facet normal 0 0 -1
		outer loop
			vertex 0.068 0.117 0.23902691650390626
			vertex 0.068 0.1 0.23902691650390626
			vertex 0.0660488052368164 0.10326285552978516 0.23902691650390626
		endloop
	endfacet
	facet normal 0 0 -1
		outer loop
			vertex 0.06426285552978515 0.10504880523681641 0.23902691650390626
			vertex 0.068 0.117 0.23902691650390626
			vertex 0.06533345031738282 0.10433345031738281 0.23902691650390626
		endloop
	endfacet
	facet normal 0 0 -1
		outer loop
			vertex 0.08151255798339845 0.15299478149414064 0.23902691650390626
			vertex 0.0805 0.151 0.23902691650390626
			vertex 0.07940380859375 0.15440380859375 0.23902691650390626
		endloop
	endfacet
	facet normal 0 0 -1
		outer loop
			vertex 0.084 0.1525 0.23902691650390626
			vertex 0.08648744201660157 0.15299478149414064 0.23902691650390626
			vertex 0.093 0.151 0.23902691650390626
		endloop
	endfacet
	facet normal 0 0 -1
		outer loop
			vertex 0.08859619140625 0.15440380859375 0.23902691650390626
			vertex 0.093 0.151 0.23902691650390626
			vertex 0.08648744201660157 0.15299478149414064 0.23902691650390626
		endloop
	endfacet
	facet normal 0 0 -1
		outer loop
			vertex 0.093 0.151 0.23902691650390626
			vertex 0.08859619140625 0.15440380859375 0.23902691650390626
			vertex 0.09000521850585938 0.15651255798339844 0.23902691650390626
		endloop
	endfacet
	facet normal 0 0 -1
		outer loop
			vertex 0.09000521850585938 0.15651255798339844 0.23902691650390626
			vertex 0.0905 0.159 0.23902691650390626
			vertex 0.093 0.151 0.23902691650390626
		endloop
	endfacet
	facet normal 0 0 -1
		outer loop
			vertex 0.0660488052368164 0.10326285552978516 0.23902691650390626
			vertex 0.068 0.1 0.23902691650390626
			vertex 0.06630000305175782 0.10200000000000001 0.23902691650390626
		endloop
	endfacet
	facet normal 0 0 -1
		outer loop
			vertex 0.0805 0.151 0.23902691650390626
			vertex 0.08151255798339845 0.15299478149414064 0.23902691650390626
			vertex 0.084 0.1525 0.23902691650390626
		endloop
	endfacet
	facet normal 0 0 -1
		outer loop
			vertex 0.068 0.151 0.23902691650390626
			vertex 0.07799478149414063 0.15651255798339844 0.23902691650390626
			vertex 0.07940380859375 0.15440380859375 0.23902691650390626
		endloop
	endfacet
	facet normal 0 0 -1
		outer loop
			vertex 0.0805 0.151 0.23902691650390626
			vertex 0.068 0.151 0.23902691650390626
			vertex 0.07940380859375 0.15440380859375 0.23902691650390626
		endloop
	endfacet
	facet normal 0 0 -1
		outer loop
			vertex 0.0775 0.159 0.23902691650390626
			vertex 0.07799478149414063 0.15651255798339844 0.23902691650390626
			vertex 0.068 0.151 0.23902691650390626
		endloop
	endfacet
	facet normal 0 0 -1
		outer loop
			vertex 0.068 0.117 0.23902691650390626
			vertex 0.036048801422119144 0.13073715209960937 0.23902691650390626
			vertex 0.036299999237060544 0.132 0.23902691650390626
		endloop
	endfacet
	facet normal 0 0 -1
		outer loop
			vertex 0.093 0.167 0.23902691650390626
			vertex 0.0905 0.159 0.23902691650390626
			vertex 0.09000521850585938 0.16148744201660156 0.23902691650390626
		endloop
	endfacet
	facet normal 0 0 -1
		outer loop
			vertex 0.08648744201660157 0.1650052185058594 0.23902691650390626
			vertex 0.093 0.167 0.23902691650390626
			vertex 0.08859619140625 0.16359619140625 0.23902691650390626
		endloop
	endfacet
	facet normal 0 0 -1
		outer loop
			vertex 0.09000521850585938 0.16148744201660156 0.23902691650390626
			vertex 0.08859619140625 0.16359619140625 0.23902691650390626
			vertex 0.093 0.167 0.23902691650390626
		endloop
	endfacet
	facet normal 0 0 -1
		outer loop
			vertex 0.084 0.1655 0.23902691650390626
			vertex 0.093 0.167 0.23902691650390626
			vertex 0.08648744201660157 0.1650052185058594 0.23902691650390626
		endloop
	endfacet
	facet normal 0 0 -1
		outer loop
			vertex 0.093 0.167 0.23902691650390626
			vertex 0.093 0.151 0.23902691650390626
			vertex 0.0905 0.159 0.23902691650390626
		endloop
	endfacet
	facet normal 0 0 -1
		outer loop
			vertex 0.068 0.151 0.23902691650390626
			vertex 0.07799478149414063 0.16148744201660156 0.23902691650390626
			vertex 0.0775 0.159 0.23902691650390626
		endloop
	endfacet
	facet normal 0 0 -1
		outer loop
			vertex 0.028 0.167 0.23902691650390626
			vertex 0.084 0.1655 0.23902691650390626
			vertex 0.08151255798339845 0.1650052185058594 0.23902691650390626
		endloop
	endfacet
	facet normal 0 0 -1
		outer loop
			vertex 0.028 0.167 0.23902691650390626
			vertex 0.08151255798339845 0.1650052185058594 0.23902691650390626
			vertex 0.07940380859375 0.16359619140625 0.23902691650390626
		endloop
	endfacet
	facet normal 0 0 -1
		outer loop
			vertex 0.028 0.167 0.23902691650390626
			vertex 0.07799478149414063 0.16148744201660156 0.23902691650390626
			vertex 0.068 0.151 0.23902691650390626
		endloop
	endfacet
	facet normal 0 0 -1
		outer loop
			vertex 0.084 0.1655 0.23902691650390626
			vertex 0.028 0.167 0.23902691650390626
			vertex 0.093 0.167 0.23902691650390626
		endloop
	endfacet
	facet normal 0 0 -1
		outer loop
			vertex 0.07940380859375 0.16359619140625 0.23902691650390626
			vertex 0.07799478149414063 0.16148744201660156 0.23902691650390626
			vertex 0.028 0.167 0.23902691650390626
		endloop
	endfacet
	facet normal 0 0 -1
		outer loop
			vertex 0.028 0.10200000000000001 0.23902691650390626
			vertex 0.033 0.1286999969482422 0.23902691650390626
			vertex 0.034262855529785155 0.12895120239257812 0.23902691650390626
		endloop
	endfacet
	facet normal 0 0 -1
		outer loop
			vertex 0.036048801422119144 0.13073715209960937 0.23902691650390626
			vertex 0.060666545867919926 0.10433345031738281 0.23902691650390626
			vertex 0.035333454132080076 0.12966654968261718 0.23902691650390626
		endloop
	endfacet
	facet normal 0 0 -1
		outer loop
			vertex 0.034262855529785155 0.12895120239257812 0.23902691650390626
			vertex 0.035333454132080076 0.12966654968261718 0.23902691650390626
			vertex 0.05995119857788086 0.10326285552978516 0.23902691650390626
		endloop
	endfacet
	facet normal 0 0 -1
		outer loop
			vertex 0.030666547775268557 0.12966654968261718 0.23902691650390626
			vertex 0.028 0.10200000000000001 0.23902691650390626
			vertex 0.028 0.132 0.23902691650390626
		endloop
	endfacet
	facet normal 0 0 -1
		outer loop
			vertex 0.028 0.132 0.23902691650390626
			vertex 0.005 0.10200000000000001 0.23902691650390626
			vertex 0.005 0.132 0.23902691650390626
		endloop
	endfacet
	facet normal 0 0 -1
		outer loop
			vertex 0.029951196670532226 0.13073715209960937 0.23902691650390626
			vertex 0.028 0.132 0.23902691650390626
			vertex 0.029700000762939455 0.132 0.23902691650390626
		endloop
	endfacet
	facet normal 0 0 -1
		outer loop
			vertex 0.029951196670532226 0.13073715209960937 0.23902691650390626
			vertex 0.030666547775268557 0.12966654968261718 0.23902691650390626
			vertex 0.028 0.132 0.23902691650390626
		endloop
	endfacet
	facet normal 0 0 -1
		outer loop
			vertex 0.030666547775268557 0.12966654968261718 0.23902691650390626
			vertex 0.03173714447021484 0.12895120239257812 0.23902691650390626
			vertex 0.028 0.10200000000000001 0.23902691650390626
		endloop
	endfacet
	facet normal 0 0 -1
		outer loop
			vertex 0.033 0.1286999969482422 0.23902691650390626
			vertex 0.028 0.10200000000000001 0.23902691650390626
			vertex 0.03173714447021484 0.12895120239257812 0.23902691650390626
		endloop
	endfacet
	facet normal 0 0 -1
		outer loop
			vertex 0.068 0.151 0.23902691650390626
			vertex 0.036299999237060544 0.132 0.23902691650390626
			vertex 0.036048801422119144 0.13326284790039064 0.23902691650390626
		endloop
	endfacet
	facet normal 0 0 -1
		outer loop
			vertex 0.028 0.167 0.23902691650390626
			vertex 0.035333454132080076 0.1343334503173828 0.23902691650390626
			vertex 0.034262855529785155 0.1350487976074219 0.23902691650390626
		endloop
	endfacet
	facet normal 0 0 -1
		outer loop
			vertex 0.028 0.167 0.23902691650390626
			vertex 0.034262855529785155 0.1350487976074219 0.23902691650390626
			vertex 0.033 0.13530000305175782 0.23902691650390626
		endloop
	endfacet
	facet normal 0 0 -1
		outer loop
			vertex 0.036048801422119144 0.13326284790039064 0.23902691650390626
			vertex 0.035333454132080076 0.1343334503173828 0.23902691650390626
			vertex 0.068 0.151 0.23902691650390626
		endloop
	endfacet
	facet normal 0 0 -1
		outer loop
			vertex 0.029951196670532226 0.13326284790039064 0.23902691650390626
			vertex 0.028 0.132 0.23902691650390626
			vertex 0.030666547775268557 0.1343334503173828 0.23902691650390626
		endloop
	endfacet
	facet normal 0 0 -1
		outer loop
			vertex 0.028 0.167 0.23902691650390626
			vertex 0.03173714447021484 0.1350487976074219 0.23902691650390626
			vertex 0.030666547775268557 0.1343334503173828 0.23902691650390626
		endloop
	endfacet
	facet normal 0 0 -1
		outer loop
			vertex 0.033 0.13530000305175782 0.23902691650390626
			vertex 0.03173714447021484 0.1350487976074219 0.23902691650390626
			vertex 0.028 0.167 0.23902691650390626
		endloop
	endfacet
	facet normal 0 0 -1
		outer loop
			vertex 0.030666547775268557 0.1343334503173828 0.23902691650390626
			vertex 0.028 0.132 0.23902691650390626
			vertex 0.028 0.167 0.23902691650390626
		endloop
	endfacet
	facet normal 0 0 -1
		outer loop
			vertex 0.029700000762939455 0.132 0.23902691650390626
			vertex 0.028 0.132 0.23902691650390626
			vertex 0.029951196670532226 0.13326284790039064 0.23902691650390626
		endloop
	endfacet
	facet normal 0 0 -1
		outer loop
			vertex 0.035333454132080076 0.1343334503173828 0.23902691650390626
			vertex 0.028 0.167 0.23902691650390626
			vertex 0.068 0.151 0.23902691650390626
		endloop
	endfacet
	facet normal 0 0 -1
		outer loop
			vertex 0.068 0.117 0.23902691650390626
			vertex 0.060666545867919926 0.10433345031738281 0.23902691650390626
			vertex 0.036048801422119144 0.13073715209960937 0.23902691650390626
		endloop
	endfacet
	facet normal 0 0 -1
		outer loop
			vertex 0.068 0.117 0.23902691650390626
			vertex 0.036299999237060544 0.132 0.23902691650390626
			vertex 0.068 0.151 0.23902691650390626
		endloop
	endfacet
	facet normal 0 0 -1
		outer loop
			vertex 0.068 0.1 0.23902691650390626
			vertex 0.0660488052368164 0.10073714447021484 0.23902691650390626
			vertex 0.06630000305175782 0.10200000000000001 0.23902691650390626
		endloop
	endfacet
	facet normal 0 0 -1
		outer loop
			vertex 0.093 0.151 0.23902691650390626
			vertex 0.0805 0.151 0.23902691650390626
			vertex 0.084 0.1525 0.23902691650390626
		endloop
	endfacet
	facet normal 0 0 -1
		outer loop
			vertex 0.068 0.1 0.23902691650390626
			vertex 0.06533345031738282 0.09966654968261719 0.23902691650390626
			vertex 0.0660488052368164 0.10073714447021484 0.23902691650390626
		endloop
	endfacet
	facet normal 0 0 -1
		outer loop
			vertex 0.084 0.0815 0.23902691650390626
			vertex 0.0805 0.083 0.23902691650390626
			vertex 0.093 0.083 0.23902691650390626
		endloop
	endfacet
endsolid exported
